/* XPM */
static char * 0_xpm[] = {
"50 50 2 1",
" 	c #000000",
".	c #1B10FF",
"                                                  ",
"                                                  ",
"                                                  ",
"                                                  ",
"                                                  ",
"     ........................................     ",
"     ........................................     ",
"     ........................................     ",
"     ........................................     ",
"     ........................................     ",
"     ........................................     ",
"     ........................................     ",
"     ........................................     ",
"     ........................................     ",
"     ........................................     ",
"     ........................................     ",
"     ........................................     ",
"     ........................................     ",
"     ........................................     ",
"     ........................................     ",
"     ........................................     ",
"     ........................................     ",
"     ........................................     ",
"     ........................................     ",
"     ........................................     ",
"     ........................................     ",
"     ........................................     ",
"     ........................................     ",
"     ........................................     ",
"     ........................................     ",
"     ........................................     ",
"     ........................................     ",
"     ........................................     ",
"     ........................................     ",
"     ........................................     ",
"     ........................................     ",
"     ........................................     ",
"     ........................................     ",
"     ........................................     ",
"     ........................................     ",
"     ........................................     ",
"     ........................................     ",
"     ........................................     ",
"     ........................................     ",
"     ........................................     ",
"                                                  ",
"                                                  ",
"                                                  ",
"                                                  ",
"                                                  "};
