/* XPM */
static char * 1_xpm[] = {
"50 50 8 1",
" 	c None",
".	c #000000",
"+	c #1B10FF",
"@	c #170EDC",
"#	c #0F098B",
"$	c #06043C",
"%	c #01010C",
"&	c #120BAB",
"..................................................",
"..................................................",
"..................................................",
"..................................................",
"..................................................",
".....++++++++++++++++++++++++++++++++++++++++.....",
".....++++++++++++++++++++++++++++++++++++++++.....",
".....++++++++++++++++++++++++++++++++++++++++.....",
".....++++++++++++++++++++++++++++++++++++++++.....",
".....++++++++++++++++++++++++++++++++++++++++.....",
".....++++++++++++++++++++++++++++++++++++++++.....",
".....++++++++++++++++++++++++++++++++++++++++.....",
".....++++++++++++++++++++++++++++++++++++++++.....",
".....++++++++++++++++++++++++++++++++++++++++.....",
".....++++++++++++++++++++++++++++++++++++++++.....",
".....++++++++++++++++@#$%%$#@++++++++++++++++.....",
".....++++++++++++++@$........$@++++++++++++++.....",
".....+++++++++++++&............&+++++++++++++.....",
".....++++++++++++&..............&++++++++++++.....",
".....+++++++++++@................@+++++++++++.....",
".....+++++++++++$................$+++++++++++.....",
".....++++++++++@..................@++++++++++.....",
".....++++++++++#..................#++++++++++.....",
".....++++++++++$..................$++++++++++.....",
".....++++++++++%..................%++++++++++.....",
".....++++++++++%..................%++++++++++.....",
".....++++++++++$..................$++++++++++.....",
".....++++++++++#..................#++++++++++.....",
".....++++++++++@..................@++++++++++.....",
".....+++++++++++$................$+++++++++++.....",
".....+++++++++++@................@+++++++++++.....",
".....++++++++++++&..............&++++++++++++.....",
".....+++++++++++++&............&+++++++++++++.....",
".....++++++++++++++@$........$@++++++++++++++.....",
".....++++++++++++++++@#$%%$#@++++++++++++++++.....",
".....++++++++++++++++++++++++++++++++++++++++.....",
".....++++++++++++++++++++++++++++++++++++++++.....",
".....++++++++++++++++++++++++++++++++++++++++.....",
".....++++++++++++++++++++++++++++++++++++++++.....",
".....++++++++++++++++++++++++++++++++++++++++.....",
".....++++++++++++++++++++++++++++++++++++++++.....",
".....++++++++++++++++++++++++++++++++++++++++.....",
".....++++++++++++++++++++++++++++++++++++++++.....",
".....++++++++++++++++++++++++++++++++++++++++.....",
".....++++++++++++++++++++++++++++++++++++++++.....",
"..................................................",
"..................................................",
"..................................................",
"..................................................",
".................................................."};
