/* XPM */
static char * 2_xpm[] = {
"50 50 238 2",
"  	c None",
". 	c #000000",
"+ 	c #1B10FF",
"@ 	c #C52C4E",
"# 	c #E83129",
"$ 	c #DA2F37",
"% 	c #BA2A59",
"& 	c #D42E3D",
"* 	c #EF3321",
"= 	c #EE3223",
"- 	c #1C11FF",
"; 	c #842191",
"> 	c #4417D4",
", 	c #E93227",
"' 	c #E3312E",
") 	c #99257B",
"! 	c #CD2D45",
"~ 	c #B92A59",
"{ 	c #E83229",
"] 	c #2016EE",
"^ 	c #2D26C4",
"/ 	c #3B3795",
"( 	c #48466B",
"_ 	c #F0331F",
": 	c #EF3420",
"< 	c #B93938",
"[ 	c #DC3230",
"} 	c #F03320",
"| 	c #CC2D46",
"1 	c #EB3225",
"2 	c #1B10FE",
"3 	c #2921D1",
"4 	c #47456D",
"5 	c #F1331F",
"6 	c #D4362C",
"7 	c #8B2A7A",
"8 	c #A02673",
"9 	c #E5312B",
"0 	c #BC2C53",
"a 	c #68425E",
"b 	c #C62E48",
"c 	c #D42E3E",
"d 	c #D0313B",
"e 	c #EE3420",
"f 	c #754945",
"g 	c #A54136",
"h 	c #D13929",
"i 	c #EB3421",
"j 	c #EF331F",
"k 	c #BE304A",
"l 	c #E53522",
"m 	c #92443C",
"n 	c #EE331F",
"o 	c #D72E1D",
"p 	c #8C1810",
"q 	c #4B0606",
"r 	c #4C1414",
"s 	c #4E2A2A",
"t 	c #8F2F6C",
"u 	c #E4322A",
"v 	c #DA3726",
"w 	c #9C372D",
"x 	c #4B0707",
"y 	c #621804",
"z 	c #DA3919",
"A 	c #EA411A",
"B 	c #EC7E0E",
"C 	c #EB9709",
"D 	c #CB7A08",
"E 	c #974A06",
"F 	c #6F3935",
"G 	c #E93421",
"H 	c #694C49",
"I 	c #CE2F41",
"J 	c #E53523",
"K 	c #E8321F",
"L 	c #EC3C1C",
"M 	c #F3940B",
"N 	c #F26415",
"O 	c #F26A14",
"P 	c #F39E09",
"Q 	c #F27412",
"R 	c #E54918",
"S 	c #ED321E",
"T 	c #CB3A2B",
"U 	c #882684",
"V 	c #AC4034",
"W 	c #F13A1E",
"X 	c #F1341F",
"Y 	c #D43418",
"Z 	c #CF2D1D",
"` 	c #DF3527",
" .	c #A44136",
"..	c #CF2F1F",
"+.	c #CF3417",
"@.	c #F2810F",
"#.	c #F3491E",
"$.	c #F4571E",
"%.	c #FEE01A",
"&.	c #FBB31C",
"*.	c #F56E1D",
"=.	c #EB331E",
"-.	c #9D2920",
";.	c #E43523",
">.	c #BD2E4D",
",.	c #F24F19",
"'.	c #F1381F",
").	c #F4591E",
"!.	c #F2471E",
"~.	c #FFEC1A",
"{.	c #F5631E",
"].	c #F23F1F",
"^.	c #C42C4E",
"/.	c #714A46",
"(.	c #F2431F",
"_.	c #F1361F",
":.	c #F1351F",
"<.	c #DE5713",
"[.	c #C62819",
"}.	c #1E14FA",
"|.	c #9C4239",
"1.	c #F23C1F",
"2.	c #FAAB1C",
"3.	c #F34C1E",
"4.	c #F23D1F",
"5.	c #F1371F",
"6.	c #F2431E",
"7.	c #F8911C",
"8.	c #F23E1F",
"9.	c #CC2C18",
"0.	c #C63B2C",
"a.	c #C73B2C",
"b.	c #F7811D",
"c.	c #F7901C",
"d.	c #575109",
"e.	c #F4581E",
"f.	c #F88D1D",
"g.	c #F3531E",
"h.	c #E93324",
"i.	c #E33623",
"j.	c #FCC81B",
"k.	c #C56217",
"l.	c #E4301D",
"m.	c #EE321F",
"n.	c #9B8F10",
"o.	c #F6801D",
"p.	c #F2421F",
"q.	c #F1491A",
"r.	c #D73827",
"s.	c #EA3521",
"t.	c #C53833",
"u.	c #4E4E55",
"v.	c #EE3320",
"w.	c #FFE81A",
"x.	c #903112",
"y.	c #BE2818",
"z.	c #332F05",
"A.	c #F9A31C",
"B.	c #9F413A",
"C.	c #060601",
"D.	c #7A1C10",
"E.	c #F9A01C",
"F.	c #F2391F",
"G.	c #F34A1E",
"H.	c #CB3438",
"I.	c #F23B1F",
"J.	c #FCE91A",
"K.	c #7D1D09",
"L.	c #8A463F",
"M.	c #A02E63",
"N.	c #EE3322",
"O.	c #544F4F",
"P.	c #F3561E",
"Q.	c #F3521E",
"R.	c #CE2A1A",
"S.	c #E03624",
"T.	c #862489",
"U.	c #F6741D",
"V.	c #FCBF1B",
"W.	c #F3890D",
"X.	c #D32D19",
"Y.	c #4F24AF",
"Z.	c #B83D30",
"`.	c #4D2020",
" +	c #823605",
".+	c #D6301F",
"++	c #D83826",
"@+	c #EF3320",
"#+	c #C52C4D",
"$+	c #B03A3D",
"%+	c #AB4034",
"&+	c #834741",
"*+	c #F25F16",
"=+	c #E3331C",
"-+	c #852190",
";+	c #E83228",
">+	c #ED3420",
",+	c #B23E32",
"'+	c #F3840E",
")+	c #EC321E",
"!+	c #EC3421",
"~+	c #C83B2C",
"{+	c #2319E6",
"]+	c #661CB1",
"^+	c #E3322B",
"/+	c #E93522",
"(+	c #CF3525",
"_+	c #85160F",
":+	c #A8460B",
"<+	c #EB3E1B",
"[+	c #EC341E",
"}+	c #A82511",
"|+	c #9C1D13",
"1+	c #CF313B",
"2+	c #CA3A2B",
"3+	c #CF3121",
"4+	c #E83320",
"5+	c #EC3224",
"6+	c #8D2C73",
"7+	c #E83522",
"8+	c #B43E32",
"9+	c #8D453E",
"0+	c #B03F33",
"a+	c #E2312F",
"b+	c #AC2A61",
"c+	c #E23526",
"d+	c #DE3625",
"e+	c #C23B2E",
"f+	c #644C4A",
"g+	c #CE372F",
"h+	c #EB3224",
"i+	c #764944",
"j+	c #701EA6",
"k+	c #D02E41",
"l+	c #68425C",
"m+	c #DB3726",
"n+	c #94355B",
"o+	c #D62F3B",
". . . . . . . . . . . . . . . . . . . . . . . . . . . . . . . . . . . . . . . . . . . . . . . . . . ",
". . . . . . . . . . . . . . . . . . . . . . . . . . . . . . . . . . . . . . . . . . . . . . . . . . ",
". . . . . . . . . . . . . . . . . . . . . . . . . . . . . . . . . . . . . . . . . . . . . . . . . . ",
". . . . . . . . . . . . . . . . . . . . . . . . . . . . . . . . . . . . . . . . . . . . . . . . . . ",
". . . . . . . . . . . . . . . . . . . . . . . . . . . . . . . . . . . . . . . . . . . . . . . . . . ",
". . . . . + + + + + + + + + + + + + + + + + + @ + + + + + + + + + + + + + + + + + + + + + . . . . . ",
". . . . . + + + + + + + + + + + + + + + + + + # $ + + + + + + + + + + + + + + + + + + + + . . . . . ",
". . . . . + + + + + + + + + + + + + + + + + + % & * = % + + - + + + + + + + + + + + + + + . . . . . ",
". . . . . + + + + + + + ; + + + + + + + + + + > @ * ; , ' + + - + + + + + + + + + + + + + . . . . . ",
". . . . . + + + + + + + ) ! + + + + + + + + + + ; ~ { @ * @ + + + + + + + + + + + + + + + . . . . . ",
". . . . . + + + + + + + + ! @ > + + + + ] ^ / ( _ : < / [ } $ + + + + + + + + + + + + + + . . . . . ",
". . . . . + + + + + + + + | 1 @ + 2 3 4 5 5 5 5 5 5 5 5 5 5 6 7 2 + + + + + + + + + + + + . . . . . ",
". . . . . + + + + + ; + + 8 } 9 0 4 5 5 5 5 5 5 5 5 5 5 5 5 5 5 a b % + + + + + + + + + + . . . . . ",
". . . . . + + + + + ) c + ; $ d e 5 5 5 5 f g h i i h g f 5 5 5 5 j k + + + + + + + + + + . . . . . ",
". . . . . + + + + + + , 9 ; * l 5 5 5 m 5 5 n o p q r s 5 5 m 5 5 5 5 t + + + + + + + + + . . . . . ",
". . . . . + + + = * * $ # u e 5 5 v 5 w x y z A B C D E y x F G H 5 5 5 5 + + + + + + + + . . . . . ",
". . . . . + + + + ; ; ) I J 5 5 5 5 K _ L M N O 5 5 P P Q R S _ 5 f 5 5 T U + + + + + + + . . . . . ",
". . . . . + + + + + + 2 4 5 5 V 5 j _ 5 W 5 5 5 5 5 5 5 5 5 X Y Z 5 H 5 5 ` ; ; + + + + + . . . . . ",
". . . . . + + + + + + 3  .5 5 G ..+.@.5 5 X X #.$.%.&.*.X 5 5 O =.-.G 5 5 ;.>.% + + + + + . . . . . ",
". . . . . + + + + + + 4 5 5 m F y ,.5 5 '.).!.~.~.~.~.{.].#.5 5 P y F m 5 5 5 ^.+ + + + + . . . . . ",
". . . . . + + + + + ] /.5 5 5 x D O 5 {.!.(.X _.~.~.!.:.5 5 X 5 P <.[.5 5 5 5 5 * ; + - }.. . . . . ",
". . . . . + + + + + ^ |.5 f 5 y P 5 1.~.2.3.X !.~.4.5 5 5.6.7.8.5 O 9.5 f 5 0.} ! $ $ @ + . . . . . ",
". . . . . + + + + + / a.5 g s E P 5 b.~.).).4.c.d._ _.e.f.7.7.g.5 X E s g 5 5 h.! > ) > + . . . . . ",
". . . . . + + + + + ( i.5 h r D P 5 j.~.~.~.~.k.l.m.n.o.p.~.~.(.5 q.D r r.5 s.t.% + + + + . . . . . ",
". . . . . + + + + + u.v.5 i q C 5 5 w.~.~.~.~.x.y.. z.A.f.~.~.w.5 5 C q i 5 v.B.; + + + + . . . . . ",
". . . . . + + + + + u.i.5 i q C 5 5 j.~.~.~.~.C.. . D.7.).~.~.j.5 5 C q i 5 i.u.= + + + + . . . . . ",
". . . . . + + + + + ( a.5 h r D P 5 b.A.A.7.j.z.. . z.:.E.~.~.b.5 P D r h 5 a.( @ > + + + . . . . . ",
". . . . . + + + + + / |.5 g s E P 5 F.5.X {.).n.. . n.G.5 {.{.8.5 P E s g 5 |.H.% ; + + + . . . . . ",
". . . . . + + + + + ^ /.5 f 5 y P 5 5 5 I.{.7.J.d.d.J.~.~.X 5 5 5 O K.5 f 5 L.M.N.! + + + . . . . . ",
". . . . . + + + + + ] O.5 5 5 x D P 5 5 P.4.).!.Q.~.~.~.~.P.5 5 5 <.R.5 5 5 S.T.) > + + + . . . . . ",
". . . . . + + + + + + 4  .5 m F y P 5 5 5 5 ].U.V.%.&.*.'.5 5 5 W.X.F m 5 e _ = + + + + + . . . . . ",
". . . . . + + + + + + Y.Z.5 5 G `. +P 5 5 5 5 5 5 5 5 5 5 5 5 X Y .+5 5 5 ++@++ + + + + + . . . . . ",
". . . . . + + + + + @ #+$+%+5 &+5 r  +P P 5 5 5 5 5 5 5 5 O *+=+_ 5 5 5 5 5 # $ * ; + + + . . . . . ",
". . . . . + + + + -+) ; ;+>+5 5 ,+5 `.y D P P P 5 5 '+W.P <.)+5 5 5 5 !+~+{+]+) ; ; + + + . . . . . ",
". . . . . + + + + ; % * # ^+/+@+5 _ 5 (+_+K.:+D C B <+[+}+|+5 5 >+5 5 >+1+@ * + + + + + + . . . . . ",
". . . . . + + + } & @ ; @ # } 2+5 5 5 _ 5 5 3+r q _ m.4+5 5 J 5 5 ++h } 5 } 5+$ + + + + + . . . . . ",
". . . . . + + + ! # } N.} # > 6+5 7+5 5 5 h g h i !+!+8+9+5 5 5 7+0+^ + 9 } % ; + + + + + . . . . . ",
". . . . . + + + # ^.; a+, @ > * b+c+d+e+5 5 5 5 5 5 5 5 5 5 _ f+g+h++ + + ) ; ; + + + + + . . . . . ",
". . . . . + + $ # ; + $ ! % 9 ; $ 9 >.4 r.5 5 v e e i >+J i+4 7 * % % + + + + + + + + + + . . . . . ",
". . . . . + + > + j+k+9 $ % % % ; ; $ } ;+k H.l+m+m+t.n+d * @ $ 9 ; ; + + + + + + + + + + . . . . . ",
". . . . . + + + + o+* ; + + ; % = ; ) 5 ! + + $ 9 & = @ @ @ > > ) ; + + + + + + + + + + + . . . . . ",
". . . . . + + + * * + + + + ; ; + + + = 5 ; + > > % + > > + + + + + + + + + + + + + + + + . . . . . ",
". . . . . + + + + + + + + + + + + + + + ^.% + + + + + + + + + + + + + + + + + + + + + + + . . . . . ",
". . . . . + + + + + + + + + + + + + + + + + + + + + + + + + + + + + + + + + + + + + + + + . . . . . ",
". . . . . + + + + + + + + + + + + + + + + + + + + + + + + + + + + + + + + + + + + + + + + . . . . . ",
". . . . . . . . . . . . . . . . . . . . . . . . . . . . . . . . . . . . . . . . . . . . . . . . . . ",
". . . . . . . . . . . . . . . . . . . . . . . . . . . . . . . . . . . . . . . . . . . . . . . . . . ",
". . . . . . . . . . . . . . . . . . . . . . . . . . . . . . . . . . . . . . . . . . . . . . . . . . ",
". . . . . . . . . . . . . . . . . . . . . . . . . . . . . . . . . . . . . . . . . . . . . . . . . . ",
". . . . . . . . . . . . . . . . . . . . . . . . . . . . . . . . . . . . . . . . . . . . . . . . . . "};
