/* XPM */
static char * 4_xpm[] = {
"50 50 33 1",
" 	c None",
".	c #000000",
"+	c #1B10FF",
"@	c #2016EE",
"#	c #2D26C4",
"$	c #3B3795",
"%	c #48466B",
"&	c #4E4E55",
"*	c #1B10FE",
"=	c #2921D1",
"-	c #47456D",
";	c #505050",
">	c #2319E6",
",	c #312BB6",
"'	c #4F4242",
")	c #4E2A2A",
"!	c #4C1414",
"~	c #4B0606",
"{	c #4F3B3B",
"]	c #4B0707",
"^	c #4B0303",
"/	c #504E4E",
"(	c #4D2020",
"_	c #4C030E",
":	c #4F0436",
"<	c #520561",
"[	c #55067C",
"}	c #4B0307",
"|	c #51054A",
"1	c #550682",
"2	c #54067B",
"3	c #303030",
"4	c #1C11FF",
"..................................................",
"..................................................",
"..................................................",
"..................................................",
"..................................................",
".....++++++++++++++++++++++++++++++++++++++++.....",
".....++++++++++++++++++++++++++++++++++++++++.....",
".....++++++++++++++++++++++++++++++++++++++++.....",
".....++++++++++++++++++++++++++++++++++++++++.....",
".....++++++++++++++++++++++++++++++++++++++++.....",
".....+++++++++++++++@#$%&&%$#@+++++++++++++++.....",
".....++++++++++++*=-;;;;;;;;;;-=*++++++++++++.....",
".....+++++++++++>-;;;;;;;;;;;;;;->+++++++++++.....",
".....++++++++++#;;;;;;;;;;;;;;;;;;#++++++++++.....",
".....+++++++++,;;;;;;')!~~!)';;;;;;,+++++++++.....",
".....++++++++#;;;;;{]^^^^^^^^]{;;;;;#++++++++.....",
".....+++++++>;;;;/(^^_:<[[<:_^^(/;;;;>+++++++.....",
".....++++++*-;;;/!^}|11111111|}^!/;;;-*++++++.....",
".....++++++=;;;;(^_211333333112_^(;;;;=++++++.....",
".....++++++-;;;{^}21113333331112}^{;;;-++++++.....",
".....+++++@;;;;]^|11113333331111|^];;;;@+++++.....",
".....+++++#;;;'^_1111133333311111_^';;;#+++++.....",
".....+++++$;;;)^:1111133333311111:^);;;$+++++.....",
".....+++++%;;;!^<1333333333333331<^!;;;%+++++.....",
".....+++++&;;;~^[1333333333333331[^~;;;&+++++.....",
".....+++++&;;;~^[1333333333333331[^~;;;&+++++.....",
".....+++++%;;;!^<1333333333333331<^!;;;%+++++.....",
".....+++++$;;;)^:1111133333311111:^);;;$+++++.....",
".....+++++#;;;'^_1111133333311111_^';;;#+++++.....",
".....+++++@;;;;]^|11113333331111|^];;;;@+++++.....",
".....++++++-;;;{^}21113333331112}^{;;;-++++++.....",
".....++++++=;;;;(^_211333333112_^(;;;;=++++++.....",
".....++++++*-;;;/!^}|11111111|}^!/;;;-*++++++.....",
".....+++++++>;;;;/(^^_:<[[<:_^^(/;;;;>+++++++.....",
".....++++++++#;;;;;{]^^^^^^^^]{;;;;;#++++++++.....",
".....+++++++++,;;;;;;')!~~!)';;;;;;,+++++++++.....",
".....++++++++4+#;;;;;;;;;;;;;;;;;;#++++++++++.....",
".....+++++++++++>-;;;;;;;;;;;;;;->+++++++++++.....",
".....++++++++++++*=-;;;;;;;;;;-=*++++++++++++.....",
".....+++++++++++++++@#$%&&%$#@+++++++++++++++.....",
".....++++++++++++++++++++++++++++++++++++++++.....",
".....+++++++++++++4++++++++++++++++++++++++++.....",
".....++++++++++++++4+++++++++++++++++++++++++.....",
".....++++++++++++++++++++++++++++++++++++++++.....",
".....++++++++++++++++++++++++++++++++++++++++.....",
"..................................................",
"..................................................",
"..................................................",
"..................................................",
".................................................."};
