/* XPM */
static char * 5_xpm[] = {
"50 50 38 1",
" 	c None",
".	c #000000",
"+	c #4E4E54",
"@	c #808085",
"#	c #4D4D53",
"$	c #808084",
"%	c #1B10FF",
"&	c #8A8A8E",
"*	c #828286",
"=	c #6B6B6C",
"-	c #767676",
";	c #716969",
">	c #4B0303",
",	c #5D3333",
"'	c #4C0707",
")	c #5C3131",
"!	c #3F0606",
"~	c #290202",
"{	c #150101",
"]	c #060000",
"^	c #010000",
"/	c #2A0404",
"(	c #3E0202",
"_	c #360202",
":	c #020000",
"<	c #360505",
"[	c #210101",
"}	c #220303",
"|	c #310202",
"1	c #310505",
"2	c #0B0101",
"3	c #0B0000",
"4	c #634343",
"5	c #654A4A",
"6	c #6F6464",
"7	c #5A2A2A",
"8	c #3E4F4B",
"9	c #374642",
"..................................................",
"..................................................",
"..................................................",
".....................++++++++.....................",
"....................@#+++++++$....................",
".....%%%%%%%%%%%%%%&++#+++++++*%%%%%%%%%%%%%%.....",
".....%%%%%%%%%%%%%&++++#+++++++&%%%%%%%%%%%%%.....",
".....%%%%%%%%%%%%*++++++#+++++++&%%%%%%%%%%%%.....",
".....%%%%%%%%%%%&+++++++==+++++++*%%%%%%%%%%%.....",
".....%%%%%%%%%%&+++++++=--=+++++++&%%%%%%%%%%.....",
".....%%%%%%%%%&+++++++=----=+++++++*%%%%%%%%%.....",
".....%%%%%%%%&+++++++=------=+++++++&%%%%%%%%.....",
".....%%%%%%%*+++++++=--------=+++++++&%%%%%%%.....",
".....%%%%%%&+++++++=--;>>>>;--=+++++++*%%%%%%.....",
".....%%%%%&+++++++=--;,'>>>,;--=+++++++&%%%%%.....",
".....%%%%*+++++++=---)'>>>>',;--=+++++++&%%%%.....",
".....%%%&+++++++=---)>>>>>>>',;--=+++++++&%%%.....",
".....%%*+++++++=--;,'>'>>>>>>',;--=+++++++&%%.....",
".....%&+++++++=--;,'>!~{]^]{/(',;--=+++++++*%.....",
".....&+++++++=---)>_:.........:<,;--=+++++++&.....",
"....*+++++++=--;,'[.............},;--=+++++++&....",
"...&+++++++=--;,'|...............1,;--=+++++++&...",
"..*+++++++=--;,'>2...............3',---=+++++++&..",
".&+++++++=--;,'>>3...............2>');--=+++++++&.",
"&+++++++=--;,'>'>|...............|'>>,;--=+++++++&",
"+++++++=--;,>>>>>>[.............[>>>>>,---=+++++++",
"++++++=--;,'>>>>>>>_:.........:_>>>>>>')---=++++++",
"+++++=--;,>>>>>>>>>>>(~{]^]{~(>>>>>>>>>>);--=+++++",
"++++=--;,'>>>>>>>>>>>>>>>>>>>>>>>>>>>>>>',;--=++++",
"+++=---4>>>>>>>>>>>>>>>>>>>>>>>>>>>>>>>>>'5---=+++",
"++=----67'>>>>>>>>>>>>>>>>>>>>>>>>>>>>>>'76----=++",
"+=------65>>>>>>>>>>>>>>>>>>>>>>>>>>>>>>56------=+",
"=------------------------------------------------=",
"--------------------------------------------------",
"--------------------------------------------------",
"--------------------------------------------------",
"--------------------------------------------------",
"--------------------------------------------------",
"--------------------------------------------------",
"--------------------------------------------------",
"88----------------------------------------------88",
"89----------------------------------------------98",
"89----------------------------------------------98",
"89---------------------++++---------------------98",
"89--------------------++++++--------------------98",
"89-------------------++++++++-------------------98",
"89------------------++++++++++------------------98",
"89-----------------++++++++++++-----------------98",
"89----------------++++++++++++++----------------98",
"89---------------++++++++++++++++---------------98"};
