/* XPM */
static char * 6_xpm[] = {
"50 50 78 1",
" 	c None",
".	c #000000",
"+	c #1B10FF",
"@	c #4F4F51",
"#	c #13131A",
"$	c #505050",
"%	c #4F4E59",
"&	c #505051",
"*	c #4E4E52",
"=	c #747474",
"-	c #1E14FA",
";	c #1C11FF",
">	c #4E4E54",
",	c #727273",
"'	c #747475",
")	c #767676",
"!	c #727272",
"~	c #53605C",
"{	c #4A5B56",
"]	c #455853",
"^	c #4F5E5A",
"/	c #445752",
"(	c #3F514C",
"_	c #3B4B46",
":	c #3A4A46",
"<	c #3F504C",
"[	c #34423E",
"}	c #262A28",
"|	c #1C1918",
"1	c #1B1816",
"2	c #252826",
"3	c #313E3B",
"4	c #34433F",
"5	c #1C1716",
"6	c #280707",
"7	c #2F0202",
"8	c #300201",
"9	c #2A0606",
"0	c #1B1212",
"a	c #41534E",
"b	c #292F2D",
"c	c #270808",
"d	c #440303",
"e	c #480202",
"f	c #490202",
"g	c #450303",
"h	c #3D4F4A",
"i	c #1D1E1D",
"j	c #290000",
"k	c #470202",
"l	c #4B0303",
"m	c #3E4F4B",
"n	c #1F211F",
"o	c #270000",
"p	c #4C0303",
"q	c #757575",
"r	c #747374",
"s	c #29312E",
"t	c #230304",
"u	c #460202",
"v	c #555555",
"w	c #374642",
"x	c #060C0C",
"y	c #290303",
"z	c #290202",
"A	c #270404",
"B	c #4E4D65",
"C	c #53615D",
"D	c #3E504B",
"E	c #26322F",
"F	c #26312E",
"G	c #4D4D55",
"H	c #6C706F",
"I	c #445853",
"J	c #455752",
"K	c #475B56",
"L	c #51514D",
"M	c #060336",
"..................................................",
"..................................................",
"..................................................",
"..................................................",
"..................................................",
".....++++++++++++++++++++++++++++++++++++++++.....",
".....++++++++++++++++++++++++++++++++++++++++.....",
".....++++++++++++++++++++++++++++++++++++++++.....",
".....++++++++++++++++++++++++++++++++++++++++.....",
".....++++++++++++++++++++++++++++++++++++++++.....",
".....++++++++++++++++++++++++++++++++++++++++.....",
".....++++++++++++++++++++++++++++++++++++++++.....",
".....++++++++++++++++++++++++++++++++++++++++.....",
".....++++++++++++++++++++++++++++++++++++++++.....",
".....++++++++++++++++++++++++++++++++++++++++.....",
".....++++++++++++++++++++++++++++++++++++++++.....",
".....++++++++++++++++++++++++++++++++++++++++.....",
".....++++++++++++++++++++++++++++++++++++++++.....",
".....++++++++++++++++++++++++++++++++++++++++.....",
".....++++++++++++++++++++++++++++++++++++++++.....",
".....++++++++++++++++++++++++++++++++++++++++.....",
".....++++++++++++++++++++++++++++++++++++++++.....",
".....++++++++++++++++++++++++++++++++++++++++.....",
".....++++++++++++++++++++++++++++++++++++++++.....",
".....++++++++++++++++++++++++++++++++++++++++.....",
"@#...++++++++++++++++++++++++++++++++++++++++.....",
"$%...++++++++++++++++++++++++++++++++++++++++.....",
"$$$..++++++++++++++++++++++++++++++++++++++++.....",
"$&@*.++++++++++++++++++++++++++++++++++++++++.....",
"$$$$=-;++++++++++++++++++++++++++++++++++++++.....",
">$$,')+++++++++++++++++++++++++++++++++++++++.....",
"$$!))))++++++++++++++++++++++++++++++++++++++.....",
"$)))))))+++++++++++++++++++++++++++++++++++++.....",
")))))))))++++++++++++++++++++++++++++++++++++.....",
"))))))))))+++++++++++++++++++++++++++++++++++.....",
")))))))))))++++++++++++++++++++++++++++++++++.....",
"))))~)))))))+;+++++++++++++++++++++++++++++++.....",
"))){]^)))))))++++++++++++++++++++++++++++++++.....",
")){]]]^)))))))+++++++++++++++++++++++++++++++.....",
"){]]///^)))))))++++++++++++++++++++++++++++++.....",
"{]](_:</^)))))))+++++++++++++++++++++++++++++.....",
"]][}|123/^)))))))+;++++++++++++++++++++++++++.....",
"]45678903/^)))))))+;+++++++++++++++++++++++++.....",
"abcdefg92</^)))))))++++++++++++++++++++++++++.....",
"hijkllf81:/]^)))))))+++++++++++++++++++++++++.....",
"mnoplle7|_/]]~)))))qr.............................",
"astlukd6}(]]{))))))qv@............................",
"]wxtyzA5[]]{))))))=$$$B...........................",
"C]DEniF4]]{)))))))$$$$$G..........................",
"HCI/mhJK]{)))))))$L$&@$$>M........................"};
