/* XPM */
static char * 7_xpm[] = {
"50 50 78 1",
" 	c #000000",
".	c #1B10FF",
"+	c #060336",
"@	c #4E4E54",
"#	c #4D4D55",
"$	c #505050",
"%	c #4E4D65",
"&	c #4F4F51",
"*	c #747374",
"=	c #555555",
"-	c #505051",
";	c #1C11FF",
">	c #767676",
",	c #757575",
"'	c #747474",
")	c #51514D",
"!	c #53605C",
"~	c #4F5E5A",
"{	c #455853",
"]	c #4A5B56",
"^	c #445752",
"/	c #3F504C",
"(	c #3A4A46",
"_	c #3B4B46",
":	c #3F514C",
"<	c #313E3B",
"[	c #252826",
"}	c #1B1816",
"|	c #1C1918",
"1	c #262A28",
"2	c #34423E",
"3	c #1B1212",
"4	c #2A0606",
"5	c #300201",
"6	c #2F0202",
"7	c #280707",
"8	c #1C1716",
"9	c #34433F",
"0	c #475B56",
"a	c #450303",
"b	c #490202",
"c	c #480202",
"d	c #440303",
"e	c #270404",
"f	c #26312E",
"g	c #455752",
"h	c #1E14FA",
"i	c #4B0303",
"j	c #470202",
"k	c #290202",
"l	c #1D1E1D",
"m	c #3D4F4A",
"n	c #747475",
"o	c #460202",
"p	c #290303",
"q	c #1F211F",
"r	c #3E4F4B",
"s	c #4E4E52",
"t	c #727273",
"u	c #4C0303",
"v	c #230304",
"w	c #26322F",
"x	c #727272",
"y	c #270808",
"z	c #290000",
"A	c #270000",
"B	c #060C0C",
"C	c #3E504B",
"D	c #445853",
"E	c #13131A",
"F	c #4F4E59",
"G	c #292F2D",
"H	c #29312E",
"I	c #374642",
"J	c #53615D",
"K	c #06033B",
"L	c #41534E",
"M	c #6C706F",
"                                                  ",
"                                                  ",
"                                                  ",
"                                                  ",
"                                                  ",
"     ........................................     ",
"     ........................................     ",
"     ........................................     ",
"     ........................................     ",
"     ........................................     ",
"     ........................................     ",
"     ........................................     ",
"     ........................................     ",
"     ........................................     ",
"     ........................................     ",
"     ........................................     ",
"     ........................................     ",
"     ........................................     ",
"     ........................................     ",
"     ........................................     ",
"     ........................................     ",
"     ........................................     ",
"     ........................................     ",
"     ........................................     ",
"     ........................................    +",
"     ........................................    @",
"     ........................................   #$",
"     ........................................  %$$",
"     ........................................ &$$&",
"     ........................................*=$$-",
"     .....................................;.>,,$$$",
"     ....................................;.>>>>'$)",
"     .....................................>>>>>>>$",
"     ....................................>>>>>>>>>",
"     ...................................>>>>>>>>>>",
"     ..................................>>>>>>>>>>>",
"     ...............................;.>>>>>>>!>>>>",
"     ................................>>>>>>>~{]>>>",
"     ...............................>>>>>>>~{{{]>>",
"     ..............................>>>>>>>~^^^{{]>",
"     .............................>>>>>>>~^/(_:{{]",
"     ............................>>>>>>>~^<[}|12{{",
"     ...........................>>>>>>>~^<34567890",
"     ........................;.>>>>>>>~^/[4abcdefg",
"     ........................h>>>>>>>~{^(}5biijklm",
"                             'n>>>>>!{{^_|6ciiopqr",
"                            s$t>>>>>>]{{:17djuivw^",
"                           $&$$x>>>>>>]{{28yzAvBCD",
"                         EF$-$$$>>>>>>>]{{9GlqHI{J",
"                        K&$$$$@$$>>>>>>>]{{LmrL{JM"};
