/* XPM */
static char * 9_xpm[] = {
"50 50 79 1",
" 	c None",
".	c #6C706F",
"+	c #53615D",
"@	c #455853",
"#	c #41534E",
"$	c #3E4F4B",
"%	c #3D4F4A",
"&	c #4A5B56",
"*	c #767676",
"=	c #505050",
"-	c #4E4E54",
";	c #4F4F51",
">	c #06033B",
",	c #000000",
"'	c #374642",
")	c #29312E",
"!	c #1F211F",
"~	c #1D1E1D",
"{	c #292F2D",
"]	c #34433F",
"^	c #505051",
"/	c #4F4E59",
"(	c #13131A",
"_	c #445853",
":	c #3E504B",
"<	c #060C0C",
"[	c #230304",
"}	c #270000",
"|	c #290000",
"1	c #270808",
"2	c #1C1716",
"3	c #34423E",
"4	c #727272",
"5	c #445752",
"6	c #26322F",
"7	c #4B0303",
"8	c #4C0303",
"9	c #470202",
"0	c #440303",
"a	c #280707",
"b	c #262A28",
"c	c #3F514C",
"d	c #727273",
"e	c #4E4E52",
"f	c #290303",
"g	c #460202",
"h	c #480202",
"i	c #2F0202",
"j	c #1C1918",
"k	c #3B4B46",
"l	c #53605C",
"m	c #747475",
"n	c #747474",
"o	c #290202",
"p	c #490202",
"q	c #300201",
"r	c #1B1816",
"s	c #3A4A46",
"t	c #4F5E5A",
"u	c #1E14FA",
"v	c #1B10FF",
"w	c #455752",
"x	c #26312E",
"y	c #270404",
"z	c #450303",
"A	c #2A0606",
"B	c #252826",
"C	c #3F504C",
"D	c #1C11FF",
"E	c #475B56",
"F	c #1B1212",
"G	c #313E3B",
"H	c #51514D",
"I	c #757575",
"J	c #555555",
"K	c #747374",
"L	c #4E4D65",
"M	c #4D4D55",
"N	c #060336",
".+@#$%#@@&*******==-====;>,,,,,,,,,,,,,,,,,,,,,,,,",
"+@')!~{]@@&*******===^=/(,,,,,,,,,,,,,,,,,,,,,,,,,",
"_:<[}|123@@&******4==;=,,,,,,,,,,,,,,,,,,,,,,,,,,,",
"56[7890abc@@&******d=e,,,,,,,,,,,,,,,,,,,,,,,,,,,,",
"$!fg77hijk5@@l*****mn,,,,,,,,,,,,,,,,,,,,,,,,,,,,,",
"%~o977pqrs5@t*******uvvvvvvvvvvvvvvvvvvvvvvvv,,,,,",
"wxy0hpzABC5t*******vDvvvvvvvvvvvvvvvvvvvvvvvv,,,,,",
"E]2aiqAFG5t*******vvvvvvvvvvvvvvvvvvvvvvvvvvv,,,,,",
"@@3bjrBG5t*******vvvvvvvvvvvvvvvvvvvvvvvvvvvv,,,,,",
"&@@cksC5t*******vvvvvvvvvvvvvvvvvvvvvvvvvvvvv,,,,,",
"*&@@555t*******vvvvvvvvvvvvvvvvvvvvvvvvvvvvvv,,,,,",
"**&@@@t*******vvvvvvvvvvvvvvvvvvvvvvvvvvvvvvv,,,,,",
"***&@t*******vvvvvvvvvvvvvvvvvvvvvvvvvvvvvvvv,,,,,",
"****l*******vDvvvvvvvvvvvvvvvvvvvvvvvvvvvvvvv,,,,,",
"***********vvvvvvvvvvvvvvvvvvvvvvvvvvvvvvvvvv,,,,,",
"**********vvvvvvvvvvvvvvvvvvvvvvvvvvvvvvvvvvv,,,,,",
"*********vvvvvvvvvvvvvvvvvvvvvvvvvvvvvvvvvvvv,,,,,",
"=*******vvvvvvvvvvvvvvvvvvvvvvvvvvvvvvvvvvvvv,,,,,",
"H=n****vDvvvvvvvvvvvvvvvvvvvvvvvvvvvvvvvvvvvv,,,,,",
"===II*vDvvvvvvvvvvvvvvvvvvvvvvvvvvvvvvvvvvvvv,,,,,",
"^==JKvvvvvvvvvvvvvvvvvvvvvvvvvvvvvvvvvvvvvvvv,,,,,",
";==;,vvvvvvvvvvvvvvvvvvvvvvvvvvvvvvvvvvvvvvvv,,,,,",
"==L,,vvvvvvvvvvvvvvvvvvvvvvvvvvvvvvvvvvvvvvvv,,,,,",
"=M,,,vvvvvvvvvvvvvvvvvvvvvvvvvvvvvvvvvvvvvvvv,,,,,",
"-,,,,vvvvvvvvvvvvvvvvvvvvvvvvvvvvvvvvvvvvvvvv,,,,,",
"N,,,,vvvvvvvvvvvvvvvvvvvvvvvvvvvvvvvvvvvvvvvv,,,,,",
",,,,,vvvvvvvvvvvvvvvvvvvvvvvvvvvvvvvvvvvvvvvv,,,,,",
",,,,,vvvvvvvvvvvvvvvvvvvvvvvvvvvvvvvvvvvvvvvv,,,,,",
",,,,,vvvvvvvvvvvvvvvvvvvvvvvvvvvvvvvvvvvvvvvv,,,,,",
",,,,,vvvvvvvvvvvvvvvvvvvvvvvvvvvvvvvvvvvvvvvv,,,,,",
",,,,,vvvvvvvvvvvvvvvvvvvvvvvvvvvvvvvvvvvvvvvv,,,,,",
",,,,,vvvvvvvvvvvvvvvvvvvvvvvvvvvvvvvvvvvvvvvv,,,,,",
",,,,,vvvvvvvvvvvvvvvvvvvvvvvvvvvvvvvvvvvvvvvv,,,,,",
",,,,,vvvvvvvvvvvvvvvvvvvvvvvvvvvvvvvvvvvvvvvv,,,,,",
",,,,,vvvvvvvvvvvvvvvvvvvvvvvvvvvvvvvvvvvvvvvv,,,,,",
",,,,,vvvvvvvvvvvvvvvvvvvvvvvvvvvvvvvvvvvvvvvv,,,,,",
",,,,,vvvvvvvvvvvvvvvvvvvvvvvvvvvvvvvvvvvvvvvv,,,,,",
",,,,,vvvvvvvvvvvvvvvvvvvvvvvvvvvvvvvvvvvvvvvv,,,,,",
",,,,,vvvvvvvvvvvvvvvvvvvvvvvvvvvvvvvvvvvvvvvv,,,,,",
",,,,,vvvvvvvvvvvvvvvvvvvvvvvvvvvvvvvvvvvvvvvv,,,,,",
",,,,,vvvvvvvvvvvvvvvvvvvvvvvvvvvvvvvvvvvvvvvv,,,,,",
",,,,,vvvvvvvvvvvvvvvvvvvvvvvvvvvvvvvvvvvvvvvv,,,,,",
",,,,,vvvvvvvvvvvvvvvvvvvvvvvvvvvvvvvvvvvvvvvv,,,,,",
",,,,,vvvvvvvvvvvvvvvvvvvvvvvvvvvvvvvvvvvvvvvv,,,,,",
",,,,,vvvvvvvvvvvvvvvvvvvvvvvvvvvvvvvvvvvvvvvv,,,,,",
",,,,,,,,,,,,,,,,,,,,,,,,,,,,,,,,,,,,,,,,,,,,,,,,,,",
",,,,,,,,,,,,,,,,,,,,,,,,,,,,,,,,,,,,,,,,,,,,,,,,,,",
",,,,,,,,,,,,,,,,,,,,,,,,,,,,,,,,,,,,,,,,,,,,,,,,,,",
",,,,,,,,,,,,,,,,,,,,,,,,,,,,,,,,,,,,,,,,,,,,,,,,,,",
",,,,,,,,,,,,,,,,,,,,,,,,,,,,,,,,,,,,,,,,,,,,,,,,,,"};
