/* XPM */
static char * 10_xpm[] = {
"50 50 13 1",
" 	c #000000",
".	c #1B10FF",
"+	c #767676",
"@	c #505050",
"#	c #455853",
"$	c #435550",
"%	c #252F2C",
"&	c #070909",
"*	c #080B0A",
"=	c #190101",
"-	c #400303",
";	c #4B0303",
">	c #303030",
"                                                  ",
"                                                  ",
"                                                  ",
"                                                  ",
"                                                  ",
"     ........................................     ",
"     ........................................     ",
"     ........................................     ",
"     .........++++++++++++++++++++++.........     ",
"     .........++++++++++++++++++++++.........     ",
"     ......@@@++++++++++++++++++++++@@@......     ",
"     ......@@@++++++++++++++++++++++@@@......     ",
"     ......@@@++++++++++++++++++++++@@@......     ",
"     ......@@@++++##############++++@@@......     ",
"     ......@@@++++##############++++@@@......     ",
"     ......@@@++++####$%&&%$####++++@@@......     ",
"     ......@@@++++###$*=--=*$###++++@@@......     ",
"     ......@@@++++###%=;;;;=%###++++@@@......     ",
"     ......@@@++++###&-;;;;-&###++++@@@......     ",
"     ......@@@++++###&-;;;;-&###++++@@@......     ",
"     ......@@@++++###%=;;;;=%###++++@@@......     ",
"     ......@@@++++###$*=--=*$###++++@@@......     ",
"     ......@@@++++####$%&&%$####++++@@@......     ",
"     ......@@@++++##############++++@@@......     ",
"     ......@@@++++##############++++@@@......     ",
"     ......@@@++++++++++++++++++++++@@@......     ",
"     ......@@@++++++++++++++++++++++@@@......     ",
"     ......@@@++++++++++++++++++++++@@@......     ",
"     ......@@@+++++++########+++++++@@@......     ",
"     ......@@@+++++++########+++++++@@@......     ",
"     ..>>>>>>>>>>>>>>########>>>>>>>>>>>>>>..     ",
"     ..>;;;;;;;;;;;;;########;;;;;;;;;;;;;>..     ",
"     ..>;;;;;;;;;;;;;########;;;;;;;;;;;;;>..     ",
"     ..>;;;;;;;;;;;;;########;;;;;;;;;;;;;>..     ",
"     ..>>>>>>>>>>>>>>########>>>>>>>>>>>>>>..     ",
"     ......@@@+++++++########+++++++@@@......     ",
"     ......@@@+++++++########+++++++@@@......     ",
"     ......@@@+++++++########+++++++@@@......     ",
"     ......@@@++++++++++++++++++++++@@@......     ",
"     ......@@@++++++++++++++++++++++@@@......     ",
"     ......@@@++++++++++++++++++++++@@@......     ",
"     ......@@@+++################+++@@@......     ",
"     ......@@@+++################+++@@@......     ",
"     ......@@@+++################+++@@@......     ",
"     ......@@@+++################+++@@@......     ",
"           @@@+++################+++@@@           ",
"           @@@+++################+++@@@           ",
"           @@@+++################+++@@@           ",
"           @@@+++################+++@@@           ",
"           @@@+++################+++@@@           "};
