/* XPM */
static char * 14_xpm[] = {
"50 50 38 1",
" 	c None",
".	c #3E4F4B",
"+	c #767676",
"@	c #6B6B6C",
"#	c #4E4E54",
"$	c #8A8A8E",
"%	c #000000",
"&	c #374642",
"*	c #828286",
"=	c #1B10FF",
"-	c #6F6464",
";	c #634343",
">	c #716969",
",	c #5A2A2A",
"'	c #4B0303",
")	c #5D3333",
"!	c #654A4A",
"~	c #4C0707",
"{	c #310202",
"]	c #0B0000",
"^	c #0B0101",
"/	c #5C3131",
"(	c #210101",
"_	c #360202",
":	c #020000",
"<	c #808085",
"[	c #3E0202",
"}	c #3F0606",
"|	c #4D4D53",
"1	c #290202",
"2	c #150101",
"3	c #060000",
"4	c #010000",
"5	c #2A0404",
"6	c #808084",
"7	c #360505",
"8	c #220303",
"9	c #310505",
"..........+++++++@#######$%%%%%%%%%%%%%%%%%%%%%%%%",
"&&&&&&&&&.++++++++@#######$%%%%%%%%%%%%%%%%%%%%%%%",
"+++++++++++++++++++@#######*%%%%%%%%%%%%%%%%%%%%%%",
"++++++++++++++++++++@#######$%%%%%%%%%%%%%%%%%%%%%",
"+++++++++++++++++++++@#######*%%%%%%%%%%%%%%%%%%%%",
"++++++++++++++++++++++@#######$==============%%%%%",
"+++++++++++++++++++++++@#######$=============%%%%%",
"+++++++++++++++++++-;>++@#######*============%%%%%",
"++++++++++++++++++-,')>++@#######$===========%%%%%",
"++++++++++++++++++!~'~)>++@#######*==========%%%%%",
"++++++++++++++++++''''')>++@#######$=========%%%%%",
"++++++++++++++++++'''''~)>++@#######$========%%%%%",
"++++++++++++++++++''''''')>++@#######*=======%%%%%",
"++++++++++++++++++'''''''~)>++@#######$======%%%%%",
"++++++++++++++++++''''''''~)>++@#######$=====%%%%%",
"++++++++++++++++++'''''''~'~)>++@#######$====%%%%%",
"++++++++++++++++++''''''''''~)+++@#######$===%%%%%",
"#+++++++++++++++++'''''''{]^{~/>++@#######*==%%%%%",
"##++++++++++++++++''''''(%%%%(')>++@#######$=%%%%%",
"###+++++++++++++++'''''_%%%%%%_~)+++@#######$%%%%%",
"####++++++++++++++''''':%%%%%%:'~/+++@#######<%%%%",
"#####+++++++++++++''''[%%%%%%%%}''/>++@######|#%%%",
"######++++++++++++''''1%%%%%%%%1~'~)>++@####|##%%%",
"#######+++++++++++''''2%%%%%%%%2'''~'+++@##|###%%%",
"#######+++++++++++''''3%%%%%%%%3'''''++++@|####%%%",
"#######+++++++++++''''4%%%%%%%%4'''''++++@#####%%%",
"#######+++++++++++''''3%%%%%%%%3'''''+++@######%%%",
"######++++++++++++''''2%%%%%%%%2''~)>++@#######%%%",
"#####+++++++++++++''''1%%%%%%%%5'~)>++@########%%%",
"####++++++++++++++''''[%%%%%%%%[~)>++@#######6%%%%",
"###+++++++++++++++''''':%%%%%%:~)>++@#######*%%%%%",
"##++++++++++++++++'''''_%%%%%%7)>++@#######$=%%%%%",
"#+++++++++++++++++''''''(%%%%8)>++@#######$==%%%%%",
"++++++++++++++++++'''''''{^]9)>++@#######*===%%%%%",
"++++++++++++++++++'''''''~'~)>++@#######$====%%%%%",
"++++++++++++++++++''''''''~)>++@#######*=====%%%%%",
"++++++++++++++++++''''''''/+++@#######$======%%%%%",
"++++++++++++++++++''''''')>++@#######$=======%%%%%",
"++++++++++++++++++'''''~)>++@#######*========%%%%%",
"++++++++++++++++++'''''/+++@#######$=========%%%%%",
"++++++++++++++++++!~'~/+++@#######$==========%%%%%",
"++++++++++++++++++-,~)>++@#######$===========%%%%%",
"+++++++++++++++++++-!>++@#######$============%%%%%",
"+++++++++++++++++++++++@#######*=============%%%%%",
"++++++++++++++++++++++@#######$==============%%%%%",
"+++++++++++++++++++++@#######$%%%%%%%%%%%%%%%%%%%%",
"++++++++++++++++++++@#######$%%%%%%%%%%%%%%%%%%%%%",
"+++++++++++++++++++@#######$%%%%%%%%%%%%%%%%%%%%%%",
"&&&&&&&&&.++++++++@#######$%%%%%%%%%%%%%%%%%%%%%%%",
"..........+++++++@#######$%%%%%%%%%%%%%%%%%%%%%%%%"};
