/* XPM */
static char * 15_xpm[] = {
"50 50 38 1",
" 	c None",
".	c #000000",
"+	c #8A8A8E",
"@	c #4E4E54",
"#	c #6B6B6C",
"$	c #767676",
"%	c #3E4F4B",
"&	c #374642",
"*	c #1B10FF",
"=	c #828286",
"-	c #716969",
";	c #654A4A",
">	c #6F6464",
",	c #5D3333",
"'	c #4C0707",
")	c #5A2A2A",
"!	c #5C3131",
"~	c #4B0303",
"{	c #310505",
"]	c #0B0000",
"^	c #0B0101",
"/	c #310202",
"(	c #220303",
"_	c #210101",
":	c #360505",
"<	c #360202",
"[	c #020000",
"}	c #808084",
"|	c #3E0202",
"1	c #2A0404",
"2	c #290202",
"3	c #150101",
"4	c #060000",
"5	c #010000",
"6	c #4D4D53",
"7	c #3F0606",
"8	c #808085",
"9	c #634343",
"........................+@@@@@@@#$$$$$$$%%%%%%%%%%",
".......................+@@@@@@@#$$$$$$$$%&&&&&&&&&",
"......................+@@@@@@@#$$$$$$$$$$$$$$$$$$$",
".....................+@@@@@@@#$$$$$$$$$$$$$$$$$$$$",
"....................+@@@@@@@#$$$$$$$$$$$$$$$$$$$$$",
".....**************+@@@@@@@#$$$$$$$$$$$$$$$$$$$$$$",
".....*************=@@@@@@@#$$$$$$$$$$$$$$$$$$$$$$$",
".....************+@@@@@@@#$$-;>$$$$$$$$$$$$$$$$$$$",
".....***********+@@@@@@@#$$-,')>$$$$$$$$$$$$$$$$$$",
".....**********+@@@@@@@#$$$!'~';$$$$$$$$$$$$$$$$$$",
".....*********+@@@@@@@#$$$!~~~~~$$$$$$$$$$$$$$$$$$",
".....********=@@@@@@@#$$-,'~~~~~$$$$$$$$$$$$$$$$$$",
".....*******+@@@@@@@#$$-,~~~~~~~$$$$$$$$$$$$$$$$$$",
".....******+@@@@@@@#$$$!~~~~~~~~$$$$$$$$$$$$$$$$$$",
".....*****=@@@@@@@#$$-,'~~~~~~~~$$$$$$$$$$$$$$$$$$",
".....****+@@@@@@@#$$-,'~'~~~~~~~$$$$$$$$$$$$$$$$$$",
".....***=@@@@@@@#$$-,{]^/~~~~~~~$$$$$$$$$$$$$$$$$$",
".....**+@@@@@@@#$$-,(...._~~~~~~$$$$$$$$$$$$$$$$$@",
".....*+@@@@@@@#$$-,:......<~~~~~$$$$$$$$$$$$$$$$@@",
".....=@@@@@@@#$$-,'[......[~~~~~$$$$$$$$$$$$$$$@@@",
"....}@@@@@@@#$$-,'|........|~~~~$$$$$$$$$$$$$$@@@@",
"...@@@@@@@@#$$-,'~1........2~~~~$$$$$$$$$$$$$@@@@@",
"...@@@@@@@#$$-,'~~3........3~~~~$$$$$$$$$$$$@@@@@@",
"...@@@@@@#$$$~~~~~4........4~~~~$$$$$$$$$$$@@@@@@@",
"...@@@@@#$$$$~~~~~5........5~~~~$$$$$$$$$$$@@@@@@@",
"...@@@@6#$$$$~~~~~4........4~~~~$$$$$$$$$$$@@@@@@@",
"...@@@6@@#$$$~'~~~3........3~~~~$$$$$$$$$$$@@@@@@@",
"...@@6@@@@#$$-,'~'2........2~~~~$$$$$$$$$$$$@@@@@@",
"...@6@@@@@@#$$-!~~7........|~~~~$$$$$$$$$$$$$@@@@@",
"....8@@@@@@@#$$$!'~[......[~~~~~$$$$$$$$$$$$$$@@@@",
".....+@@@@@@@#$$$,'<......<~~~~~$$$$$$$$$$$$$$$@@@",
".....*+@@@@@@@#$$-,~_...._~~~~~~$$$$$$$$$$$$$$$$@@",
".....**=@@@@@@@#$$-!'/^]/~~~~~~~$$$$$$$$$$$$$$$$$@",
".....***+@@@@@@@#$$$,'~~~~~~~~~~$$$$$$$$$$$$$$$$$$",
".....****+@@@@@@@#$$-,'~'~~~~~~~$$$$$$$$$$$$$$$$$$",
".....*****+@@@@@@@#$$-,'~~~~~~~~$$$$$$$$$$$$$$$$$$",
".....******+@@@@@@@#$$-,'~~~~~~~$$$$$$$$$$$$$$$$$$",
".....*******=@@@@@@@#$$-,~~~~~~~$$$$$$$$$$$$$$$$$$",
".....********+@@@@@@@#$$-,'~~~~~$$$$$$$$$$$$$$$$$$",
".....*********+@@@@@@@#$$-,~~~~~$$$$$$$$$$$$$$$$$$",
".....**********=@@@@@@@#$$-,'~';$$$$$$$$$$$$$$$$$$",
".....***********+@@@@@@@#$$-,~)>$$$$$$$$$$$$$$$$$$",
".....************=@@@@@@@#$$-9>$$$$$$$$$$$$$$$$$$$",
".....*************+@@@@@@@#$$$$$$$$$$$$$$$$$$$$$$$",
".....**************+@@@@@@@#$$$$$$$$$$$$$$$$$$$$$$",
"....................=@@@@@@@#$$$$$$$$$$$$$$$$$$$$$",
".....................+@@@@@@@#$$$$$$$$$$$$$$$$$$$$",
"......................=@@@@@@@#$$$$$$$$$$$$$$$$$$$",
".......................+@@@@@@@#$$$$$$$$%&&&&&&&&&",
"........................+@@@@@@@#$$$$$$$%%%%%%%%%%"};
