/* XPM */
static char * 16_xpm[] = {
"50 50 38 1",
" 	c None",
".	c #3E4F4B",
"+	c #374642",
"@	c #767676",
"#	c #4E4E54",
"$	c #6B6B6C",
"%	c #6F6464",
"&	c #654A4A",
"*	c #4B0303",
"=	c #5A2A2A",
"-	c #4C0707",
";	c #634343",
">	c #716969",
",	c #5D3333",
"'	c #5C3131",
")	c #3E0202",
"!	c #290202",
"~	c #150101",
"{	c #060000",
"]	c #010000",
"^	c #360202",
"/	c #020000",
"(	c #000000",
"_	c #210101",
":	c #8A8A8E",
"<	c #310202",
"[	c #0B0101",
"}	c #0B0000",
"|	c #828286",
"1	c #310505",
"2	c #220303",
"3	c #360505",
"4	c #1B10FF",
"5	c #2A0404",
"6	c #3F0606",
"7	c #4D4D53",
"8	c #808084",
"9	c #808085",
".+@@@@@@@@@@@@@@@################@@@@@@@@@@@@@@@+.",
".+@@@@@@@@@@@@@@@@##############@@@@@@@@@@@@@@@@+.",
".+@@@@@@@@@@@@@@@@@############@@@@@@@@@@@@@@@@@+.",
".+@@@@@@@@@@@@@@@@@@##########@@@@@@@@@@@@@@@@@@+.",
".+@@@@@@@@@@@@@@@@@@@########@@@@@@@@@@@@@@@@@@@+.",
".+@@@@@@@@@@@@@@@@@@@@######@@@@@@@@@@@@@@@@@@@@+.",
".+@@@@@@@@@@@@@@@@@@@@@####@@@@@@@@@@@@@@@@@@@@@+.",
".+@@@@@@@@@@@@@@@@@@@@@@@@@@@@@@@@@@@@@@@@@@@@@@+.",
".+@@@@@@@@@@@@@@@@@@@@@@@@@@@@@@@@@@@@@@@@@@@@@@+.",
"..@@@@@@@@@@@@@@@@@@@@@@@@@@@@@@@@@@@@@@@@@@@@@@..",
"@@@@@@@@@@@@@@@@@@@@@@@@@@@@@@@@@@@@@@@@@@@@@@@@@@",
"@@@@@@@@@@@@@@@@@@@@@@@@@@@@@@@@@@@@@@@@@@@@@@@@@@",
"@@@@@@@@@@@@@@@@@@@@@@@@@@@@@@@@@@@@@@@@@@@@@@@@@@",
"@@@@@@@@@@@@@@@@@@@@@@@@@@@@@@@@@@@@@@@@@@@@@@@@@@",
"@@@@@@@@@@@@@@@@@@@@@@@@@@@@@@@@@@@@@@@@@@@@@@@@@@",
"@@@@@@@@@@@@@@@@@@@@@@@@@@@@@@@@@@@@@@@@@@@@@@@@@@",
"@@@@@@@@@@@@@@@@@@@@@@@@@@@@@@@@@@@@@@@@@@@@@@@@@@",
"$@@@@@@@@@@@@@@@@@@@@@@@@@@@@@@@@@@@@@@@@@@@@@@@@$",
"#$@@@@@@%&******************************&%@@@@@@$#",
"##$@@@@%=-******************************-=%@@@@$##",
"###$@@@&-*********************************;@@@$###",
"####$@@>,-******************************-,>@@$####",
"#####$@@>'**********)!~{]{~!)***********,>@@$#####",
"######$@@@'-******^/(((((((((/^*******-,>@@$######",
"#######$@@@,*****_(((((((((((((_******,>@@$#######",
":#######$@@>,**-<(((((((((((((((<*-*-,>@@$#######:",
"(:#######$@@>'-*[(((((((((((((((}**-,>@@$#######:(",
"((:#######$@@@,-}((((((((((((((([*-,>@@$#######|((",
"(((:#######$@@>,1(((((((((((((((<-,>@@$#######:(((",
"((((:#######$@@>,2(((((((((((((_-,>@@$#######|((((",
"(((((:#######$@@>,3/(((((((((/^*'@@@$#######:(((((",
"(((((4|#######$@@>,-)5~{]{~!6*-,>@@$#######:4(((((",
"(((((44:#######$@@>,-******-*-,>@@$#######|44(((((",
"(((((444:#######$@@>,-*******'@@@$#######:444(((((",
"(((((4444:#######$@@>,-****-'@@@$#######|4444(((((",
"(((((44444:#######$@@>,***-,>@@$#######:44444(((((",
"(((((444444|#######$@@>****>@@$#######:444444(((((",
"(((((4444444:#######$@@@@@@@@$#######|4444444(((((",
"(((((44444444:#######$@@@@@@$#######:44444444(((((",
"(((((444444444|#######$@@@@$#######:444444444(((((",
"(((((4444444444:#######$@@$#######:4444444444(((((",
"(((((44444444444|#######$$#######:44444444444(((((",
"(((((444444444444:#######7######|444444444444(((((",
"(((((4444444444444:#######7####:4444444444444(((((",
"(((((44444444444444|#######7##:44444444444444(((((",
"((((((((((((((((((((8#######79((((((((((((((((((((",
"(((((((((((((((((((((########(((((((((((((((((((((",
"((((((((((((((((((((((((((((((((((((((((((((((((((",
"((((((((((((((((((((((((((((((((((((((((((((((((((",
"(((((((((((((((((((((((((((((((((((((((((((((((((("};
