/* XPM */
static char * 17_xpm[] = {
"50 50 104 2",
"  	c None",
". 	c #455853",
"+ 	c #767676",
"@ 	c #4F4F51",
"# 	c #000000",
"$ 	c #5A5A5A",
"% 	c #505050",
"& 	c #1B10FF",
"* 	c #53605D",
"= 	c #4D4A4A",
"- 	c #4A4848",
"; 	c #4C4A4A",
"> 	c #323838",
", 	c #373333",
"' 	c #6A6969",
") 	c #254A4A",
"! 	c #175C5D",
"~ 	c #2A4343",
"{ 	c #484545",
"] 	c #555353",
"^ 	c #737373",
"/ 	c #65617A",
"( 	c #0D6B6C",
"_ 	c #067576",
": 	c #126465",
"< 	c #334747",
"[ 	c #535252",
"} 	c #322242",
"| 	c #391E1E",
"1 	c #696363",
"2 	c #0D5E5E",
"3 	c #213434",
"4 	c #364141",
"5 	c #5B5B5B",
"6 	c #322141",
"7 	c #430F0F",
"8 	c #490505",
"9 	c #3D1818",
"0 	c #686363",
"a 	c #173030",
"b 	c #171717",
"c 	c #242626",
"d 	c #393939",
"e 	c #4F4F4F",
"f 	c #434343",
"g 	c #38282D",
"h 	c #4B0303",
"i 	c #450B0B",
"j 	c #342626",
"k 	c #121212",
"l 	c #0A0A0A",
"m 	c #151515",
"n 	c #232323",
"o 	c #6C6C6C",
"p 	c #494949",
"q 	c #392A2A",
"r 	c #470909",
"s 	c #090909",
"t 	c #131313",
"u 	c #3E3E3E",
"v 	c #696969",
"w 	c #757575",
"x 	c #3D2D2D",
"y 	c #1C1C1C",
"z 	c #727272",
"A 	c #3E2F2F",
"B 	c #373642",
"C 	c #454545",
"D 	c #717171",
"E 	c #3A3939",
"F 	c #4A4A4A",
"G 	c #444444",
"H 	c #646867",
"I 	c #696E6D",
"J 	c #444343",
"K 	c #535353",
"L 	c #2B4343",
"M 	c #555756",
"N 	c #616765",
"O 	c #4E5D59",
"P 	c #545958",
"Q 	c #474646",
"R 	c #6A6A6A",
"S 	c #6D6D6D",
"T 	c #5A6562",
"U 	c #434F4B",
"V 	c #432523",
"W 	c #464743",
"X 	c #491C1B",
"Y 	c #454844",
"Z 	c #3C2F2E",
"` 	c #455450",
" .	c #5F6463",
"..	c #666666",
"+.	c #616161",
"@.	c #505E5A",
"#.	c #6D706F",
"$.	c #5C5C5C",
"%.	c #373737",
"&.	c #475954",
"*.	c #565757",
"=.	c #242424",
"-.	c #6F6F6F",
";.	c #6C706F",
". . . . . . . . . . . + + + + + + @ @ @ @ @ @ @ @ @ # # # # # # # # # # # # # # # # # # # # # # # # ",
". . . . . . . . . . . . + + + + + $ @ @ @ @ @ @ @ @ @ # # # # # # # # # # # # # # # # # # # # # # # ",
". . . . . . . . . . . . . + + + + + $ @ @ @ @ @ @ @ @ @ # # # # # # # # # # # # # # # # # # # # # # ",
". . . . . . . . . . . . . . + + + + + $ @ @ @ @ @ @ @ @ @ # # # # # # # # # # # # # # # # # # # # # ",
". . . . . . . . . . . . . . . + + + + + $ @ % @ @ @ @ @ @ @ # # # # # # # # # # # # # # # # # # # # ",
". . . . . . . . . . . . . . . . + + + + + $ % @ @ @ @ @ @ @ @ & & & & & & & & & & & & & & # # # # # ",
". . . . . . . . . . . . . . . . . + + + + + $ % @ @ @ @ @ @ @ @ & & & & & & & & & & & & & # # # # # ",
". . . . . . . . . . . . . . . . . . + + + + + $ % @ @ @ @ @ @ @ @ & & & & & & & & & & & & # # # # # ",
". . . . . . . . . . . . . . . . . . * + + + + + $ % % @ @ @ @ @ @ @ & & & & & & & & & & & # # # # # ",
". . . . . . . . . . . . . . . . . * + = - + + + + $ % % @ @ @ @ @ @ @ & & & & & & & & & & # # # # # ",
". . . . . . . . . . . . . . . . * + ; > , = ' + + + $ % % @ @ @ @ @ @ @ & & & & & & & & & # # # # # ",
"+ . . . . . . . . . . . . . . * + ; ) ! ~ { ] ^ + + + $ % % @ @ @ @ @ @ / & & & & & & & & # # # # # ",
"+ + . . . . . . . . . . . . * + ; ) ( _ : < [ ^ + + + + $ % % @ @ @ @ } | 1 & & & & & & & # # # # # ",
"+ + + . . . . . . . . . . * + ; ) ( _ _ 2 3 4 5 ^ + + + + $ % % @ @ 6 7 8 9 0 & & & & & & # # # # # ",
"+ + + + . . . . . . . . * + ; ) ( _ _ 2 a b c d 5 ^ + + + + $ e f g 7 h h i j @ & & & & & # # # # # ",
"+ + + + + . . . . . . * + ; ) ( _ _ 2 a k l m n d 5 ^ + + + o p q 7 h h r | @ @ @ & & & & # # # # # ",
"+ + + + + + . . . . * + ; ) ( _ _ 2 a k s s l t n u v w + w 5 x 7 h h r | @ @ @ @ @ & & & # # # # # ",
"@ $ + + + + + . . * + ; ) ( _ _ 2 a k s s s s l y % z + w 5 A 7 h h r | B @ @ @ @ @ @ & & # # # # # ",
"@ @ $ + + + + + * + ; ) ( _ _ 2 a k s s s s s t C D + w 5 A 7 h h r | E F @ @ @ @ @ @ @ & # # # # # ",
"@ @ @ $ + + + + + = > ! _ _ 2 a k s s s s n t G H I w 5 A 7 h h r | J K % % @ @ @ @ @ @ @ # # # # # ",
"@ @ @ @ $ + + + + - , L : 2 a k s s s s n M G N O O P A 7 h h r | Q R S $ % % @ @ @ @ @ @ @ # # # # ",
"@ @ @ @ @ $ + + + + = { < 3 b l s s s n M T N O . . U V h h r | Q R + + + $ % % @ @ @ @ @ @ @ # # # ",
"@ @ @ @ % % $ + + + ' ] [ 4 c m l s s t G N O . . . . W X r | Q R + + + + + $ % @ @ @ @ @ @ @ @ # # ",
"@ @ @ @ @ @ % $ + + + ^ ^ 5 d n t l t G N O . . . . . . Y Z Q R + + w + + + + $ @ @ @ @ @ @ @ @ @ # ",
"@ @ @ @ @ @ @ % $ + + + + ^ 5 d n y C H O . . . . . . . . `  .+ + ..+.+ + + + + $ % % @ @ @ @ @ @ @ ",
"@ @ @ @ @ @ @ @ % $ + + + + ^ 5 u % D I O . . . . . . . . . @.#.$.%.d 5 + + + + + $ % @ @ @ @ @ @ @ ",
"# @ @ @ @ @ @ @ % % $ + + + + ^ v z + w P U . . . . . . . &.T *.=.t n d 5 + + + + + $ @ @ @ @ @ @ @ ",
"# # @ @ @ @ @ @ @ % % $ + + + + w + w 5 A V W . . . . . &.T M n s l t n d 5 -.+ + + + $ @ @ @ @ @ @ ",
"# # # @ @ @ @ @ @ @ % % $ + + + + w 5 A 7 h X Y . . . &.T M n s s s l b 3 < { = + + + + $ @ @ @ @ @ ",
"# # # # @ @ @ @ @ @ @ % % $ + + w 5 A 7 h h r Z ` . &.T M n s s s s k a 2 : L , - + + + + $ @ @ @ @ ",
"# # # # # @ @ @ @ @ @ @ % % $ o 5 A 7 h h r | Q  .@.T M n s s s s k a 2 _ _ ! > = + + + + + $ @ @ @ ",
"# # # # # & @ @ @ @ @ @ @ % e p x 7 h h r | Q R + #.*.n s s s s k a 2 _ _ ( ) ; + * + + + + + $ @ @ ",
"# # # # # & & @ @ @ @ @ @ @ f q 7 h h r | Q R + + $.=.s s s s k a 2 _ _ ( ) ; + * . . + + + + + $ @ ",
"# # # # # & & & @ @ @ @ @ @ g 7 h h r | Q R + + ..%.t l s s k a 2 _ _ ( ) ; + * . . . . + + + + + + ",
"# # # # # & & & & @ @ @ @ 6 7 h h r | J R + + w +.d n t l k a 2 _ _ ( ) ; + * . . . . . . + + + + + ",
"# # # # # & & & & & @ @ } 7 h h r | E K S + + + ^ 5 d n b a 2 _ _ ( ) ; + * . . . . . . . . + + + + ",
"# # # # # & & & & & & / | 8 h r | B F % $ + + + + ^ 5 d 3 2 _ _ ( ) ; + * . . . . . . . . . . + + + ",
"# # # # # & & & & & & & 1 9 i | @ @ @ @ % $ + + + + ^ 5 < : _ ( ) ; + * . . . . . . . . . . . . + + ",
"# # # # # & & & & & & & & 0 j @ @ @ @ @ @ % $ + + + + -.{ ~ ! ) ; + * . . . . . . . . . . . . . . + ",
"# # # # # & & & & & & & & & @ @ @ @ @ @ @ % % $ + + + + = , > ; + * . . . . . . . . . . . . . . . . ",
"# # # # # & & & & & & & & & & @ @ @ @ @ @ @ @ % $ + + + + - = + * . . . . . . . . . . . . . . . . . ",
"# # # # # & & & & & & & & & & & @ @ @ @ @ @ @ @ % $ + + + + + * . . . . . . . . . . . . . . . . . . ",
"# # # # # & & & & & & & & & & & & @ @ @ @ @ @ @ @ % $ + + + + + . . . . . . . . . . . . . . . . . . ",
"# # # # # & & & & & & & & & & & & & @ @ @ @ @ @ @ @ @ $ + + + + + . . . . . . . . . . . . . . . . . ",
"# # # # # & & & & & & & & & & & & & & @ @ @ @ @ @ @ @ @ $ + + + + + . . . . . . . . . . . . . . . . ",
"# # # # # # # # # # # # # # # # # # # # @ @ @ @ @ @ @ @ @ $ + + + + + . . . . . . . . . . . . . . . ",
"# # # # # # # # # # # # # # # # # # # # # @ @ @ @ @ @ @ @ @ $ + + + + + . . . . . . . . . . . . . . ",
"# # # # # # # # # # # # # # # # # # # # # # @ @ @ @ @ @ @ @ @ $ + + + + + . . . . . . . . . . . . . ",
"# # # # # # # # # # # # # # # # # # # # # # # @ @ @ @ @ @ @ @ @ $ + + + + + . . . . . . . . . . . . ",
"# # # # # # # # # # # # # # # # # # # # # # # # @ @ @ @ @ @ @ @ @ + + + + + + . . . . . . . . . . ;."};
