/* XPM */
static char * 18_xpm[] = {
"50 50 103 2",
"  	c #000000",
". 	c #4F4F51",
"+ 	c #767676",
"@ 	c #455853",
"# 	c #6C706F",
"$ 	c #5A5A5A",
"% 	c #1B10FF",
"& 	c #505050",
"* 	c #53605D",
"= 	c #4A4848",
"- 	c #4D4A4A",
"; 	c #373333",
"> 	c #323838",
", 	c #4C4A4A",
"' 	c #686363",
") 	c #342626",
"! 	c #6F6F6F",
"~ 	c #484545",
"{ 	c #2B4343",
"] 	c #175C5D",
"^ 	c #254A4A",
"/ 	c #696363",
"( 	c #3D1818",
"_ 	c #450B0B",
": 	c #391E1E",
"< 	c #5B5B5B",
"[ 	c #334747",
"} 	c #126465",
"| 	c #067576",
"1 	c #0D6B6C",
"2 	c #65617A",
"3 	c #490505",
"4 	c #4B0303",
"5 	c #470909",
"6 	c #373642",
"7 	c #4A4A4A",
"8 	c #393939",
"9 	c #213434",
"0 	c #0D5E5E",
"a 	c #322242",
"b 	c #430F0F",
"c 	c #3A3939",
"d 	c #535353",
"e 	c #6D6D6D",
"f 	c #232323",
"g 	c #171717",
"h 	c #173030",
"i 	c #322141",
"j 	c #444343",
"k 	c #6A6A6A",
"l 	c #757575",
"m 	c #616161",
"n 	c #131313",
"o 	c #0A0A0A",
"p 	c #121212",
"q 	c #38282D",
"r 	c #474646",
"s 	c #666666",
"t 	c #373737",
"u 	c #090909",
"v 	c #434343",
"w 	c #392A2A",
"x 	c #5C5C5C",
"y 	c #242424",
"z 	c #4F4F4F",
"A 	c #494949",
"B 	c #3D2D2D",
"C 	c #6D706F",
"D 	c #565757",
"E 	c #6C6C6C",
"F 	c #3E2F2F",
"G 	c #5F6463",
"H 	c #505E5A",
"I 	c #5A6562",
"J 	c #555756",
"K 	c #3C2F2E",
"L 	c #455450",
"M 	c #475954",
"N 	c #2A4343",
"O 	c #491C1B",
"P 	c #454844",
"Q 	c #432523",
"R 	c #464743",
"S 	c #737373",
"T 	c #696969",
"U 	c #727272",
"V 	c #545958",
"W 	c #434F4B",
"X 	c #3E3E3E",
"Y 	c #717171",
"Z 	c #696E6D",
"` 	c #4E5D59",
" .	c #1C1C1C",
"..	c #454545",
"+.	c #646867",
"@.	c #444444",
"#.	c #616765",
"$.	c #6A6969",
"%.	c #555353",
"&.	c #535252",
"*.	c #364141",
"=.	c #242626",
"-.	c #151515",
"                                                . . . . . . . . . + + + + + + @ @ @ @ @ @ @ @ @ @ # ",
"                                              . . . . . . . . . $ + + + + + @ @ @ @ @ @ @ @ @ @ @ @ ",
"                                            . . . . . . . . . $ + + + + + @ @ @ @ @ @ @ @ @ @ @ @ @ ",
"                                          . . . . . . . . . $ + + + + + @ @ @ @ @ @ @ @ @ @ @ @ @ @ ",
"                                        . . . . . . . . . $ + + + + + @ @ @ @ @ @ @ @ @ @ @ @ @ @ @ ",
"          % % % % % % % % % % % % % % . . . . . . . . . $ + + + + + @ @ @ @ @ @ @ @ @ @ @ @ @ @ @ @ ",
"          % % % % % % % % % % % % % . . . . . . . . . $ + + + + + @ @ @ @ @ @ @ @ @ @ @ @ @ @ @ @ @ ",
"          % % % % % % % % % % % % . . . . . . . & & $ + + + + + @ @ @ @ @ @ @ @ @ @ @ @ @ @ @ @ @ @ ",
"          % % % % % % % % % % % . . . . . . . . & $ + + + + + * @ @ @ @ @ @ @ @ @ @ @ @ @ @ @ @ @ @ ",
"          % % % % % % % % % % . . . . . . . . . $ + + + + = - + * @ @ @ @ @ @ @ @ @ @ @ @ @ @ @ @ @ ",
"          % % % % % % % % % . . . . . . . & & $ + + + + - ; > , + * @ @ @ @ @ @ @ @ @ @ @ @ @ @ @ @ ",
"          % % % % % % % % ' ) . . . . . & & $ + + + + ! ~ { ] ^ , + * @ @ @ @ @ @ @ @ @ @ @ @ @ @ + ",
"          % % % % % % % / ( _ : . . . & & $ + + + + + < [ } | 1 ^ , + * @ @ @ @ @ @ @ @ @ @ @ @ + + ",
"          % % % % % % 2 : 3 4 5 : 6 7 & $ + + + + + < 8 9 0 | | 1 ^ , + * @ @ @ @ @ @ @ @ @ @ + + + ",
"          % % % % % . . a b 4 4 5 : c d e + + + + < 8 f g h 0 | | 1 ^ , + * @ @ @ @ @ @ @ @ + + + + ",
"          % % % % . . . . i b 4 4 5 : j k + + l m 8 f n o p h 0 | | 1 ^ , + * @ @ @ @ @ @ + + + + + ",
"          % % % . . . . . . q b 4 4 5 : r k + + s t n o u u p h 0 | | 1 ^ , + * @ @ @ @ + + + + + + ",
"          % % . . . . . . . v w b 4 4 5 : r k + + x y u u u u p h 0 | | 1 ^ , + * @ @ + + + + + $ . ",
"          % . . . . . . . & z A B b 4 4 5 : r k + C D f u u u u p h 0 | | 1 ^ , + * + + + + + $ . . ",
"          . . . . . . . & & $ E < F b 4 4 5 : r G H I J f u u u u p h 0 | | ] > - + + + + + $ . . . ",
"        . . . . . . . & & $ + + l < F b 4 4 5 K L @ M I J f u u u u p h 0 } N ; = + + + + $ . . . . ",
"      . . . . . . . & & $ + + + + l < F b 4 O P @ @ @ M I J f u u u o g 9 [ ~ - + + + + $ . . . . . ",
"    . . . . . . . & & $ + + + + l + l < F Q R @ @ @ @ @ M I J f u o n f 8 < ! + + + + $ . . . . . . ",
"  . . . . . . . & & $ + + + + S T U + l V W @ @ @ @ @ @ @ M I D y n f 8 < S + + + + $ . . . . . . . ",
". . . . . . . . & $ + + + + S < X & Y Z ` @ @ @ @ @ @ @ @ @ H C x t 8 < S + + + + $ & . . . . . . . ",
". . . . . . . & $ + + + + S < 8 f  ...+.` @ @ @ @ @ @ @ @ L G + + s m S + + + + $ & . . . . . . . . ",
". . . . . . & $ + + + S S < 8 f n o n @.#.` @ @ @ @ @ @ P K r k + + l + + + + $ & . . . . . . . .   ",
". . . . & & $ + + + $.%.&.*.=.-.o u u n @.#.` @ @ @ @ R O 5 : r k + + + + + $ & . . . . . . . .     ",
". . . . . $ + + + + - ~ [ 9 g o u u u f J I #.` @ @ W Q 4 4 5 : r k + + + $ & & . . . . . . .       ",
". . . . $ + + + + = ; N } 0 h p u u u u f J @.#.` ` V F b 4 4 5 : r k e $ & . . . . . . . .         ",
". . . $ + + + + + - > ] | | 0 h p u u u u f n @.+.Z l < F b 4 4 5 : j d & . . . . . . . .           ",
". . $ + + + + + * + , ^ 1 | | 0 h p u u u u u n ..Y + l < F b 4 4 5 : c 7 . . . . . . . %           ",
". $ + + + + + @ @ * + , ^ 1 | | 0 h p u u u u o  .& U + l < F b 4 4 5 : 6 . . . . . . % %           ",
"+ + + + + + @ @ @ @ * + , ^ 1 | | 0 h p u u o n f X T l + l < B b 4 4 5 : . . . . . % % %           ",
"+ + + + + @ @ @ @ @ @ * + , ^ 1 | | 0 h p o -.f 8 < S + + + E A w b 4 4 5 : . . . % % % %           ",
"+ + + + @ @ @ @ @ @ @ @ * + , ^ 1 | | 0 h g =.8 < S + + + + $ z v q b 4 4 _ ) . % % % % %           ",
"+ + + @ @ @ @ @ @ @ @ @ @ * + , ^ 1 | | 0 9 *.< S + + + + $ & & . . i b 3 ( ' % % % % % %           ",
"+ + @ @ @ @ @ @ @ @ @ @ @ @ * + , ^ 1 | } [ &.S + + + + $ & & . . . . a : / % % % % % % %           ",
"+ @ @ @ @ @ @ @ @ @ @ @ @ @ @ * + , ^ ] { ~ %.S + + + $ & & . . . . . . 2 % % % % % % % %           ",
"@ @ @ @ @ @ @ @ @ @ @ @ @ @ @ @ * + , > ; - $.+ + + $ & & . . . . . . . % % % % % % % % %           ",
"@ @ @ @ @ @ @ @ @ @ @ @ @ @ @ @ @ * + - = + + + + $ & & . . . . . . . % % % % % % % % % %           ",
"@ @ @ @ @ @ @ @ @ @ @ @ @ @ @ @ @ @ * + + + + + $ & & . . . . . . . % % % % % % % % % % %           ",
"@ @ @ @ @ @ @ @ @ @ @ @ @ @ @ @ @ @ + + + + + $ & . . . . . . . . % % % % % % % % % % % %           ",
"@ @ @ @ @ @ @ @ @ @ @ @ @ @ @ @ @ + + + + + $ & . . . . . . . . % % % % % % % % % % % % %           ",
"@ @ @ @ @ @ @ @ @ @ @ @ @ @ @ @ + + + + + $ & . . . . . . . . % % % % % % % % % % % % % %           ",
"@ @ @ @ @ @ @ @ @ @ @ @ @ @ @ + + + + + $ . & . . . . . . .                                         ",
"@ @ @ @ @ @ @ @ @ @ @ @ @ @ + + + + + $ . . . . . . . . .                                           ",
"@ @ @ @ @ @ @ @ @ @ @ @ @ + + + + + $ . . . . . . . . .                                             ",
"@ @ @ @ @ @ @ @ @ @ @ @ + + + + + $ . . . . . . . . .                                               ",
"@ @ @ @ @ @ @ @ @ @ @ + + + + + + . . . . . . . . .                                                 "};
