/* XPM */
static char * 19_xpm[] = {
"50 50 12 1",
" 	c #000000",
".	c #505050",
"+	c #767676",
"@	c #455853",
"#	c #1B10FF",
"$	c #373333",
"%	c #067576",
"&	c #393939",
"*	c #202020",
"=	c #090909",
"-	c #303030",
";	c #4B0303",
"           ...+++@@@@@@@@@@@@@@@@+++...           ",
"           ...+++@@@@@@@@@@@@@@@@+++...           ",
"           ...+++@@@@@@@@@@@@@@@@+++...           ",
"           ...+++@@@@@@@@@@@@@@@@+++...           ",
"           ...+++@@@@@@@@@@@@@@@@+++...           ",
"     ######...+++@@@@@@@@@@@@@@@@+++...######     ",
"     ######...+++@@@@@@@@@@@@@@@@+++...######     ",
"     ######...+++@@@@@@@@@@@@@@@@+++...######     ",
"     ######...+++@@@@@@@@@@@@@@@@+++...######     ",
"     ######...++++++++++++++++++++++...######     ",
"     ######...+++$$$$$$$$$$$$$$$$+++...######     ",
"     ######...+++$$%%%%%%%%%%%%$$+++...######     ",
"     ######...+++$$%%%%%%%%%%%%$$+++...######     ",
"     ######...++++&%%%%%%%%%%%%&++++...######     ",
"     ######...++++&************&++++...######     ",
"     ######...++++&*==========*&++++...######     ",
"     ######...++++&*==========*&++++...######     ",
"     ######...++++&*==========*&++++...######     ",
"     ######...++++&*==========*&++++...######     ",
"     ######...++++++++++++++++++++++...######     ",
"     ######...+++++++@@@@@@@@+++++++...######     ",
"     ######...+++++++@@@@@@@@+++++++...######     ",
"     ##--------------@@@@@@@@--------------##     ",
"     ##-;;;;;;;;;;;;;@@@@@@@@;;;;;;;;;;;;;-##     ",
"     ##-;;;;;;;;;;;;;@@@@@@@@;;;;;;;;;;;;;-##     ",
"     ##-;;;;;;;;;;;;;@@@@@@@@;;;;;;;;;;;;;-##     ",
"     ##--------------@@@@@@@@--------------##     ",
"     ######...+++++++@@@@@@@@+++++++...######     ",
"     ######...+++++++@@@@@@@@+++++++...######     ",
"     ######...++++++++++++++++++++++...######     ",
"     ######...++++&*==========*&++++...######     ",
"     ######...++++&*==========*&++++...######     ",
"     ######...++++&*==========*&++++...######     ",
"     ######...++++&*==========*&++++...######     ",
"     ######...++++&************&++++...######     ",
"     ######...++++&%%%%%%%%%%%%&++++...######     ",
"     ######...+++$$%%%%%%%%%%%%$$+++...######     ",
"     ######...+++$$%%%%%%%%%%%%$$+++...######     ",
"     ######...+++$$$$$$$$$$$$$$$$+++...######     ",
"     ######...++++++++++++++++++++++...######     ",
"     ######...++++++++++++++++++++++...######     ",
"     ######...+++@@@@@@@@@@@@@@@@+++...######     ",
"     ######...+++@@@@@@@@@@@@@@@@+++...######     ",
"     ######...+++@@@@@@@@@@@@@@@@+++...######     ",
"     ######...+++@@@@@@@@@@@@@@@@+++...######     ",
"           ...+++@@@@@@@@@@@@@@@@+++...           ",
"           ...+++@@@@@@@@@@@@@@@@+++...           ",
"           ...+++@@@@@@@@@@@@@@@@+++...           ",
"           ...+++@@@@@@@@@@@@@@@@+++...           ",
"           ...+++@@@@@@@@@@@@@@@@+++...           "};
