/* XPM */
static char * 20_xpm[] = {
"50 50 13 1",
" 	c None",
".	c #000000",
"+	c #1B10FF",
"@	c #303030",
"#	c #4B0303",
"$	c #505050",
"%	c #767676",
"&	c #455853",
"*	c #373333",
"=	c #393939",
"-	c #067576",
";	c #202020",
">	c #090909",
"..................................................",
"..................................................",
"..................................................",
"..................................................",
"..................................................",
".....++++++++++++++++++++++++++++++++++++++++.....",
".....++++++++++++++++++++++++++++++++++++++++.....",
".....++++++++++++++++++@@@@@+++++++++++++++++.....",
".....++++++++++++++++++@###@+++++++++++++++++.....",
".....++++++++++++++++++@###@+++++++++++++++++.....",
".....++++++++++++++++++@###@+++++++++++++++++.....",
"$$$$$$$$$$$$$$$$$$$$$$$@###@$$$$$$$$$$$$$$$$$$$$$$",
"$$$$$$$$$$$$$$$$$$$$$$$@###@$$$$$$$$$$$$$$$$$$$$$$",
"$$$$$$$$$$$$$$$$$$$$$$$@###@$$$$$$$$$$$$$$$$$$$$$$",
"%%%%%%%%%%%%%%%%%%%%%%%@###@%%%%%%%%%%%%%%%%%%%%%%",
"%%%%%%%%%%%%%%%%%%%%%%%@###@%%%%%%%%%%%%%%%%%%%%%%",
"%%%%%%%%%%%%%%%%%%%%%%%@###@%%%%%%%%%%%%%%%%%%%%%%",
"&&&&&&&&&%%***%%%%%%%%%@###@%%%%%%%%%***%&&&&&&&&&",
"&&&&&&&&&%%***======%%%@###@%%%======***%&&&&&&&&&",
"&&&&&&&&&%%*---;;;;;%%%@###@%%%;;;;;---*%&&&&&&&&&",
"&&&&&&&&&%%*---;>>>>%%%@###@%%%>>>>;---*%&&&&&&&&&",
"&&&&&&&&&%%*---;>>>>%&&&&&&&&&%>>>>;---*%&&&&&&&&&",
"&&&&&&&&&%%*---;>>>>%&&&&&&&&&%>>>>;---*%&&&&&&&&&",
"&&&&&&&&&%%*---;>>>>%&&&&&&&&&%>>>>;---*%&&&&&&&&&",
"&&&&&&&&&%%*---;>>>>%&&&&&&&&&%>>>>;---*%&&&&&&&&&",
"&&&&&&&&&%%*---;>>>>%&&&&&&&&&%>>>>;---*%&&&&&&&&&",
"&&&&&&&&&%%*---;>>>>%&&&&&&&&&%>>>>;---*%&&&&&&&&&",
"&&&&&&&&&%%*---;>>>>%&&&&&&&&&%>>>>;---*%&&&&&&&&&",
"&&&&&&&&&%%*---;>>>>%&&&&&&&&&%>>>>;---*%&&&&&&&&&",
"&&&&&&&&&%%*---;>>>>%%%@###@%%%>>>>;---*%&&&&&&&&&",
"&&&&&&&&&%%*---;;;;;%%%@###@%%%;;;;;---*%&&&&&&&&&",
"&&&&&&&&&%%***======%%%@###@%%%======***%&&&&&&&&&",
"&&&&&&&&&%%***%%%%%%%%%@###@%%%%%%%%%***%&&&&&&&&&",
"%%%%%%%%%%%%%%%%%%%%%%%@###@%%%%%%%%%%%%%%%%%%%%%%",
"%%%%%%%%%%%%%%%%%%%%%%%@###@%%%%%%%%%%%%%%%%%%%%%%",
"%%%%%%%%%%%%%%%%%%%%%%%@###@%%%%%%%%%%%%%%%%%%%%%%",
"$$$$$$$$$$$$$$$$$$$$$$$@###@$$$$$$$$$$$$$$$$$$$$$$",
"$$$$$$$$$$$$$$$$$$$$$$$@###@$$$$$$$$$$$$$$$$$$$$$$",
"$$$$$$$$$$$$$$$$$$$$$$$@###@$$$$$$$$$$$$$$$$$$$$$$",
".....++++++++++++++++++@###@+++++++++++++++++.....",
".....++++++++++++++++++@###@+++++++++++++++++.....",
".....++++++++++++++++++@###@+++++++++++++++++.....",
".....++++++++++++++++++@@@@@+++++++++++++++++.....",
".....++++++++++++++++++++++++++++++++++++++++.....",
".....++++++++++++++++++++++++++++++++++++++++.....",
"..................................................",
"..................................................",
"..................................................",
"..................................................",
".................................................."};
