/* XPM */
static char * 21_xpm[] = {
"50 50 60 1",
" 	c None",
".	c #000000",
"+	c #1B10FF",
"@	c #5C599C",
"#	c #593F82",
"$	c #551356",
"%	c #5B4A8C",
"&	c #551759",
"*	c #413E80",
"=	c #540C4E",
"-	c #514B8D",
";	c #35286B",
">	c #200D50",
",	c #5B589A",
"'	c #372A6D",
")	c #1F0C4C",
"!	c #382C5B",
"~	c #373458",
"{	c #5B589B",
"]	c #2E1F62",
"^	c #271751",
"/	c #363257",
"(	c #3C3759",
"_	c #44405B",
":	c #3A2F71",
"<	c #23124E",
"[	c #3E3A59",
"}	c #47435C",
"|	c #524E60",
"1	c #504A8C",
"2	c #1B0849",
"3	c #3A3658",
"4	c #47425B",
"5	c #534E60",
"6	c #575262",
"7	c #261558",
"8	c #2C1C53",
"9	c #443F5B",
"0	c #49445C",
"a	c #563D5C",
"b	c #1B0749",
"c	c #383459",
"d	c #383458",
"e	c #4E495E",
"f	c #551F54",
"g	c #200D4D",
"h	c #3C3859",
"i	c #2D1D54",
"j	c #413C5A",
"k	c #565061",
"l	c #544E90",
"m	c #3B355A",
"n	c #463E80",
"o	c #3A3559",
"p	c #46415B",
"q	c #372C6E",
"r	c #373358",
"s	c #2A1B5E",
"t	c #210F51",
"u	c #1C094C",
"..................................................",
"..................................................",
"..................................................",
"..................................................",
"..................................................",
".....++++++++++++++++++++++++++++++++++++++++.....",
".....++++++++++++++++++++++++++++++++++++++++.....",
".....++++++++++++++++++++++++++++++++++++++++.....",
".....+++++++++@@@@@@@@@@@@@@@@@@@@@@+++++++++.....",
".....+++++++++@#$#@@@@@@@@@@@@@@%&%@+++++++++.....",
".....++++++***@$=$@@@@-;>>;-@@@@&=&@***++++++.....",
".....++++++***@#$#@@,')!~~!)',@@%&%@***++++++.....",
".....++++++***@@@@@{]^/(__(/^]{@@@@@***++++++.....",
".....++++++***@@@@@:</[}||}[/<:@@@@@***++++++.....",
".....++++++***@@@@12~34566543~21@@@@***++++++.....",
".....++++++***@@@@78/906aa609/87@@@@***++++++.....",
".....++++++***@@@-bcd4e6ff6e4dcb-@@@***++++++.....",
".....++++++***@@@;g/h4|6==6|4h/g;@@@***++++++.....",
".....++++++***@@,bi/j4k6==6k4j/ib,@@***++++++.....",
".....++++++***@@lbm/_466ff664_/mbl@@***++++++.....",
".....++++++***@@nbo/p4k6aa6k4p/obn@@***++++++.....",
".....++++++***@@qbr/p4|6666|4p/rbq@@***++++++.....",
".....++++++***@@sb//_4e6666e4_//bs@@***++++++.....",
".....++++++***@@tbr/j40666604j/rbt@@***++++++.....",
".....++++++***@@ubo/h44566544h/obu@@***++++++.....",
".....++++++***@@ubm/d44}||}44d/mbu@@***++++++.....",
".....++++++***@@tbi//94444449//ibt@@***++++++.....",
".....++++++***@@sbg//34444443//gbs@@***++++++.....",
".....++++++***@@qbbc//[4444[//cbbq@@***++++++.....",
".....++++++***@@nbb8///(__(///8bbn@@***++++++.....",
".....++++++***@@lbb2~////////~2bbl@@***++++++.....",
".....++++++***@@,bbb<////////<bbb,@@***++++++.....",
".....++++++***@@@;bbb^//////^bbb;@@@***++++++.....",
".....++++++***@@@-bbbb)!~~!)bbbb-@@@***++++++.....",
".....++++++***@@@@7bbbbbbbbbbbb7@@@@***++++++.....",
".....++++++***@@@@1bbbbbbbbbbbb1@@@@***++++++.....",
".....++++++***@@@@@:bbbbbbbbbb:@@@@@***++++++.....",
".....++++++***@@@@@{]bbbbbbbb]{@@@@@***++++++.....",
".....++++++***@%&%@@,'bbbbbb',@@%&%@***++++++.....",
".....++++++***@&=&@@@@-;>>;-@@@@&=&@***++++++.....",
".....+++++++++@%&%@@@@@@@@@@@@@@%&%@+++++++++.....",
".....+++++++++@@@@@@@@@@@@@@@@@@@@@@+++++++++.....",
".....++++++++++++++++++++++++++++++++++++++++.....",
".....++++++++++++++++++++++++++++++++++++++++.....",
".....++++++++++++++++++++++++++++++++++++++++.....",
"..................................................",
"..................................................",
"..................................................",
"..................................................",
".................................................."};
