/* XPM */
static char * 22_xpm[] = {
"50 50 9 1",
" 	c None",
".	c #3E4F4B",
"+	c #767676",
"@	c #646467",
"#	c #4E4E54",
"$	c #000000",
"%	c #374642",
"&	c #1B10FF",
"*	c #6F6F70",
"..........+++++@#########$$$$$$$$$$$$$$$$$$$$$$$$$",
".%%%%%%%%%++++@#########$$$$$$$$$$$$$$$$$$$$$$$$$$",
"+++++++++++++@#########$$$$$$$$$$$$$$$$$$$$$$$$$$$",
"++++++++++++@#########$$$$$$$$$$$$$$$$$$$$$$$$$$$$",
"+++++++++++@#########$$$$$$$$$$$$$$$$$$$$$$$$$$$$$",
"++++++++++@#########&&&&&&&&&&&&&&&&&&&&&&&&&$$$$$",
"+++++++++@#########&&&&&&&&&&&&&&&&&&&&&&&&&&$$$$$",
"++++++++@#########&&&&&&&&&&&&&&&&&&&&&&&&&&&$$$$$",
"+++++++@#########&&&&&&&&&&&&&&&&&&&&&&&&&&&&$$$$$",
"++++++@#########&&&&&&&&&&&&&&&&&&&&&&&&&&&&&$$$$$",
"+++++@#########&&&&&&&&&&&&&&&&&&&&&&&&&&&&&&$$$$$",
"++++@#########&&&&&&&&&&&&&&&&&&&&&&&&&&&&&&&$$$$$",
"+++@#########&&&&&&&&&&&&&&&&&&&&&&&&&&&&&&&&$$$$$",
"++@#########&&&&&&&&&&&&&&&&&&&&&&&&&&&&&&&&&$$$$$",
"+@#########&&&&&&&&&&&&&&&&&&&&&&&&&&&&&&&&&&$$$$$",
"@#########&&&&&&&&&&&&&&&&&&&&&&&&&&&&&&&&&&&$$$$$",
"#########&&&&&&&&&&&&&&&&&&&&&&&&&&&&&&&&&&&&$$$$$",
"########&&&&&&&&&&&&&&&&&&&&&&&&&&&&&&&&&&&&&$$$$$",
"#######&&&&&&&&&&&&&&&&&&&&&&&&&&&&&&&&&&&&&&$$$$$",
"######&&&&&&&&&&&&&&&&&&&&&&&&&&&&&&&&&&&&&&&$$$$$",
"#####&&&&&&&&&&&&&&&&&&&&&&&&&&&&&&&&&&&&&&&&$$$$$",
"####&&&&&&&&&&&&&&&&&&&&&&&&&&&&&&&&&&&&&&&&&$$$$$",
"###&&&&&&&&&&&&&&&&&&&&&&&&&&&&&&&&&&&&&&&&&&$$$$$",
"##&&&&&&&&&&&&&&&&&&&&&&&&&&&&&&&&&&&&&&&&&&&$$$$$",
"#&&&&&&&&&&&&&&&&&&&&&&&&&&&&&&&&&&&&&&&&&&&&$$$$$",
"#&&&&&&&&&&&&&&&&&&&&&&&&&&&&&&&&&&&&&&&&&&&&$$$$$",
"##&&&&&&&&&&&&&&&&&&&&&&&&&&&&&&&&&&&&&&&&&&&$$$$$",
"###&&&&&&&&&&&&&&&&&&&&&&&&&&&&&&&&&&&&&&&&&&$$$$$",
"####&&&&&&&&&&&&&&&&&&&&&&&&&&&&&&&&&&&&&&&&&$$$$$",
"#####&&&&&&&&&&&&&&&&&&&&&&&&&&&&&&&&&&&&&&&&$$$$$",
"######&&&&&&&&&&&&&&&&&&&&&&&&&&&&&&&&&&&&&&&$$$$$",
"#######&&&&&&&&&&&&&&&&&&&&&&&&&&&&&&&&&&&&&&$$$$$",
"########&&&&&&&&&&&&&&&&&&&&&&&&&&&&&&&&&&&&&$$$$$",
"#########&&&&&&&&&&&&&&&&&&&&&&&&&&&&&&&&&&&&$$$$$",
"*#########&&&&&&&&&&&&&&&&&&&&&&&&&&&&&&&&&&&$$$$$",
"+*#########&&&&&&&&&&&&&&&&&&&&&&&&&&&&&&&&&&$$$$$",
"++*#########&&&&&&&&&&&&&&&&&&&&&&&&&&&&&&&&&$$$$$",
"+++*#########&&&&&&&&&&&&&&&&&&&&&&&&&&&&&&&&$$$$$",
"++++*#########&&&&&&&&&&&&&&&&&&&&&&&&&&&&&&&$$$$$",
"+++++*#########&&&&&&&&&&&&&&&&&&&&&&&&&&&&&&$$$$$",
"++++++*#########&&&&&&&&&&&&&&&&&&&&&&&&&&&&&$$$$$",
"+++++++*#########&&&&&&&&&&&&&&&&&&&&&&&&&&&&$$$$$",
"++++++++*#########&&&&&&&&&&&&&&&&&&&&&&&&&&&$$$$$",
"+++++++++*#########&&&&&&&&&&&&&&&&&&&&&&&&&&$$$$$",
"++++++++++*#########&&&&&&&&&&&&&&&&&&&&&&&&&$$$$$",
"+++++++++++*#########$$$$$$$$$$$$$$$$$$$$$$$$$$$$$",
"++++++++++++*#########$$$$$$$$$$$$$$$$$$$$$$$$$$$$",
"+++++++++++++*#########$$$$$$$$$$$$$$$$$$$$$$$$$$$",
"%%%%%%%%%.++++*#########$$$$$$$$$$$$$$$$$$$$$$$$$$",
"..........+++++*#########$$$$$$$$$$$$$$$$$$$$$$$$$"};
