/* XPM */
static char * 25_xpm[] = {
"50 50 9 1",
" 	c None",
".	c #000000",
"+	c #1B10FF",
"@	c #4E4E54",
"#	c #646467",
"$	c #6F6F70",
"%	c #767676",
"&	c #3E4F4B",
"*	c #374642",
"..................................................",
"..................................................",
"..................................................",
"..................................................",
"..................................................",
".....++++++++++++++++++++++++++++++++++++++++.....",
".....++++++++++++++++++++++++++++++++++++++++.....",
".....++++++++++++++++++++++++++++++++++++++++.....",
".....++++++++++++++++++++++++++++++++++++++++.....",
".....++++++++++++++++++++++++++++++++++++++++.....",
".....++++++++++++++++++++++++++++++++++++++++.....",
".....++++++++++++++++++++++++++++++++++++++++.....",
".....++++++++++++++++++++++++++++++++++++++++.....",
".....++++++++++++++++++++++++++++++++++++++++.....",
".....++++++++++++++++++++++++++++++++++++++++.....",
".....++++++++++++++++++++++++++++++++++++++++.....",
".....++++++++++++++++++++++++++++++++++++++++.....",
".....++++++++++++++++++++++++++++++++++++++++.....",
".....++++++++++++++++++++++++++++++++++++++++.....",
".....++++++++++++++++++++++++++++++++++++++++.....",
".....++++++++++++++++++++++++++++++++++++++++.....",
".....++++++++++++++++++++++++++++++++++++++++.....",
".....++++++++++++++++++++++++++++++++++++++++.....",
".....++++++++++++++++++++++++++++++++++++++++.....",
".....++++++++++++++++++++++++++++++++++++++++.....",
"@....++++++++++++++++++++++++++++++++++++++++....@",
"@@...++++++++++++++++++++++++++++++++++++++++...@@",
"@@@..++++++++++++++++++++++++++++++++++++++++..@@@",
"@@@@.++++++++++++++++++++++++++++++++++++++++.@@@@",
"@@@@@++++++++++++++++++++++++++++++++++++++++@@@@@",
"@@@@@@++++++++++++++++++++++++++++++++++++++@@@@@@",
"@@@@@@@++++++++++++++++++++++++++++++++++++@@@@@@@",
"@@@@@@@@++++++++++++++++++++++++++++++++++@@@@@@@@",
"@@@@@@@@@++++++++++++++++++++++++++++++++@@@@@@@@@",
"#@@@@@@@@@++++++++++++++++++++++++++++++@@@@@@@@@$",
"%#@@@@@@@@@++++++++++++++++++++++++++++@@@@@@@@@$%",
"%%#@@@@@@@@@++++++++++++++++++++++++++@@@@@@@@@$%%",
"%%%#@@@@@@@@@++++++++++++++++++++++++@@@@@@@@@$%%%",
"%%%%#@@@@@@@@@++++++++++++++++++++++@@@@@@@@@$%%%%",
"%%%%%#@@@@@@@@@++++++++++++++++++++@@@@@@@@@$%%%%%",
"&*%%%%#@@@@@@@@@++++++++++++++++++@@@@@@@@@$%%%%&&",
"&*%%%%%#@@@@@@@@@++++++++++++++++@@@@@@@@@$%%%%%*&",
"&*%%%%%%#@@@@@@@@@++++++++++++++@@@@@@@@@$%%%%%%*&",
"&*%%%%%%%#@@@@@@@@@++++++++++++@@@@@@@@@$%%%%%%%*&",
"&*%%%%%%%%#@@@@@@@@@++++++++++@@@@@@@@@$%%%%%%%%*&",
"&*%%%%%%%%%#@@@@@@@@@++++++++@@@@@@@@@$%%%%%%%%%*&",
"&*%%%%%%%%%%#@@@@@@@@@++++++@@@@@@@@@$%%%%%%%%%%*&",
"&*%%%%%%%%%%%#@@@@@@@@@++++@@@@@@@@@$%%%%%%%%%%%*&",
"&*%%%%%%%%%%%%#@@@@@@@@@++@@@@@@@@@$%%%%%%%%%%%%*&",
"&&%%%%%%%%%%%%%#@@@@@@@@@@@@@@@@@@$%%%%%%%%%%%%%*&"};
