/* XPM */
static char * 26_xpm[] = {
"50 50 40 1",
" 	c None",
".	c #000000",
"+	c #1B10FF",
"@	c #2016EE",
"#	c #2D26C4",
"$	c #3B3795",
"%	c #48466B",
"&	c #4E4E55",
"*	c #1B10FE",
"=	c #2921D1",
"-	c #47456D",
";	c #505050",
">	c #2319E6",
",	c #312BB6",
"'	c #4F4242",
")	c #4E2A2A",
"!	c #4C1414",
"~	c #4B0606",
"{	c #4F3B3B",
"]	c #4B0707",
"^	c #4B0303",
"/	c #504E4E",
"(	c #4D2020",
"_	c #4C030E",
":	c #4F0436",
"<	c #520561",
"[	c #55067C",
"}	c #4B0307",
"|	c #51054A",
"1	c #550682",
"2	c #54067B",
"3	c #303030",
"4	c #4E4E54",
"5	c #646467",
"6	c #6F6F70",
"7	c #767676",
"8	c #4D4D55",
"9	c #4D4D54",
"0	c #3E4F4B",
"a	c #374642",
"..................................................",
"..................................................",
"..................................................",
"..................................................",
"..................................................",
".....++++++++++++++++++++++++++++++++++++++++.....",
".....++++++++++++++++++++++++++++++++++++++++.....",
".....++++++++++++++++++++++++++++++++++++++++.....",
".....++++++++++++++++++++++++++++++++++++++++.....",
".....++++++++++++++++++++++++++++++++++++++++.....",
".....+++++++++++++++@#$%&&%$#@+++++++++++++++.....",
".....++++++++++++*=-;;;;;;;;;;-=*++++++++++++.....",
".....+++++++++++>-;;;;;;;;;;;;;;->+++++++++++.....",
".....++++++++++#;;;;;;;;;;;;;;;;;;#++++++++++.....",
".....+++++++++,;;;;;;')!~~!)';;;;;;,+++++++++.....",
".....++++++++#;;;;;{]^^^^^^^^]{;;;;;#++++++++.....",
".....+++++++>;;;;/(^^_:<[[<:_^^(/;;;;>+++++++.....",
".....++++++*-;;;/!^}|11111111|}^!/;;;-*++++++.....",
".....++++++=;;;;(^_211133331112_^(;;;;=++++++.....",
".....++++++-;;;{^}21111333311112}^{;;;-++++++.....",
".....+++++@;;;;]^|11111333311111|^];;;;@+++++.....",
".....+++++#;;;'^_1111113333111111_^';;;#+++++.....",
".....+++++$;;;)^:1333333333333331:^);;;$+++++.....",
".....+++++%;;;!^<1333333333333331<^!;;;%+++++.....",
".....+++++&;;;~^[1333333333333331[^~;;;&+++++.....",
"4....+++++&;;;~^[1333333333333331[^~;;;&+++++....4",
"44...+++++%;;;!^<1333333333333331<^!;;;%+++++...44",
"444..+++++$;;;)^:1333333333333331:^);;;$+++++..444",
"4444.+++++#;;;'^_1111113333111111_^';;;#+++++.4444",
"44444*++++@;;;;]^|11111333311111|^];;;;@+++++44444",
"444444+++++-;;;{^}21111333311112}^{;;;-+++++444444",
"4444444++++=;;;;(^_211133331112_^(;;;;=++++4444444",
"44444444+++*-;;;/!^}|11111111|}^!/;;;-*+++44444444",
"444444444+++>;;;;/(^^_:<[[<:_^^(/;;;;>+++444444444",
"5444444444+++#;;;;;{]^^^^^^^^]{;;;;;#+++4444444446",
"75444444444+++,;;;;;;')!~~!)';;;;;;,+++44444444467",
"775444444444+++#;;;;;;;;;;;;;;;;;;#+++444444444677",
"7775444444448+++>-;;;;;;;;;;;;;;->+++4444444446777",
"77775444444448+++*=-;;;;;;;;;;-=*+++44444444467777",
"777775444444449+++++@#$%&&%$#++++++444444444677777",
"0a77775444444449++++++++++++++++++4444444446777700",
"0a777775444444449++++++++++++++++444444444677777a0",
"0a7777775444444444++++++++++++++4444444446777777a0",
"0a77777775444444444++++++++++++44444444467777777a0",
"0a777777775448444444++++++++++444444444677777777a0",
"0a7777777775444444444++++++++4444444446777777777a0",
"0a77777777775444444444++++++44444444467777777777a0",
"0a777777777775444444444++++444444444677777777777a0",
"0a7777777777775444444444++4444444446777777777777a0",
"007777777777777544444444444444444467777777777777a0"};
