/* XPM */
static char * 28_xpm[] = {
"50 50 40 1",
" 	c None",
".	c #000000",
"+	c #4E4E54",
"@	c #6F6F70",
"#	c #767676",
"$	c #3E4F4B",
"%	c #374642",
"&	c #1B10FF",
"*	c #2016EE",
"=	c #2D26C4",
"-	c #3B3795",
";	c #48466B",
">	c #4E4E55",
",	c #1B10FE",
"'	c #2921D1",
")	c #47456D",
"!	c #505050",
"~	c #2319E6",
"{	c #312BB6",
"]	c #4F4242",
"^	c #4E2A2A",
"/	c #4C1414",
"(	c #4B0606",
"_	c #4F3B3B",
":	c #4B0707",
"<	c #4B0303",
"[	c #504E4E",
"}	c #4D2020",
"|	c #4C030E",
"1	c #4F0436",
"2	c #520561",
"3	c #55067C",
"4	c #4B0307",
"5	c #51054A",
"6	c #550682",
"7	c #54067B",
"8	c #303030",
"9	c #4D4D54",
"0	c #646467",
"a	c #4D4D55",
".........................+++++++++@#####$$$$$$$$$$",
"..........................+++++++++@####$%%%%%%%%%",
"...........................+++++++++@#############",
"............................+++++++++@############",
".............................+++++++++@###########",
".....&&&&&&&&&&&&&&&&&&&&&&&&&+++++++++@##########",
".....&&&&&&&&&&&&&&&&&&&&&&&&&&+++++++++@#########",
".....&&&&&&&&&&&&&&&&&&&&&&&&&&&+++++++++@########",
".....&&&&&&&&&&&&&&&&&&&&&&&&&&&&+++++++++@#######",
".....&&&&&&&&&&&&&&&&&&&&&&&&&&&&&+++++++++@######",
".....&&&&&&&&&&&&&&&*=-;>>;-=*&&&&&+++++++++@#####",
".....&&&&&&&&&&&&,')!!!!!!!!!!)',&&&+++++++++@####",
".....&&&&&&&&&&&~)!!!!!!!!!!!!!!)~&&&+++++++++@###",
".....&&&&&&&&&&=!!!!!!!!!!!!!!!!!!=&&&+++++++++@##",
".....&&&&&&&&&{!!!!!!]^/((/^]!!!!!!{&&&+++++++++@#",
".....&&&&&&&&=!!!!!_:<<<<<<<<:_!!!!!=&&&+++++++++@",
".....&&&&&&&~!!!![}<<|123321|<<}[!!!!~&&&+++++++++",
".....&&&&&&,)!!![/<456666666654</[!!!),&&&++++++++",
".....&&&&&&'!!!!}<|766888888667|<}!!!!'&&&&+++++++",
".....&&&&&&)!!!_<4766688888866674<_!!!)&&&&&++++++",
".....&&&&&*!!!!:<5666688888866665<:!!!!&&&&&&+++++",
".....&&&&&=!!!]<|6666688888866666|<]!!!=&&&&&&++++",
".....&&&&&-!!!^<166666888888666661<^!!!-&&&&&&&+++",
".....&&&&&;!!!/<268888888888888862</!!!;&&&&&&&&++",
".....&&&&&>!!!(<368888888888888863<(!!!>&&&&&&&&&+",
".....&&&&&>!!!(<368888888888888863<(!!!>&&&&&&&&&+",
".....&&&&&;!!!/<268888888888888862</!!!;&&&&&&&&++",
".....&&&&&-!!!^<166666888888666661<^!!!-&&&&&&&+++",
".....&&&&&=!!!]<|6666688888866666|<]!!!=&&&&&&++++",
".....&&&&&*!!!!:<5666688888866665<:!!!!*&&&&&+++++",
".....&&&&&&)!!!_<4766688888866674<_!!!)&&&&&++++++",
".....&&&&&&'!!!!}<|766888888667|<}!!!!'&&&&+++++++",
".....&&&&&&,)!!![/<456666666654</[!!!),&&&++++++++",
".....&&&&&&&~!!!![}<<|123321|<<}[!!!!~&&&9++++++++",
".....&&&&&&&&=!!!!!_:<<<<<<<<:_!!!!!=&&&9++++++++0",
".....&&&&&&&&&{!!!!!!]^/((/^]!!!!!!{&&&9++++++++0#",
".....&&&&&&&&&&=!!!!!!!!!!!!!!!!!!=&&&a+++++a++0##",
".....&&&&&&&&&&&~)!!!!!!!!!!!!!!)~&&&a++++++++0###",
".....&&&&&&&&&&&&,')!!!!!!!!!!)',&&&+++++++++0####",
".....&&&&&&&&&&&&&&&*=-;>>;-=*&&&&&+++++++++0#####",
".....&&&&&&&&&&&&&&&&&&&&&&&&&&&&&+++++++++0######",
".....&&&&&&&&&&&&&&&&&&&&&&&&&&&&+++++++++0#######",
".....&&&&&&&&&&&&&&&&&&&&&&&&&&&+++++++++0########",
".....&&&&&&&&&&&&&&&&&&&&&&&&&&+++++++++0#########",
".....&&&&&&&&&&&&&&&&&&&&&&&&,+++++++++0##########",
".............................+++++++++0###########",
"............................+++++++++0############",
"...........................+++++++++0#############",
"..........................+++++++++0####%%%%%%%%%$",
".........................+++++++++0#####$$$$$$$$$$"};
