/* XPM */
static char * 29_xpm[] = {
"50 50 40 1",
" 	c None",
".	c #3E4F4B",
"+	c #767676",
"@	c #646467",
"#	c #4E4E54",
"$	c #000000",
"%	c #374642",
"&	c #1B10FE",
"*	c #1B10FF",
"=	c #2016EE",
"-	c #2D26C4",
";	c #3B3795",
">	c #48466B",
",	c #4E4E55",
"'	c #2921D1",
")	c #47456D",
"!	c #505050",
"~	c #4D4D55",
"{	c #2319E6",
"]	c #4D4D54",
"^	c #312BB6",
"/	c #4F4242",
"(	c #4E2A2A",
"_	c #4C1414",
":	c #4B0606",
"<	c #4F3B3B",
"[	c #4B0707",
"}	c #4B0303",
"|	c #504E4E",
"1	c #4D2020",
"2	c #4C030E",
"3	c #4F0436",
"4	c #520561",
"5	c #55067C",
"6	c #4B0307",
"7	c #51054A",
"8	c #550682",
"9	c #54067B",
"0	c #303030",
"a	c #6F6F70",
"..........+++++@#########$$$$$$$$$$$$$$$$$$$$$$$$$",
".%%%%%%%%%++++@#########$$$$$$$$$$$$$$$$$$$$$$$$$$",
"+++++++++++++@#########$$$$$$$$$$$$$$$$$$$$$$$$$$$",
"++++++++++++@#########$$$$$$$$$$$$$$$$$$$$$$$$$$$$",
"+++++++++++@#########$$$$$$$$$$$$$$$$$$$$$$$$$$$$$",
"++++++++++@#########&************************$$$$$",
"+++++++++@#########**************************$$$$$",
"++++++++@#########***************************$$$$$",
"+++++++@#########****************************$$$$$",
"++++++@#########*****************************$$$$$",
"+++++@#########*****=-;>,,>;-=***************$$$$$",
"++++@#########***&')!!!!!!!!!!)'&************$$$$$",
"+++@########~***{)!!!!!!!!!!!!!!){***********$$$$$",
"++@##~#####~***-!!!!!!!!!!!!!!!!!!-**********$$$$$",
"+@########]***^!!!!!!/(_::_(/!!!!!!^*********$$$$$",
"@########]***-!!!!!<[}}}}}}}}[<!!!!!-********$$$$$",
"########]***{!!!!|1}}23455432}}1|!!!!{*******$$$$$",
"########***&)!!!|_}678888888876}_|!!!)&******$$$$$",
"#######****'!!!!1}29880000008892}1!!!!'******$$$$$",
"######*****)!!!<}6988800000088896}<!!!)******$$$$$",
"#####*****=!!!![}7888800000088887}[!!!!=*****$$$$$",
"####******-!!!/}288888000000888882}/!!!-*****$$$$$",
"###*******;!!!(}388888000000888883}(!!!;*****$$$$$",
"##********>!!!_}480000000000000084}_!!!>*****$$$$$",
"#*********,!!!:}580000000000000085}:!!!,*****$$$$$",
"#*********,!!!:}580000000000000085}:!!!,*****$$$$$",
"##********>!!!_}480000000000000084}_!!!>*****$$$$$",
"###*******;!!!(}388888000000888883}(!!!;*****$$$$$",
"####******-!!!/}288888000000888882}/!!!-*****$$$$$",
"#####******!!!![}7888800000088887}[!!!!=*****$$$$$",
"######*****)!!!<}6988800000088896}<!!!)******$$$$$",
"#######****'!!!!1}29880000008892}1!!!!'******$$$$$",
"########***&)!!!|_}678888888876}_|!!!)&******$$$$$",
"#########***{!!!!|1}}23455432}}1|!!!!{*******$$$$$",
"a#########***-!!!!!<[}}}}}}}}[<!!!!!-********$$$$$",
"+a#########***^!!!!!!/(_::_(/!!!!!!^*********$$$$$",
"++a#########***-!!!!!!!!!!!!!!!!!!-**********$$$$$",
"+++a#########***{)!!!!!!!!!!!!!!){***********$$$$$",
"++++a#########***&')!!!!!!!!!!)'&************$$$$$",
"+++++a#########*****=-;>,,>;-=***************$$$$$",
"++++++a#########*****************************$$$$$",
"+++++++a#########****************************$$$$$",
"++++++++a#########***************************$$$$$",
"+++++++++a#########**************************$$$$$",
"++++++++++a#########*************************$$$$$",
"+++++++++++a#########$$$$$$$$$$$$$$$$$$$$$$$$$$$$$",
"++++++++++++a#########$$$$$$$$$$$$$$$$$$$$$$$$$$$$",
"+++++++++++++a#########$$$$$$$$$$$$$$$$$$$$$$$$$$$",
"%%%%%%%%%.++++a#########$$$$$$$$$$$$$$$$$$$$$$$$$$",
"..........+++++a#########$$$$$$$$$$$$$$$$$$$$$$$$$"};
