/* XPM */
static char * 30_xpm[] = {
"50 50 106 2",
"  	c None",
". 	c #000000",
"+ 	c #1B10FF",
"@ 	c #2016EE",
"# 	c #2D26C4",
"$ 	c #3B3795",
"% 	c #48466B",
"& 	c #4E4E55",
"* 	c #1B10FE",
"= 	c #2921D1",
"- 	c #47456D",
"; 	c #505050",
"> 	c #2319E6",
", 	c #312BB6",
"' 	c #4F4242",
") 	c #4E2A2A",
"! 	c #4C1414",
"~ 	c #4B0606",
"{ 	c #4F3B3B",
"] 	c #4B0707",
"^ 	c #4B0303",
"/ 	c #504E4E",
"( 	c #4D2020",
"_ 	c #4C030E",
": 	c #4F0436",
"< 	c #520561",
"[ 	c #55067C",
"} 	c #4B0307",
"| 	c #51054A",
"1 	c #550682",
"2 	c #54067B",
"3 	c #303030",
"4 	c #060336",
"5 	c #4E4E54",
"6 	c #4D4D55",
"7 	c #4E4D65",
"8 	c #4F4F51",
"9 	c #747374",
"0 	c #555555",
"a 	c #505051",
"b 	c #1C11FF",
"c 	c #767676",
"d 	c #757575",
"e 	c #747474",
"f 	c #51514D",
"g 	c #53605C",
"h 	c #4F5E5A",
"i 	c #455853",
"j 	c #4A5B56",
"k 	c #445752",
"l 	c #3F504C",
"m 	c #3A4A46",
"n 	c #3B4B46",
"o 	c #3F514C",
"p 	c #313E3B",
"q 	c #252826",
"r 	c #1B1816",
"s 	c #1C1918",
"t 	c #262A28",
"u 	c #34423E",
"v 	c #1B1212",
"w 	c #2A0606",
"x 	c #300201",
"y 	c #2F0202",
"z 	c #280707",
"A 	c #1C1716",
"B 	c #34433F",
"C 	c #475B56",
"D 	c #450303",
"E 	c #490202",
"F 	c #480202",
"G 	c #440303",
"H 	c #270404",
"I 	c #26312E",
"J 	c #455752",
"K 	c #1E14FA",
"L 	c #470202",
"M 	c #290202",
"N 	c #1D1E1D",
"O 	c #3D4F4A",
"P 	c #747475",
"Q 	c #460202",
"R 	c #290303",
"S 	c #1F211F",
"T 	c #3E4F4B",
"U 	c #4E4E52",
"V 	c #727273",
"W 	c #4C0303",
"X 	c #230304",
"Y 	c #26322F",
"Z 	c #727272",
"` 	c #270808",
" .	c #290000",
"..	c #270000",
"+.	c #060C0C",
"@.	c #3E504B",
"#.	c #445853",
"$.	c #13131A",
"%.	c #4F4E59",
"&.	c #292F2D",
"*.	c #29312E",
"=.	c #374642",
"-.	c #53615D",
";.	c #06033B",
">.	c #41534E",
",.	c #6C706F",
". . . . . . . . . . . . . . . . . . . . . . . . . . . . . . . . . . . . . . . . . . . . . . . . . . ",
". . . . . . . . . . . . . . . . . . . . . . . . . . . . . . . . . . . . . . . . . . . . . . . . . . ",
". . . . . . . . . . . . . . . . . . . . . . . . . . . . . . . . . . . . . . . . . . . . . . . . . . ",
". . . . . . . . . . . . . . . . . . . . . . . . . . . . . . . . . . . . . . . . . . . . . . . . . . ",
". . . . . . . . . . . . . . . . . . . . . . . . . . . . . . . . . . . . . . . . . . . . . . . . . . ",
". . . . . + + + + + + + + + + + + + + + + + + + + + + + + + + + + + + + + + + + + + + + + . . . . . ",
". . . . . + + + + + + + + + + + + + + + + + + + + + + + + + + + + + + + + + + + + + + + + . . . . . ",
". . . . . + + + + + + + + + + + + + + + + + + + + + + + + + + + + + + + + + + + + + + + + . . . . . ",
". . . . . + + + + + + + + + + + + + + + + + + + + + + + + + + + + + + + + + + + + + + + + . . . . . ",
". . . . . + + + + + + + + + + + + + + + + + + + + + + + + + + + + + + + + + + + + + + + + . . . . . ",
". . . . . + + + + + + + + + + + + + + + @ # $ % & & % $ # @ + + + + + + + + + + + + + + + . . . . . ",
". . . . . + + + + + + + + + + + + * = - ; ; ; ; ; ; ; ; ; ; - = * + + + + + + + + + + + + . . . . . ",
". . . . . + + + + + + + + + + + > - ; ; ; ; ; ; ; ; ; ; ; ; ; ; - > + + + + + + + + + + + . . . . . ",
". . . . . + + + + + + + + + + # ; ; ; ; ; ; ; ; ; ; ; ; ; ; ; ; ; ; # + + + + + + + + + + . . . . . ",
". . . . . + + + + + + + + + , ; ; ; ; ; ; ' ) ! ~ ~ ! ) ' ; ; ; ; ; ; , + + + + + + + + + . . . . . ",
". . . . . + + + + + + + + # ; ; ; ; ; { ] ^ ^ ^ ^ ^ ^ ^ ^ ] { ; ; ; ; ; # + + + + + + + + . . . . . ",
". . . . . + + + + + + + > ; ; ; ; / ( ^ ^ _ : < [ [ < : _ ^ ^ ( / ; ; ; ; > + + + + + + + . . . . . ",
". . . . . + + + + + + * - ; ; ; / ! ^ } | 1 1 1 1 1 1 1 1 | } ^ ! / ; ; ; - * + + + + + + . . . . . ",
". . . . . + + + + + + = ; ; ; ; ( ^ _ 2 1 1 1 3 3 3 3 1 1 1 2 _ ^ ( ; ; ; ; = + + + + + + . . . . . ",
". . . . . + + + + + + - ; ; ; { ^ } 2 1 1 1 1 3 3 3 3 1 1 1 1 2 } ^ { ; ; ; - + + + + + + . . . . . ",
". . . . . + + + + + @ ; ; ; ; ] ^ | 1 1 1 1 1 3 3 3 3 1 1 1 1 1 | ^ ] ; ; ; ; @ + + + + + . . . . . ",
". . . . . + + + + + # ; ; ; ' ^ _ 1 1 1 1 1 1 3 3 3 3 1 1 1 1 1 1 _ ^ ' ; ; ; # + + + + + . . . . . ",
". . . . . + + + + + $ ; ; ; ) ^ : 1 3 3 3 3 3 3 3 3 3 3 3 3 3 3 1 : ^ ) ; ; ; $ + + + + + . . . . . ",
". . . . . + + + + + % ; ; ; ! ^ < 1 3 3 3 3 3 3 3 3 3 3 3 3 3 3 1 < ^ ! ; ; ; % + + + + + . . . . . ",
". . . . . + + + + + & ; ; ; ~ ^ [ 1 3 3 3 3 3 3 3 3 3 3 3 3 3 3 1 [ ^ ~ ; ; ; & + + + + + . . . . 4 ",
". . . . . + + + + + & ; ; ; ~ ^ [ 1 3 3 3 3 3 3 3 3 3 3 3 3 3 3 1 [ ^ ~ ; ; ; & + + + + + . . . . 5 ",
". . . . . + + + + + % ; ; ; ! ^ < 1 3 3 3 3 3 3 3 3 3 3 3 3 3 3 1 < ^ ! ; ; ; % + + + + + . . . 6 ; ",
". . . . . + + + + + $ ; ; ; ) ^ : 1 3 3 3 3 3 3 3 3 3 3 3 3 3 3 1 : ^ ) ; ; ; $ + + + + + . . 7 ; ; ",
". . . . . + + + + + # ; ; ; ' ^ _ 1 1 1 1 1 1 3 3 3 3 1 1 1 1 1 1 _ ^ ' ; ; ; # + + + + + . 8 ; ; 8 ",
". . . . . + + + + + @ ; ; ; ; ] ^ | 1 1 1 1 1 3 3 3 3 1 1 1 1 1 | ^ ] ; ; ; ; @ + + + + + 9 0 ; ; a ",
". . . . . + + + + + + - ; ; ; { ^ } 2 1 1 1 1 3 3 3 3 1 1 1 1 2 } ^ { ; ; ; - + + + b + c d d ; ; ; ",
". . . . . + + + + + + = ; ; ; ; ( ^ _ 2 1 1 1 3 3 3 3 1 1 1 2 _ ^ ( ; ; ; ; = + + b + c c c c e ; f ",
". . . . . + + + + + + * - ; ; ; / ! ^ } | 1 1 1 1 1 1 1 1 | } ^ ! / ; ; ; - * + + + c c c c c c c ; ",
". . . . . + + + + + + + > ; ; ; ; / ( ^ ^ _ : < [ [ < : _ ^ ^ ( / ; ; ; ; > + + + c c c c c c c c c ",
". . . . . + + + + + + + + # ; ; ; ; ; { ] ^ ^ ^ ^ ^ ^ ^ ^ ] { ; ; ; ; ; # + + + c c c c c c c c c c ",
". . . . . + + + + + + + + + , ; ; ; ; ; ; ' ) ! ~ ~ ! ) ' ; ; ; ; ; ; , + + + c c c c c c c c c c c ",
". . . . . + + + + + + + + + + # ; ; ; ; ; ; ; ; ; ; ; ; ; ; ; ; ; ; # + b + c c c c c c c g c c c c ",
". . . . . + + + + + + + + + + + > - ; ; ; ; ; ; ; ; ; ; ; ; ; ; - > + + + c c c c c c c h i j c c c ",
". . . . . + + + + + + + + + + + + * = - ; ; ; ; ; ; ; ; ; ; - = * + + + c c c c c c c h i i i j c c ",
". . . . . + + + + + + + + + + + + + + + @ # $ % & & % $ # @ + + + + + c c c c c c c h k k k i i j c ",
". . . . . + + + + + + + + + + + + + + + + + + + + + + + + + + + + + c c c c c c c h k l m n o i i j ",
". . . . . + + + + + + + + + + + + + + + + + + + + + + + + + + + + c c c c c c c h k p q r s t u i i ",
". . . . . + + + + + + + + + + + + + + + + + + + + + + + + + + + c c c c c c c h k p v w x y z A B C ",
". . . . . + + + + + + + + + + + + + + + + + + + + + + + + b + c c c c c c c h k l q w D E F G H I J ",
". . . . . + + + + + + + + + + + + + + + + + + + + + + + + K c c c c c c c h i k m r x E ^ ^ L M N O ",
". . . . . . . . . . . . . . . . . . . . . . . . . . . . . e P c c c c c g i i k n s y F ^ ^ Q R S T ",
". . . . . . . . . . . . . . . . . . . . . . . . . . . . U ; V c c c c c c j i i o t z G L W ^ X Y k ",
". . . . . . . . . . . . . . . . . . . . . . . . . . . ; 8 ; ; Z c c c c c c j i i u A `  ...X +.@.#.",
". . . . . . . . . . . . . . . . . . . . . . . . . $.%.; a ; ; ; c c c c c c c j i i B &.N S *.=.i -.",
". . . . . . . . . . . . . . . . . . . . . . . . ;.8 ; ; ; ; 5 ; ; c c c c c c c j i i >.O T >.i -.,."};
