/* XPM */
static char * 31_xpm[] = {
"50 50 106 2",
"  	c None",
". 	c #6C706F",
"+ 	c #53615D",
"@ 	c #455853",
"# 	c #41534E",
"$ 	c #3E4F4B",
"% 	c #3D4F4A",
"& 	c #4A5B56",
"* 	c #767676",
"= 	c #505050",
"- 	c #4E4E54",
"; 	c #4F4F51",
"> 	c #06033B",
", 	c #000000",
"' 	c #374642",
") 	c #29312E",
"! 	c #1F211F",
"~ 	c #1D1E1D",
"{ 	c #292F2D",
"] 	c #34433F",
"^ 	c #505051",
"/ 	c #4F4E59",
"( 	c #13131A",
"_ 	c #445853",
": 	c #3E504B",
"< 	c #060C0C",
"[ 	c #230304",
"} 	c #270000",
"| 	c #290000",
"1 	c #270808",
"2 	c #1C1716",
"3 	c #34423E",
"4 	c #727272",
"5 	c #445752",
"6 	c #26322F",
"7 	c #4B0303",
"8 	c #4C0303",
"9 	c #470202",
"0 	c #440303",
"a 	c #280707",
"b 	c #262A28",
"c 	c #3F514C",
"d 	c #727273",
"e 	c #4E4E52",
"f 	c #290303",
"g 	c #460202",
"h 	c #480202",
"i 	c #2F0202",
"j 	c #1C1918",
"k 	c #3B4B46",
"l 	c #53605C",
"m 	c #747475",
"n 	c #747474",
"o 	c #290202",
"p 	c #490202",
"q 	c #300201",
"r 	c #1B1816",
"s 	c #3A4A46",
"t 	c #4F5E5A",
"u 	c #1E14FA",
"v 	c #1B10FF",
"w 	c #455752",
"x 	c #26312E",
"y 	c #270404",
"z 	c #450303",
"A 	c #2A0606",
"B 	c #252826",
"C 	c #3F504C",
"D 	c #1C11FF",
"E 	c #475B56",
"F 	c #1B1212",
"G 	c #313E3B",
"H 	c #2016EE",
"I 	c #2D26C4",
"J 	c #3B3795",
"K 	c #48466B",
"L 	c #4E4E55",
"M 	c #1B10FE",
"N 	c #2921D1",
"O 	c #47456D",
"P 	c #2319E6",
"Q 	c #312BB6",
"R 	c #4F4242",
"S 	c #4E2A2A",
"T 	c #4C1414",
"U 	c #4B0606",
"V 	c #4F3B3B",
"W 	c #4B0707",
"X 	c #504E4E",
"Y 	c #4D2020",
"Z 	c #4C030E",
"` 	c #4F0436",
" .	c #520561",
"..	c #55067C",
"+.	c #4B0307",
"@.	c #51054A",
"#.	c #550682",
"$.	c #51514D",
"%.	c #54067B",
"&.	c #303030",
"*.	c #757575",
"=.	c #555555",
"-.	c #747374",
";.	c #4E4D65",
">.	c #4D4D55",
",.	c #060336",
". + @ # $ % # @ @ & * * * * * * * = = - = = = = ; > , , , , , , , , , , , , , , , , , , , , , , , , ",
"+ @ ' ) ! ~ { ] @ @ & * * * * * * * = = = ^ = / ( , , , , , , , , , , , , , , , , , , , , , , , , , ",
"_ : < [ } | 1 2 3 @ @ & * * * * * * 4 = = ; = , , , , , , , , , , , , , , , , , , , , , , , , , , , ",
"5 6 [ 7 8 9 0 a b c @ @ & * * * * * * d = e , , , , , , , , , , , , , , , , , , , , , , , , , , , , ",
"$ ! f g 7 7 h i j k 5 @ @ l * * * * * m n , , , , , , , , , , , , , , , , , , , , , , , , , , , , , ",
"% ~ o 9 7 7 p q r s 5 @ t * * * * * * * u v v v v v v v v v v v v v v v v v v v v v v v v , , , , , ",
"w x y 0 h p z A B C 5 t * * * * * * * v D v v v v v v v v v v v v v v v v v v v v v v v v , , , , , ",
"E ] 2 a i q A F G 5 t * * * * * * * v v v v v v v v v v v v v v v v v v v v v v v v v v v , , , , , ",
"@ @ 3 b j r B G 5 t * * * * * * * v v v v v v v v v v v v v v v v v v v v v v v v v v v v , , , , , ",
"& @ @ c k s C 5 t * * * * * * * v v v v v v v v v v v v v v v v v v v v v v v v v v v v v , , , , , ",
"* & @ @ 5 5 5 t * * * * * * * v v v v v H I J K L L K J I H v v v v v v v v v v v v v v v , , , , , ",
"* * & @ @ @ t * * * * * * * v v v M N O = = = = = = = = = = O N M v v v v v v v v v v v v , , , , , ",
"* * * & @ t * * * * * * * v v v P O = = = = = = = = = = = = = = O P v v v v v v v v v v v , , , , , ",
"* * * * l * * * * * * * v D v I = = = = = = = = = = = = = = = = = = I v v v v v v v v v v , , , , , ",
"* * * * * * * * * * * v v v Q = = = = = = R S T U U T S R = = = = = = Q v v v v v v v v v , , , , , ",
"* * * * * * * * * * v v v I = = = = = V W 7 7 7 7 7 7 7 7 W V = = = = = I v v v v v v v v , , , , , ",
"* * * * * * * * * v v v P = = = = X Y 7 7 Z `  ..... .` Z 7 7 Y X = = = = P v v v v v v v , , , , , ",
"= * * * * * * * v v v M O = = = X T 7 +.@.#.#.#.#.#.#.#.#.@.+.7 T X = = = O M v v v v v v , , , , , ",
"$.= n * * * * v D v v N = = = = Y 7 Z %.#.#.#.&.&.&.&.#.#.#.%.Z 7 Y = = = = N v v v v v v , , , , , ",
"= = = *.*.* v D v v v O = = = V 7 +.%.#.#.#.#.&.&.&.&.#.#.#.#.%.+.7 V = = = O v v v v v v , , , , , ",
"^ = = =.-.v v v v v H = = = = W 7 @.#.#.#.#.#.&.&.&.&.#.#.#.#.#.@.7 W = = = = H v v v v v , , , , , ",
"; = = ; , v v v v v I = = = R 7 Z #.#.#.#.#.#.&.&.&.&.#.#.#.#.#.#.Z 7 R = = = I v v v v v , , , , , ",
"= = ;., , v v v v v J = = = S 7 ` #.&.&.&.&.&.&.&.&.&.&.&.&.&.&.#.` 7 S = = = J v v v v v , , , , , ",
"= >., , , v v v v v K = = = T 7  .#.&.&.&.&.&.&.&.&.&.&.&.&.&.&.#. .7 T = = = K v v v v v , , , , , ",
"- , , , , v v v v v L = = = U 7 ..#.&.&.&.&.&.&.&.&.&.&.&.&.&.&.#...7 U = = = L v v v v v , , , , , ",
",., , , , v v v v v L = = = U 7 ..#.&.&.&.&.&.&.&.&.&.&.&.&.&.&.#...7 U = = = L v v v v v , , , , , ",
", , , , , v v v v v K = = = T 7  .#.&.&.&.&.&.&.&.&.&.&.&.&.&.&.#. .7 T = = = K v v v v v , , , , , ",
", , , , , v v v v v J = = = S 7 ` #.&.&.&.&.&.&.&.&.&.&.&.&.&.&.#.` 7 S = = = J v v v v v , , , , , ",
", , , , , v v v v v I = = = R 7 Z #.#.#.#.#.#.&.&.&.&.#.#.#.#.#.#.Z 7 R = = = I v v v v v , , , , , ",
", , , , , v v v v v H = = = = W 7 @.#.#.#.#.#.&.&.&.&.#.#.#.#.#.@.7 W = = = = H v v v v v , , , , , ",
", , , , , v v v v v v O = = = V 7 +.%.#.#.#.#.&.&.&.&.#.#.#.#.%.+.7 V = = = O v v v v v v , , , , , ",
", , , , , v v v v v v N = = = = Y 7 Z %.#.#.#.&.&.&.&.#.#.#.%.Z 7 Y = = = = N v v v v v v , , , , , ",
", , , , , v v v v v v M O = = = X T 7 +.@.#.#.#.#.#.#.#.#.@.+.7 T X = = = O M v v v v v v , , , , , ",
", , , , , v v v v v v v P = = = = X Y 7 7 Z `  ..... .` Z 7 7 Y X = = = = P v v v v v v v , , , , , ",
", , , , , v v v v v v v v I = = = = = V W 7 7 7 7 7 7 7 7 W V = = = = = I v v v v v v v v , , , , , ",
", , , , , v v v v v v v v v Q = = = = = = R S T U U T S R = = = = = = Q v v v v v v v v v , , , , , ",
", , , , , v v v v v v v v v v I = = = = = = = = = = = = = = = = = = I v v v v v v v v v v , , , , , ",
", , , , , v v v v v v v v v v v P O = = = = = = = = = = = = = = O P v v v v v v v v v v v , , , , , ",
", , , , , v v v v v v v v v v v v M N O = = = = = = = = = = O N M v v v v v v v v v v v v , , , , , ",
", , , , , v v v v v v v v v v v v v v v H I J K L L K J I H v v v v v v v v v v v v v v v , , , , , ",
", , , , , v v v v v v v v v v v v v v v v v v v v v v v v v v v v v v v v v v v v v v v v , , , , , ",
", , , , , v v v v v v v v v v v v v v v v v v v v v v v v v v v v v v v v v v v v v v v v , , , , , ",
", , , , , v v v v v v v v v v v v v v v v v v v v v v v v v v v v v v v v v v v v v v v v , , , , , ",
", , , , , v v v v v v v v v v v v v v v v v v v v v v v v v v v v v v v v v v v v v v v v , , , , , ",
", , , , , v v v v v v v v v v v v v v v v v v v v v v v v v v v v v v v v v v v v v v v v , , , , , ",
", , , , , , , , , , , , , , , , , , , , , , , , , , , , , , , , , , , , , , , , , , , , , , , , , , ",
", , , , , , , , , , , , , , , , , , , , , , , , , , , , , , , , , , , , , , , , , , , , , , , , , , ",
", , , , , , , , , , , , , , , , , , , , , , , , , , , , , , , , , , , , , , , , , , , , , , , , , , ",
", , , , , , , , , , , , , , , , , , , , , , , , , , , , , , , , , , , , , , , , , , , , , , , , , , ",
", , , , , , , , , , , , , , , , , , , , , , , , , , , , , , , , , , , , , , , , , , , , , , , , , , "};
