/* XPM */
static char * 32_xpm[] = {
"50 50 105 2",
"  	c None",
". 	c #000000",
"+ 	c #1B10FF",
"@ 	c #2016EE",
"# 	c #2D26C4",
"$ 	c #3B3795",
"% 	c #48466B",
"& 	c #4E4E55",
"* 	c #1B10FE",
"= 	c #2921D1",
"- 	c #47456D",
"; 	c #505050",
"> 	c #2319E6",
", 	c #312BB6",
"' 	c #4F4242",
") 	c #4E2A2A",
"! 	c #4C1414",
"~ 	c #4B0606",
"{ 	c #4F3B3B",
"] 	c #4B0707",
"^ 	c #4B0303",
"/ 	c #504E4E",
"( 	c #4D2020",
"_ 	c #4C030E",
": 	c #4F0436",
"< 	c #520561",
"[ 	c #55067C",
"} 	c #4B0307",
"| 	c #51054A",
"1 	c #550682",
"2 	c #54067B",
"3 	c #303030",
"4 	c #4F4F51",
"5 	c #13131A",
"6 	c #4F4E59",
"7 	c #505051",
"8 	c #4E4E52",
"9 	c #747474",
"0 	c #1E14FA",
"a 	c #1C11FF",
"b 	c #4E4E54",
"c 	c #727273",
"d 	c #747475",
"e 	c #767676",
"f 	c #727272",
"g 	c #53605C",
"h 	c #4A5B56",
"i 	c #455853",
"j 	c #4F5E5A",
"k 	c #445752",
"l 	c #3F514C",
"m 	c #3B4B46",
"n 	c #3A4A46",
"o 	c #3F504C",
"p 	c #34423E",
"q 	c #262A28",
"r 	c #1C1918",
"s 	c #1B1816",
"t 	c #252826",
"u 	c #313E3B",
"v 	c #34433F",
"w 	c #1C1716",
"x 	c #280707",
"y 	c #2F0202",
"z 	c #300201",
"A 	c #2A0606",
"B 	c #1B1212",
"C 	c #41534E",
"D 	c #292F2D",
"E 	c #270808",
"F 	c #440303",
"G 	c #480202",
"H 	c #490202",
"I 	c #450303",
"J 	c #3D4F4A",
"K 	c #1D1E1D",
"L 	c #290000",
"M 	c #470202",
"N 	c #3E4F4B",
"O 	c #1F211F",
"P 	c #270000",
"Q 	c #4C0303",
"R 	c #757575",
"S 	c #747374",
"T 	c #29312E",
"U 	c #230304",
"V 	c #460202",
"W 	c #555555",
"X 	c #374642",
"Y 	c #060C0C",
"Z 	c #290303",
"` 	c #290202",
" .	c #270404",
"..	c #4E4D65",
"+.	c #53615D",
"@.	c #3E504B",
"#.	c #26322F",
"$.	c #26312E",
"%.	c #4D4D55",
"&.	c #6C706F",
"*.	c #445853",
"=.	c #455752",
"-.	c #475B56",
";.	c #51514D",
">.	c #060336",
". . . . . . . . . . . . . . . . . . . . . . . . . . . . . . . . . . . . . . . . . . . . . . . . . . ",
". . . . . . . . . . . . . . . . . . . . . . . . . . . . . . . . . . . . . . . . . . . . . . . . . . ",
". . . . . . . . . . . . . . . . . . . . . . . . . . . . . . . . . . . . . . . . . . . . . . . . . . ",
". . . . . . . . . . . . . . . . . . . . . . . . . . . . . . . . . . . . . . . . . . . . . . . . . . ",
". . . . . . . . . . . . . . . . . . . . . . . . . . . . . . . . . . . . . . . . . . . . . . . . . . ",
". . . . . + + + + + + + + + + + + + + + + + + + + + + + + + + + + + + + + + + + + + + + + . . . . . ",
". . . . . + + + + + + + + + + + + + + + + + + + + + + + + + + + + + + + + + + + + + + + + . . . . . ",
". . . . . + + + + + + + + + + + + + + + + + + + + + + + + + + + + + + + + + + + + + + + + . . . . . ",
". . . . . + + + + + + + + + + + + + + + + + + + + + + + + + + + + + + + + + + + + + + + + . . . . . ",
". . . . . + + + + + + + + + + + + + + + + + + + + + + + + + + + + + + + + + + + + + + + + . . . . . ",
". . . . . + + + + + + + + + + + + + + + @ # $ % & & % $ # @ + + + + + + + + + + + + + + + . . . . . ",
". . . . . + + + + + + + + + + + + * = - ; ; ; ; ; ; ; ; ; ; - = * + + + + + + + + + + + + . . . . . ",
". . . . . + + + + + + + + + + + > - ; ; ; ; ; ; ; ; ; ; ; ; ; ; - > + + + + + + + + + + + . . . . . ",
". . . . . + + + + + + + + + + # ; ; ; ; ; ; ; ; ; ; ; ; ; ; ; ; ; ; # + + + + + + + + + + . . . . . ",
". . . . . + + + + + + + + + , ; ; ; ; ; ; ' ) ! ~ ~ ! ) ' ; ; ; ; ; ; , + + + + + + + + + . . . . . ",
". . . . . + + + + + + + + # ; ; ; ; ; { ] ^ ^ ^ ^ ^ ^ ^ ^ ] { ; ; ; ; ; # + + + + + + + + . . . . . ",
". . . . . + + + + + + + > ; ; ; ; / ( ^ ^ _ : < [ [ < : _ ^ ^ ( / ; ; ; ; > + + + + + + + . . . . . ",
". . . . . + + + + + + * - ; ; ; / ! ^ } | 1 1 1 1 1 1 1 1 | } ^ ! / ; ; ; - * + + + + + + . . . . . ",
". . . . . + + + + + + = ; ; ; ; ( ^ _ 2 1 1 3 3 3 3 3 3 1 1 2 _ ^ ( ; ; ; ; = + + + + + + . . . . . ",
". . . . . + + + + + + - ; ; ; { ^ } 2 1 1 1 3 3 3 3 3 3 1 1 1 2 } ^ { ; ; ; - + + + + + + . . . . . ",
". . . . . + + + + + @ ; ; ; ; ] ^ | 1 1 1 1 3 3 3 3 3 3 1 1 1 1 | ^ ] ; ; ; ; @ + + + + + . . . . . ",
". . . . . + + + + + # ; ; ; ' ^ _ 1 1 1 1 1 3 3 3 3 3 3 1 1 1 1 1 _ ^ ' ; ; ; # + + + + + . . . . . ",
". . . . . + + + + + $ ; ; ; ) ^ : 1 1 1 1 1 3 3 3 3 3 3 1 1 1 1 1 : ^ ) ; ; ; $ + + + + + . . . . . ",
". . . . . + + + + + % ; ; ; ! ^ < 1 3 3 3 3 3 3 3 3 3 3 3 3 3 3 1 < ^ ! ; ; ; % + + + + + . . . . . ",
". . . . . + + + + + & ; ; ; ~ ^ [ 1 3 3 3 3 3 3 3 3 3 3 3 3 3 3 1 [ ^ ~ ; ; ; & + + + + + . . . . . ",
"4 5 . . . + + + + + & ; ; ; ~ ^ [ 1 3 3 3 3 3 3 3 3 3 3 3 3 3 3 1 [ ^ ~ ; ; ; & + + + + + . . . . . ",
"; 6 . . . + + + + + % ; ; ; ! ^ < 1 3 3 3 3 3 3 3 3 3 3 3 3 3 3 1 < ^ ! ; ; ; % + + + + + . . . . . ",
"; ; ; . . + + + + + $ ; ; ; ) ^ : 1 1 1 1 1 3 3 3 3 3 3 1 1 1 1 1 : ^ ) ; ; ; $ + + + + + . . . . . ",
"; 7 4 8 . + + + + + # ; ; ; ' ^ _ 1 1 1 1 1 3 3 3 3 3 3 1 1 1 1 1 _ ^ ' ; ; ; # + + + + + . . . . . ",
"; ; ; ; 9 0 a + + + @ ; ; ; ; ] ^ | 1 1 1 1 3 3 3 3 3 3 1 1 1 1 | ^ ] ; ; ; ; @ + + + + + . . . . . ",
"b ; ; c d e + + + + + - ; ; ; { ^ } 2 1 1 1 3 3 3 3 3 3 1 1 1 2 } ^ { ; ; ; - + + + + + + . . . . . ",
"; ; f e e e e + + + + = ; ; ; ; ( ^ _ 2 1 1 3 3 3 3 3 3 1 1 2 _ ^ ( ; ; ; ; = + + + + + + . . . . . ",
"; e e e e e e e + + + * - ; ; ; / ! ^ } | 1 1 1 1 1 1 1 1 | } ^ ! / ; ; ; - * + + + + + + . . . . . ",
"e e e e e e e e e + + + > ; ; ; ; / ( ^ ^ _ : < [ [ < : _ ^ ^ ( / ; ; ; ; > + + + + + + + . . . . . ",
"e e e e e e e e e e + + + # ; ; ; ; ; { ] ^ ^ ^ ^ ^ ^ ^ ^ ] { ; ; ; ; ; # + + + + + + + + . . . . . ",
"e e e e e e e e e e e + + + , ; ; ; ; ; ; ' ) ! ~ ~ ! ) ' ; ; ; ; ; ; , + + + + + + + + + . . . . . ",
"e e e e g e e e e e e e + a + # ; ; ; ; ; ; ; ; ; ; ; ; ; ; ; ; ; ; # + + + + + + + + + + . . . . . ",
"e e e h i j e e e e e e e + + + > - ; ; ; ; ; ; ; ; ; ; ; ; ; ; - > + + + + + + + + + + + . . . . . ",
"e e h i i i j e e e e e e e + + + * = - ; ; ; ; ; ; ; ; ; ; - = * + + + + + + + + + + + + . . . . . ",
"e h i i k k k j e e e e e e e + + + + + @ # $ % & & % $ # @ + + + + + + + + + + + + + + + . . . . . ",
"h i i l m n o k j e e e e e e e + + + + + + + + + + + + + + + + + + + + + + + + + + + + + . . . . . ",
"i i p q r s t u k j e e e e e e e + a + + + + + + + + + + + + + + + + + + + + + + + + + + . . . . . ",
"i v w x y z A B u k j e e e e e e e + a + + + + + + + + + + + + + + + + + + + + + + + + + . . . . . ",
"C D E F G H I A t o k j e e e e e e e + + + + + + + + + + + + + + + + + + + + + + + + + + . . . . . ",
"J K L M ^ ^ H z s n k i j e e e e e e e + + + + + + + + + + + + + + + + + + + + + + + + + . . . . . ",
"N O P Q ^ ^ G y r m k i i g e e e e e R S . . . . . . . . . . . . . . . . . . . . . . . . . . . . . ",
"C T U ^ V M F x q l i i h e e e e e e R W 4 . . . . . . . . . . . . . . . . . . . . . . . . . . . . ",
"i X Y U Z `  .w p i i h e e e e e e 9 ; ; ; ... . . . . . . . . . . . . . . . . . . . . . . . . . . ",
"+.i @.#.O K $.v i i h e e e e e e e ; ; ; ; ; %.. . . . . . . . . . . . . . . . . . . . . . . . . . ",
"&.+.*.k N J =.-.i h e e e e e e e ; ;.; 7 4 ; ; b >.. . . . . . . . . . . . . . . . . . . . . . . . "};
