/* XPM */
static char * 33_xpm[] = {
"50 50 104 2",
"  	c #000000",
". 	c #060336",
"+ 	c #4E4E54",
"@ 	c #505050",
"# 	c #4F4F51",
"$ 	c #505051",
"% 	c #51514D",
"& 	c #767676",
"* 	c #4A5B56",
"= 	c #455853",
"- 	c #475B56",
"; 	c #455752",
"> 	c #3D4F4A",
", 	c #3E4F4B",
"' 	c #445752",
") 	c #445853",
"! 	c #53615D",
"~ 	c #6C706F",
"{ 	c #4D4D55",
"] 	c #34433F",
"^ 	c #26312E",
"/ 	c #1D1E1D",
"( 	c #1F211F",
"_ 	c #26322F",
": 	c #3E504B",
"< 	c #4E4D65",
"[ 	c #747474",
"} 	c #34423E",
"| 	c #1C1716",
"1 	c #270404",
"2 	c #290202",
"3 	c #290303",
"4 	c #230304",
"5 	c #060C0C",
"6 	c #374642",
"7 	c #555555",
"8 	c #757575",
"9 	c #3F514C",
"0 	c #262A28",
"a 	c #280707",
"b 	c #440303",
"c 	c #470202",
"d 	c #460202",
"e 	c #4B0303",
"f 	c #29312E",
"g 	c #41534E",
"h 	c #747374",
"i 	c #53605C",
"j 	c #3B4B46",
"k 	c #1C1918",
"l 	c #2F0202",
"m 	c #480202",
"n 	c #4C0303",
"o 	c #270000",
"p 	c #1B10FF",
"q 	c #4F5E5A",
"r 	c #3A4A46",
"s 	c #1B1816",
"t 	c #300201",
"u 	c #490202",
"v 	c #290000",
"w 	c #3F504C",
"x 	c #252826",
"y 	c #2A0606",
"z 	c #450303",
"A 	c #270808",
"B 	c #292F2D",
"C 	c #1C11FF",
"D 	c #313E3B",
"E 	c #1B1212",
"F 	c #2016EE",
"G 	c #2D26C4",
"H 	c #3B3795",
"I 	c #48466B",
"J 	c #4E4E55",
"K 	c #1B10FE",
"L 	c #2921D1",
"M 	c #47456D",
"N 	c #2319E6",
"O 	c #312BB6",
"P 	c #4F4242",
"Q 	c #4E2A2A",
"R 	c #4C1414",
"S 	c #4B0606",
"T 	c #4F3B3B",
"U 	c #4B0707",
"V 	c #504E4E",
"W 	c #4D2020",
"X 	c #4C030E",
"Y 	c #4F0436",
"Z 	c #520561",
"` 	c #55067C",
" .	c #4B0307",
"..	c #51054A",
"+.	c #550682",
"@.	c #54067B",
"#.	c #303030",
"$.	c #727272",
"%.	c #747475",
"&.	c #727273",
"*.	c #1E14FA",
"=.	c #4E4E52",
"-.	c #4F4E59",
";.	c #13131A",
"                                                . + @ @ # $ @ % @ & & & & & & & * = - ; > , ' ) ! ~ ",
"                                                    { @ @ @ @ @ & & & & & & & * = = ] ^ / ( _ : = ! ",
"                                                      < @ @ @ [ & & & & & & * = = } | 1 2 3 4 5 6 = ",
"                                                        # 7 8 & & & & & & * = = 9 0 a b c d e 4 f g ",
"                                                          h 8 & & & & & i = = ' j k l m e e n o ( , ",
"          p p p p p p p p p p p p p p p p p p p p p p p p p & & & & & & & q = ' r s t u e e c v / > ",
"          p p p p p p p p p p p p p p p p p p p p p p p p p p & & & & & & & q ' w x y z u m b A B g ",
"          p p p p p p p p p p p p p p p p p p p p p p p p p C p & & & & & & & q ' D E y t l a | ] = ",
"          p p p p p p p p p p p p p p p p p p p p p p p p p p C p & & & & & & & q ' D x s k 0 } = = ",
"          p p p p p p p p p p p p p p p p p p p p p p p p p p p p p & & & & & & & q ' w r j 9 = = * ",
"          p p p p p p p p p p p p p p p F G H I J J I H G F p p p p p & & & & & & & q ' ' ' = = * & ",
"          p p p p p p p p p p p p K L M @ @ @ @ @ @ @ @ @ @ M L K p p p & & & & & & & q = = = * & & ",
"          p p p p p p p p p p p N M @ @ @ @ @ @ @ @ @ @ @ @ @ @ M N p p p & & & & & & & q = * & & & ",
"          p p p p p p p p p p G @ @ @ @ @ @ @ @ @ @ @ @ @ @ @ @ @ @ G p C p & & & & & & & i & & & & ",
"          p p p p p p p p p O @ @ @ @ @ @ P Q R S S R Q P @ @ @ @ @ @ O p p p & & & & & & & & & & & ",
"          p p p p p p p p G @ @ @ @ @ T U e e e e e e e e U T @ @ @ @ @ G p p p & & & & & & & & & & ",
"          p p p p p p p N @ @ @ @ V W e e X Y Z ` ` Z Y X e e W V @ @ @ @ N p p p & & & & & & & & & ",
"          p p p p p p K M @ @ @ V R e  ...+.+.+.+.+.+.+.+... .e R V @ @ @ M K p p p & & & & & & & @ ",
"          p p p p p p L @ @ @ @ W e X @.+.+.#.#.#.#.#.#.+.+.@.X e W @ @ @ @ L p p p p & & & & $.@ @ ",
"          p p p p p p M @ @ @ T e  .@.+.+.+.#.#.#.#.#.#.+.+.+.@. .e T @ @ @ M p p p p p & %.&.@ @ + ",
"          p p p p p F @ @ @ @ U e ..+.+.+.+.#.#.#.#.#.#.+.+.+.+...e U @ @ @ @ F p p p C *.[ @ @ @ @ ",
"          p p p p p G @ @ @ P e X +.+.+.+.+.#.#.#.#.#.#.+.+.+.+.+.X e P @ @ @ G p p p p p   =.# $ @ ",
"          p p p p p H @ @ @ Q e Y +.+.+.+.+.#.#.#.#.#.#.+.+.+.+.+.Y e Q @ @ @ H p p p p p     @ @ @ ",
"          p p p p p I @ @ @ R e Z +.#.#.#.#.#.#.#.#.#.#.#.#.#.#.+.Z e R @ @ @ I p p p p p       -.@ ",
"          p p p p p J @ @ @ S e ` +.#.#.#.#.#.#.#.#.#.#.#.#.#.#.+.` e S @ @ @ J p p p p p       ;.# ",
"          p p p p p J @ @ @ S e ` +.#.#.#.#.#.#.#.#.#.#.#.#.#.#.+.` e S @ @ @ J p p p p p           ",
"          p p p p p I @ @ @ R e Z +.#.#.#.#.#.#.#.#.#.#.#.#.#.#.+.Z e R @ @ @ I p p p p p           ",
"          p p p p p H @ @ @ Q e Y +.+.+.+.+.#.#.#.#.#.#.+.+.+.+.+.Y e Q @ @ @ H p p p p p           ",
"          p p p p p G @ @ @ P e X +.+.+.+.+.#.#.#.#.#.#.+.+.+.+.+.X e P @ @ @ G p p p p p           ",
"          p p p p p F @ @ @ @ U e ..+.+.+.+.#.#.#.#.#.#.+.+.+.+...e U @ @ @ @ F p p p p p           ",
"          p p p p p p M @ @ @ T e  .@.+.+.+.#.#.#.#.#.#.+.+.+.@. .e T @ @ @ M p p p p p p           ",
"          p p p p p p L @ @ @ @ W e X @.+.+.#.#.#.#.#.#.+.+.@.X e W @ @ @ @ L p p p p p p           ",
"          p p p p p p K M @ @ @ V R e  ...+.+.+.+.+.+.+.+... .e R V @ @ @ M K p p p p p p           ",
"          p p p p p p p N @ @ @ @ V W e e X Y Z ` ` Z Y X e e W V @ @ @ @ N p p p p p p p           ",
"          p p p p p p p p G @ @ @ @ @ T U e e e e e e e e U T @ @ @ @ @ G p p p p p p p p           ",
"          p p p p p p p p p O @ @ @ @ @ @ P Q R S S R Q P @ @ @ @ @ @ O p p p p p p p p p           ",
"          p p p p p p p p p p G @ @ @ @ @ @ @ @ @ @ @ @ @ @ @ @ @ @ G p p p p p p p p p p           ",
"          p p p p p p p p p p p N M @ @ @ @ @ @ @ @ @ @ @ @ @ @ M N p p p p p p p p p p p           ",
"          p p p p p p p p p p p p K L M @ @ @ @ @ @ @ @ @ @ M L K p p p p p p p p p p p p           ",
"          p p p p p p p p p p p p p p p F G H I J J I H G F p p p p p p p p p p p p p p p           ",
"          p p p p p p p p p p p p p p p p p p p p p p p p p p p p p p p p p p p p p p p p           ",
"          p p p p p p p p p p p p p p p p p p p p p p p p p p p p p p p p p p p p p p p p           ",
"          p p p p p p p p p p p p p p p p p p p p p p p p p p p p p p p p p p p p p p p p           ",
"          p p p p p p p p p p p p p p p p p p p p p p p p p p p p p p p p p p p p p p p p           ",
"          p p p p p p p p p p p p p p p p p p p p p p p p p p p p p p p p p p p p p p p p           ",
"                                                                                                    ",
"                                                                                                    ",
"                                                                                                    ",
"                                                                                                    ",
"                                                                                                    "};
