/* XPM */
static char * 34_xpm[] = {
"50 50 239 2",
"  	c None",
". 	c #000000",
"+ 	c #1B10FF",
"@ 	c #BA2A59",
"# 	c #C42C4E",
"$ 	c #4417D4",
"% 	c #842191",
"& 	c #F1331F",
"* 	c #EE3223",
"= 	c #EF3321",
"- 	c #99257B",
"; 	c #C52C4E",
"> 	c #D42E3D",
", 	c #E5312B",
"' 	c #DA2F37",
") 	c #CD2D45",
"! 	c #D62F3B",
"~ 	c #D0313B",
"{ 	c #94355B",
"] 	c #C53833",
"^ 	c #DB3726",
"/ 	c #68425C",
"( 	c #CB3438",
"_ 	c #BE304A",
": 	c #E83228",
"< 	c #F03320",
"[ 	c #D02E41",
"} 	c #701EA6",
"| 	c #8B2A7A",
"1 	c #47456D",
"2 	c #764944",
"3 	c #E53523",
"4 	c #ED3420",
"5 	c #EB3421",
"6 	c #EE3420",
"7 	c #DA3726",
"8 	c #D73827",
"9 	c #BD2E4D",
"0 	c #E83129",
"a 	c #EB3224",
"b 	c #CE372F",
"c 	c #644C4A",
"d 	c #F0331F",
"e 	c #C23B2E",
"f 	c #DE3625",
"g 	c #E23526",
"h 	c #AC2A61",
"i 	c #E93227",
"j 	c #E2312F",
"k 	c #2D26C4",
"l 	c #B03F33",
"m 	c #E83522",
"n 	c #8D453E",
"o 	c #B43E32",
"p 	c #EC3421",
"q 	c #D13929",
"r 	c #A54136",
"s 	c #8D2C73",
"t 	c #EE3322",
"u 	c #EC3224",
"v 	c #D83826",
"w 	c #E83320",
"x 	c #EE321F",
"y 	c #4B0606",
"z 	c #4C1414",
"A 	c #CF3121",
"B 	c #CA3A2B",
"C 	c #CF313B",
"D 	c #9C1D13",
"E 	c #A82511",
"F 	c #EC341E",
"G 	c #EB3E1B",
"H 	c #EC7E0E",
"I 	c #EB9709",
"J 	c #CB7A08",
"K 	c #A8460B",
"L 	c #7D1D09",
"M 	c #85160F",
"N 	c #CF3525",
"O 	c #EF3320",
"P 	c #E93522",
"Q 	c #E3322B",
"R 	c #661CB1",
"S 	c #2319E6",
"T 	c #C83B2C",
"U 	c #EC321E",
"V 	c #DE5713",
"W 	c #F39E09",
"X 	c #F3890D",
"Y 	c #F3840E",
"Z 	c #621804",
"` 	c #4D2020",
" .	c #B23E32",
"..	c #852190",
"+.	c #E3331C",
"@.	c #F25F16",
"#.	c #F26A14",
"$.	c #823605",
"%.	c #834741",
"&.	c #AB4034",
"*.	c #B03A3D",
"=.	c #C52C4D",
"-.	c #D6301F",
";.	c #D43418",
">.	c #F1341F",
",.	c #E93421",
"'.	c #B83D30",
").	c #4F24AF",
"!.	c #92443C",
"~.	c #6F3935",
"{.	c #D32D19",
"].	c #F1381F",
"^.	c #F56E1D",
"/.	c #FBB31C",
"(.	c #FEE01A",
"_.	c #FCBF1B",
":.	c #F6741D",
"<.	c #F23F1F",
"[.	c #A44136",
"}.	c #862489",
"|.	c #E03624",
"1.	c #CE2A1A",
"2.	c #F3561E",
"3.	c #FFEC1A",
"4.	c #F3521E",
"5.	c #F2471E",
"6.	c #F4591E",
"7.	c #F23D1F",
"8.	c #4B0707",
"9.	c #544F4F",
"0.	c #2016EE",
"a.	c #A02E63",
"b.	c #8A463F",
"c.	c #754945",
"d.	c #FCE91A",
"e.	c #575109",
"f.	c #F8911C",
"g.	c #F5631E",
"h.	c #F23B1F",
"i.	c #714A46",
"j.	c #9C4239",
"k.	c #4E2A2A",
"l.	c #974A06",
"m.	c #F23E1F",
"n.	c #F34A1E",
"o.	c #9B8F10",
"p.	c #F1371F",
"q.	c #F2391F",
"r.	c #3B3795",
"s.	c #48466B",
"t.	c #C73B2C",
"u.	c #F7811D",
"v.	c #F9A01C",
"w.	c #F1351F",
"x.	c #332F05",
"y.	c #FCC81B",
"z.	c #F9A31C",
"A.	c #4E4E55",
"B.	c #E33623",
"C.	c #7A1C10",
"D.	c #060601",
"E.	c #4E4E54",
"F.	c #9F413A",
"G.	c #EE3320",
"H.	c #FFE81A",
"I.	c #F88D1D",
"J.	c #BE2818",
"K.	c #903112",
"L.	c #EA3521",
"M.	c #F1491A",
"N.	c #F2431F",
"O.	c #F2421F",
"P.	c #F6801D",
"Q.	c #E4301D",
"R.	c #C56217",
"S.	c #E93324",
"T.	c #F3531E",
"U.	c #F4581E",
"V.	c #F1361F",
"W.	c #F7901C",
"X.	c #C63B2C",
"Y.	c #CC2C18",
"Z.	c #F2431E",
"`.	c #F34C1E",
" +	c #FAAB1C",
".+	c #F23C1F",
"++	c #1B10FE",
"@+	c #C62819",
"#+	c #F3491E",
"$+	c #F24F19",
"%+	c #E43523",
"&+	c #9D2920",
"*+	c #EB331E",
"=+	c #F4571E",
"-+	c #F2810F",
";+	c #CF3417",
">+	c #CF2F1F",
",+	c #2921D1",
"'+	c #DF3527",
")+	c #694C49",
"!+	c #CF2D1D",
"~+	c #F13A1E",
"{+	c #EF331F",
"]+	c #AC4034",
"^+	c #882684",
"/+	c #CB3A2B",
"(+	c #ED321E",
"_+	c #E54918",
":+	c #F27412",
"<+	c #F26415",
"[+	c #F3940B",
"}+	c #EC3C1C",
"|+	c #E8321F",
"1+	c #CE2F41",
"2+	c #646467",
"3+	c #EA411A",
"4+	c #DA3919",
"5+	c #9C372D",
"6+	c #E4322A",
"7+	c #6F6F70",
"8+	c #767676",
"9+	c #8F2F6C",
"0+	c #8C1810",
"a+	c #D72E1D",
"b+	c #EE331F",
"c+	c #E53522",
"d+	c #C62E48",
"e+	c #68425E",
"f+	c #BC2C53",
"g+	c #D4362C",
"h+	c #DC3230",
"i+	c #B93938",
"j+	c #EF3420",
"k+	c #3E4F4B",
"l+	c #374642",
"m+	c #E83229",
"n+	c #B92A59",
"o+	c #E3312E",
"p+	c #4D4D55",
". . . . . . . . . . . . . . . . . . . . . . . . . . . . . . . . . . . . . . . . . . . . . . . . . . ",
". . . . . . . . . . . . . . . . . . . . . . . . . . . . . . . . . . . . . . . . . . . . . . . . . . ",
". . . . . . . . . . . . . . . . . . . . . . . . . . . . . . . . . . . . . . . . . . . . . . . . . . ",
". . . . . . . . . . . . . . . . . . . . . . . . . . . . . . . . . . . . . . . . . . . . . . . . . . ",
". . . . . . . . . . . . . . . . . . . . . . . . . . . . . . . . . . . . . . . . . . . . . . . . . . ",
". . . . . + + + + + + + + + + + + + + + + + + + + + + + + + + + + + + + + + + + + + + + + . . . . . ",
". . . . . + + + + + + + + + + + + + + + + + + + + + + + + + + + + + + + + + + + + + + + + . . . . . ",
". . . . . + + + + + + + + + + + + + + + + + + + + + + + @ # + + + + + + + + + + + + + + + . . . . . ",
". . . . . + + + + + + + + + + + + + + + + $ $ + @ $ $ + % & * + + + % % + + + + = = + + + . . . . . ",
". . . . . + + + + + + + + + + + % - $ $ ; ; ; * > , ' + + ) & - % * @ % + + % = ! + + + + . . . . . ",
". . . . . + + + + + + + + + + % % , ' ; = ~ { ] ^ ^ / ( _ : < ' % % @ @ @ ' , [ } + $ + + . . . . . ",
". . . . . + + + + + + + + + + @ @ = | 1 2 3 4 5 6 6 7 & & 8 1 9 , ' % , @ ) ' + % 0 ' + + . . . . . ",
". . . . . + + + + + % % - + + + a b c d & & & & & & & & & & e f g h = $ ; i j % # 0 + + + . . . . . ",
". . . . . + + + + + % @ < , + k l m & & & n o p p 5 q r q & & & m & s $ 0 < t < 0 ) + + + . . . . . ",
". . . . . + + + + + ' u < & < q v & & 3 & & w x d y z A & & d & & & B < 0 ; % ; > < + + + . . . . . ",
". . . . . + + + + + + = ; C 4 & & 4 & & D E F G H I J K L M N & d & O P Q 0 = @ % + + + + . . . . . ",
". . . . . + + + % % - R S T p & & & & U V W X Y & & W W W J Z ` &  .& & 4 : % - ..+ + + + . . . . . ",
". . . . . + + + % = ' 0 & & & & & d +.@.#.& & & & & & & & W W $.z & %.& &.*.=.; + + + + + . . . . . ",
". . . . . + + + + + + O v & & & -.;.>.& & & & & & & & & & & & W $.` ,.& & '.).+ + + + + + . . . . . ",
". . . . . + + + + + * d 6 & !.~.{.X & & & ].^./.(._.:.<.& & & & W Z ~.!.& [.1 + + + + + + . . . . . ",
". . . . . + + + $ - }.|.& & & 1.V & & & 2.3.3.3.3.4.5.6.7.2.& & W J 8.& & & 9.0.+ + + + + . . . . . ",
". . . . . + + + ) t a.b.& c.& L #.& & & >.3.3.d.e.e.d.f.g.h.& & & W Z & c.& i.k + + + + + . . . . . ",
". . . . . + + + % @ ( j.& r k.l.W & m.g.g.& n.o.. . o.6.g.>.p.q.& W l.k.r & j.r.+ + + + + . . . . . ",
". . . . . + + + $ ; s.t.& q z J W & u.3.3.v.w.x.. . x.y.f.z.z.u.& W J z q & t.s.+ + + + + . . . . . ",
". . . . . + + + + * A.B.& 5 y I & & y.3.3.6.f.C.. . D.3.3.3.3.y.& & I y 5 & B.A.+ + + + + . . . . . ",
"E.. . . . + + + + % F.G.& 5 y I & & H.3.3.I.z.x.. J.K.3.3.3.3.H.& & I y 5 & G.A.+ + + + + . . . . E.",
"E.E.. . . + + + + @ ] L.& 8 z J M.& N.3.3.O.P.o.x Q.R.3.3.3.3.y.& W J z q & B.s.+ + + + + . . . E.E.",
"E.E.E.. . + $ - $ ) S.& & r k.l.>.& T.f.f.I.U.V.d e.W.7.6.6.3.u.& W l.k.r & t.r.+ + + + + . . E.E.E.",
"E.E.E.E.. + ; ' ' ) < X.& c.& Y.#.& m.f.Z.p.& & 7.3.5.>.`. +3..+& W Z & c.& j.k + + + + + . E.E.E.E.",
"E.E.E.E.E.+++ + % = & & & & & @+V W & >.& & w.5.3.3.V.>.N.5.g.& #.J 8.& & & i.0.+ + + + + E.E.E.E.E.",
"E.E.E.E.E.E.+ + + + # & & & !.~.Z W & & #+<.g.3.3.3.3.5.6.].& & $+Z ~.!.& & 1 + + + + + E.E.E.E.E.E.",
"E.E.E.E.E.E.E.+ + + + 9 %+& & ,.&+*+#.& & >.^./.(.=+#+>.>.& & -+;+>+,.& & [.,++ + + + E.E.E.E.E.E.E.",
"E.E.E.E.E.E.E.E.+ + + % '+& & )+& !+;.>.& & & & & & & & & ~+& d {+& ]+& & 1 +++ + + E.E.E.E.E.E.E.E.",
"E.E.E.E.E.E.E.E.E.+ + + ^+/+& & c.& d (+_+:+W W & & #.<+[+}+d |+& & & & 3 1+- + + E.E.E.E.E.E.E.E.E.",
"2+E.E.E.E.E.E.E.E.E.+ + + & & & & )+,.~.8.Z l.J I H 3+4+Z 8.5+& 7 & & 6 6+0 + + E.E.E.E.E.E.E.E.E.7+",
"8+2+E.E.E.E.E.E.E.E.E.+ + + 9+& & & & !.& & k.z y 0+a+b+& & !.& & & c+= + + + E.E.E.E.E.E.E.E.E.7+8+",
"8+8+2+E.E.E.E.E.E.E.E.E.+ + + _ {+& & & & c.r q 5 5 q r c.& & & & 6 ~ + + + E.E.E.E.E.E.E.E.E.7+8+8+",
"8+8+8+2+E.E.E.E.E.E.E.E.E.+ + @ d+e+& & & & & & & & & & & & & & 1 f++ + + E.E.E.E.E.E.E.E.E.7+8+8+8+",
"8+8+8+8+2+E.E.E.E.E.E.E.E.E.+ + + ++| g+& & & & & & & & & & 1 ,++ + + + E.E.E.E.E.E.E.E.E.7+8+8+8+8+",
"8+8+8+8+8+2+E.E.E.E.E.E.E.E.E.+ + + + ' < h+r.i+j+d s.r.k + + + + + + E.E.E.E.E.E.E.E.E.7+8+8+8+8+8+",
"k+l+8+8+8+8+2+E.E.E.E.E.E.E.E.E.+ + + + ; = ; m+n+% + + + + + + + + E.E.E.E.E.E.E.E.E.7+8+8+8+8+k+k+",
"k+l+8+8+8+8+8+2+E.E.E.E.E.E.E.E.E.+ + + + o+i % = ; $ + + + + + + E.E.E.E.E.E.E.E.E.7+8+8+8+8+8+l+k+",
"k+l+8+8+8+8+8+8+2+E.E.E.E.E.E.E.E.E.+ + + + @ * = > @ + + + + + E.E.E.E.E.E.E.E.E.7+8+8+8+8+8+8+l+k+",
"k+l+8+8+8+8+8+8+8+2+E.E.E.E.E.E.E.E.E.+ + + + + + ' 0 + + + + E.E.E.E.E.E.E.E.E.7+8+8+8+8+8+8+8+l+k+",
"k+l+8+8+8+8+8+8+8+8+2+E.E.p+E.E.E.E.E.E.+ + + + + + ; + + + E.E.E.E.E.E.E.E.E.7+8+8+8+8+8+8+8+8+l+k+",
"k+l+8+8+8+8+8+8+8+8+8+2+E.E.E.E.E.E.E.E.E.+ + + + + + + + E.E.E.E.E.E.E.E.E.7+8+8+8+8+8+8+8+8+8+l+k+",
"k+l+8+8+8+8+8+8+8+8+8+8+2+E.E.E.E.E.E.E.E.E.+ + + + + + E.E.E.E.E.E.E.E.E.7+8+8+8+8+8+8+8+8+8+8+l+k+",
"k+l+8+8+8+8+8+8+8+8+8+8+8+2+E.E.E.E.E.E.E.E.E.+ + + + E.E.E.E.E.E.E.E.E.7+8+8+8+8+8+8+8+8+8+8+8+l+k+",
"k+l+8+8+8+8+8+8+8+8+8+8+8+8+2+E.E.E.E.E.E.E.E.E.+ + E.E.E.E.E.E.E.E.E.7+8+8+8+8+8+8+8+8+8+8+8+8+l+k+",
"k+k+8+8+8+8+8+8+8+8+8+8+8+8+8+2+E.E.E.E.E.E.E.E.E.E.E.E.E.E.E.E.E.E.7+8+8+8+8+8+8+8+8+8+8+8+8+8+l+k+"};
