/* XPM */
static char * 34_xpm[] = {
"50 50 43 1",
" 	c None",
".	c #000000",
"+	c #1B10FF",
"@	c #E0151F",
"#	c #2016EE",
"$	c #2D26C4",
"%	c #3B3795",
"&	c #48466B",
"*	c #4E4E55",
"=	c #EAFF35",
"-	c #1B10FE",
";	c #2921D1",
">	c #47456D",
",	c #505050",
"'	c #2319E6",
")	c #312BB6",
"!	c #4F4242",
"~	c #4E2A2A",
"{	c #4C1414",
"]	c #4B0606",
"^	c #4F3B3B",
"/	c #4B0707",
"(	c #4B0303",
"_	c #504E4E",
":	c #4D2020",
"<	c #4C030E",
"[	c #4F0436",
"}	c #520561",
"|	c #55067C",
"1	c #4B0307",
"2	c #51054A",
"3	c #550682",
"4	c #54067B",
"5	c #303030",
"6	c #4E4E54",
"7	c #646467",
"8	c #4D4D55",
"9	c #6F6F70",
"0	c #767676",
"a	c #4D4D56",
"b	c #4D4D54",
"c	c #3E4F4B",
"d	c #374642",
"..................................................",
"..................................................",
"..................................................",
"..................................................",
"..................................................",
".....++++++++++++++++++++++++++++++++++++++++.....",
".....++++++++++++++++++++++++++++++++++++++++.....",
".....++++++++++++++++++++++++++++++++++++++++.....",
".....+++++++++++++++++@@@@@@+++++++++++++++++.....",
".....++++++++++++#$%&*@@==@@*&%$#++++++++++++.....",
".....+++++++++-;>,,,,,@@==@@,,,,,>;-+++++++++.....",
".....++++++++'>,,,,,,,@@==@@,,,,,,,>'++++++++.....",
".....+++++++$,,,,,,,,,@@==@@,,,,,,,,,$+++++++.....",
".....++++++),,,,,,!~{]@@==@@]{~!,,,,,,)++++++.....",
".....+++++$,,,,,^/((((@@==@@((((/^,,,,,$+++++.....",
".....++++',,,,_:((<[}|@@==@@|}[<((:_,,,,'++++.....",
".....++++>,,,_{(123333@@==@@333321({_,,,>-+++.....",
".....+++;,,,,:(<433555@@==@@555334<(:,,,,;+++.....",
".....+++>,,,^(14333555@@==@@55533341(^,,,>+++.....",
".....++#,,,,/(23333555@@==@@55533332(/,,,,#++.....",
".....++$,,,!(<33333555@@==@@55533333<(!,,,$++.....",
".....++%,,,~([33333555@@==@@55533333[(~,,,%++.....",
".....++&,,,{(}35555555@@==@@55555553}({,,,&++.....",
".....++*,,,](|35555555@@==@@55555553|(],,,*++.....",
".....++*,,,](|35555555@@==@@55555553|(],,,*++.....",
"6....++&,,,{(}35555555@@==@@55555553}({,,,&++....6",
"66...++%,,,~([33333555@@==@@55533333[(~,,,%++...66",
"666..++$,,,!(<33333555@@==@@55533333<(!,,,$++..666",
"6666.++#,,,,/(23333555@@==@@55533332(/,,,,#++.6666",
"66666-++>,,,^(14333555@@==@@55533341(^,,,>+++66666",
"666666++;,,,,:(<433555@@==@@555334<(:,,,,;++666666",
"6666666+->,,,_{(123333@@==@@333321({_,,,>-+6666666",
"66666666+',,,,_:((<[}|@@==@@|}[<((:_,,,,'+66666666",
"666666666+$,,,,,^/((((@@==@@((((/^,,,,,$+666666666",
"7666666668+),,,,,,!~{]@@==@@]{~!,,,,,,)+6666666669",
"0766666666a+$,,,,,,,,,@@==@@,,,,,,,,,$+66666666690",
"0076666b6666+'>,,,,,,,@@==@@,,,,,,,>'+666666666900",
"000766666666b+-;>,,,,,@@==@@,,,,,>;-+66666b6669000",
"0000766666666b+++#$%&*@@==@@*&%$#+++66666666690000",
"00000766666666b+++++++@@==@@+++++++6666b6666900000",
"cd00007666666666++++++@@@@@@++++++66666666b90000cc",
"cd000007666666666++++++++++++++++666666666900000dc",
"cd0000007666666666++++++++++++++6666666669000000dc",
"cd00000007666666666++++++++++++66666666690000000dc",
"cd000000007668666666++++++++++666666666900000000dc",
"cd0000000007666666666++++++++6666666669000000000dc",
"cd00000000007666666666++++++66666666690000000000dc",
"cd000000000007666666666++++666666666900000000000dc",
"cd0000000000007666666666++6666666669000000000000dc",
"cc0000000000000766666666666666666690000000000000dc"};
