/* XPM */
static char * 35_xpm[] = {
"50 50 43 1",
" 	c None",
".	c #3E4F4B",
"+	c #374642",
"@	c #767676",
"#	c #6F6F70",
"$	c #4E4E54",
"%	c #646467",
"&	c #1B10FF",
"*	c #4D4D55",
"=	c #4D4D54",
"-	c #E0151F",
";	c #EAFF35",
">	c #2016EE",
",	c #2D26C4",
"'	c #3B3795",
")	c #48466B",
"!	c #4E4E55",
"~	c #1B10FE",
"{	c #2921D1",
"]	c #47456D",
"^	c #505050",
"/	c #2319E6",
"(	c #4D4D56",
"_	c #312BB6",
":	c #4F4242",
"<	c #4E2A2A",
"[	c #4C1414",
"}	c #4B0606",
"|	c #4F3B3B",
"1	c #4B0707",
"2	c #4B0303",
"3	c #504E4E",
"4	c #4D2020",
"5	c #4C030E",
"6	c #4F0436",
"7	c #520561",
"8	c #55067C",
"9	c #4B0307",
"0	c #51054A",
"a	c #550682",
"b	c #54067B",
"c	c #303030",
"d	c #000000",
".+@@@@@@@@@@@@@#$$$$$$$$$$$$$$$$$$%@@@@@@@@@@@@@..",
".+@@@@@@@@@@@@#$$$$$$$$$&&$$$$$$$$$%@@@@@@@@@@@@+.",
".+@@@@@@@@@@@#$$$$$$$$$&&&&$$$$$$$$$%@@@@@@@@@@@+.",
".+@@@@@@@@@@#$$$$$$$$$&&&&&&$$$$$$$$$%@@@@@@@@@@+.",
".+@@@@@@@@@#$$$$$$$$$&&&&&&&&$$$$$$$$$%@@@@@@@@@+.",
".+@@@@@@@@#$$$$$$$$$&&&&&&&&&&$$$$$$*$$%@@@@@@@@+.",
".+@@@@@@@#$$$$$$$$$&&&&&&&&&&&&$$$$$$$$$%@@@@@@@+.",
".+@@@@@@#$$$$$$$$$&&&&&&&&&&&&&&$$$$$$$$$%@@@@@@+.",
".+@@@@@#$$$$$$$$$&&&&&&&&&&&&&&&&$$$$$$$$$%@@@@@+.",
"..@@@@#=$$$$$$$$&&&&&&------&&&&&&$$$$$$$$$%@@@@+.",
"@@@@@#$$$$=$$$$&&&&&&&--;;--&&&&&&&=$$$$$$$$%@@@@@",
"@@@@#$$$$$$$$$&&&>,')!--;;--!)',>&&&=$$$$$$$$%@@@@",
"@@@#$$$=$$$$$&~{]^^^^^--;;--^^^^^]{~&=$$$$$$$$%@@@",
"@@#$$$$$$$$$&/]^^^^^^^--;;--^^^^^^^]/&$$$$=$$$$%@@",
"@#$$$$$$$$$&,^^^^^^^^^--;;--^^^^^^^^^,&($$$$$$$$%@",
"#$$$$$$$$$&_^^^^^^:<[}--;;--}[<:^^^^^^_&*$$$$$$$$%",
"$$$$$$$$$&,^^^^^|12222--;;--22221|^^^^^,&$$$$$$$$$",
"$$$$$$$$&/^^^^34225678--;;--87652243^^^^/&$$$$$$$$",
"$$$$$$$&~]^^^3[290aaaa--;;--aaaa092[3^^^]~&$$$$$$$",
"$$$$$$&&{^^^^425baaccc--;;--cccaab524^^^^{&&$$$$$$",
"$$$$$&&&]^^^|29baaaccc--;;--cccaaab92|^^^]&&~$$$$$",
"$$$$d&&>^^^^120aaaaccc--;;--cccaaaa021^^^^>&&d$$$$",
"$$$dd&&,^^^:25aaaaaccc--;;--cccaaaaa52:^^^,&&dd$$$",
"$$ddd&&'^^^<26aaaaaccc--;;--cccaaaaa62<^^^'&&ddd$$",
"$dddd&&)^^^[27accccccc--;;--ccccccca72[^^^)&&dddd$",
"ddddd&&!^^^}28accccccc--;;--ccccccca82}^^^!&&ddddd",
"ddddd&&!^^^}28accccccc--;;--ccccccca82}^^^!&&ddddd",
"ddddd&&)^^^[27accccccc--;;--ccccccca72[^^^)&&ddddd",
"ddddd&&'^^^<26aaaaaccc--;;--cccaaaaa62<^^^'&&ddddd",
"ddddd&&,^^^:25aaaaaccc--;;--cccaaaaa52:^^^,&&ddddd",
"ddddd&&>^^^^120aaaaccc--;;--cccaaaa021^^^^>&&ddddd",
"ddddd&&&]^^^|29baaaccc--;;--cccaaab92|^^^]&&&ddddd",
"ddddd&&&{^^^^425baaccc--;;--cccaab524^^^^{&&&ddddd",
"ddddd&&&~]^^^3[290aaaa--;;--aaaa092[3^^^]&&&&ddddd",
"ddddd&&&&/^^^^34225678--;;--87652243^^^^/&&&&ddddd",
"ddddd&&&&&,^^^^^|12222--;;--22221|^^^^^,&&&&&ddddd",
"ddddd&&&&&&_^^^^^^:<[}--;;--}[<:^^^^^^_&&&&&&ddddd",
"ddddd&&&&&&&,^^^^^^^^^--;;--^^^^^^^^^,&&&&&&&ddddd",
"ddddd&&&&&&&&/]^^^^^^^--;;--^^^^^^^]/&&&&&&&&ddddd",
"ddddd&&&&&&&&&~{]^^^^^--;;--^^^^^]{~&&&&&&&&&ddddd",
"ddddd&&&&&&&&&&&&>,')!--;;--!)',>&&&&&&&&&&&&ddddd",
"ddddd&&&&&&&&&&&&&&&&&------&&&&&&&&&&&&&&&&&ddddd",
"ddddd&&&&&&&&&&&&&&&&&&&&&&&&&&&&&&&&&&&&&&&&ddddd",
"ddddd&&&&&&&&&&&&&&&&&&&&&&&&&&&&&&&&&&&&&&&&ddddd",
"ddddd&&&&&&&&&&&&&&&&&&&&&&&&&&&&&&&&&&&&&&&&ddddd",
"dddddddddddddddddddddddddddddddddddddddddddddddddd",
"dddddddddddddddddddddddddddddddddddddddddddddddddd",
"dddddddddddddddddddddddddddddddddddddddddddddddddd",
"dddddddddddddddddddddddddddddddddddddddddddddddddd",
"dddddddddddddddddddddddddddddddddddddddddddddddddd"};
