/* XPM */
static char * 35_xpm[] = {
"50 50 239 2",
"  	c None",
". 	c #3E4F4B",
"+ 	c #374642",
"@ 	c #767676",
"# 	c #6F6F70",
"$ 	c #4E4E54",
"% 	c #646467",
"& 	c #1B10FF",
"* 	c #C52C4E",
"= 	c #4D4D55",
"- 	c #E83129",
"; 	c #DA2F37",
"> 	c #BA2A59",
", 	c #D42E3D",
"' 	c #EF3321",
") 	c #EE3223",
"! 	c #4417D4",
"~ 	c #842191",
"{ 	c #E93227",
"] 	c #E3312E",
"^ 	c #B92A59",
"/ 	c #E83229",
"( 	c #2D26C4",
"_ 	c #3B3795",
": 	c #48466B",
"< 	c #F0331F",
"[ 	c #EF3420",
"} 	c #B93938",
"| 	c #DC3230",
"1 	c #F03320",
"2 	c #2921D1",
"3 	c #47456D",
"4 	c #F1331F",
"5 	c #D4362C",
"6 	c #8B2A7A",
"7 	c #1B10FE",
"8 	c #BC2C53",
"9 	c #68425E",
"0 	c #C62E48",
"a 	c #D0313B",
"b 	c #EE3420",
"c 	c #754945",
"d 	c #A54136",
"e 	c #D13929",
"f 	c #EB3421",
"g 	c #EF331F",
"h 	c #BE304A",
"i 	c #E53522",
"j 	c #92443C",
"k 	c #EE331F",
"l 	c #D72E1D",
"m 	c #8C1810",
"n 	c #4B0606",
"o 	c #4C1414",
"p 	c #4E2A2A",
"q 	c #8F2F6C",
"r 	c #E4322A",
"s 	c #DA3726",
"t 	c #9C372D",
"u 	c #4B0707",
"v 	c #621804",
"w 	c #DA3919",
"x 	c #EA411A",
"y 	c #EC7E0E",
"z 	c #EB9709",
"A 	c #CB7A08",
"B 	c #974A06",
"C 	c #6F3935",
"D 	c #E93421",
"E 	c #694C49",
"F 	c #99257B",
"G 	c #CE2F41",
"H 	c #E53523",
"I 	c #E8321F",
"J 	c #EC3C1C",
"K 	c #F3940B",
"L 	c #F26415",
"M 	c #F26A14",
"N 	c #F39E09",
"O 	c #F27412",
"P 	c #E54918",
"Q 	c #ED321E",
"R 	c #CB3A2B",
"S 	c #882684",
"T 	c #AC4034",
"U 	c #F13A1E",
"V 	c #F1341F",
"W 	c #D43418",
"X 	c #CF2D1D",
"Y 	c #DF3527",
"Z 	c #A44136",
"` 	c #CF2F1F",
" .	c #CF3417",
"..	c #F2810F",
"+.	c #F3491E",
"@.	c #F4571E",
"#.	c #FEE01A",
"$.	c #FBB31C",
"%.	c #F56E1D",
"&.	c #EB331E",
"*.	c #9D2920",
"=.	c #E43523",
"-.	c #BD2E4D",
";.	c #F24F19",
">.	c #F1381F",
",.	c #F4591E",
"'.	c #F2471E",
").	c #FFEC1A",
"!.	c #F5631E",
"~.	c #F23F1F",
"{.	c #C42C4E",
"].	c #2016EE",
"^.	c #714A46",
"/.	c #F2431F",
"(.	c #F1361F",
"_.	c #F1351F",
":.	c #DE5713",
"<.	c #C62819",
"[.	c #000000",
"}.	c #9C4239",
"|.	c #F23C1F",
"1.	c #FAAB1C",
"2.	c #F34C1E",
"3.	c #F23D1F",
"4.	c #F1371F",
"5.	c #F2431E",
"6.	c #F8911C",
"7.	c #F23E1F",
"8.	c #CC2C18",
"9.	c #C63B2C",
"0.	c #CD2D45",
"a.	c #C73B2C",
"b.	c #F7811D",
"c.	c #F7901C",
"d.	c #575109",
"e.	c #F4581E",
"f.	c #F88D1D",
"g.	c #F3531E",
"h.	c #E93324",
"i.	c #E33623",
"j.	c #FCC81B",
"k.	c #C56217",
"l.	c #E4301D",
"m.	c #EE321F",
"n.	c #9B8F10",
"o.	c #F6801D",
"p.	c #F2421F",
"q.	c #F1491A",
"r.	c #D73827",
"s.	c #EA3521",
"t.	c #C53833",
"u.	c #4E4E55",
"v.	c #EE3320",
"w.	c #FFE81A",
"x.	c #903112",
"y.	c #BE2818",
"z.	c #332F05",
"A.	c #F9A31C",
"B.	c #9F413A",
"C.	c #060601",
"D.	c #7A1C10",
"E.	c #F9A01C",
"F.	c #F2391F",
"G.	c #F34A1E",
"H.	c #CB3438",
"I.	c #F23B1F",
"J.	c #FCE91A",
"K.	c #7D1D09",
"L.	c #8A463F",
"M.	c #A02E63",
"N.	c #EE3322",
"O.	c #544F4F",
"P.	c #F3561E",
"Q.	c #F3521E",
"R.	c #CE2A1A",
"S.	c #E03624",
"T.	c #862489",
"U.	c #F6741D",
"V.	c #FCBF1B",
"W.	c #F3890D",
"X.	c #D32D19",
"Y.	c #4F24AF",
"Z.	c #B83D30",
"`.	c #4D2020",
" +	c #823605",
".+	c #D6301F",
"++	c #D83826",
"@+	c #EF3320",
"#+	c #C52C4D",
"$+	c #B03A3D",
"%+	c #AB4034",
"&+	c #834741",
"*+	c #F25F16",
"=+	c #E3331C",
"-+	c #852190",
";+	c #E83228",
">+	c #ED3420",
",+	c #B23E32",
"'+	c #F3840E",
")+	c #EC321E",
"!+	c #EC3421",
"~+	c #C83B2C",
"{+	c #2319E6",
"]+	c #661CB1",
"^+	c #E3322B",
"/+	c #E93522",
"(+	c #CF3525",
"_+	c #85160F",
":+	c #A8460B",
"<+	c #EB3E1B",
"[+	c #EC341E",
"}+	c #A82511",
"|+	c #9C1D13",
"1+	c #CF313B",
"2+	c #CA3A2B",
"3+	c #CF3121",
"4+	c #E83320",
"5+	c #EC3224",
"6+	c #8D2C73",
"7+	c #E83522",
"8+	c #B43E32",
"9+	c #8D453E",
"0+	c #B03F33",
"a+	c #E5312B",
"b+	c #E2312F",
"c+	c #AC2A61",
"d+	c #E23526",
"e+	c #DE3625",
"f+	c #C23B2E",
"g+	c #644C4A",
"h+	c #CE372F",
"i+	c #EB3224",
"j+	c #764944",
"k+	c #701EA6",
"l+	c #D02E41",
"m+	c #68425C",
"n+	c #DB3726",
"o+	c #94355B",
"p+	c #D62F3B",
". + @ @ @ @ @ @ @ @ @ @ @ @ @ # $ $ $ $ $ $ $ $ $ $ $ $ $ $ $ $ $ $ % @ @ @ @ @ @ @ @ @ @ @ @ @ . . ",
". + @ @ @ @ @ @ @ @ @ @ @ @ # $ $ $ $ $ $ $ $ $ & & $ $ $ $ $ $ $ $ $ % @ @ @ @ @ @ @ @ @ @ @ @ + . ",
". + @ @ @ @ @ @ @ @ @ @ @ # $ $ $ $ $ $ $ $ $ & & & & $ $ $ $ $ $ $ $ $ % @ @ @ @ @ @ @ @ @ @ @ + . ",
". + @ @ @ @ @ @ @ @ @ @ # $ $ $ $ $ $ $ $ $ & & & & & & $ $ $ $ $ $ $ $ $ % @ @ @ @ @ @ @ @ @ @ + . ",
". + @ @ @ @ @ @ @ @ @ # $ $ $ $ $ $ $ $ $ & & & & & & & & $ $ $ $ $ $ $ $ $ % @ @ @ @ @ @ @ @ @ + . ",
". + @ @ @ @ @ @ @ @ # $ $ $ $ $ $ $ $ $ & & & * & & & & & & $ $ $ $ $ $ = $ $ % @ @ @ @ @ @ @ @ + . ",
". + @ @ @ @ @ @ @ # $ $ $ $ $ $ $ $ $ & & & & - ; & & & & & & $ $ $ $ $ $ $ $ $ % @ @ @ @ @ @ @ + . ",
". + @ @ @ @ @ @ # $ $ $ $ $ $ $ $ $ & & & & & > , ' ) > & & & & $ $ $ $ $ $ $ $ $ % @ @ @ @ @ @ + . ",
". + @ @ @ @ @ # $ $ $ $ $ $ $ $ $ & & & & & & ! * ' ~ { ] & & & & $ $ $ $ $ $ $ $ $ % @ @ @ @ @ + . ",
". . @ @ @ @ # $ $ $ $ $ $ $ $ $ & & & & & & & & ~ ^ / * ' * & & & & $ $ $ $ $ $ $ $ $ % @ @ @ @ + . ",
"@ @ @ @ @ # $ $ $ $ $ $ $ $ $ & & & & & & ( _ : < [ } _ | 1 ; & & & & $ $ $ $ $ $ $ $ $ % @ @ @ @ @ ",
"@ @ @ @ # $ $ $ $ $ $ $ $ $ & & & & 2 3 4 4 4 4 4 4 4 4 4 4 5 6 7 & & & $ $ $ $ $ $ $ $ $ % @ @ @ @ ",
"@ @ @ # $ $ $ $ $ $ $ $ $ & & & 8 3 4 4 4 4 4 4 4 4 4 4 4 4 4 4 9 0 > & & $ $ $ $ $ $ $ $ $ % @ @ @ ",
"@ @ # $ $ $ $ $ $ $ $ $ & & & a b 4 4 4 4 c d e f f e d c 4 4 4 4 g h & & & $ $ $ $ $ $ $ $ $ % @ @ ",
"@ # $ $ $ $ $ $ $ $ $ & & & ' i 4 4 4 j 4 4 k l m n o p 4 4 j 4 4 4 4 q & & & $ $ $ $ $ $ $ $ $ % @ ",
"# $ $ $ $ $ $ $ $ $ & & - r b 4 4 s 4 t u v w x y z A B v u C D E 4 4 4 4 & & & $ $ $ $ $ $ $ $ $ % ",
"$ $ $ $ $ $ $ $ $ & & F G H 4 4 4 4 I < J K L M 4 4 N N O P Q < 4 c 4 4 R S & & & $ $ $ $ $ $ $ $ $ ",
"$ $ $ $ $ $ $ $ & & & 7 3 4 4 T 4 g < 4 U 4 4 4 4 4 4 4 4 4 V W X 4 E 4 4 Y ~ & & & $ $ $ $ $ $ $ $ ",
"$ $ $ $ $ $ $ & & & & 2 Z 4 4 D `  ...4 4 V V +.@.#.$.%.V 4 4 M &.*.D 4 4 =.-.& & & & $ $ $ $ $ $ $ ",
"$ $ $ $ $ $ & & & & & 3 4 4 j C v ;.4 4 >.,.'.).).).).!.~.+.4 4 N v C j 4 4 4 {.& & & & $ $ $ $ $ $ ",
"$ $ $ $ $ & & & & & ].^.4 4 4 u A M 4 !.'./.V (.).).'._.4 4 V 4 N :.<.4 4 4 4 4 ' ~ & & 7 $ $ $ $ $ ",
"$ $ $ $ [.& & & & & ( }.4 c 4 v N 4 |.).1.2.V '.).3.4 4 4.5.6.7.4 M 8.4 c 4 9.1 0.; ; * & [.$ $ $ $ ",
"$ $ $ [.[.& & & & & _ a.4 d p B N 4 b.).,.,.3.c.d.< (.e.f.6.6.g.4 V B p d 4 4 h.0.! F ! & [.[.$ $ $ ",
"$ $ [.[.[.& & & & & : i.4 e o A N 4 j.).).).).k.l.m.n.o.p.).)./.4 q.A o r.4 s.t.> & & & & [.[.[.$ $ ",
"$ [.[.[.[.& & & & & u.v.4 f n z 4 4 w.).).).).x.y.[.z.A.f.).).w.4 4 z n f 4 v.B.~ & & & & [.[.[.[.$ ",
"[.[.[.[.[.& & & & & u.i.4 f n z 4 4 j.).).).).C.[.[.D.6.,.).).j.4 4 z n f 4 i.u.) & & & & [.[.[.[.[.",
"[.[.[.[.[.& & & & & : a.4 e o A N 4 b.A.A.6.j.z.[.[.z._.E.).).b.4 N A o e 4 a.: * ! & & & [.[.[.[.[.",
"[.[.[.[.[.& & & & & _ }.4 d p B N 4 F.4.V !.,.n.[.[.n.G.4 !.!.7.4 N B p d 4 }.H.> ~ & & & [.[.[.[.[.",
"[.[.[.[.[.& & & & & ( ^.4 c 4 v N 4 4 4 I.!.6.J.d.d.J.).).V 4 4 4 M K.4 c 4 L.M.N.0.& & & [.[.[.[.[.",
"[.[.[.[.[.& & & & & ].O.4 4 4 u A N 4 4 P.3.,.'.Q.).).).).P.4 4 4 :.R.4 4 4 S.T.F ! & & & [.[.[.[.[.",
"[.[.[.[.[.& & & & & & 3 Z 4 j C v N 4 4 4 4 ~.U.V.#.$.%.>.4 4 4 W.X.C j 4 b < ) & & & & & [.[.[.[.[.",
"[.[.[.[.[.& & & & & & Y.Z.4 4 D `. +N 4 4 4 4 4 4 4 4 4 4 4 4 V W .+4 4 4 ++@+& & & & & & [.[.[.[.[.",
"[.[.[.[.[.& & & & & * #+$+%+4 &+4 o  +N N 4 4 4 4 4 4 4 4 M *+=+< 4 4 4 4 4 - ; ' ~ & & & [.[.[.[.[.",
"[.[.[.[.[.& & & & -+F ~ ;+>+4 4 ,+4 `.v A N N N 4 4 '+W.N :.)+4 4 4 4 !+~+{+]+F ~ ~ & & & [.[.[.[.[.",
"[.[.[.[.[.& & & & ~ > ' - ^+/+@+4 < 4 (+_+K.:+A z y <+[+}+|+4 4 >+4 4 >+1+* ' & & & & & & [.[.[.[.[.",
"[.[.[.[.[.& & & 1 , * ~ * - 1 2+4 4 4 < 4 4 3+o n < m.4+4 4 H 4 4 ++e 1 4 1 5+; & & & & & [.[.[.[.[.",
"[.[.[.[.[.& & & 0.- 1 N.1 - ! 6+4 7+4 4 4 e d e f !+!+8+9+4 4 4 7+0+( & a+1 > ~ & & & & & [.[.[.[.[.",
"[.[.[.[.[.& & & - {.~ b+{ * ! ' c+d+e+f+4 4 4 4 4 4 4 4 4 4 < g+h+i+& & & F ~ ~ & & & & & [.[.[.[.[.",
"[.[.[.[.[.& & ; - ~ & ; 0.> a+~ ; a+-.3 r.4 4 s b b f >+H j+3 6 ' > > & & & & & & & & & & [.[.[.[.[.",
"[.[.[.[.[.& & ! & k+l+a+; > > > ~ ~ ; 1 ;+h H.m+n+n+t.o+a ' * ; a+~ ~ & & & & & & & & & & [.[.[.[.[.",
"[.[.[.[.[.& & & & p+' ~ & & ~ > ) ~ F 4 0.& & ; a+, ) * * * ! ! F ~ & & & & & & & & & & & [.[.[.[.[.",
"[.[.[.[.[.& & & ' ' & & & & ~ ~ & & & ) 4 ~ & ! ! > & ! ! & & & & & & & & & & & & & & & & [.[.[.[.[.",
"[.[.[.[.[.& & & & & & & & & & & & & & & {.> & & & & & & & & & & & & & & & & & & & & & & & [.[.[.[.[.",
"[.[.[.[.[.& & & & & & & & & & & & & & & & & & & & & & & & & & & & & & & & & & & & & & & & [.[.[.[.[.",
"[.[.[.[.[.& & & & & & & & & & & & & & & & & & & & & & & & & & & & & & & & & & & & & & & & [.[.[.[.[.",
"[.[.[.[.[.[.[.[.[.[.[.[.[.[.[.[.[.[.[.[.[.[.[.[.[.[.[.[.[.[.[.[.[.[.[.[.[.[.[.[.[.[.[.[.[.[.[.[.[.[.",
"[.[.[.[.[.[.[.[.[.[.[.[.[.[.[.[.[.[.[.[.[.[.[.[.[.[.[.[.[.[.[.[.[.[.[.[.[.[.[.[.[.[.[.[.[.[.[.[.[.[.",
"[.[.[.[.[.[.[.[.[.[.[.[.[.[.[.[.[.[.[.[.[.[.[.[.[.[.[.[.[.[.[.[.[.[.[.[.[.[.[.[.[.[.[.[.[.[.[.[.[.[.",
"[.[.[.[.[.[.[.[.[.[.[.[.[.[.[.[.[.[.[.[.[.[.[.[.[.[.[.[.[.[.[.[.[.[.[.[.[.[.[.[.[.[.[.[.[.[.[.[.[.[.",
"[.[.[.[.[.[.[.[.[.[.[.[.[.[.[.[.[.[.[.[.[.[.[.[.[.[.[.[.[.[.[.[.[.[.[.[.[.[.[.[.[.[.[.[.[.[.[.[.[.[."};
