/* XPM */
static char * 36_xpm[] = {
"50 50 43 1",
" 	c None",
".	c #000000",
"+	c #4E4E54",
"@	c #6F6F70",
"#	c #767676",
"$	c #3E4F4B",
"%	c #374642",
"&	c #1B10FF",
"*	c #2016EE",
"=	c #2D26C4",
"-	c #3B3795",
";	c #48466B",
">	c #4E4E55",
",	c #4D4D54",
"'	c #1B10FE",
")	c #2921D1",
"!	c #47456D",
"~	c #505050",
"{	c #2319E6",
"]	c #312BB6",
"^	c #4F4242",
"/	c #4E2A2A",
"(	c #4C1414",
"_	c #4B0606",
":	c #4F3B3B",
"<	c #4B0707",
"[	c #4B0303",
"}	c #504E4E",
"|	c #4D2020",
"1	c #4C030E",
"2	c #4F0436",
"3	c #520561",
"4	c #55067C",
"5	c #4B0307",
"6	c #51054A",
"7	c #550682",
"8	c #54067B",
"9	c #303030",
"0	c #E0151F",
"a	c #EAFF35",
"b	c #646467",
"c	c #4D4D55",
"d	c #4D4D56",
".........................+++++++++@#####$$$$$$$$$$",
"..........................+++++++++@####$%%%%%%%%%",
"...........................+++++++++@#############",
"............................+++++++++@############",
".............................+++++++++@###########",
".....&&&&&&&&&&&&&&&&&&&&&&&&&+++++++++@##########",
".....&&&&&&&&&&&&&&&&&&&&&&&&&&+++++++++@#########",
".....&&&&&&&&&&&&&&*=-;>>;-=*&&&+++++,++,@########",
".....&&&&&&&&&&&')!~~~~~~~~~~!)'&+++++++++@#######",
".....&&&&&&&&&&{!~~~~~~~~~~~~~~!{&+++++++++@######",
".....&&&&&&&&&=~~~~~~~~~~~~~~~~~~=&++++,++++@#####",
".....&&&&&&&&]~~~~~~^/(__(/^~~~~~~]&+++++++++@####",
".....&&&&&&&=~~~~~:<[[[[[[[[<:~~~~~=&+++++++++@###",
".....&&&&&&{~~~~}|[[12344321[[|}~~~~{&+++++++++@##",
".....&&&&&'!~~~}([567777777765[(}~~~!'&+++++++++@#",
".....&&&&&)~~~~|[18777999977781[|~~~~)&&+++++++++@",
".....&&&&&!~~~:[5877779999777785[:~~~!&&&+++++++++",
".....&&&&*~~~~<[6777779999777776[<~~~~*&&&++++++++",
".....&&&&=~~~^[177777799997777771[^~~~=&&&&+++++++",
".....&&&&-~~~/[279999999999999972[/~~~-&&&&&++++++",
".....&&&&;~~~([379999999999999973[(~~~;&&&&&&+++++",
".....&&&&>~~~_[479999999999999974[_~~~>&&&&&&&++++",
".....&&&000000000000000000000000000000000&&&&&&+++",
".....&&&000000000000000000000000000000000&&&&&&&++",
".....&&&0aaaaaaaaaaaaaaaaaaaaaaaaaaaaaaa0&&&&&&&&+",
".....&&&0aaaaaaaaaaaaaaaaaaaaaaaaaaaaaaa0&&&&&&&&+",
".....&&&000000000000000000000000000000000&&&&&&&++",
".....&&&000000000000000000000000000000000&&&&&&+++",
".....&&&&>~~~_[479999999999999974[_~~~>&&&&&&&++++",
".....&&&&;~~~([379999999999999973[(~~~;&&&&&&+++++",
".....&&&&-~~~/[279999999999999972[/~~~-&&&&&++++++",
".....&&&&=~~~^[177777799997777771[^~~~=&&&&+++++++",
".....&&&&*~~~~<[6777779999777776[<~~~~*&&&++++++++",
".....&&&&&!~~~:[5877779999777785[:~~~!&&&+++++++++",
".....&&&&&)~~~~|[18777999977781[|~~~~)&&+++++++++b",
".....&&&&&'!~~~}([567777777765[(}~~~!'&,++++++++b#",
".....&&&&&&{~~~~}|[[12344321[[|}~~~~{&,+++++c++b##",
".....&&&&&&&=~~~~~:<[[[[[[[[<:~~~~~=&,++++++++b###",
".....&&&&&&&&]~~~~~~^/(__(/^~~~~~~]&+++++++++b####",
".....&&&&&&&&&=~~~~~~~~~~~~~~~~~~=&d++++++++b#####",
".....&&&&&&&&&&{!~~~~~~~~~~~~~~!{&c++++++++b######",
".....&&&&&&&&&&&&)!~~~~~~~~~~!)'&+++++++++b#######",
".....&&&&&&&&&&&&&&*=-;>>;-=*&&&++++,++++b########",
".....&&&&&&&&&&&&&&&&&&&&&&&&&&+++++++++b#########",
".....&&&&&&&&&&&&&&&&&&&&&&&&'+++++++++b##########",
".............................+++++++++b###########",
"............................+++++++++b############",
"...........................+++++++++b#############",
"..........................+++++++++b####%%%%%%%%%$",
".........................+++++++++b#####$$$$$$$$$$"};
