/* XPM */
static char * 36_xpm[] = {
"50 50 239 2",
"  	c None",
". 	c #000000",
"+ 	c #4E4E54",
"@ 	c #6F6F70",
"# 	c #767676",
"$ 	c #3E4F4B",
"% 	c #374642",
"& 	c #1B10FF",
"* 	c #4417D4",
"= 	c #DA2F37",
"- 	c #EF3321",
"; 	c #E83129",
"> 	c #CD2D45",
", 	c #F03320",
"' 	c #D62F3B",
") 	c #701EA6",
"! 	c #842191",
"~ 	c #C42C4E",
"{ 	c #D42E3D",
"] 	c #852190",
"^ 	c #D02E41",
"/ 	c #C52C4E",
"( 	c #BA2A59",
"_ 	c #99257B",
": 	c #2016EE",
"< 	c #2D26C4",
"[ 	c #3B3795",
"} 	c #48466B",
"| 	c #4E4E55",
"1 	c #E5312B",
"2 	c #E2312F",
"3 	c #EE3322",
"4 	c #C52C4D",
"5 	c #4F24AF",
"6 	c #47456D",
"7 	c #544F4F",
"8 	c #714A46",
"9 	c #9C4239",
"0 	c #C73B2C",
"a 	c #E33623",
"b 	c #EE3320",
"c 	c #2921D1",
"d 	c #1B10FE",
"e 	c #E93227",
"f 	c #E83228",
"g 	c #B03A3D",
"h 	c #B83D30",
"i 	c #A44136",
"j 	c #F1331F",
"k 	c #CE2F41",
"l 	c #E3322B",
"m 	c #ED3420",
"n 	c #AB4034",
"o 	c #754945",
"p 	c #A54136",
"q 	c #D13929",
"r 	c #EB3421",
"s 	c #E53523",
"t 	c #E4322A",
"u 	c #E93522",
"v 	c #92443C",
"w 	c #4E2A2A",
"x 	c #4C1414",
"y 	c #4B0606",
"z 	c #EE3420",
"A 	c #8D2C73",
"B 	c #CA3A2B",
"C 	c #EF3320",
"D 	c #834741",
"E 	c #E93421",
"F 	c #6F3935",
"G 	c #4B0707",
"H 	c #621804",
"I 	c #974A06",
"J 	c #CB7A08",
"K 	c #EB9709",
"L 	c #AC4034",
"M 	c #E53522",
"N 	c #D0313B",
"O 	c #EE3223",
"P 	c #AC2A61",
"Q 	c #B23E32",
"R 	c #4D2020",
"S 	c #F39E09",
"T 	c #CF2F1F",
"U 	c #BC2C53",
"V 	c #E23526",
"W 	c #E83522",
"X 	c #F0331F",
"Y 	c #823605",
"Z 	c #F26A14",
"` 	c #F24F19",
" .	c #CF3417",
"..	c #EF331F",
"+.	c #DA3726",
"@.	c #BD2E4D",
"#.	c #DE3625",
"$.	c #F2391F",
"%.	c #F7811D",
"&.	c #FCC81B",
"*.	c #FFE81A",
"=.	c #F23C1F",
"-.	c #F2810F",
";.	c #E8321F",
">.	c #C23B2E",
",.	c #CF3525",
"'.	c #F1371F",
").	c #F9A31C",
"!.	c #FFEC1A",
"~.	c #F5631E",
"{.	c #9C372D",
"].	c #D73827",
"^.	c #85160F",
"/.	c #F3561E",
"(.	c #F23B1F",
"_.	c #F1341F",
":.	c #F4591E",
"<.	c #FAAB1C",
"[.	c #F2471E",
"}.	c #F1381F",
"|.	c #F13A1E",
"1.	c #EC3C1C",
"2.	c #BE304A",
"3.	c #7D1D09",
"4.	c #F23D1F",
"5.	c #F8911C",
"6.	c #F34C1E",
"7.	c #F2431F",
"8.	c #F3940B",
"9.	c #CB3438",
"0.	c #CF3121",
"a.	c #A8460B",
"b.	c #F23F1F",
"c.	c #F26415",
"d.	c #DA3919",
"e.	c #EE331F",
"f.	c #68425C",
"g.	c #F6741D",
"h.	c #FCE91A",
"i.	c #9B8F10",
"j.	c #332F05",
"k.	c #060601",
"l.	c #903112",
"m.	c #C56217",
"n.	c #F7901C",
"o.	c #F1361F",
"p.	c #F3491E",
"q.	c #EA411A",
"r.	c #D72E1D",
"s.	c #DB3726",
"t.	c #FCBF1B",
"u.	c #F3521E",
"v.	c #575109",
"w.	c #BE2818",
"x.	c #E4301D",
"y.	c #F4571E",
"z.	c #EC7E0E",
"A.	c #8C1810",
"B.	c #EC3421",
"C.	c #FEE01A",
"D.	c #EE321F",
"E.	c #EF3420",
"F.	c #B92A59",
"G.	c #C53833",
"H.	c #EB3E1B",
"I.	c #F3840E",
"J.	c #FBB31C",
"K.	c #7A1C10",
"L.	c #B93938",
"M.	c #E83229",
"N.	c #94355B",
"O.	c #B43E32",
"P.	c #E83320",
"Q.	c #EC341E",
"R.	c #F3890D",
"S.	c #F56E1D",
"T.	c #F34A1E",
"U.	c #F1351F",
"V.	c #F6801D",
"W.	c #F4581E",
"X.	c #8D453E",
"Y.	c #A82511",
"Z.	c #F9A01C",
"`.	c #F88D1D",
" +	c #F2421F",
".+	c #F27412",
"++	c #DC3230",
"@+	c #E3312E",
"#+	c #764944",
"$+	c #9C1D13",
"%+	c #DE5713",
"&+	c #F2431E",
"*+	c #E54918",
"=+	c #EC321E",
"-+	c #F25F16",
";+	c #ED321E",
">+	c #D4362C",
",+	c #8B2A7A",
"'+	c #644C4A",
")+	c #E3331C",
"!+	c #F23E1F",
"~+	c #F3531E",
"{+	c #D43418",
"]+	c #CE372F",
"^+	c #EB331E",
"/+	c #CF2D1D",
"(+	c #694C49",
"_+	c #68425E",
":+	c #EB3224",
"<+	c #B03F33",
"[+	c #D83826",
"}+	c #D6301F",
"|+	c #D32D19",
"1+	c #F1491A",
"2+	c #9D2920",
"3+	c #C62E48",
"4+	c #CE2A1A",
"5+	c #CC2C18",
"6+	c #C62819",
"7+	c #646467",
"8+	c #8F2F6C",
"9+	c #CF313B",
"0+	c #C83B2C",
"a+	c #CB3A2B",
"b+	c #4D4D55",
"c+	c #2319E6",
"d+	c #E43523",
"e+	c #DF3527",
"f+	c #882684",
"g+	c #EC3224",
"h+	c #661CB1",
"i+	c #E03624",
"j+	c #8A463F",
"k+	c #EA3521",
"l+	c #C63B2C",
"m+	c #862489",
"n+	c #A02E63",
"o+	c #9F413A",
"p+	c #E93324",
". . . . . . . . . . . . . . . . . . . . . . . . . + + + + + + + + + @ # # # # # $ $ $ $ $ $ $ $ $ $ ",
". . . . . . . . . . . . . . . . . . . . . . . . . . + + + + + + + + + @ # # # # $ % % % % % % % % % ",
". . . . . . . . . . . . . . . . . . . . . . . . . . . + + + + + + + + + @ # # # # # # # # # # # # # ",
". . . . . . . . . . . . . . . . . . . . . . . . . . . . + + + + + + + + + @ # # # # # # # # # # # # ",
". . . . . . . . . . . . . . . . . . . . . . . . . . . . . + + + + + + + + + @ # # # # # # # # # # # ",
". . . . . & & & & & & & & & & & & & & & & & & & & & & & & & + + + + + + + + + @ # # # # # # # # # # ",
". . . . . & & & & & & & & & & & & & & & & & & & & & & & & & & + + + + + + + + + @ # # # # # # # # # ",
". . . . . & & & & & * = & & & & & & & & & & & & & & & & & & & & + + + + + + + + + @ # # # # # # # # ",
". . . . . & & & - & & ; ; > , & & & & & & & & & & & & & & & & & & + + + + + + + + + @ # # # # # # # ",
". . . . . & & & - ' ) ! ~ ; { ! ] & & & & & & & & & & & & & & & & & + + + + + + + + + @ # # # # # # ",
". . . . . & & & & - ^ & ! , / ( _ / & & : < [ } | | } [ < : & & & & & + + + + + + + + + @ # # # # # ",
". . . . . & & & & ! 1 = 2 3 ! - ! 4 5 6 7 8 9 0 a b a 0 9 8 6 c d _ & & + + + + + + + + + @ # # # # ",
". . . . . & & & & & = > e , / ; f g h i j j j j j j j j j j j i 6 k ; & & + + + + + + + + + @ # # # ",
". . . . . & & & & & ( ( / ; ; l m n j j j o p q r r q p o j j j j s t & & & + + + + + + + + + @ # # ",
". . . . . & & & ! ! ( 1 * * , u j j j v j j w x y y x w j j v j j j z - & & & + + + + + + + + + @ # ",
". . . . . & & & ! ( ( ! - A B C j D E F G H I J K K J I H G F E L j j M N & & & + + + + + + + + + @ ",
". . . . . & & & & O ! = P j j j Q j R H J S S S j j S S S J H T j j j j z U & & & + + + + + + + + + ",
". . . . . & & & & ! ! 1 V W j X j x Y S S j j j j j j j j Z `  ...j +.j j 6 & & & & + + + + + + + + ",
". . . . . & & & & _ = @.#.j j j R Y S j j j $.%.&.*.&.%.=.j j -.X ;.j j j j c & & & & + + + + + + + ",
". . . . . & & & O j , 6 >.j X ,.H S j j j j '.).!.!.!.!.!.~.j j j X {.v j j 6 & & & & & + + + + + + ",
". . . . . & & ~ j > f ].j j j ^.J S j j /.(._.).!.!.!.:.<.[.}.j |.1.G j j j j & & & & & & + + + + + ",
". . . . . & & ( ! & 2.j j q j 3.S j j j 4.~.~.5.!.!.!.:.6.7.:._.j 8.H j o j j < & & & & & & + + + + ",
". . . . . & & & & & 9.j j p 0.a.S j j b.:.5.:.&.!.!.!.4._._.[._.j c.d.e.p j j [ & & & & & & & + + + ",
". . . . . & & & * = f.+.j q x J S j j g.[.h.i.j.k.l.m.n.[.o.!.p.j Z q.r.q j j } & * ( ; / & & & + + ",
". . . . . & & & * 1 s.z j r y K j j j t.u.v.. . . w.x.v.!.!.!.y.j j z.A.r j j X ! / { = & & & & & + ",
". . . . . & & & ( { s.z j B.X z.j j j C.!.v.. . . . D.X 4.!.!.C.j j K y r j j E.F.- - & & & & & & + ",
". . . . . & & & & O G.r j B.D.H.I.j j J.!.h.i.j.K.j.i.o.j [.!.J.j S J x q j j L.M.! O & & & & & + + ",
". . . . . & & & * / N.m j O.P.Q.R.j j S.!.!.T.U.5.).V.W.j U.~.S.j S I w p j j [ / e ( & & & & + + + ",
". . . . . & & & * / N s j X.j Y.S j j }.!.!.j Z.:.`. +`.'.j b._.j .+H j o j j ++- @+& & & & + + + + ",
". . . . . & & & & / - #+j j j $+%+Z j j /._.~.!.!.!.!.5.&+j p.j j *+G j j j j , / & & & & + + + + + ",
". . . . . & & & & * / 6 X j s j =+-+j j j j ~.!.!.!.!.5.5._.j j _.;+F v j j >+= & & & & + + + + + + ",
". . . . . & & & & * = ,+'+j j j j )+_.j j j !+%.&.*.7.~+!+j j Z {+X E j j j ,+& & & & + + + + + + + ",
". . . . . & & & & _ 1 - ]+W j m j X {+R.j j j j j j j j j S S ^+/+j (+j j _+d & & & + + + + + + + + ",
". . . . . & & & & ! ! ( :+<+[+j j j }+|+%+Z S S j j 1+_.Z %+H 2+j o j j ..3+& & & + + + + + + + + + ",
". . . . . & & & & & ! ( & < q j j j j F 4+3.I J K K J I 5+6+F E (+j j j 2.( & & + + + + + + + + + 7+",
". . . . . & & & & & & & & & , m B.j j v j j w x y y x w j j v j j j j 8+& & & + + + + + + + + + 7+# ",
". . . . . & & & & & & & & 1 j 9+0+j j j j o p q r r ].p o j j j j a+j & & & + + + + + + b++ + 7+# # ",
". . . . . & & & & & & & _ , , / c+j [+z j j j j j j j j j j j d+e+f+& & & + + + + + + + + + 7+# # # ",
". . . . . & & & & & & & ! ( g+- h+; C X i+j+9 0 a b k+j l+j j @.! & & & + + + + + + + + + 7+# # # # ",
". . . . . & & & & & & & ! ! = & _ = & O m+n+9.} | o+G.p+, j ~ & & & & + + + + + + + + + 7+# # # # # ",
". . . . . & & & & & & & & & & & ! - & & _ 3 ( / O ! ( > > - & & & & + + + + + + + + + 7+# # # # # # ",
". . . . . & & & & & & & & & & & ! ! & & * > ! * & & & * = ! & & & + + + + + + + + + 7+# # # # # # # ",
". . . . . & & & & & & & & & & & & & & & & & & & & & & _ = & & & + + + + + + + + + 7+# # # # # # # # ",
". . . . . & & & & & & & & & & & & & & & & & & & & & & * / & & + + + + + + + + + 7+# # # # # # # # # ",
". . . . . & & & & & & & & & & & & & & & & & & & & & & & & d + + + + + + + + + 7+# # # # # # # # # # ",
". . . . . . . . . . . . . . . . . . . . . . . . . . . . . + + + + + + + + + 7+# # # # # # # # # # # ",
". . . . . . . . . . . . . . . . . . . . . . . . . . . . + + + + + + + + + 7+# # # # # # # # # # # # ",
". . . . . . . . . . . . . . . . . . . . . . . . . . . + + + + + + + + + 7+# # # # # # # # # # # # # ",
". . . . . . . . . . . . . . . . . . . . . . . . . . + + + + + + + + + 7+# # # # % % % % % % % % % $ ",
". . . . . . . . . . . . . . . . . . . . . . . . . + + + + + + + + + 7+# # # # # $ $ $ $ $ $ $ $ $ $ "};
