/* XPM */
static char * 37_xpm[] = {
"50 50 43 1",
" 	c None",
".	c #3E4F4B",
"+	c #767676",
"@	c #646467",
"#	c #4E4E54",
"$	c #000000",
"%	c #374642",
"&	c #1B10FE",
"*	c #1B10FF",
"=	c #4D4D54",
"-	c #2016EE",
";	c #2D26C4",
">	c #3B3795",
",	c #48466B",
"'	c #4E4E55",
")	c #2921D1",
"!	c #47456D",
"~	c #505050",
"{	c #4D4D55",
"]	c #2319E6",
"^	c #4D4D56",
"/	c #312BB6",
"(	c #4F4242",
"_	c #4E2A2A",
":	c #4C1414",
"<	c #4B0606",
"[	c #4F3B3B",
"}	c #4B0707",
"|	c #4B0303",
"1	c #504E4E",
"2	c #4D2020",
"3	c #4C030E",
"4	c #4F0436",
"5	c #520561",
"6	c #55067C",
"7	c #4B0307",
"8	c #51054A",
"9	c #550682",
"0	c #54067B",
"a	c #303030",
"b	c #E0151F",
"c	c #EAFF35",
"d	c #6F6F70",
"..........+++++@#########$$$$$$$$$$$$$$$$$$$$$$$$$",
".%%%%%%%%%++++@#########$$$$$$$$$$$$$$$$$$$$$$$$$$",
"+++++++++++++@#########$$$$$$$$$$$$$$$$$$$$$$$$$$$",
"++++++++++++@#########$$$$$$$$$$$$$$$$$$$$$$$$$$$$",
"+++++++++++@#########$$$$$$$$$$$$$$$$$$$$$$$$$$$$$",
"++++++++++@#########&************************$$$$$",
"+++++++++@#########**************************$$$$$",
"++++++++@####=####***-;>,'',>;-**************$$$$$",
"+++++++@#########*&)!~~~~~~~~~~!)************$$$$$",
"++++++@########{*]!~~~~~~~~~~~~~~!]**********$$$$$",
"+++++@########^*;~~~~~~~~~~~~~~~~~~;*********$$$$$",
"++++@#########*/~~~~~~(_:<<:_(~~~~~~/********$$$$$",
"+++@########=*;~~~~~[}||||||||}[~~~~~;*******$$$$$",
"++@##{#####=*]~~~~12||34566543||21~~~~]******$$$$$",
"+@########=*&!~~~1:|789999999987|:1~~~!&*****$$$$$",
"@#########**)~~~~2|30999aaaa99903|2~~~~)*****$$$$$",
"#########***!~~~[|709999aaaa999907|[~~~!*****$$$$$",
"########***-~~~~}|899999aaaa999998|}~~~~-****$$$$$",
"#######****;~~~(|3999999aaaa9999993|(~~~;****$$$$$",
"######*****>~~~_|49aaaaaaaaaaaaaa94|_~~~>****$$$$$",
"#####******,~~~:|59aaaaaaaaaaaaaa95|:~~~,****$$$$$",
"####*******'~~~<|69aaaaaaaaaaaaaa96|<~~~'****$$$$$",
"###******bbbbbbbbbbbbbbbbbbbbbbbbbbbbbbbbb***$$$$$",
"##*******bbbbbbbbbbbbbbbbbbbbbbbbbbbbbbbbb***$$$$$",
"#********bcccccccccccccccccccccccccccccccb***$$$$$",
"#********bcccccccccccccccccccccccccccccccb***$$$$$",
"##*******bbbbbbbbbbbbbbbbbbbbbbbbbbbbbbbbb***$$$$$",
"###******bbbbbbbbbbbbbbbbbbbbbbbbbbbbbbbbb***$$$$$",
"####*******'~~~<|69aaaaaaaaaaaaaa96|<~~~'****$$$$$",
"#####******,~~~:|59aaaaaaaaaaaaaa95|:~~~,****$$$$$",
"######*****>~~~_|49aaaaaaaaaaaaaa94|_~~~>****$$$$$",
"#######****;~~~(|3999999aaaa9999993|(~~~;****$$$$$",
"########***-~~~~}|899999aaaa999998|}~~~~-****$$$$$",
"#########***!~~~[|709999aaaa999907|[~~~!*****$$$$$",
"d#########**)~~~~2|30999aaaa99903|2~~~~)*****$$$$$",
"+d#########*&!~~~1:|789999999987|:1~~~!&*****$$$$$",
"++d#########*]~~~~12||34566543||21~~~~]******$$$$$",
"+++d#########*;~~~~~[}||||||||}[~~~~~;*******$$$$$",
"++++d#########*/~~~~~~(_:<<:_(~~~~~~/********$$$$$",
"+++++d####=####*;~~~~~~~~~~~~~~~~~~;*********$$$$$",
"++++++d#########*]!~~~~~~~~~~~~~~!]**********$$$$$",
"+++++++d#########*&)!~~~~~~~~~~!)&***********$$$$$",
"++++++++d=##=#####***-;>,'',>;-**************$$$$$",
"+++++++++d#########**************************$$$$$",
"++++++++++d#########*************************$$$$$",
"+++++++++++d#########$$$$$$$$$$$$$$$$$$$$$$$$$$$$$",
"++++++++++++d#########$$$$$$$$$$$$$$$$$$$$$$$$$$$$",
"+++++++++++++d#########$$$$$$$$$$$$$$$$$$$$$$$$$$$",
"%%%%%%%%%.++++d#########$$$$$$$$$$$$$$$$$$$$$$$$$$",
"..........+++++d#########$$$$$$$$$$$$$$$$$$$$$$$$$"};
