/* XPM */
static char * 37_xpm[] = {
"50 50 239 2",
"  	c None",
". 	c #3E4F4B",
"+ 	c #767676",
"@ 	c #646467",
"# 	c #4E4E54",
"$ 	c #000000",
"% 	c #374642",
"& 	c #1B10FE",
"* 	c #1B10FF",
"= 	c #C52C4E",
"- 	c #4417D4",
"; 	c #DA2F37",
"> 	c #99257B",
", 	c #842191",
"' 	c #CD2D45",
") 	c #EF3321",
"! 	c #BA2A59",
"~ 	c #EE3223",
"{ 	c #EE3322",
"] 	c #C42C4E",
"^ 	c #F1331F",
"/ 	c #F03320",
"( 	c #E93324",
"_ 	c #C53833",
": 	c #9F413A",
"< 	c #4E4E55",
"[ 	c #48466B",
"} 	c #CB3438",
"| 	c #A02E63",
"1 	c #862489",
"2 	c #BD2E4D",
"3 	c #C63B2C",
"4 	c #EA3521",
"5 	c #EE3320",
"6 	c #E33623",
"7 	c #C73B2C",
"8 	c #9C4239",
"9 	c #8A463F",
"0 	c #E03624",
"a 	c #F0331F",
"b 	c #EF3320",
"c 	c #E83129",
"d 	c #661CB1",
"e 	c #EC3224",
"f 	c #882684",
"g 	c #DF3527",
"h 	c #E43523",
"i 	c #EE3420",
"j 	c #D83826",
"k 	c #2319E6",
"l 	c #4D4D55",
"m 	c #CB3A2B",
"n 	c #754945",
"o 	c #A54136",
"p 	c #D73827",
"q 	c #EB3421",
"r 	c #D13929",
"s 	c #C83B2C",
"t 	c #CF313B",
"u 	c #E5312B",
"v 	c #8F2F6C",
"w 	c #92443C",
"x 	c #4E2A2A",
"y 	c #4C1414",
"z 	c #4B0606",
"A 	c #EC3421",
"B 	c #ED3420",
"C 	c #BE304A",
"D 	c #694C49",
"E 	c #E93421",
"F 	c #6F3935",
"G 	c #C62819",
"H 	c #CC2C18",
"I 	c #974A06",
"J 	c #CB7A08",
"K 	c #EB9709",
"L 	c #7D1D09",
"M 	c #CE2A1A",
"N 	c #2D26C4",
"O 	c #C62E48",
"P 	c #EF331F",
"Q 	c #9D2920",
"R 	c #621804",
"S 	c #DE5713",
"T 	c #F26A14",
"U 	c #F1341F",
"V 	c #F1491A",
"W 	c #F39E09",
"X 	c #D32D19",
"Y 	c #D6301F",
"Z 	c #B03F33",
"` 	c #EB3224",
" .	c #68425E",
"..	c #CF2D1D",
"+.	c #EB331E",
"@.	c #F3890D",
"#.	c #D43418",
"$.	c #E83522",
"%.	c #CE372F",
"&.	c #8B2A7A",
"*.	c #F23E1F",
"=.	c #F3531E",
"-.	c #F2431F",
";.	c #FFE81A",
">.	c #FCC81B",
",.	c #F7811D",
"'.	c #E3331C",
").	c #644C4A",
"!.	c #D4362C",
"~.	c #ED321E",
"{.	c #F8911C",
"].	c #FFEC1A",
"^.	c #F5631E",
"/.	c #F25F16",
"(.	c #EC321E",
"_.	c #E53523",
":.	c #47456D",
"<.	c #4B0707",
"[.	c #E54918",
"}.	c #F3491E",
"|.	c #F2431E",
"1.	c #F3561E",
"2.	c #9C1D13",
"3.	c #764944",
"4.	c #E3312E",
"5.	c #DC3230",
"6.	c #F27412",
"7.	c #F23F1F",
"8.	c #F1371F",
"9.	c #F88D1D",
"0.	c #F2421F",
"a.	c #F4591E",
"b.	c #F9A01C",
"c.	c #F1381F",
"d.	c #A82511",
"e.	c #8D453E",
"f.	c #D0313B",
"g.	c #E93227",
"h.	c #3B3795",
"i.	c #F56E1D",
"j.	c #F1351F",
"k.	c #F4581E",
"l.	c #F6801D",
"m.	c #F9A31C",
"n.	c #F34A1E",
"o.	c #EC341E",
"p.	c #E83320",
"q.	c #B43E32",
"r.	c #94355B",
"s.	c #E83229",
"t.	c #B93938",
"u.	c #FBB31C",
"v.	c #F2471E",
"w.	c #F1361F",
"x.	c #9B8F10",
"y.	c #332F05",
"z.	c #7A1C10",
"A.	c #FCE91A",
"B.	c #F3840E",
"C.	c #EB3E1B",
"D.	c #EE321F",
"E.	c #B92A59",
"F.	c #EF3420",
"G.	c #FEE01A",
"H.	c #F23D1F",
"I.	c #575109",
"J.	c #EC7E0E",
"K.	c #DB3726",
"L.	c #D42E3D",
"M.	c #8C1810",
"N.	c #F4571E",
"O.	c #E4301D",
"P.	c #BE2818",
"Q.	c #F3521E",
"R.	c #FCBF1B",
"S.	c #D72E1D",
"T.	c #EA411A",
"U.	c #F7901C",
"V.	c #C56217",
"W.	c #903112",
"X.	c #060601",
"Y.	c #F6741D",
"Z.	c #DA3726",
"`.	c #68425C",
" +	c #EE331F",
".+	c #DA3919",
"++	c #F26415",
"@+	c #A8460B",
"#+	c #CF3121",
"$+	c #F3940B",
"%+	c #F34C1E",
"&+	c #EC3C1C",
"*+	c #F13A1E",
"=+	c #FAAB1C",
"-+	c #F23B1F",
";+	c #85160F",
">+	c #E83228",
",+	c #9C372D",
"'+	c #CF3525",
")+	c #C23B2E",
"!+	c #2921D1",
"~+	c #E8321F",
"{+	c #F2810F",
"]+	c #F23C1F",
"^+	c #F2391F",
"/+	c #823605",
"(+	c #4D2020",
"_+	c #DE3625",
":+	c #CF3417",
"<+	c #F24F19",
"[+	c #E23526",
"}+	c #BC2C53",
"|+	c #CF2F1F",
"1+	c #B23E32",
"2+	c #AC2A61",
"3+	c #6F6F70",
"4+	c #E53522",
"5+	c #AC4034",
"6+	c #834741",
"7+	c #CA3A2B",
"8+	c #8D2C73",
"9+	c #E93522",
"0+	c #E4322A",
"a+	c #AB4034",
"b+	c #E3322B",
"c+	c #CE2F41",
"d+	c #A44136",
"e+	c #B83D30",
"f+	c #B03A3D",
"g+	c #714A46",
"h+	c #544F4F",
"i+	c #4F24AF",
"j+	c #C52C4D",
"k+	c #E2312F",
"l+	c #2016EE",
"m+	c #D02E41",
"n+	c #852190",
"o+	c #701EA6",
"p+	c #D62F3B",
". . . . . . . . . . + + + + + @ # # # # # # # # # $ $ $ $ $ $ $ $ $ $ $ $ $ $ $ $ $ $ $ $ $ $ $ $ $ ",
". % % % % % % % % % + + + + @ # # # # # # # # # $ $ $ $ $ $ $ $ $ $ $ $ $ $ $ $ $ $ $ $ $ $ $ $ $ $ ",
"+ + + + + + + + + + + + + @ # # # # # # # # # $ $ $ $ $ $ $ $ $ $ $ $ $ $ $ $ $ $ $ $ $ $ $ $ $ $ $ ",
"+ + + + + + + + + + + + @ # # # # # # # # # $ $ $ $ $ $ $ $ $ $ $ $ $ $ $ $ $ $ $ $ $ $ $ $ $ $ $ $ ",
"+ + + + + + + + + + + @ # # # # # # # # # $ $ $ $ $ $ $ $ $ $ $ $ $ $ $ $ $ $ $ $ $ $ $ $ $ $ $ $ $ ",
"+ + + + + + + + + + @ # # # # # # # # # & * * * * * * * * * * * * * * * * * * * * * * * * $ $ $ $ $ ",
"+ + + + + + + + + @ # # # # # # # # # * * = - * * * * * * * * * * * * * * * * * * * * * * $ $ $ $ $ ",
"+ + + + + + + + @ # # # # # # # # # * * * ; > * * * * * * * * * * * * * * * * * * * * * * $ $ $ $ $ ",
"+ + + + + + + @ # # # # # # # # # * * * , ; - * * * - , ' - * * , , * * * * * * * * * * * $ $ $ $ $ ",
"+ + + + + + @ # # # # # # # # # * * * * ) ' ' ! , ~ = ! { > * * ) , * * * * * * * * * * * $ $ $ $ $ ",
"+ + + + + @ # # # # # # # # # * * * * ] ^ / ( _ : < [ } | 1 ~ * ; > * ; , , * * * * * * * $ $ $ $ $ ",
"+ + + + @ # # # # # # # # # * * * , 2 ^ ^ 3 ^ 4 5 6 7 8 9 0 a b c d ) e ! , * * * * * * * $ $ $ $ $ ",
"+ + + @ # # # # # # # # # * * * f g h ^ ^ ^ ^ ^ ^ ^ ^ ^ ^ ^ i j ^ k = / / > * * * * * * * $ $ $ $ $ ",
"+ + @ # # l # # # # # # * * * ^ m ^ ^ ^ ^ n o p q q r o n ^ ^ ^ ^ s t ^ u * * * * * * * * $ $ $ $ $ ",
"+ @ # # # # # # # # # * * * v ^ ^ ^ ^ w ^ ^ x y z z y x ^ ^ w ^ ^ A B / * * * * * * * * * $ $ $ $ $ ",
"@ # # # # # # # # # * * ! C ^ ^ ^ D E F G H I J K K J I L M F ^ ^ ^ ^ r N * ! , * * * * * $ $ $ $ $ ",
"# # # # # # # # # * * * O P ^ ^ n ^ Q R S T U V ^ ^ W W T S X Y ^ ^ ^ j Z ` ! , , * * * * $ $ $ $ $ ",
"# # # # # # # # * * * &  .^ ^ D ^ ..+.W W ^ ^ ^ ^ ^ ^ ^ ^ ^ @.#.a ^ B ^ $.%.) u > * * * * $ $ $ $ $ ",
"# # # # # # # * * * * &.^ ^ ^ E a #.T ^ ^ *.=.-.;.>.,.*.^ ^ ^ U '.^ ^ ^ ^ ).&.; - * * * * $ $ $ $ $ ",
"# # # # # # * * * * ; !.^ ^ w F ~.U ^ ^ U {.{.].].].].^.^ ^ ^ ^ /.(.^ _.^ a :.= - * * * * $ $ $ $ $ ",
"# # # # # * * * * = / ^ ^ ^ ^ <.[.^ ^ }.^ |.{.].].].].^.U 1.^ ^ T S 2.^ ^ ^ 3.) = * * * * $ $ $ $ $ ",
"# # # # * * * * 4.) 5.^ ^ n ^ R 6.^ U 7.^ 8.9.0.9.a.b.^ ].].c.^ ^ W d.^ e.^ _.f.= - * * * $ $ $ $ $ ",
"# # # * * * * ! g.= h.^ ^ o x I W ^ i.^.j.^ k.l.m.{.j.n.].].i.^ ^ @.o.p.q.^ B r.= - * * * $ $ $ $ $ ",
"# # * * * * * ~ , s.t.^ ^ r y J W ^ u.].v.^ w.x.y.z.y.x.A.].u.^ ^ B.C.D.A ^ q _ ~ * * * * $ $ $ $ $ ",
"# * * * * * * ) ) E.F.^ ^ q z K ^ ^ G.].].H.a D.$ $ $ $ I.].G.^ ^ ^ J.a A ^ i K.L.! * * * $ $ $ $ $ ",
"# * * * * * ; L.= , a ^ ^ q M.J.^ ^ N.].].].I.O.P.$ $ $ I.Q.R.^ ^ ^ K z q ^ i K.u - * * * $ $ $ $ $ ",
"# # * * * = c ! - * [ ^ ^ r S.T.T ^ }.].w.v.U.V.W.X.y.x.A.v.Y.^ ^ W J y r ^ Z.`.; - * * * $ $ $ $ $ ",
"# # # * * * * * * * h.^ ^ o  +.+++^ U v.U U H.].].].>.a.{.a.7.^ ^ W @+#+o ^ ^ } * * * * * $ $ $ $ $ ",
"# # # # * * * * * * N ^ ^ n ^ R $+^ U a.-.%+a.].].].{.^.^.H.^ ^ ^ W L ^ r ^ ^ C * , ! * * $ $ $ $ $ ",
"# # # # # * * * * * * ^ ^ ^ ^ <.&+*+^ c.v.=+a.].].].m.U -+1.^ ^ W J ;+^ ^ ^ p >+' ^ ] * * $ $ $ $ $ ",
"# # # # # # * * * * * :.^ ^ w ,+a ^ ^ ^ ^.].].].].].m.8.^ ^ ^ ^ W R '+a ^ )+:./ ^ ~ * * * $ $ $ $ $ ",
"# # # # # # # * * * * !+^ ^ ^ ^ ~+a {+^ ^ ]+,.>.;.>.,.^+^ ^ ^ W /+(+^ ^ ^ _+2 ; > * * * * $ $ $ $ $ ",
"# # # # # # # # * * * * :.^ ^ Z.^ P :+<+T ^ ^ ^ ^ ^ ^ ^ ^ W W /+y ^ a ^ $.[+u , , * * * * $ $ $ $ $ ",
"# # # # # # # # # * * * }+i ^ ^ ^ ^ |+R J W W W ^ ^ W W W J R (+^ 1+^ ^ ^ 2+; , ~ * * * * $ $ $ $ $ ",
"3+# # # # # # # # # * * * f.4+^ ^ 5+E F <.R I J K K J I R <.F E 6+^ b 7+8+) , ! ! , * * * $ $ $ $ $ ",
"+ 3+# # # # # # # # # * * * ) i ^ ^ ^ w ^ ^ x y z z y x ^ ^ w ^ ^ ^ 9+/ - - u ! , , * * * $ $ $ $ $ ",
"+ + 3+# # # # # # # # # * * * 0+_.^ ^ ^ ^ n o r q q r o n ^ ^ ^ a+B b+c c = ! ! * * * * * $ $ $ $ $ ",
"+ + + 3+# # # # # # # # # * * c c+:.d+^ ^ ^ ^ ^ ^ ^ ^ ^ ^ ^ d+e+f+>+c = / g.' ; * * * * * $ $ $ $ $ ",
"+ + + + 3+# # # # # # # # # * * > & !+:.g+8 7 6 5 6 7 8 g+h+:.i+j+, ) , { k+; u , * * * * $ $ $ $ $ ",
"+ + + + + 3+# # # # # # # # # * * * * * l+N h.[ < < [ h.N l+* * = > ! = / , * m+) * * * * $ $ $ $ $ ",
"+ + + + + + 3+# # # # # # # # # * * * * * * * * * * * * * * * * * n+, L.c ] , o+p+) * * * $ $ $ $ $ ",
"+ + + + + + + 3+# # # # # # # # # * * * * * * * * * * * * * * * * * * / ' c c * * ) * * * $ $ $ $ $ ",
"+ + + + + + + + 3+# # # # # # # # # * * * * * * * * * * * * * * * * * * * * ; - * * * * * $ $ $ $ $ ",
"+ + + + + + + + + 3+# # # # # # # # # * * * * * * * * * * * * * * * * * * * * * * * * * * $ $ $ $ $ ",
"+ + + + + + + + + + 3+# # # # # # # # # * * * * * * * * * * * * * * * * * * * * * * * * * $ $ $ $ $ ",
"+ + + + + + + + + + + 3+# # # # # # # # # $ $ $ $ $ $ $ $ $ $ $ $ $ $ $ $ $ $ $ $ $ $ $ $ $ $ $ $ $ ",
"+ + + + + + + + + + + + 3+# # # # # # # # # $ $ $ $ $ $ $ $ $ $ $ $ $ $ $ $ $ $ $ $ $ $ $ $ $ $ $ $ ",
"+ + + + + + + + + + + + + 3+# # # # # # # # # $ $ $ $ $ $ $ $ $ $ $ $ $ $ $ $ $ $ $ $ $ $ $ $ $ $ $ ",
"% % % % % % % % % . + + + + 3+# # # # # # # # # $ $ $ $ $ $ $ $ $ $ $ $ $ $ $ $ $ $ $ $ $ $ $ $ $ $ ",
". . . . . . . . . . + + + + + 3+# # # # # # # # # $ $ $ $ $ $ $ $ $ $ $ $ $ $ $ $ $ $ $ $ $ $ $ $ $ "};
