/* XPM */
static char * 38_xpm[] = {
"50 50 173 2",
"  	c #010101",
". 	c #000000",
"+ 	c #050505",
"@ 	c #090909",
"# 	c #020202",
"$ 	c #0A0A0A",
"% 	c #121212",
"& 	c #131313",
"* 	c #0E0E0F",
"= 	c #0C0C0D",
"- 	c #020203",
"; 	c #040505",
"> 	c #050706",
", 	c #111111",
"' 	c #070707",
") 	c #000001",
"! 	c #1B10FF",
"~ 	c #1B10FE",
"{ 	c #020303",
"] 	c #010201",
"^ 	c #E0151F",
"/ 	c #EAFF35",
"( 	c #1D10FC",
"_ 	c #2016EE",
": 	c #2D26C4",
"< 	c #3B3795",
"[ 	c #48466B",
"} 	c #4E4E55",
"| 	c #2211F7",
"1 	c #2712F3",
"2 	c #2921D1",
"3 	c #47456D",
"4 	c #505050",
"5 	c #3A22C2",
"6 	c #4717D0",
"7 	c #2319E6",
"8 	c #48446E",
"9 	c #2519E4",
"0 	c #2912F1",
"a 	c #332BB5",
"b 	c #4F4242",
"c 	c #4E2A2A",
"d 	c #4C1414",
"e 	c #4B0606",
"f 	c #312BB6",
"g 	c #3226C1",
"h 	c #4F3B3B",
"i 	c #4B0707",
"j 	c #4B0303",
"k 	c #2C1ADE",
"l 	c #504E4E",
"m 	c #4D2020",
"n 	c #4C030E",
"o 	c #4F0436",
"p 	c #520561",
"q 	c #55067C",
"r 	c #2318E7",
"s 	c #1C11FD",
"t 	c #4B0307",
"u 	c #51054A",
"v 	c #550682",
"w 	c #1E13F6",
"x 	c #54067B",
"y 	c #303030",
"z 	c #271FD6",
"A 	c #1C11FC",
"B 	c #121213",
"C 	c #2712F2",
"D 	c #060336",
"E 	c #4E4E54",
"F 	c #4D4D55",
"G 	c #4E4D65",
"H 	c #4F4F51",
"I 	c #2C25C7",
"J 	c #747374",
"K 	c #555555",
"L 	c #505051",
"M 	c #1F15F1",
"N 	c #757578",
"O 	c #757575",
"P 	c #6B6A87",
"Q 	c #767676",
"R 	c #747474",
"S 	c #51514D",
"T 	c #4C4B5E",
"U 	c #3F3B88",
"V 	c #5855A3",
"W 	c #73727B",
"X 	c #3C3892",
"Y 	c #3E3A8B",
"Z 	c #261ED9",
"` 	c #3D3990",
" .	c #261DDB",
"..	c #413D84",
"+.	c #2921D2",
"@.	c #53605C",
"#.	c #3A3599",
"$.	c #251CDE",
"%.	c #4F5E5A",
"&.	c #455853",
"*.	c #4A5B56",
"=.	c #3E3A8C",
"-.	c #524E53",
";.	c #3C3891",
">.	c #1E14F4",
",.	c #445752",
"'.	c #3A3697",
").	c #2B23CC",
"!.	c #1D13F7",
"~.	c #767677",
"{.	c #3F504C",
"].	c #3A4A46",
"^.	c #3B4B46",
"/.	c #3F514C",
"(.	c #2111F9",
"_.	c #313E3B",
":.	c #252826",
"<.	c #1B1816",
"[.	c #1C1918",
"}.	c #262A28",
"|.	c #34423E",
"1.	c #757478",
"2.	c #1B1212",
"3.	c #2A0606",
"4.	c #300201",
"5.	c #2F0202",
"6.	c #280707",
"7.	c #1C1716",
"8.	c #34433F",
"9.	c #475B56",
"0.	c #1C11FF",
"a.	c #450303",
"b.	c #490202",
"c.	c #480202",
"d.	c #440303",
"e.	c #270404",
"f.	c #26312E",
"g.	c #455752",
"h.	c #1E14FA",
"i.	c #470202",
"j.	c #290202",
"k.	c #1D1E1D",
"l.	c #3D4F4A",
"m.	c #747475",
"n.	c #460202",
"o.	c #290303",
"p.	c #1F211F",
"q.	c #3E4F4B",
"r.	c #4E4E52",
"s.	c #727273",
"t.	c #4C0303",
"u.	c #230304",
"v.	c #26322F",
"w.	c #727272",
"x.	c #270808",
"y.	c #290000",
"z.	c #270000",
"A.	c #060C0C",
"B.	c #3E504B",
"C.	c #435752",
"D.	c #13131A",
"E.	c #4F4E59",
"F.	c #292F2D",
"G.	c #29312E",
"H.	c #374642",
"I.	c #53615D",
"J.	c #4E4E50",
"K.	c #4F4F4F",
"L.	c #44544F",
"M.	c #3C4D49",
"N.	c #41534E",
"O.	c #475350",
"P.	c #2D2F2F",
"  . . . . . . . . . . . + . @ . . . . . . . . . . . . . . . . . . . . . . . . . . . . . . . . . . . ",
"  . . . . . . . . . . # $ % & * = - . . . . . . . . . . . . . . . . . . . . . . . . . . . . . . . . ",
"  . . . . . . . . . . . . . . . . . . . . . . . . . . . . . . . . . . . . . . . . . . . . . . .   ; ",
". . . . . . . . . . . . . . . . . . . . . . . . . . . . . . . . . . . . . . . . . . . . . . . . # > ",
". . . . . . . . .   , ' . . . . . . . . . . . ) ) ) . . . . . . . . . . . . . . . . . . . . . . . . ",
". . . . . ! ! ! ! ! ! ~ ! ! ! ! ! ! ! ~ ! ! ! ! ! ! ! ! ! ! ! ! ! ! ! ! ! ! ! ! ! ! ! ! ! . . . .   ",
". . . . . ! ! ! ! ! ! ! ! ! ! ! ! ! ! ! ! ! ! ! ! ! ! ! ! ! ! ~ ! ! ! ! ! ! ! ! ! ! ! ! ! . . . . { ",
". . . . . ! ! ! ! ! ! ! ! ! ! ! ! ! ! ! ! ! ! ! ! ! ! ! ! ! ! ! ! ! ! ! ! ! ! ! ! ! ! ! ! . . . . . ",
". . . . . ! ! ! ! ! ! ! ! ! ! ! ! ! ! ! ! ! ! ! ! ! ! ! ! ! ! ! ! ! ! ! ! ! ! ! ! ! ! ! ! . . . . ] ",
". . . . . ! ! ! ! ! ! ! ! ! ! ! ! ! ! ! ! ! ^ ^ ^ ^ ^ ^ ! ! ! ! ! ! ! ! ! ! ! ! ! ! ! ! ! . . . . . ",
". . . . . ! ! ! ! ! ! ! ! ! ! ! ! ! ! ! ! ! ^ ^ / / ^ ^ ! ! ! ! ! ! ! ! ! ! ! ! ! ! ! ! ! . . . . . ",
". . . . . ! ! ! ! ! ! ! ! ! ( ! ! _ : < [ } ^ ^ / / ^ ^ } [ < : _ | ! ! ! ! ! ! ! ! ! ! ! . . . . . ",
". . . . . ! ! ! ! ! ! ! ! 1 ~ 2 3 4 4 4 4 4 ^ ^ / / ^ ^ 4 4 4 4 4 3 5 6 ! ! ! ! ! ! ! ! ! . . . . . ",
". . . . . ! ! ! ! ! ! ! ! 7 3 4 4 4 4 4 4 4 ^ ^ / / ^ ^ 4 4 4 4 4 4 4 8 9 0 ! ! ! ! ! ! ! . . . . . ",
". . . . . ! ! ! ! ! ! ! : 4 4 4 4 4 4 4 4 4 ^ ^ / / ^ ^ 4 4 4 4 4 4 4 4 4 : ! ! ! ! ! ! ! . . . . . ",
". . . . . ! ! ! ! ! ! a 4 4 4 4 4 4 b c d e ^ ^ / / ^ ^ e d c b 4 4 4 4 4 4 f ! ! ! ! ! ! . . . . . ",
". . . . . ! ! ! ! ! g 4 4 4 4 4 h i j j j j ^ ^ / / ^ ^ j j j j i h 4 4 4 4 4 : ! ! ! ! ! . . . . . ",
". . . . . ! ! ! ! k 4 4 4 4 l m j j n o p q ^ ^ / / ^ ^ q p o n j j m l 4 4 4 4 r ! ! s ! . . . . . ",
". . . . . ! ! ! ~ 3 4 4 4 l d j t u v v v v ^ ^ / / ^ ^ v v v v u t j d l 4 4 4 3 ~ ! ! ! . . . . . ",
". . . . . w ! ! 2 4 4 4 4 m j n x v v y y y ^ ^ / / ^ ^ y y y v v x n j m 4 4 4 4 z ! ! A . . . . . ",
". . .   B ! ! ! 3 4 4 4 h j t x v v v y y y ^ ^ / / ^ ^ y y y v v v x t j h 4 4 4 3 ! ! ! . . . . . ",
". . . . . ! ! _ 4 4 4 4 i j u v v v v y y y ^ ^ / / ^ ^ y y y v v v v u j i 4 4 4 4 _ ! ! . . . . . ",
". . . . . ! ! : 4 4 4 b j n v v v v v y y y ^ ^ / / ^ ^ y y y v v v v v n j b 4 4 4 : ! ! . . . . . ",
". . . . . ! ! < 4 4 4 c j o v v v v v y y y ^ ^ / / ^ ^ y y y v v v v v o j c 4 4 4 < C ! . . . . . ",
". . . . . ! ! [ 4 4 4 d j p v y y y y y y y ^ ^ / / ^ ^ y y y y y y y v p j d 4 4 4 [ ! ! . . . . D ",
". . . . . ! ! } 4 4 4 e j q v y y y y y y y ^ ^ / / ^ ^ y y y y y y y v q j e 4 4 4 } ! ! . . . . E ",
". . . . . ! ! } 4 4 4 e j q v y y y y y y y ^ ^ / / ^ ^ y y y y y y y v q j e 4 4 4 } ! ! . . . F 4 ",
". . . . . ! ! [ 4 4 4 d j p v y y y y y y y ^ ^ / / ^ ^ y y y y y y y v p j d 4 4 4 [ ! ! . . G 4 4 ",
". . . . . ! ! < 4 4 4 c j o v v v v v y y y ^ ^ / / ^ ^ y y y v v v v v o j c 4 4 4 < ! ! . H 4 4 H ",
". . . . . ! ! : 4 4 4 b j n v v v v v y y y ^ ^ / / ^ ^ y y y v v v v v n j b 4 4 4 I ! ! J K 4 4 L ",
". . . . . ! ! _ 4 4 4 4 i j u v v v v y y y ^ ^ / / ^ ^ y y y v v v v u j i 4 4 4 4 M ! N O O 4 4 4 ",
". . . . . ! ! ! 3 4 4 4 h j t x v v v y y y ^ ^ / / ^ ^ y y y v v v x t j h 4 4 4 3 ! P Q Q Q R 4 S ",
". . . . . ! ! ! 2 4 4 4 4 m j n x v v y y y ^ ^ / / ^ ^ y y y v v x n j m 4 4 T U 7 V W Q Q Q Q Q 4 ",
". . . . . ! ! ! ~ 3 4 4 4 l d j t u v v v v ^ ^ / / ^ ^ v v v v u t j d l 4 4 X M Q Q Q Q Q Q Q Q Q ",
". . . . . ! ! ! ! 7 4 4 4 4 l m j j n o p q ^ ^ / / ^ ^ q p o n j j m l 4 4 Y Z Q Q Q Q Q Q Q Q Q Q ",
". . . . . ! ! ! ! ! : 4 4 4 4 4 h i j j j j ^ ^ / / ^ ^ j j j j i h 4 4 4 `  .Q Q Q Q Q Q Q Q Q Q Q ",
". . . . . ! ! ! ! ! ! f 4 4 4 4 4 4 b c d e ^ ^ / / ^ ^ e d c b 4 4 4 4 ..+.Q Q Q Q Q Q Q @.Q Q Q Q ",
". . . . . ! ! ! ! ! ! ! : 4 4 4 4 4 4 4 4 4 ^ ^ / / ^ ^ 4 4 4 4 4 4 4 #.$.Q Q Q Q Q Q Q %.&.*.R O Q ",
". . . . . ! ! ! ! ! ! ! ! 7 3 4 4 4 4 4 4 4 ^ ^ / / ^ ^ 4 4 4 4 4 4 =.$.Q Q Q Q Q Q Q %.&.&.&.*.Q Q ",
". . . . . ! ! ! ! ! ! ! ! ! ~ 2 3 4 4 4 4 4 ^ ^ / / ^ ^ 4 4 4 4 -.;.>.Q Q Q Q Q Q Q %.,.,.,.&.&.*.Q ",
". . . . . ! ! ! ! ! ! ! ! ! ! ! ! _ : < [ } ^ ^ / / ^ ^ } [ '.).!.! ~.Q Q Q Q Q Q %.,.{.].^./.&.&.*.",
". . . . . ! ! ! ! ! ! ! ! ! ! ! ! ! ! ! ! ! ^ ^ ^ ^ ^ ^ ! (.! ! ! Q Q Q Q Q Q Q %.,._.:.<.[.}.|.&.&.",
". . . . . ! ! ! ! ! ! ! ! ! ! ! ! ! ! ! ! ! ! ! ! ! ! ! ! ! ! ! 1.Q Q Q Q Q Q %.,._.2.3.4.5.6.7.8.9.",
". . . . . ! ! ! ! ! ! ! ! ! ! ! ! ! ! ! ! ! ! ! ! ! ! ! ! 0.! Q Q Q Q Q Q Q %.,.{.:.3.a.b.c.d.e.f.g.",
". . . . . ! ! ! ! ! ! ! ! ! ! ! ! ! ! ! ! ! ! ! ! ! ! ! ! h.Q Q Q Q Q Q Q %.&.,.].<.4.b.j j i.j.k.l.",
". . . . . . . . . . . . . . . . . . . . . . . . . . . . . R m.Q Q Q Q Q @.&.&.,.^.[.5.c.j j n.o.p.q.",
". . . . . . . . . . . . . . . . . . . . . . . . . . . . r.4 s.Q Q Q Q Q Q *.&.&./.}.6.d.i.t.j u.v.,.",
". . . . . . . . . . . . . . . . . . . . . . . . . . . 4 H 4 4 w.Q Q Q Q Q Q *.&.&.|.7.x.y.z.u.A.B.C.",
". . . . . . . . . . . . . . . . . . . . . . . . . D.E.4 L 4 4 4 Q Q Q Q Q Q Q *.&.&.8.F.k.p.G.H.&.I.",
". . . . . . . . . . . . . . . . . . . . . . . . . J.K.K.4 4 E 4 4 Q Q Q Q Q Q w.L.M.,.N.l.q.N.,.O.P."};
