/* XPM */
static char * 38_xpm[] = {
"50 50 311 2",
"  	c None",
". 	c #000000",
"+ 	c #1B10FF",
"@ 	c #4417D4",
"# 	c #DA2F37",
"$ 	c #EF3321",
"% 	c #E83129",
"& 	c #CD2D45",
"* 	c #F03320",
"= 	c #EE3223",
"- 	c #D62F3B",
"; 	c #701EA6",
"> 	c #842191",
", 	c #C42C4E",
"' 	c #D42E3D",
") 	c #852190",
"! 	c #D02E41",
"~ 	c #C52C4E",
"{ 	c #BA2A59",
"] 	c #99257B",
"^ 	c #2016EE",
"/ 	c #2D26C4",
"( 	c #3B3795",
"_ 	c #48466B",
": 	c #4E4E55",
"< 	c #E5312B",
"[ 	c #E2312F",
"} 	c #EE3322",
"| 	c #C52C4D",
"1 	c #4F24AF",
"2 	c #47456D",
"3 	c #544F4F",
"4 	c #714A46",
"5 	c #9C4239",
"6 	c #C73B2C",
"7 	c #E33623",
"8 	c #EE3320",
"9 	c #2921D1",
"0 	c #1B10FE",
"a 	c #E93227",
"b 	c #D42E3E",
"c 	c #E83228",
"d 	c #B03A3D",
"e 	c #B83D30",
"f 	c #A44136",
"g 	c #F1331F",
"h 	c #CE2F41",
"i 	c #E3322B",
"j 	c #ED3420",
"k 	c #AB4034",
"l 	c #754945",
"m 	c #A54136",
"n 	c #D13929",
"o 	c #EB3421",
"p 	c #E53523",
"q 	c #E4322A",
"r 	c #A02673",
"s 	c #CC2D46",
"t 	c #E93522",
"u 	c #92443C",
"v 	c #4E2A2A",
"w 	c #4C1414",
"x 	c #4B0606",
"y 	c #EE3420",
"z 	c #EB3225",
"A 	c #8D2C73",
"B 	c #CA3A2B",
"C 	c #EF3320",
"D 	c #834741",
"E 	c #E93421",
"F 	c #6F3935",
"G 	c #4B0707",
"H 	c #621804",
"I 	c #974A06",
"J 	c #CB7A08",
"K 	c #EB9709",
"L 	c #AC4034",
"M 	c #E53522",
"N 	c #D0313B",
"O 	c #AC2A61",
"P 	c #B23E32",
"Q 	c #4D2020",
"R 	c #F39E09",
"S 	c #CF2F1F",
"T 	c #BC2C53",
"U 	c #E23526",
"V 	c #E83522",
"W 	c #F0331F",
"X 	c #823605",
"Y 	c #F26A14",
"Z 	c #F24F19",
"` 	c #CF3417",
" .	c #EF331F",
"..	c #DA3726",
"+.	c #BD2E4D",
"@.	c #DE3625",
"#.	c #F2391F",
"$.	c #F7811D",
"%.	c #FCC81B",
"&.	c #FFE81A",
"*.	c #F23C1F",
"=.	c #F2810F",
"-.	c #E8321F",
";.	c #C23B2E",
">.	c #CF3525",
",.	c #F1371F",
"'.	c #F9A31C",
").	c #FFEC1A",
"!.	c #F5631E",
"~.	c #9C372D",
"{.	c #D73827",
"].	c #85160F",
"^.	c #F3561E",
"/.	c #F23B1F",
"(.	c #F1341F",
"_.	c #F4591E",
":.	c #FAAB1C",
"<.	c #F2471E",
"[.	c #F1381F",
"}.	c #F13A1E",
"|.	c #EC3C1C",
"1.	c #BE304A",
"2.	c #7D1D09",
"3.	c #F23D1F",
"4.	c #F8911C",
"5.	c #F34C1E",
"6.	c #F2431F",
"7.	c #F3940B",
"8.	c #CB3438",
"9.	c #CF3121",
"0.	c #A8460B",
"a.	c #F23F1F",
"b.	c #F26415",
"c.	c #DA3919",
"d.	c #EE331F",
"e.	c #68425C",
"f.	c #F6741D",
"g.	c #FCE91A",
"h.	c #9B8F10",
"i.	c #332F05",
"j.	c #060601",
"k.	c #903112",
"l.	c #C56217",
"m.	c #F7901C",
"n.	c #F1361F",
"o.	c #F3491E",
"p.	c #EA411A",
"q.	c #D72E1D",
"r.	c #DB3726",
"s.	c #FCBF1B",
"t.	c #F3521E",
"u.	c #575109",
"v.	c #BE2818",
"w.	c #E4301D",
"x.	c #F4571E",
"y.	c #EC7E0E",
"z.	c #8C1810",
"A.	c #060336",
"B.	c #EC3421",
"C.	c #FEE01A",
"D.	c #EE321F",
"E.	c #EF3420",
"F.	c #B92A59",
"G.	c #4E4E54",
"H.	c #C53833",
"I.	c #EB3E1B",
"J.	c #F3840E",
"K.	c #FBB31C",
"L.	c #7A1C10",
"M.	c #B93938",
"N.	c #E83229",
"O.	c #4D4D55",
"P.	c #505050",
"Q.	c #94355B",
"R.	c #B43E32",
"S.	c #E83320",
"T.	c #EC341E",
"U.	c #F3890D",
"V.	c #F56E1D",
"W.	c #F34A1E",
"X.	c #F1351F",
"Y.	c #F6801D",
"Z.	c #F4581E",
"`.	c #4E4D65",
" +	c #8D453E",
".+	c #A82511",
"++	c #F9A01C",
"@+	c #F88D1D",
"#+	c #F2421F",
"$+	c #F27412",
"%+	c #DC3230",
"&+	c #E3312E",
"*+	c #4F4F51",
"=+	c #764944",
"-+	c #9C1D13",
";+	c #DE5713",
">+	c #F2431E",
",+	c #E54918",
"'+	c #747374",
")+	c #555555",
"!+	c #505051",
"~+	c #EC321E",
"{+	c #F25F16",
"]+	c #ED321E",
"^+	c #D4362C",
"/+	c #1C11FF",
"(+	c #767676",
"_+	c #757575",
":+	c #8B2A7A",
"<+	c #644C4A",
"[+	c #E3331C",
"}+	c #F23E1F",
"|+	c #F3531E",
"1+	c #D43418",
"2+	c #747474",
"3+	c #51514D",
"4+	c #CE372F",
"5+	c #EB331E",
"6+	c #CF2D1D",
"7+	c #694C49",
"8+	c #68425E",
"9+	c #EB3224",
"0+	c #B03F33",
"a+	c #D83826",
"b+	c #D6301F",
"c+	c #D32D19",
"d+	c #F1491A",
"e+	c #9D2920",
"f+	c #C62E48",
"g+	c #CE2A1A",
"h+	c #CC2C18",
"i+	c #C62819",
"j+	c #8F2F6C",
"k+	c #CF313B",
"l+	c #C83B2C",
"m+	c #CB3A2B",
"n+	c #53605C",
"o+	c #2319E6",
"p+	c #E43523",
"q+	c #DF3527",
"r+	c #882684",
"s+	c #4F5E5A",
"t+	c #455853",
"u+	c #4A5B56",
"v+	c #EC3224",
"w+	c #661CB1",
"x+	c #E03624",
"y+	c #8A463F",
"z+	c #EA3521",
"A+	c #C63B2C",
"B+	c #862489",
"C+	c #A02E63",
"D+	c #9F413A",
"E+	c #E93324",
"F+	c #445752",
"G+	c #3F504C",
"H+	c #3A4A46",
"I+	c #3B4B46",
"J+	c #3F514C",
"K+	c #313E3B",
"L+	c #252826",
"M+	c #1B1816",
"N+	c #1C1918",
"O+	c #262A28",
"P+	c #34423E",
"Q+	c #1B1212",
"R+	c #2A0606",
"S+	c #300201",
"T+	c #2F0202",
"U+	c #280707",
"V+	c #1C1716",
"W+	c #34433F",
"X+	c #475B56",
"Y+	c #450303",
"Z+	c #490202",
"`+	c #480202",
" @	c #440303",
".@	c #270404",
"+@	c #26312E",
"@@	c #455752",
"#@	c #1E14FA",
"$@	c #4B0303",
"%@	c #470202",
"&@	c #290202",
"*@	c #1D1E1D",
"=@	c #3D4F4A",
"-@	c #747475",
";@	c #460202",
">@	c #290303",
",@	c #1F211F",
"'@	c #3E4F4B",
")@	c #4E4E52",
"!@	c #727273",
"~@	c #4C0303",
"{@	c #230304",
"]@	c #26322F",
"^@	c #727272",
"/@	c #270808",
"(@	c #290000",
"_@	c #270000",
":@	c #060C0C",
"<@	c #3E504B",
"[@	c #445853",
"}@	c #13131A",
"|@	c #4F4E59",
"1@	c #292F2D",
"2@	c #29312E",
"3@	c #374642",
"4@	c #53615D",
"5@	c #41534E",
"6@	c #6C706F",
". . . . . . . . . . . . . . . . . . . . . . . . . . . . . . . . . . . . . . . . . . . . . . . . . . ",
". . . . . . . . . . . . . . . . . . . . . . . . . . . . . . . . . . . . . . . . . . . . . . . . . . ",
". . . . . . . . . . . . . . . . . . . . . . . . . . . . . . . . . . . . . . . . . . . . . . . . . . ",
". . . . . . . . . . . . . . . . . . . . . . . . . . . . . . . . . . . . . . . . . . . . . . . . . . ",
". . . . . . . . . . . . . . . . . . . . . . . . . . . . . . . . . . . . . . . . . . . . . . . . . . ",
". . . . . + + + + + + + + + + + + + + + + + + + + + + + + + + + + + + + + + + + + + + + + . . . . . ",
". . . . . + + + + + + + + + + + + + + + + + + + + + + + + + + + + + + + + + + + + + + + + . . . . . ",
". . . . . + + + + + @ # + + + + + + + + + + + + + + + + + + + + + + + + + + + + + + + + + . . . . . ",
". . . . . + + + $ + + % % & * + + + + + + + + + + + + + + + + + + + = + + + + + + + + + + . . . . . ",
". . . . . + + + $ - ; > , % ' > ) + + + + + + + + + + + + + + + + > $ + + + + + + + + + + . . . . . ",
". . . . . + + + + $ ! + > * ~ { ] ~ + + ^ / ( _ : : _ ( / ^ + + + > $ + ] > + + + + + + + . . . . . ",
". . . . . + + + + > < # [ } > $ > | 1 2 3 4 5 6 7 8 7 6 5 4 2 9 0 ] # a b + + + + + + + + . . . . . ",
". . . . . + + + + + # & a * ~ % c d e f g g g g g g g g g g g f 2 h % < + + + + ] > + + + . . . . . ",
". . . . . + + + + + { { ~ % % i j k g g g l m n o o n m l g g g g p q > > r s & & + + + + . . . . . ",
". . . . . + + + > > { < @ @ * t g g g u g g v w x x w v g g u g g g y $ # * z ~ + + + + + . . . . . ",
". . . . . + + + > { { > $ A B C g D E F G H I J K K J I H G F E L g g M N < ~ @ + + + + + . . . . . ",
". . . . . + + + + = > # O g g g P g Q H J R R R g g R R R J H S g g g g y T + + + + + + + . . . . . ",
". . . . . + + + + > > < U V g W g w X R R g g g g g g g g Y Z `  .g ..g g 2 0 + + + + + + . . . . . ",
". . . . . + + + + ] # +.@.g g g Q X R g g g #.$.%.&.%.$.*.g g =.W -.g g g g 9 + + + + + + . . . . . ",
". . . . . + + + = g * 2 ;.g W >.H R g g g g ,.'.).).).).).!.g g g W ~.u g g 2 + + + + + + . . . . . ",
". . . . . + + , g & c {.g g g ].J R g g ^./.(.'.).).)._.:.<.[.g }.|.G g g g g ^ + + + + + . . . . . ",
". . . . . + + { > + 1.g g n g 2.R g g g 3.!.!.4.).).)._.5.6._.(.g 7.H g l g g / + + + + + . . . . . ",
". . . . . + + + + + 8.g g m 9.0.R g g a._.4._.%.).).).3.(.(.<.(.g b.c.d.m g g ( + + + + + . . . . . ",
". . . . . + + + @ # e...g n w J R g g f.<.g.h.i.j.k.l.m.<.n.).o.g Y p.q.n g g _ + @ { % ~ . . . . . ",
". . . . . + + + @ < r.y g o x K g g g s.t.u.. . . v.w.u.).).).x.g g y.z.o g g W > ~ ' # + . . . . A.",
". . . . . + + + { ' r.y g B.W y.g g g C.).u.. . . . D.W 3.).).C.g g K x o g g E.F.$ $ + + . . . . G.",
". . . . . + + + + = H.o g B.D.I.J.g g K.).g.h.i.L.i.h.n.g <.).K.g R J w n g g M.N.> = + + . . . O.P.",
". . . . . + + + @ ~ Q.j g R.S.T.U.g g V.).).W.X.4.'.Y.Z.g X.!.V.g R I v m g g ( ~ a { + + . . `.P.P.",
". . . . . + + + @ ~ N p g  +g .+R g g [.).).g ++_.@+#+@+,.g a.(.g $+H g l g g %+$ &++ + + . *+P.P.*+",
". . . . . + + + + ~ $ =+g g g -+;+Y g g ^.(.!.).).).).4.>+g o.g g ,+G g g g g * ~ + + + + '+)+P.P.!+",
". . . . . + + + + @ ~ 2 W g p g ~+{+g g g g !.).).).).4.4.(.g g (.]+F u g g ^+# + + /++ (+_+_+P.P.P.",
". . . . . + + + + @ # :+<+g g g g [+(.g g g }+$.%.&.6.|+}+g g Y 1+W E g g g :++ + /++ (+(+(+(+2+P.3+",
". . . . . + + + + ] < $ 4+V g j g W 1+U.g g g g g g g g g R R 5+6+g 7+g g 8+0 + + + (+(+(+(+(+(+(+P.",
". . . . . + + + + > > { 9+0+a+g g g b+c+;+Y R R g g d+(.Y ;+H e+g l g g  .f++ + + (+(+(+(+(+(+(+(+(+",
". . . . . + + + + + > { + / n g g g g F g+2.I J K K J I h+i+F E 7+g g g 1.{ + + (+(+(+(+(+(+(+(+(+(+",
". . . . . + + + + + + + + + * j B.g g u g g v w x x w v g g u g g g g j++ + + (+(+(+(+(+(+(+(+(+(+(+",
". . . . . + + + + + + + + < g k+l+g g g g l m n o o {.m l g g g g m+g + /++ (+(+(+(+(+(+(+n+(+(+(+(+",
". . . . . + + + + + + + ] * * ~ o+g a+y g g g g g g g g g g g p+q+r++ + + (+(+(+(+(+(+(+s+t+u+(+(+(+",
". . . . . + + + + + + + > { v+$ w+% C W x+y+5 6 7 8 z+g A+g g +.> + + + (+(+(+(+(+(+(+s+t+t+t+u+(+(+",
". . . . . + + + + + + + > > # + ] # + = B+C+8._ : D+H.E+* g , { > + + (+(+(+(+(+(+(+s+F+F+F+t+t+u+(+",
". . . . . + + + + + + + + + + + > $ + + ] } { ~ = > { & & $ + + + + (+(+(+(+(+(+(+s+F+G+H+I+J+t+t+u+",
". . . . . + + + + + + + + + + + > > + + @ & > @ + + + @ # > + + + (+(+(+(+(+(+(+s+F+K+L+M+N+O+P+t+t+",
". . . . . + + + + + + + + + + + + + + + + + + + + + + ] # + + + (+(+(+(+(+(+(+s+F+K+Q+R+S+T+U+V+W+X+",
". . . . . + + + + + + + + + + + + + + + + + + + + + + @ ~ /++ (+(+(+(+(+(+(+s+F+G+L+R+Y+Z+`+ @.@+@@@",
". . . . . + + + + + + + + + + + + + + + + + + + + + + + + #@(+(+(+(+(+(+(+s+t+F+H+M+S+Z+$@$@%@&@*@=@",
". . . . . . . . . . . . . . . . . . . . . . . . . . . . . 2+-@(+(+(+(+(+n+t+t+F+I+N+T+`+$@$@;@>@,@'@",
". . . . . . . . . . . . . . . . . . . . . . . . . . . . )@P.!@(+(+(+(+(+(+u+t+t+J+O+U+ @%@~@$@{@]@F+",
". . . . . . . . . . . . . . . . . . . . . . . . . . . P.*+P.P.^@(+(+(+(+(+(+u+t+t+P+V+/@(@_@{@:@<@[@",
". . . . . . . . . . . . . . . . . . . . . . . . . }@|@P.!+P.P.P.(+(+(+(+(+(+(+u+t+t+W+1@*@,@2@3@t+4@",
". . . . . . . . . . . . . . . . . . . . . . . . . *+P.P.P.P.G.P.P.(+(+(+(+(+(+(+u+t+t+5@=@'@5@t+4@6@"};
