/* XPM */
static char * 39_xpm[] = {
"50 50 310 2",
"  	c #6C706F",
". 	c #53615D",
"+ 	c #455853",
"@ 	c #41534E",
"# 	c #3E4F4B",
"$ 	c #3D4F4A",
"% 	c #4A5B56",
"& 	c #767676",
"* 	c #505050",
"= 	c #4E4E54",
"- 	c #4F4F51",
"; 	c #000000",
"> 	c #374642",
", 	c #29312E",
"' 	c #1F211F",
") 	c #1D1E1D",
"! 	c #292F2D",
"~ 	c #34433F",
"{ 	c #505051",
"] 	c #4F4E59",
"^ 	c #13131A",
"/ 	c #445853",
"( 	c #3E504B",
"_ 	c #060C0C",
": 	c #230304",
"< 	c #270000",
"[ 	c #290000",
"} 	c #270808",
"| 	c #1C1716",
"1 	c #34423E",
"2 	c #727272",
"3 	c #445752",
"4 	c #26322F",
"5 	c #4B0303",
"6 	c #4C0303",
"7 	c #470202",
"8 	c #440303",
"9 	c #280707",
"0 	c #262A28",
"a 	c #3F514C",
"b 	c #727273",
"c 	c #4E4E52",
"d 	c #290303",
"e 	c #460202",
"f 	c #480202",
"g 	c #2F0202",
"h 	c #1C1918",
"i 	c #3B4B46",
"j 	c #53605C",
"k 	c #747475",
"l 	c #747474",
"m 	c #290202",
"n 	c #490202",
"o 	c #300201",
"p 	c #1B1816",
"q 	c #3A4A46",
"r 	c #4F5E5A",
"s 	c #1E14FA",
"t 	c #1B10FF",
"u 	c #455752",
"v 	c #26312E",
"w 	c #270404",
"x 	c #450303",
"y 	c #2A0606",
"z 	c #252826",
"A 	c #3F504C",
"B 	c #1C11FF",
"C 	c #C52C4E",
"D 	c #4417D4",
"E 	c #475B56",
"F 	c #1B1212",
"G 	c #313E3B",
"H 	c #DA2F37",
"I 	c #99257B",
"J 	c #842191",
"K 	c #CD2D45",
"L 	c #EF3321",
"M 	c #BA2A59",
"N 	c #EE3223",
"O 	c #EE3322",
"P 	c #C42C4E",
"Q 	c #F1331F",
"R 	c #F03320",
"S 	c #E93324",
"T 	c #C53833",
"U 	c #9F413A",
"V 	c #4E4E55",
"W 	c #48466B",
"X 	c #CB3438",
"Y 	c #A02E63",
"Z 	c #862489",
"` 	c #BD2E4D",
" .	c #C63B2C",
"..	c #EA3521",
"+.	c #EE3320",
"@.	c #E33623",
"#.	c #C73B2C",
"$.	c #9C4239",
"%.	c #8A463F",
"&.	c #E03624",
"*.	c #F0331F",
"=.	c #EF3320",
"-.	c #E83129",
";.	c #661CB1",
">.	c #EC3224",
",.	c #882684",
"'.	c #DF3527",
").	c #E43523",
"!.	c #EE3420",
"~.	c #D83826",
"{.	c #2319E6",
"].	c #CB3A2B",
"^.	c #754945",
"/.	c #A54136",
"(.	c #D73827",
"_.	c #EB3421",
":.	c #D13929",
"<.	c #C83B2C",
"[.	c #CF313B",
"}.	c #E5312B",
"|.	c #8F2F6C",
"1.	c #92443C",
"2.	c #4E2A2A",
"3.	c #4C1414",
"4.	c #4B0606",
"5.	c #EC3421",
"6.	c #ED3420",
"7.	c #BE304A",
"8.	c #694C49",
"9.	c #E93421",
"0.	c #6F3935",
"a.	c #C62819",
"b.	c #CC2C18",
"c.	c #974A06",
"d.	c #CB7A08",
"e.	c #EB9709",
"f.	c #7D1D09",
"g.	c #CE2A1A",
"h.	c #2D26C4",
"i.	c #C62E48",
"j.	c #EF331F",
"k.	c #9D2920",
"l.	c #621804",
"m.	c #DE5713",
"n.	c #F26A14",
"o.	c #F1341F",
"p.	c #F1491A",
"q.	c #F39E09",
"r.	c #D32D19",
"s.	c #D6301F",
"t.	c #B03F33",
"u.	c #EB3224",
"v.	c #1B10FE",
"w.	c #68425E",
"x.	c #CF2D1D",
"y.	c #EB331E",
"z.	c #F3890D",
"A.	c #D43418",
"B.	c #E83522",
"C.	c #CE372F",
"D.	c #51514D",
"E.	c #8B2A7A",
"F.	c #F23E1F",
"G.	c #F3531E",
"H.	c #F2431F",
"I.	c #FFE81A",
"J.	c #FCC81B",
"K.	c #F7811D",
"L.	c #E3331C",
"M.	c #644C4A",
"N.	c #757575",
"O.	c #D4362C",
"P.	c #ED321E",
"Q.	c #F8911C",
"R.	c #FFEC1A",
"S.	c #F5631E",
"T.	c #F25F16",
"U.	c #EC321E",
"V.	c #E53523",
"W.	c #47456D",
"X.	c #555555",
"Y.	c #747374",
"Z.	c #4B0707",
"`.	c #E54918",
" +	c #F3491E",
".+	c #F2431E",
"++	c #F3561E",
"@+	c #9C1D13",
"#+	c #764944",
"$+	c #E3312E",
"%+	c #DC3230",
"&+	c #F27412",
"*+	c #F23F1F",
"=+	c #F1371F",
"-+	c #F88D1D",
";+	c #F2421F",
">+	c #F4591E",
",+	c #F9A01C",
"'+	c #F1381F",
")+	c #A82511",
"!+	c #8D453E",
"~+	c #D0313B",
"{+	c #4E4D65",
"]+	c #E93227",
"^+	c #3B3795",
"/+	c #F56E1D",
"(+	c #F1351F",
"_+	c #F4581E",
":+	c #F6801D",
"<+	c #F9A31C",
"[+	c #F34A1E",
"}+	c #EC341E",
"|+	c #E83320",
"1+	c #B43E32",
"2+	c #94355B",
"3+	c #4D4D55",
"4+	c #E83229",
"5+	c #B93938",
"6+	c #FBB31C",
"7+	c #F2471E",
"8+	c #F1361F",
"9+	c #9B8F10",
"0+	c #332F05",
"a+	c #7A1C10",
"b+	c #FCE91A",
"c+	c #F3840E",
"d+	c #EB3E1B",
"e+	c #EE321F",
"f+	c #B92A59",
"g+	c #EF3420",
"h+	c #FEE01A",
"i+	c #F23D1F",
"j+	c #575109",
"k+	c #EC7E0E",
"l+	c #DB3726",
"m+	c #D42E3D",
"n+	c #060336",
"o+	c #8C1810",
"p+	c #F4571E",
"q+	c #E4301D",
"r+	c #BE2818",
"s+	c #F3521E",
"t+	c #FCBF1B",
"u+	c #D72E1D",
"v+	c #EA411A",
"w+	c #F7901C",
"x+	c #C56217",
"y+	c #903112",
"z+	c #060601",
"A+	c #F6741D",
"B+	c #DA3726",
"C+	c #68425C",
"D+	c #EE331F",
"E+	c #DA3919",
"F+	c #F26415",
"G+	c #A8460B",
"H+	c #CF3121",
"I+	c #F3940B",
"J+	c #F34C1E",
"K+	c #2016EE",
"L+	c #EC3C1C",
"M+	c #F13A1E",
"N+	c #FAAB1C",
"O+	c #F23B1F",
"P+	c #85160F",
"Q+	c #E83228",
"R+	c #9C372D",
"S+	c #CF3525",
"T+	c #C23B2E",
"U+	c #2921D1",
"V+	c #E8321F",
"W+	c #F2810F",
"X+	c #F23C1F",
"Y+	c #F2391F",
"Z+	c #823605",
"`+	c #4D2020",
" @	c #DE3625",
".@	c #CF3417",
"+@	c #F24F19",
"@@	c #E23526",
"#@	c #BC2C53",
"$@	c #CF2F1F",
"%@	c #B23E32",
"&@	c #AC2A61",
"*@	c #E53522",
"=@	c #AC4034",
"-@	c #834741",
";@	c #CA3A2B",
">@	c #8D2C73",
",@	c #EB3225",
"'@	c #E93522",
")@	c #CC2D46",
"!@	c #A02673",
"~@	c #E4322A",
"{@	c #AB4034",
"]@	c #E3322B",
"^@	c #CE2F41",
"/@	c #A44136",
"(@	c #B83D30",
"_@	c #B03A3D",
":@	c #D42E3E",
"<@	c #714A46",
"[@	c #544F4F",
"}@	c #4F24AF",
"|@	c #C52C4D",
"1@	c #E2312F",
"2@	c #D02E41",
"3@	c #852190",
"4@	c #701EA6",
"5@	c #D62F3B",
"  . + @ # $ @ + + % & & & & & & & * * = * * * * - ; ; ; ; ; ; ; ; ; ; ; ; ; ; ; ; ; ; ; ; ; ; ; ; ; ",
". + > , ' ) ! ~ + + % & & & & & & & * * * { * ] ^ ; ; ; ; ; ; ; ; ; ; ; ; ; ; ; ; ; ; ; ; ; ; ; ; ; ",
"/ ( _ : < [ } | 1 + + % & & & & & & 2 * * - * ; ; ; ; ; ; ; ; ; ; ; ; ; ; ; ; ; ; ; ; ; ; ; ; ; ; ; ",
"3 4 : 5 6 7 8 9 0 a + + % & & & & & & b * c ; ; ; ; ; ; ; ; ; ; ; ; ; ; ; ; ; ; ; ; ; ; ; ; ; ; ; ; ",
"# ' d e 5 5 f g h i 3 + + j & & & & & k l ; ; ; ; ; ; ; ; ; ; ; ; ; ; ; ; ; ; ; ; ; ; ; ; ; ; ; ; ; ",
"$ ) m 7 5 5 n o p q 3 + r & & & & & & & s t t t t t t t t t t t t t t t t t t t t t t t t ; ; ; ; ; ",
"u v w 8 f n x y z A 3 r & & & & & & & t B C D t t t t t t t t t t t t t t t t t t t t t t ; ; ; ; ; ",
"E ~ | 9 g o y F G 3 r & & & & & & & t t t H I t t t t t t t t t t t t t t t t t t t t t t ; ; ; ; ; ",
"+ + 1 0 h p z G 3 r & & & & & & & t t t J H D t t t D J K D t t J J t t t t t t t t t t t ; ; ; ; ; ",
"% + + a i q A 3 r & & & & & & & t t t t L K K M J N C M O I t t L J t t t t t t t t t t t ; ; ; ; ; ",
"& % + + 3 3 3 r & & & & & & & t t J M P Q R S T U V W X Y Z N t H I t H J J t t t t t t t ; ; ; ; ; ",
"& & % + + + r & & & & & & & t t t J ` Q Q  .Q ..+.@.#.$.%.&.*.=.-.;.L >.M J t t t t t t t ; ; ; ; ; ",
"& & & % + r & & & & & & & t t t ,.'.).Q Q Q Q Q Q Q Q Q Q Q !.~.Q {.C R R I t t t t t t t ; ; ; ; ; ",
"& & & & j & & & & & & & t B t Q ].Q Q Q Q ^./.(._._.:./.^.Q Q Q Q <.[.Q }.t t t t t t t t ; ; ; ; ; ",
"& & & & & & & & & & & t t t |.Q Q Q Q 1.Q Q 2.3.4.4.3.2.Q Q 1.Q Q 5.6.R t t t t t t t t t ; ; ; ; ; ",
"& & & & & & & & & & t t M 7.Q Q Q 8.9.0.a.b.c.d.e.e.d.c.f.g.0.Q Q Q Q :.h.t M J t t t t t ; ; ; ; ; ",
"& & & & & & & & & t t t i.j.Q Q ^.Q k.l.m.n.o.p.Q Q q.q.n.m.r.s.Q Q Q ~.t.u.M J J t t t t ; ; ; ; ; ",
"* & & & & & & & t t t v.w.Q Q 8.Q x.y.q.q.Q Q Q Q Q Q Q Q Q z.A.*.Q 6.Q B.C.L }.I t t t t ; ; ; ; ; ",
"D.* l & & & & t B t t E.Q Q Q 9.*.A.n.Q Q F.G.H.I.J.K.F.Q Q Q o.L.Q Q Q Q M.E.H D t t t t ; ; ; ; ; ",
"* * * N.N.& t B t t H O.Q Q 1.0.P.o.Q Q o.Q.Q.R.R.R.R.S.Q Q Q Q T.U.Q V.Q *.W.C D t t t t ; ; ; ; ; ",
"{ * * X.Y.t t t t C R Q Q Q Q Z.`.Q Q  +Q .+Q.R.R.R.R.S.o.++Q Q n.m.@+Q Q Q #+L C t t t t ; ; ; ; ; ",
"- * * - ; t t t $+L %+Q Q ^.Q l.&+Q o.*+Q =+-+;+-+>+,+Q R.R.'+Q Q q.)+Q !+Q V.~+C D t t t ; ; ; ; ; ",
"* * {+; ; t t M ]+C ^+Q Q /.2.c.q.Q /+S.(+Q _+:+<+Q.(+[+R.R./+Q Q z.}+|+1+Q 6.2+C D t t t ; ; ; ; ; ",
"* 3+; ; ; t t N J 4+5+Q Q :.3.d.q.Q 6+R.7+Q 8+9+0+a+0+9+b+R.6+Q Q c+d+e+5.Q _.T N t t t t ; ; ; ; ; ",
"= ; ; ; ; t t L L f+g+Q Q _.4.e.Q Q h+R.R.i+*.e+; ; ; ; j+R.h+Q Q Q k+*.5.Q !.l+m+M t t t ; ; ; ; ; ",
"n+; ; ; ; t H m+C J *.Q Q _.o+k+Q Q p+R.R.R.j+q+r+; ; ; j+s+t+Q Q Q e.4._.Q !.l+}.D t t t ; ; ; ; ; ",
"; ; ; ; ; C -.M D t W Q Q :.u+v+n.Q  +R.8+7+w+x+y+z+0+9+b+7+A+Q Q q.d.3.:.Q B+C+H D t t t ; ; ; ; ; ",
"; ; ; ; ; t t t t t ^+Q Q /.D+E+F+Q o.7+o.o.i+R.R.R.J.>+Q.>+*+Q Q q.G+H+/.Q Q X t t t t t ; ; ; ; ; ",
"; ; ; ; ; t t t t t h.Q Q ^.Q l.I+Q o.>+H.J+>+R.R.R.Q.S.S.i+Q Q Q q.f.Q :.Q Q 7.t J M t t ; ; ; ; ; ",
"; ; ; ; ; t t t t t K+Q Q Q Q Z.L+M+Q '+7+N+>+R.R.R.<+o.O+++Q Q q.d.P+Q Q Q (.Q+K Q P t t ; ; ; ; ; ",
"; ; ; ; ; t t t t t t W.Q Q 1.R+*.Q Q Q S.R.R.R.R.R.<+=+Q Q Q Q q.l.S+*.Q T+W.R Q N t t t ; ; ; ; ; ",
"; ; ; ; ; t t t t t t U+Q Q Q Q V+*.W+Q Q X+K.J.I.J.K.Y+Q Q Q q.Z+`+Q Q Q  @` H I t t t t ; ; ; ; ; ",
"; ; ; ; ; t t t t t t v.W.Q Q B+Q j..@+@n.Q Q Q Q Q Q Q Q q.q.Z+3.Q *.Q B.@@}.J J t t t t ; ; ; ; ; ",
"; ; ; ; ; t t t t t t t #@!.Q Q Q Q $@l.d.q.q.q.Q Q q.q.q.d.l.`+Q %@Q Q Q &@H J N t t t t ; ; ; ; ; ",
"; ; ; ; ; t t t t t D C }.~+*@Q Q =@9.0.Z.l.c.d.e.e.d.c.l.Z.0.9.-@Q =.;@>@L J M M J t t t ; ; ; ; ; ",
"; ; ; ; ; t t t t t C ,@R H L !.Q Q Q 1.Q Q 2.3.4.4.3.2.Q Q 1.Q Q Q '@R D D }.M J J t t t ; ; ; ; ; ",
"; ; ; ; ; t t t t K K )@!@J J ~@V.Q Q Q Q ^./.:._._.:./.^.Q Q Q {@6.]@-.-.C M M t t t t t ; ; ; ; ; ",
"; ; ; ; ; t t t J I t t t t }.-.^@W./@Q Q Q Q Q Q Q Q Q Q Q /@(@_@Q+-.C R ]+K H t t t t t ; ; ; ; ; ",
"; ; ; ; ; t t t t t t t t :@]+H I v.U+W.<@$.#.@.+.@.#.$.<@[@W.}@|@J L J O 1@H }.J t t t t ; ; ; ; ; ",
"; ; ; ; ; t t t t t t t J I t L J t t t K+h.^+W V V W ^+h.K+t t C I M C R J t 2@L t t t t ; ; ; ; ; ",
"; ; ; ; ; t t t t t t t t t t L J t t t t t t t t t t t t t t t t 3@J m+-.P J 4@5@L t t t ; ; ; ; ; ",
"; ; ; ; ; t t t t t t t t t t N t t t t t t t t t t t t t t t t t t t R K -.-.t t L t t t ; ; ; ; ; ",
"; ; ; ; ; t t t t t t t t t t t t t t t t t t t t t t t t t t t t t t t t t H D t t t t t ; ; ; ; ; ",
"; ; ; ; ; t t t t t t t t t t t t t t t t t t t t t t t t t t t t t t t t t t t t t t t t ; ; ; ; ; ",
"; ; ; ; ; t t t t t t t t t t t t t t t t t t t t t t t t t t t t t t t t t t t t t t t t ; ; ; ; ; ",
"; ; ; ; ; ; ; ; ; ; ; ; ; ; ; ; ; ; ; ; ; ; ; ; ; ; ; ; ; ; ; ; ; ; ; ; ; ; ; ; ; ; ; ; ; ; ; ; ; ; ",
"; ; ; ; ; ; ; ; ; ; ; ; ; ; ; ; ; ; ; ; ; ; ; ; ; ; ; ; ; ; ; ; ; ; ; ; ; ; ; ; ; ; ; ; ; ; ; ; ; ; ",
"; ; ; ; ; ; ; ; ; ; ; ; ; ; ; ; ; ; ; ; ; ; ; ; ; ; ; ; ; ; ; ; ; ; ; ; ; ; ; ; ; ; ; ; ; ; ; ; ; ; ",
"; ; ; ; ; ; ; ; ; ; ; ; ; ; ; ; ; ; ; ; ; ; ; ; ; ; ; ; ; ; ; ; ; ; ; ; ; ; ; ; ; ; ; ; ; ; ; ; ; ; ",
"; ; ; ; ; ; ; ; ; ; ; ; ; ; ; ; ; ; ; ; ; ; ; ; ; ; ; ; ; ; ; ; ; ; ; ; ; ; ; ; ; ; ; ; ; ; ; ; ; ; "};
