/* XPM */
static char * 39_xpm[] = {
"50 50 174 2",
"  	c None",
". 	c #2D2F2F",
"+ 	c #475350",
"@ 	c #445752",
"# 	c #41534E",
"$ 	c #3E4F4B",
"% 	c #3D4F4A",
"& 	c #3C4D49",
"* 	c #44544F",
"= 	c #727272",
"- 	c #767676",
"; 	c #505050",
"> 	c #4E4E54",
", 	c #4F4F4F",
"' 	c #4E4E50",
") 	c #000000",
"! 	c #53615D",
"~ 	c #455853",
"{ 	c #374642",
"] 	c #29312E",
"^ 	c #1F211F",
"/ 	c #1D1E1D",
"( 	c #292F2D",
"_ 	c #34433F",
": 	c #4A5B56",
"< 	c #505051",
"[ 	c #4F4E59",
"} 	c #13131A",
"| 	c #435752",
"1 	c #3E504B",
"2 	c #060C0C",
"3 	c #230304",
"4 	c #270000",
"5 	c #290000",
"6 	c #270808",
"7 	c #1C1716",
"8 	c #34423E",
"9 	c #4F4F51",
"0 	c #26322F",
"a 	c #4B0303",
"b 	c #4C0303",
"c 	c #470202",
"d 	c #440303",
"e 	c #280707",
"f 	c #262A28",
"g 	c #3F514C",
"h 	c #727273",
"i 	c #4E4E52",
"j 	c #290303",
"k 	c #460202",
"l 	c #480202",
"m 	c #2F0202",
"n 	c #1C1918",
"o 	c #3B4B46",
"p 	c #53605C",
"q 	c #747475",
"r 	c #747474",
"s 	c #290202",
"t 	c #490202",
"u 	c #300201",
"v 	c #1B1816",
"w 	c #3A4A46",
"x 	c #4F5E5A",
"y 	c #1E14FA",
"z 	c #1B10FF",
"A 	c #455752",
"B 	c #26312E",
"C 	c #270404",
"D 	c #450303",
"E 	c #2A0606",
"F 	c #252826",
"G 	c #3F504C",
"H 	c #1C11FF",
"I 	c #475B56",
"J 	c #1B1212",
"K 	c #313E3B",
"L 	c #757478",
"M 	c #2111F9",
"N 	c #E0151F",
"O 	c #767677",
"P 	c #1D13F7",
"Q 	c #2B23CC",
"R 	c #3A3697",
"S 	c #48466B",
"T 	c #4E4E55",
"U 	c #EAFF35",
"V 	c #3B3795",
"W 	c #2D26C4",
"X 	c #2016EE",
"Y 	c #1E14F4",
"Z 	c #3C3891",
"` 	c #524E53",
" .	c #47456D",
"..	c #2921D1",
"+.	c #1B10FE",
"@.	c #251CDE",
"#.	c #3E3A8C",
"$.	c #2319E6",
"%.	c #757575",
"&.	c #3A3599",
"*.	c #2921D2",
"=.	c #413D84",
"-.	c #4F4242",
";.	c #4E2A2A",
">.	c #4C1414",
",.	c #4B0606",
"'.	c #312BB6",
").	c #261DDB",
"!.	c #3D3990",
"~.	c #4F3B3B",
"{.	c #4B0707",
"].	c #261ED9",
"^.	c #3E3A8B",
"/.	c #504E4E",
"(.	c #4D2020",
"_.	c #4C030E",
":.	c #4F0436",
"<.	c #520561",
"[.	c #55067C",
"}.	c #1F15F1",
"|.	c #3C3892",
"1.	c #4B0307",
"2.	c #51054A",
"3.	c #550682",
"4.	c #73727B",
"5.	c #5855A3",
"6.	c #3F3B88",
"7.	c #4C4B5E",
"8.	c #54067B",
"9.	c #303030",
"0.	c #51514D",
"a.	c #6B6A87",
"b.	c #757578",
"c.	c #555555",
"d.	c #747374",
"e.	c #2C25C7",
"f.	c #4E4D65",
"g.	c #4D4D55",
"h.	c #060336",
"i.	c #2712F2",
"j.	c #121213",
"k.	c #010101",
"l.	c #1C11FC",
"m.	c #271FD6",
"n.	c #1E13F6",
"o.	c #1C11FD",
"p.	c #2318E7",
"q.	c #2C1ADE",
"r.	c #3226C1",
"s.	c #332BB5",
"t.	c #2912F1",
"u.	c #2519E4",
"v.	c #48446E",
"w.	c #4717D0",
"x.	c #3A22C2",
"y.	c #2712F3",
"z.	c #2211F7",
"A.	c #1D10FC",
"B.	c #010201",
"C.	c #020303",
"D.	c #000001",
"E.	c #070707",
"F.	c #111111",
"G.	c #050706",
"H.	c #020202",
"I.	c #040505",
"J.	c #020203",
"K.	c #0C0C0D",
"L.	c #0E0E0F",
"M.	c #131313",
"N.	c #121212",
"O.	c #0A0A0A",
"P.	c #090909",
"Q.	c #050505",
". + @ # $ % # @ & * = - - - - - - ; ; > ; ; , , ' ) ) ) ) ) ) ) ) ) ) ) ) ) ) ) ) ) ) ) ) ) ) ) ) ) ",
"! ~ { ] ^ / ( _ ~ ~ : - - - - - - - ; ; ; < ; [ } ) ) ) ) ) ) ) ) ) ) ) ) ) ) ) ) ) ) ) ) ) ) ) ) ) ",
"| 1 2 3 4 5 6 7 8 ~ ~ : - - - - - - = ; ; 9 ; ) ) ) ) ) ) ) ) ) ) ) ) ) ) ) ) ) ) ) ) ) ) ) ) ) ) ) ",
"@ 0 3 a b c d e f g ~ ~ : - - - - - - h ; i ) ) ) ) ) ) ) ) ) ) ) ) ) ) ) ) ) ) ) ) ) ) ) ) ) ) ) ) ",
"$ ^ j k a a l m n o @ ~ ~ p - - - - - q r ) ) ) ) ) ) ) ) ) ) ) ) ) ) ) ) ) ) ) ) ) ) ) ) ) ) ) ) ) ",
"% / s c a a t u v w @ ~ x - - - - - - - y z z z z z z z z z z z z z z z z z z z z z z z z ) ) ) ) ) ",
"A B C d l t D E F G @ x - - - - - - - z H z z z z z z z z z z z z z z z z z z z z z z z z ) ) ) ) ) ",
"I _ 7 e m u E J K @ x - - - - - - L z z z z z z z z z z z z z z z z z z z z z z z z z z z ) ) ) ) ) ",
"~ ~ 8 f n v F K @ x - - - - - - - z z z M z N N N N N N z z z z z z z z z z z z z z z z z ) ) ) ) ) ",
": ~ ~ g o w G @ x - - - - - - O z P Q R S T N N U U N N T S V W X z z z z z z z z z z z z ) ) ) ) ) ",
"- : ~ ~ @ @ @ x - - - - - - - Y Z ` ; ; ; ; N N U U N N ; ; ; ; ;  ...+.z z z z z z z z z ) ) ) ) ) ",
"- - : ~ ~ ~ x - - - - - - - @.#.; ; ; ; ; ; N N U U N N ; ; ; ; ; ; ;  .$.z z z z z z z z ) ) ) ) ) ",
"- %.r : ~ x - - - - - - - @.&.; ; ; ; ; ; ; N N U U N N ; ; ; ; ; ; ; ; ; W z z z z z z z ) ) ) ) ) ",
"- - - - p - - - - - - - *.=.; ; ; ; -.;.>.,.N N U U N N ,.>.;.-.; ; ; ; ; ; '.z z z z z z ) ) ) ) ) ",
"- - - - - - - - - - - ).!.; ; ; ~.{.a a a a N N U U N N a a a a {.~.; ; ; ; ; W z z z z z ) ) ) ) ) ",
"- - - - - - - - - - ].^.; ; /.(.a a _.:.<.[.N N U U N N [.<.:._.a a (./.; ; ; ; $.z z z z ) ) ) ) ) ",
"- - - - - - - - - }.|.; ; /.>.a 1.2.3.3.3.3.N N U U N N 3.3.3.3.2.1.a >./.; ; ;  .+.z z z ) ) ) ) ) ",
"; - - - - - 4.5.$.6.7.; ; (.a _.8.3.3.9.9.9.N N U U N N 9.9.9.3.3.8._.a (.; ; ; ; ..z z z ) ) ) ) ) ",
"0.; r - - - a.z  .; ; ; ~.a 1.8.3.3.3.9.9.9.N N U U N N 9.9.9.3.3.3.8.1.a ~.; ; ;  .z z z ) ) ) ) ) ",
"; ; ; %.%.b.z }.; ; ; ; {.a 2.3.3.3.3.9.9.9.N N U U N N 9.9.9.3.3.3.3.2.a {.; ; ; ; X z z ) ) ) ) ) ",
"< ; ; c.d.z z e.; ; ; -.a _.3.3.3.3.3.9.9.9.N N U U N N 9.9.9.3.3.3.3.3._.a -.; ; ; W z z ) ) ) ) ) ",
"9 ; ; 9 ) z z V ; ; ; ;.a :.3.3.3.3.3.9.9.9.N N U U N N 9.9.9.3.3.3.3.3.:.a ;.; ; ; V z z ) ) ) ) ) ",
"; ; f.) ) z z S ; ; ; >.a <.3.9.9.9.9.9.9.9.N N U U N N 9.9.9.9.9.9.9.3.<.a >.; ; ; S z z ) ) ) ) ) ",
"; g.) ) ) z z T ; ; ; ,.a [.3.9.9.9.9.9.9.9.N N U U N N 9.9.9.9.9.9.9.3.[.a ,.; ; ; T z z ) ) ) ) ) ",
"> ) ) ) ) z z T ; ; ; ,.a [.3.9.9.9.9.9.9.9.N N U U N N 9.9.9.9.9.9.9.3.[.a ,.; ; ; T z z ) ) ) ) ) ",
"h.) ) ) ) z z S ; ; ; >.a <.3.9.9.9.9.9.9.9.N N U U N N 9.9.9.9.9.9.9.3.<.a >.; ; ; S z z ) ) ) ) ) ",
") ) ) ) ) z i.V ; ; ; ;.a :.3.3.3.3.3.9.9.9.N N U U N N 9.9.9.3.3.3.3.3.:.a ;.; ; ; V z z ) ) ) ) ) ",
") ) ) ) ) z z W ; ; ; -.a _.3.3.3.3.3.9.9.9.N N U U N N 9.9.9.3.3.3.3.3._.a -.; ; ; W z z ) ) ) ) ) ",
") ) ) ) ) z z X ; ; ; ; {.a 2.3.3.3.3.9.9.9.N N U U N N 9.9.9.3.3.3.3.2.a {.; ; ; ; X z z ) ) ) ) ) ",
") ) ) ) ) z z z  .; ; ; ~.a 1.8.3.3.3.9.9.9.N N U U N N 9.9.9.3.3.3.8.1.a ~.; ; ;  .z z z j.k.) ) ) ",
") ) ) ) ) l.z z m.; ; ; ; (.a _.8.3.3.9.9.9.N N U U N N 9.9.9.3.3.8._.a (.; ; ; ; ..z z n.) ) ) ) ) ",
") ) ) ) ) z z z +. .; ; ; /.>.a 1.2.3.3.3.3.N N U U N N 3.3.3.3.2.1.a >./.; ; ;  .+.z z z ) ) ) ) ) ",
") ) ) ) ) z o.z z p.; ; ; ; /.(.a a _.:.<.[.N N U U N N [.<.:._.a a (./.; ; ; ; q.z z z z ) ) ) ) ) ",
") ) ) ) ) z z z z z W ; ; ; ; ; ~.{.a a a a N N U U N N a a a a {.~.; ; ; ; ; r.z z z z z ) ) ) ) ) ",
") ) ) ) ) z z z z z z '.; ; ; ; ; ; -.;.>.,.N N U U N N ,.>.;.-.; ; ; ; ; ; s.z z z z z z ) ) ) ) ) ",
") ) ) ) ) z z z z z z z W ; ; ; ; ; ; ; ; ; N N U U N N ; ; ; ; ; ; ; ; ; W z z z z z z z ) ) ) ) ) ",
") ) ) ) ) z z z z z z z t.u.v.; ; ; ; ; ; ; N N U U N N ; ; ; ; ; ; ;  .$.z z z z z z z z ) ) ) ) ) ",
") ) ) ) ) z z z z z z z z z w.x. .; ; ; ; ; N N U U N N ; ; ; ; ;  ...+.y.z z z z z z z z ) ) ) ) ) ",
") ) ) ) ) z z z z z z z z z z z z.X W V S T N N U U N N T S V W X z z A.z z z z z z z z z ) ) ) ) ) ",
") ) ) ) ) z z z z z z z z z z z z z z z z z N N U U N N z z z z z z z z z z z z z z z z z ) ) ) ) ) ",
") ) ) ) ) z z z z z z z z z z z z z z z z z N N N N N N z z z z z z z z z z z z z z z z z ) ) ) ) ) ",
"B.) ) ) ) z z z z z z z z z z z z z z z z z z z z z z z z z z z z z z z z z z z z z z z z ) ) ) ) ) ",
") ) ) ) ) z z z z z z z z z z z z z z z z z z z z z z z z z z z z z z z z z z z z z z z z ) ) ) ) ) ",
"C.) ) ) ) z z z z z z z z z z z z z +.z z z z z z z z z z z z z z z z z z z z z z z z z z ) ) ) ) ) ",
"k.) ) ) ) z z z z z z z z z z z z z z z z z z z z z z z z z +.z z z z z z z +.z z z z z z ) ) ) ) ) ",
") ) ) ) ) ) ) ) ) ) ) ) ) ) ) ) ) ) ) ) ) ) ) ) D.D.D.) ) ) ) ) ) ) ) ) ) ) E.F.k.) ) ) ) ) ) ) ) ) ",
"G.H.) ) ) ) ) ) ) ) ) ) ) ) ) ) ) ) ) ) ) ) ) ) ) ) ) ) ) ) ) ) ) ) ) ) ) ) ) ) ) ) ) ) ) ) ) ) ) ) ",
"I.k.) ) ) ) ) ) ) ) ) ) ) ) ) ) ) ) ) ) ) ) ) ) ) ) ) ) ) ) ) ) ) ) ) ) ) ) ) ) ) ) ) ) ) ) ) ) ) k.",
") ) ) ) ) ) ) ) ) ) ) ) ) ) ) ) ) ) ) ) ) ) ) ) ) ) ) ) ) ) ) ) J.K.L.M.N.O.H.) ) ) ) ) ) ) ) ) ) k.",
") ) ) ) ) ) ) ) ) ) ) ) ) ) ) ) ) ) ) ) ) ) ) ) ) ) ) ) ) ) ) ) ) ) ) P.) Q.) ) ) ) ) ) ) ) ) ) ) k."};
