/* XPM */
static char * 40_xpm[] = {
"50 50 174 2",
"  	c None",
". 	c #000000",
"+ 	c #010101",
"@ 	c #121213",
"# 	c #1B10FF",
"$ 	c #1E13F6",
"% 	c #2016EE",
"& 	c #2D26C4",
"* 	c #3B3795",
"= 	c #48466B",
"- 	c #4E4E55",
"; 	c #1B10FE",
"> 	c #2921D1",
", 	c #47456D",
"' 	c #505050",
") 	c #2319E6",
"! 	c #2C1ADE",
"~ 	c #3226C1",
"{ 	c #111111",
"] 	c #312BB6",
"^ 	c #4F4242",
"/ 	c #4E2A2A",
"( 	c #4C1414",
"_ 	c #4B0606",
": 	c #332BB5",
"< 	c #070707",
"[ 	c #020202",
"} 	c #4F3B3B",
"| 	c #4B0707",
"1 	c #4B0303",
"2 	c #0A0A0A",
"3 	c #050505",
"4 	c #504E4E",
"5 	c #4D2020",
"6 	c #4C030E",
"7 	c #4F0436",
"8 	c #520561",
"9 	c #55067C",
"0 	c #2712F3",
"a 	c #121212",
"b 	c #4B0307",
"c 	c #51054A",
"d 	c #550682",
"e 	c #1D10FC",
"f 	c #131313",
"g 	c #090909",
"h 	c #54067B",
"i 	c #303030",
"j 	c #0E0E0F",
"k 	c #0C0C0D",
"l 	c #020203",
"m 	c #E0151F",
"n 	c #000001",
"o 	c #EAFF35",
"p 	c #4E4E50",
"q 	c #13131A",
"r 	c #4F4F4F",
"s 	c #4F4E59",
"t 	c #505051",
"u 	c #4F4F51",
"v 	c #4E4E52",
"w 	c #747474",
"x 	c #1E14FA",
"y 	c #1C11FF",
"z 	c #2111F9",
"A 	c #4E4E54",
"B 	c #727273",
"C 	c #747475",
"D 	c #767676",
"E 	c #3A3697",
"F 	c #727272",
"G 	c #2B23CC",
"H 	c #757478",
"I 	c #1D13F7",
"J 	c #524E53",
"K 	c #3C3891",
"L 	c #2211F7",
"M 	c #767677",
"N 	c #1E14F4",
"O 	c #3E3A8C",
"P 	c #3A22C2",
"Q 	c #251CDE",
"R 	c #3A3599",
"S 	c #48446E",
"T 	c #4717D0",
"U 	c #53605C",
"V 	c #413D84",
"W 	c #2519E4",
"X 	c #4A5B56",
"Y 	c #455853",
"Z 	c #4F5E5A",
"` 	c #2921D2",
" .	c #3D3990",
"..	c #2912F1",
"+.	c #261DDB",
"@.	c #3E3A8B",
"#.	c #445752",
"$.	c #261ED9",
"%.	c #3C3892",
"&.	c #4C4B5E",
"*.	c #44544F",
"=.	c #3F514C",
"-.	c #3B4B46",
";.	c #3A4A46",
">.	c #3F504C",
",.	c #1F15F1",
"'.	c #3F3B88",
").	c #2318E7",
"!.	c #3C4D49",
"~.	c #34423E",
"{.	c #262A28",
"].	c #1C1918",
"^.	c #1B1816",
"/.	c #252826",
"(.	c #313E3B",
"_.	c #271FD6",
":.	c #34433F",
"<.	c #1C1716",
"[.	c #280707",
"}.	c #2F0202",
"|.	c #300201",
"1.	c #2A0606",
"2.	c #1B1212",
"3.	c #5855A3",
"4.	c #2C25C7",
"5.	c #41534E",
"6.	c #292F2D",
"7.	c #270808",
"8.	c #440303",
"9.	c #480202",
"0.	c #490202",
"a.	c #450303",
"b.	c #73727B",
"c.	c #6B6A87",
"d.	c #2712F2",
"e.	c #1C11FD",
"f.	c #3D4F4A",
"g.	c #1D1E1D",
"h.	c #290000",
"i.	c #470202",
"j.	c #757578",
"k.	c #1C11FC",
"l.	c #3E4F4B",
"m.	c #1F211F",
"n.	c #270000",
"o.	c #4C0303",
"p.	c #757575",
"q.	c #747374",
"r.	c #29312E",
"s.	c #230304",
"t.	c #460202",
"u.	c #555555",
"v.	c #374642",
"w.	c #060C0C",
"x.	c #290303",
"y.	c #290202",
"z.	c #270404",
"A.	c #4E4D65",
"B.	c #475350",
"C.	c #3E504B",
"D.	c #26322F",
"E.	c #26312E",
"F.	c #4D4D55",
"G.	c #2D2F2F",
"H.	c #53615D",
"I.	c #435752",
"J.	c #455752",
"K.	c #475B56",
"L.	c #51514D",
"M.	c #060336",
"N.	c #010201",
"O.	c #020303",
"P.	c #050706",
"Q.	c #040505",
". . . . . . . . . . . . . . . . . . . . . . . . . . . . . . . . . . . . . . . . . . . . . . . + + + ",
". . . . . . . . . . . . . . . . . . . . . . . . . . . . . . . . . . . . . . . . . . . . . . . . . . ",
". . . . . . . . . . . . . . . . . . . . . . . . . . . . . . . . . . . . . . . . . . . . . . . . . . ",
". . . . . . . . . . . . . . . . . . . . . . . . . . . . . + . . . . . . . . . . . . . . . . . . . . ",
". . . . . . . . . . . . . . . . . . . . . . . . . . . . . @ . . . . . . . . . . . . . . . . . . . . ",
". . . . . # # # # # # # # # # # # # # # # # # # # # # # # # $ # # # # # # # # # # # # # # . . . . . ",
". . . . . # # # # # # # # # # # # # # # # # # # # # # # # # # # # # # # # # # # # # # # # . . . . . ",
". . . . . # # # # # # # # # # # # # # % & * = - - = * & % # # # # # # # # # # # # # # # # . . . . . ",
". . . . . # # # # # # # # # # # ; > , ' ' ' ' ' ' ' ' ' ' , > ; # # # # # # # # # # # # # . . . . . ",
". . . . . # # # # # # # # # # ) , ' ' ' ' ' ' ' ' ' ' ' ' ' ' , ! # # # # # # # # # # # # + . . . . ",
". . . . . # # # # # # # # # & ' ' ' ' ' ' ' ' ' ' ' ' ' ' ' ' ' ' ~ # # # # # # # # # # # { . . . . ",
". . . . . # # # # # # # # ] ' ' ' ' ' ' ^ / ( _ _ ( / ^ ' ' ' ' ' ' : # # # # # # # # # ; < . . [ . ",
". . . . . # # # # # # # & ' ' ' ' ' } | 1 1 1 1 1 1 1 1 | } ' ' ' ' ' & # # # # # # # # # . . . 2 3 ",
". . . . . # # # # # # ) ' ' ' ' 4 5 1 1 6 7 8 9 9 8 7 6 1 1 5 4 ' ' ' ' ) 0 # # # # # # # . . . a . ",
". . . . . # # # # # ; , ' ' ' 4 ( 1 b c d d d d d d d d c b 1 ( 4 ' ' ' , ; e # # # # # # . . . f g ",
". . . . . # # # # # > ' ' ' ' 5 1 6 h d d d i i i i d d d h 6 1 5 ' ' ' ' > # # # # # # # . . . j . ",
". . . . . # # # # # , ' ' ' } 1 b h d d d d i i i i d d d d h b 1 } ' ' ' , # # # # # # # . . . k . ",
". . . . . # # # # % ' ' ' ' | 1 c d d d d d i i i i d d d d d c 1 | ' ' ' ' % # # # # # # . . . l . ",
". . . . . # # # # & ' ' ' ^ 1 6 d d d d d d i i i i d d d d d d 6 1 ^ ' ' ' & # # # # # # . . . . . ",
". . . . . # # # # * ' ' ' / 1 7 d i i i i i i i i i i i i i i d 7 1 / ' ' ' * # # # # # ; . . . . . ",
". . . . . # # # # = ' ' ' ( 1 8 d i i i i i i i i i i i i i i d 8 1 ( ' ' ' = # # # # # # . . . . . ",
". . . . . # # # # - ' ' ' _ 1 9 d i i i i i i i i i i i i i i d 9 1 _ ' ' ' - # # # # # # . . . . . ",
". . . . . # # # m m m m m m m m m m m m m m m m m m m m m m m m m m m m m m m m m # # # # . . . . . ",
". . . . . # # # m m m m m m m m m m m m m m m m m m m m m m m m m m m m m m m m m # # # # n . . . . ",
". . . . . # # # m o o o o o o o o o o o o o o o o o o o o o o o o o o o o o o o m # # # # n . . . . ",
"p q . . . # # # m o o o o o o o o o o o o o o o o o o o o o o o o o o o o o o o m # # # # n . . . . ",
"r s . . . # # # m m m m m m m m m m m m m m m m m m m m m m m m m m m m m m m m m # # # # . . . . . ",
"r ' ' . . # # # m m m m m m m m m m m m m m m m m m m m m m m m m m m m m m m m m # # # # . . . . . ",
"' t u v . # # # # - ' ' ' _ 1 9 d i i i i i i i i i i i i i i d 9 1 _ ' ' ' - # # # # # # . . . . . ",
"' ' ' ' w x y # z = ' ' ' ( 1 8 d i i i i i i i i i i i i i i d 8 1 ( ' ' ' = # # # # # # . . . . . ",
"A ' ' B C D # # # E ' ' ' / 1 7 d i i i i i i i i i i i i i i d 7 1 / ' ' ' * # # # # # # . . . . . ",
"' ' F D D D D # # G ' ' ' ^ 1 6 d d d d d d i i i i d d d d d d 6 1 ^ ' ' ' & # # # # ; # . . . . . ",
"' D D D D D D H # I J ' ' ' | 1 c d d d d d i i i i d d d d d c 1 | ' ' ' ' % # # # # # # . . . . . ",
"D D D D D D D D D # K ' ' ' } 1 b h d d d d i i i i d d d d h b 1 } ' ' ' , L # # # # # # . . . . . ",
"D D D D D D D D D M N O ' ' ' 5 1 6 h d d d i i i i d d d h 6 1 5 ' ' ' ' P # # # # # # # . . . . . ",
"D D D D D D D D D D D Q R ' ' 4 ( 1 b c d d d d d d d d c b 1 ( 4 ' ' ' S T # # # # # # # . . . . . ",
"D D D D U D D D D D D D Q V ' ' 4 5 1 1 6 7 8 9 9 8 7 6 1 1 5 4 ' ' ' ' W # # # # # # # # . . . . . ",
"D D D X Y Z D D D D D D D `  .' ' ' } | 1 1 1 1 1 1 1 1 | } ' ' ' ' ' & ..# # # # # # # # . . . . . ",
"D D X Y Y Y Z D D D D D D D +.@.' ' ' ' ^ / ( _ _ ( / ^ ' ' ' ' ' ' ] # # # # # # # # # # . . . . . ",
"F X Y Y #.#.#.Z D D D D D D D $.%.&.' ' ' ' ' ' ' ' ' ' ' ' ' ' ' & # # # # # # # # # # # . . . . . ",
"*.Y Y =.-.;.>.#.Z D D D D D D D ,.'.' ' ' ' ' ' ' ' ' ' ' ' ' , ).# # # # # # # # # # # # . . . . . ",
"!.Y ~.{.].^./.(.#.Z D D D D D D D ) , ' ' ' ' ' ' ' ' ' ' , _.; # # # # # # # # # # # # # . . . . . ",
"#.:.<.[.}.|.1.2.(.#.Z D D D D D D 3.# ,.4.* = - - = * & % # # # # # # # # # # # # # # # # . . . . . ",
"5.6.7.8.9.0.a.1./.>.#.Z D D D D D b.c.# # # # # # # d.# # # # # e.# # # # # # # # # # # # . . . . . ",
"f.g.h.i.1 1 0.|.^.;.#.Y Z D D D D D D j.# # # # # # # # # # k.# # # # # # # # # # # # # # . . . . . ",
"l.m.n.o.1 1 9.}.].-.#.Y Y U D D D D D p.q.. . . . . . . . . . . . . . . . . . . . . . . . . . . . . ",
"5.r.s.1 t.i.8.[.{.=.Y Y X D D D D D D p.u.u . . . . . . . . . . . . . . . . . . . . . . . . . . . . ",
"#.v.w.s.x.y.z.<.~.Y Y X w D D D D D w ' ' ' A.. . . . . . . . . . . . . . . . . . . . . . . . . . . ",
"B.Y C.D.m.g.E.:.Y Y X D p.D D D D D ' ' ' ' ' F.. . . . . . . . . . . . . . . . . . . . . . [ + . . ",
"G.H.I.#.l.f.J.K.Y X D D D D D D D ' L.' t u ' ' A M.. . . . . . . . . . . . . . . N.. O.+ . P.Q.. . "};
