/* XPM */
static char * 40_xpm[] = {
"50 50 311 2",
"  	c None",
". 	c #000000",
"+ 	c #1B10FF",
"@ 	c #BA2A59",
"# 	c #C42C4E",
"$ 	c #4417D4",
"% 	c #842191",
"& 	c #F1331F",
"* 	c #EE3223",
"= 	c #EF3321",
"- 	c #99257B",
"; 	c #C52C4E",
"> 	c #D42E3D",
", 	c #E5312B",
"' 	c #DA2F37",
") 	c #CD2D45",
"! 	c #D62F3B",
"~ 	c #D0313B",
"{ 	c #94355B",
"] 	c #C53833",
"^ 	c #DB3726",
"/ 	c #68425C",
"( 	c #CB3438",
"_ 	c #BE304A",
": 	c #E83228",
"< 	c #F03320",
"[ 	c #D02E41",
"} 	c #701EA6",
"| 	c #8B2A7A",
"1 	c #47456D",
"2 	c #764944",
"3 	c #E53523",
"4 	c #ED3420",
"5 	c #EB3421",
"6 	c #EE3420",
"7 	c #DA3726",
"8 	c #D73827",
"9 	c #BD2E4D",
"0 	c #E83129",
"a 	c #EB3224",
"b 	c #CE372F",
"c 	c #644C4A",
"d 	c #F0331F",
"e 	c #C23B2E",
"f 	c #DE3625",
"g 	c #E23526",
"h 	c #AC2A61",
"i 	c #E93227",
"j 	c #E2312F",
"k 	c #2D26C4",
"l 	c #B03F33",
"m 	c #E83522",
"n 	c #8D453E",
"o 	c #B43E32",
"p 	c #EC3421",
"q 	c #D13929",
"r 	c #A54136",
"s 	c #8D2C73",
"t 	c #EE3322",
"u 	c #EC3224",
"v 	c #D83826",
"w 	c #E83320",
"x 	c #EE321F",
"y 	c #4B0606",
"z 	c #4C1414",
"A 	c #CF3121",
"B 	c #CA3A2B",
"C 	c #CF313B",
"D 	c #9C1D13",
"E 	c #A82511",
"F 	c #EC341E",
"G 	c #EB3E1B",
"H 	c #EC7E0E",
"I 	c #EB9709",
"J 	c #CB7A08",
"K 	c #A8460B",
"L 	c #7D1D09",
"M 	c #85160F",
"N 	c #CF3525",
"O 	c #EF3320",
"P 	c #E93522",
"Q 	c #E3322B",
"R 	c #661CB1",
"S 	c #2319E6",
"T 	c #C83B2C",
"U 	c #EC321E",
"V 	c #DE5713",
"W 	c #F39E09",
"X 	c #F3890D",
"Y 	c #F3840E",
"Z 	c #621804",
"` 	c #4D2020",
" .	c #B23E32",
"..	c #852190",
"+.	c #E3331C",
"@.	c #F25F16",
"#.	c #F26A14",
"$.	c #823605",
"%.	c #834741",
"&.	c #AB4034",
"*.	c #B03A3D",
"=.	c #C52C4D",
"-.	c #D6301F",
";.	c #D43418",
">.	c #F1341F",
",.	c #E93421",
"'.	c #B83D30",
").	c #4F24AF",
"!.	c #92443C",
"~.	c #6F3935",
"{.	c #D32D19",
"].	c #F1381F",
"^.	c #F56E1D",
"/.	c #FBB31C",
"(.	c #FEE01A",
"_.	c #FCBF1B",
":.	c #F6741D",
"<.	c #F23F1F",
"[.	c #A44136",
"}.	c #862489",
"|.	c #E03624",
"1.	c #CE2A1A",
"2.	c #F3561E",
"3.	c #FFEC1A",
"4.	c #F3521E",
"5.	c #F2471E",
"6.	c #F4591E",
"7.	c #F23D1F",
"8.	c #4B0707",
"9.	c #544F4F",
"0.	c #2016EE",
"a.	c #A02E63",
"b.	c #8A463F",
"c.	c #754945",
"d.	c #FCE91A",
"e.	c #575109",
"f.	c #F8911C",
"g.	c #F5631E",
"h.	c #F23B1F",
"i.	c #714A46",
"j.	c #9C4239",
"k.	c #4E2A2A",
"l.	c #974A06",
"m.	c #F23E1F",
"n.	c #F34A1E",
"o.	c #9B8F10",
"p.	c #F1371F",
"q.	c #F2391F",
"r.	c #3B3795",
"s.	c #48466B",
"t.	c #C73B2C",
"u.	c #F7811D",
"v.	c #F9A01C",
"w.	c #F1351F",
"x.	c #332F05",
"y.	c #FCC81B",
"z.	c #F9A31C",
"A.	c #4E4E55",
"B.	c #E33623",
"C.	c #7A1C10",
"D.	c #060601",
"E.	c #4F4F51",
"F.	c #13131A",
"G.	c #9F413A",
"H.	c #EE3320",
"I.	c #FFE81A",
"J.	c #F88D1D",
"K.	c #BE2818",
"L.	c #903112",
"M.	c #505050",
"N.	c #4F4E59",
"O.	c #EA3521",
"P.	c #F1491A",
"Q.	c #F2431F",
"R.	c #F2421F",
"S.	c #F6801D",
"T.	c #E4301D",
"U.	c #C56217",
"V.	c #E93324",
"W.	c #F3531E",
"X.	c #F4581E",
"Y.	c #F1361F",
"Z.	c #F7901C",
"`.	c #505051",
" +	c #4E4E52",
".+	c #C63B2C",
"++	c #CC2C18",
"@+	c #F2431E",
"#+	c #F34C1E",
"$+	c #FAAB1C",
"%+	c #F23C1F",
"&+	c #747474",
"*+	c #1E14FA",
"=+	c #1C11FF",
"-+	c #C62819",
";+	c #4E4E54",
">+	c #727273",
",+	c #747475",
"'+	c #767676",
")+	c #F3491E",
"!+	c #F24F19",
"~+	c #727272",
"{+	c #E43523",
"]+	c #9D2920",
"^+	c #EB331E",
"/+	c #F4571E",
"(+	c #F2810F",
"_+	c #CF3417",
":+	c #CF2F1F",
"<+	c #2921D1",
"[+	c #DF3527",
"}+	c #694C49",
"|+	c #CF2D1D",
"1+	c #F13A1E",
"2+	c #EF331F",
"3+	c #AC4034",
"4+	c #1B10FE",
"5+	c #882684",
"6+	c #CB3A2B",
"7+	c #ED321E",
"8+	c #E54918",
"9+	c #F27412",
"0+	c #F26415",
"a+	c #F3940B",
"b+	c #EC3C1C",
"c+	c #E8321F",
"d+	c #CE2F41",
"e+	c #EA411A",
"f+	c #DA3919",
"g+	c #9C372D",
"h+	c #E4322A",
"i+	c #8F2F6C",
"j+	c #8C1810",
"k+	c #D72E1D",
"l+	c #EE331F",
"m+	c #E53522",
"n+	c #53605C",
"o+	c #D42E3E",
"p+	c #4A5B56",
"q+	c #455853",
"r+	c #4F5E5A",
"s+	c #C62E48",
"t+	c #68425E",
"u+	c #BC2C53",
"v+	c #A02673",
"w+	c #D4362C",
"x+	c #EB3225",
"y+	c #CC2D46",
"z+	c #445752",
"A+	c #DC3230",
"B+	c #B93938",
"C+	c #EF3420",
"D+	c #3F514C",
"E+	c #3B4B46",
"F+	c #3A4A46",
"G+	c #3F504C",
"H+	c #E83229",
"I+	c #B92A59",
"J+	c #34423E",
"K+	c #262A28",
"L+	c #1C1918",
"M+	c #1B1816",
"N+	c #252826",
"O+	c #313E3B",
"P+	c #E3312E",
"Q+	c #34433F",
"R+	c #1C1716",
"S+	c #280707",
"T+	c #2F0202",
"U+	c #300201",
"V+	c #2A0606",
"W+	c #1B1212",
"X+	c #41534E",
"Y+	c #292F2D",
"Z+	c #270808",
"`+	c #440303",
" @	c #480202",
".@	c #490202",
"+@	c #450303",
"@@	c #3D4F4A",
"#@	c #1D1E1D",
"$@	c #290000",
"%@	c #470202",
"&@	c #4B0303",
"*@	c #3E4F4B",
"=@	c #1F211F",
"-@	c #270000",
";@	c #4C0303",
">@	c #757575",
",@	c #747374",
"'@	c #29312E",
")@	c #230304",
"!@	c #460202",
"~@	c #555555",
"{@	c #374642",
"]@	c #060C0C",
"^@	c #290303",
"/@	c #290202",
"(@	c #270404",
"_@	c #4E4D65",
":@	c #53615D",
"<@	c #3E504B",
"[@	c #26322F",
"}@	c #26312E",
"|@	c #4D4D55",
"1@	c #6C706F",
"2@	c #445853",
"3@	c #455752",
"4@	c #475B56",
"5@	c #51514D",
"6@	c #060336",
". . . . . . . . . . . . . . . . . . . . . . . . . . . . . . . . . . . . . . . . . . . . . . . . . . ",
". . . . . . . . . . . . . . . . . . . . . . . . . . . . . . . . . . . . . . . . . . . . . . . . . . ",
". . . . . . . . . . . . . . . . . . . . . . . . . . . . . . . . . . . . . . . . . . . . . . . . . . ",
". . . . . . . . . . . . . . . . . . . . . . . . . . . . . . . . . . . . . . . . . . . . . . . . . . ",
". . . . . . . . . . . . . . . . . . . . . . . . . . . . . . . . . . . . . . . . . . . . . . . . . . ",
". . . . . + + + + + + + + + + + + + + + + + + + + + + + + + + + + + + + + + + + + + + + + . . . . . ",
". . . . . + + + + + + + + + + + + + + + + + + + + + + + + + + + + + + + + + + + + + + + + . . . . . ",
". . . . . + + + + + + + + + + + + + + + + + + + + + + + @ # + + + + + + + + + + + + + + + . . . . . ",
". . . . . + + + + + + + + + + + + + + + + $ $ + @ $ $ + % & * + + + % % + + + + = = + + + . . . . . ",
". . . . . + + + + + + + + + + + % - $ $ ; ; ; * > , ' + + ) & - % * @ % + + % = ! + + + + . . . . . ",
". . . . . + + + + + + + + + + % % , ' ; = ~ { ] ^ ^ / ( _ : < ' % % @ @ @ ' , [ } + $ + + . . . . . ",
". . . . . + + + + + + + + + + @ @ = | 1 2 3 4 5 6 6 7 & & 8 1 9 , ' % , @ ) ' + % 0 ' + + . . . . . ",
". . . . . + + + + + % % - + + + a b c d & & & & & & & & & & e f g h = $ ; i j % # 0 + + + . . . . . ",
". . . . . + + + + + % @ < , + k l m & & & n o p p 5 q r q & & & m & s $ 0 < t < 0 ) + + + . . . . . ",
". . . . . + + + + + ' u < & < q v & & 3 & & w x d y z A & & d & & & B < 0 ; % ; > < + + + . . . . . ",
". . . . . + + + + + + = ; C 4 & & 4 & & D E F G H I J K L M N & d & O P Q 0 = @ % + + + + . . . . . ",
". . . . . + + + % % - R S T p & & & & U V W X Y & & W W W J Z ` &  .& & 4 : % - ..+ + + + . . . . . ",
". . . . . + + + % = ' 0 & & & & & d +.@.#.& & & & & & & & W W $.z & %.& &.*.=.; + + + + + . . . . . ",
". . . . . + + + + + + O v & & & -.;.>.& & & & & & & & & & & & W $.` ,.& & '.).+ + + + + + . . . . . ",
". . . . . + + + + + * d 6 & !.~.{.X & & & ].^./.(._.:.<.& & & & W Z ~.!.& [.1 + + + + + + . . . . . ",
". . . . . + + + $ - }.|.& & & 1.V & & & 2.3.3.3.3.4.5.6.7.2.& & W J 8.& & & 9.0.+ + + + + . . . . . ",
". . . . . + + + ) t a.b.& c.& L #.& & & >.3.3.d.e.e.d.f.g.h.& & & W Z & c.& i.k + + + + + . . . . . ",
". . . . . + + + % @ ( j.& r k.l.W & m.g.g.& n.o.. . o.6.g.>.p.q.& W l.k.r & j.r.+ + + + + . . . . . ",
". . . . . + + + $ ; s.t.& q z J W & u.3.3.v.w.x.. . x.y.f.z.z.u.& W J z q & t.s.+ + + + + . . . . . ",
". . . . . + + + + * A.B.& 5 y I & & y.3.3.6.f.C.. . D.3.3.3.3.y.& & I y 5 & B.A.+ + + + + . . . . . ",
"E.F.. . . + + + + % G.H.& 5 y I & & I.3.3.J.z.x.. K.L.3.3.3.3.I.& & I y 5 & H.A.+ + + + + . . . . . ",
"M.N.. . . + + + + @ ] O.& 8 z J P.& Q.3.3.R.S.o.x T.U.3.3.3.3.y.& W J z q & B.s.+ + + + + . . . . . ",
"M.M.M.. . + $ - $ ) V.& & r k.l.>.& W.f.f.J.X.Y.d e.Z.7.6.6.3.u.& W l.k.r & t.r.+ + + + + . . . . . ",
"M.`.E. +. + ; ' ' ) < .+& c.& ++#.& m.f.@+p.& & 7.3.5.>.#+$+3.%+& W Z & c.& j.k + + + + + . . . . . ",
"M.M.M.M.&+*+=++ % = & & & & & -+V W & >.& & w.5.3.3.Y.>.Q.5.g.& #.J 8.& & & i.0.+ + + + + . . . . . ",
";+M.M.>+,+'++ + + + # & & & !.~.Z W & & )+<.g.3.3.3.3.5.6.].& & !+Z ~.!.& & 1 + + + + + + . . . . . ",
"M.M.~+'+'+'+'++ + + @ 9 {+& & ,.]+^+#.& & >.^./.(./+)+>.>.& & (+_+:+,.& & [.<++ + + + + + . . . . . ",
"M.'+'+'+'+'+'+'++ + % % [+& & }+& |+;.>.& & & & & & & & & 1+& d 2+& 3+& & 1 4++ + + + + + . . . . . ",
"'+'+'+'+'+'+'+'+'++ + + 5+6+& & c.& d 7+8+9+W W & & #.0+a+b+d c+& & & & 3 d+- % % + + + + . . . . . ",
"'+'+'+'+'+'+'+'+'+'++ + + & & & & }+,.~.8.Z l.J I H e+f+Z 8.g+& 7 & & 6 h+0 ' = = * + + + . . . . . ",
"'+'+'+'+'+'+'+'+'+'+'++ + + i+& & & & !.& & k.z y j+k+l+& & !.& & & m+= % , i + + + + + + . . . . . ",
"'+'+'+'+n+'+'+'+'+'+'+'++ =++ _ 2+& & & & c.r q 5 5 q r c.& & & & 6 ~ ' % + o+- + + + + + . . . . . ",
"'+'+'+p+q+r+'+'+'+'+'+'+'++ + @ s+t+& & & & & & & & & & & & & & 1 u+, < v++ + % + + + + + . . . . . ",
"'+'+p+q+q+q+r+'+'+'+'+'+'+'++ + + 4+| w+& & & & & & & & & & 1 <+4++ ; x+y++ + + + + + + + . . . . . ",
"'+p+q+q+z+z+z+r+'+'+'+'+'+'+'++ + + + ' < A+r.B+C+d s.r.k 0.+ + + + $ ; ) + + + + + + + + . . . . . ",
"p+q+q+D+E+F+G+z+r+'+'+'+'+'+'+'++ + + + ; = ; H+I+% + + + + + + + + + + ) - + + + + + + + . . . . . ",
"q+q+J+K+L+M+N+O+z+r+'+'+'+'+'+'+'++ =++ + P+i % = ; $ + + + + + + + + + + % + + + + + + + . . . . . ",
"q+Q+R+S+T+U+V+W+O+z+r+'+'+'+'+'+'+'++ =++ + @ * = > @ + + + + + + + + + + + + + + + + + + . . . . . ",
"X+Y+Z+`+ @.@+@V+N+G+z+r+'+'+'+'+'+'+'++ + + + + + ' 0 + + + + + + + + + + + + + + + + + + . . . . . ",
"@@#@$@%@&@&@.@U+M+F+z+q+r+'+'+'+'+'+'+'++ + + + + + ; + + + + + + + + + + + + + + + + + + . . . . . ",
"*@=@-@;@&@&@ @T+L+E+z+q+q+n+'+'+'+'+'+>@,@. . . . . . . . . . . . . . . . . . . . . . . . . . . . . ",
"X+'@)@&@!@%@`+S+K+D+q+q+p+'+'+'+'+'+'+>@~@E.. . . . . . . . . . . . . . . . . . . . . . . . . . . . ",
"q+{@]@)@^@/@(@R+J+q+q+p+'+'+'+'+'+'+&+M.M.M._@. . . . . . . . . . . . . . . . . . . . . . . . . . . ",
":@q+<@[@=@#@}@Q+q+q+p+'+'+'+'+'+'+'+M.M.M.M.M.|@. . . . . . . . . . . . . . . . . . . . . . . . . . ",
"1@:@2@z+*@@@3@4@q+p+'+'+'+'+'+'+'+M.5@M.`.E.M.M.;+6@. . . . . . . . . . . . . . . . . . . . . . . . "};
