/* XPM */
static char * 41_xpm[] = {
"50 50 311 2",
"  	c None",
". 	c #000000",
"+ 	c #060336",
"@ 	c #4E4E54",
"# 	c #505050",
"$ 	c #4F4F51",
"% 	c #505051",
"& 	c #51514D",
"* 	c #767676",
"= 	c #4A5B56",
"- 	c #455853",
"; 	c #475B56",
"> 	c #455752",
", 	c #3D4F4A",
"' 	c #3E4F4B",
") 	c #445752",
"! 	c #445853",
"~ 	c #53615D",
"{ 	c #6C706F",
"] 	c #4D4D55",
"^ 	c #34433F",
"/ 	c #26312E",
"( 	c #1D1E1D",
"_ 	c #1F211F",
": 	c #26322F",
"< 	c #3E504B",
"[ 	c #4E4D65",
"} 	c #747474",
"| 	c #34423E",
"1 	c #1C1716",
"2 	c #270404",
"3 	c #290202",
"4 	c #290303",
"5 	c #230304",
"6 	c #060C0C",
"7 	c #374642",
"8 	c #555555",
"9 	c #757575",
"0 	c #3F514C",
"a 	c #262A28",
"b 	c #280707",
"c 	c #440303",
"d 	c #470202",
"e 	c #460202",
"f 	c #4B0303",
"g 	c #29312E",
"h 	c #41534E",
"i 	c #747374",
"j 	c #53605C",
"k 	c #3B4B46",
"l 	c #1C1918",
"m 	c #2F0202",
"n 	c #480202",
"o 	c #4C0303",
"p 	c #270000",
"q 	c #1B10FF",
"r 	c #C52C4E",
"s 	c #4F5E5A",
"t 	c #3A4A46",
"u 	c #1B1816",
"v 	c #300201",
"w 	c #490202",
"x 	c #290000",
"y 	c #E83129",
"z 	c #DA2F37",
"A 	c #3F504C",
"B 	c #252826",
"C 	c #2A0606",
"D 	c #450303",
"E 	c #270808",
"F 	c #292F2D",
"G 	c #BA2A59",
"H 	c #D42E3D",
"I 	c #EF3321",
"J 	c #EE3223",
"K 	c #1C11FF",
"L 	c #313E3B",
"M 	c #1B1212",
"N 	c #842191",
"O 	c #4417D4",
"P 	c #E93227",
"Q 	c #E3312E",
"R 	c #99257B",
"S 	c #CD2D45",
"T 	c #B92A59",
"U 	c #E83229",
"V 	c #2016EE",
"W 	c #2D26C4",
"X 	c #3B3795",
"Y 	c #48466B",
"Z 	c #F0331F",
"` 	c #EF3420",
" .	c #B93938",
"..	c #DC3230",
"+.	c #F03320",
"@.	c #CC2D46",
"#.	c #EB3225",
"$.	c #1B10FE",
"%.	c #2921D1",
"&.	c #47456D",
"*.	c #F1331F",
"=.	c #D4362C",
"-.	c #8B2A7A",
";.	c #A02673",
">.	c #E5312B",
",.	c #BC2C53",
"'.	c #68425E",
").	c #C62E48",
"!.	c #D42E3E",
"~.	c #D0313B",
"{.	c #EE3420",
"].	c #754945",
"^.	c #A54136",
"/.	c #D13929",
"(.	c #EB3421",
"_.	c #EF331F",
":.	c #BE304A",
"<.	c #E53522",
"[.	c #92443C",
"}.	c #EE331F",
"|.	c #D72E1D",
"1.	c #8C1810",
"2.	c #4B0606",
"3.	c #4C1414",
"4.	c #4E2A2A",
"5.	c #8F2F6C",
"6.	c #E4322A",
"7.	c #DA3726",
"8.	c #9C372D",
"9.	c #4B0707",
"0.	c #621804",
"a.	c #DA3919",
"b.	c #EA411A",
"c.	c #EC7E0E",
"d.	c #EB9709",
"e.	c #CB7A08",
"f.	c #974A06",
"g.	c #6F3935",
"h.	c #E93421",
"i.	c #694C49",
"j.	c #CE2F41",
"k.	c #E53523",
"l.	c #E8321F",
"m.	c #EC3C1C",
"n.	c #F3940B",
"o.	c #F26415",
"p.	c #F26A14",
"q.	c #F39E09",
"r.	c #F27412",
"s.	c #E54918",
"t.	c #ED321E",
"u.	c #CB3A2B",
"v.	c #882684",
"w.	c #AC4034",
"x.	c #F13A1E",
"y.	c #F1341F",
"z.	c #D43418",
"A.	c #CF2D1D",
"B.	c #DF3527",
"C.	c #A44136",
"D.	c #CF2F1F",
"E.	c #CF3417",
"F.	c #F2810F",
"G.	c #F3491E",
"H.	c #F4571E",
"I.	c #FEE01A",
"J.	c #FBB31C",
"K.	c #F56E1D",
"L.	c #EB331E",
"M.	c #9D2920",
"N.	c #E43523",
"O.	c #BD2E4D",
"P.	c #727272",
"Q.	c #F24F19",
"R.	c #F1381F",
"S.	c #F4591E",
"T.	c #F2471E",
"U.	c #FFEC1A",
"V.	c #F5631E",
"W.	c #F23F1F",
"X.	c #C42C4E",
"Y.	c #747475",
"Z.	c #727273",
"`.	c #714A46",
" +	c #F2431F",
".+	c #F1361F",
"++	c #F1351F",
"@+	c #DE5713",
"#+	c #C62819",
"$+	c #1E14FA",
"%+	c #9C4239",
"&+	c #F23C1F",
"*+	c #FAAB1C",
"=+	c #F34C1E",
"-+	c #F23D1F",
";+	c #F1371F",
">+	c #F2431E",
",+	c #F8911C",
"'+	c #F23E1F",
")+	c #CC2C18",
"!+	c #C63B2C",
"~+	c #4E4E52",
"{+	c #C73B2C",
"]+	c #F7811D",
"^+	c #F7901C",
"/+	c #575109",
"(+	c #F4581E",
"_+	c #F88D1D",
":+	c #F3531E",
"<+	c #E93324",
"[+	c #E33623",
"}+	c #FCC81B",
"|+	c #C56217",
"1+	c #E4301D",
"2+	c #EE321F",
"3+	c #9B8F10",
"4+	c #F6801D",
"5+	c #F2421F",
"6+	c #F1491A",
"7+	c #D73827",
"8+	c #EA3521",
"9+	c #C53833",
"0+	c #4F4E59",
"a+	c #4E4E55",
"b+	c #EE3320",
"c+	c #FFE81A",
"d+	c #903112",
"e+	c #BE2818",
"f+	c #332F05",
"g+	c #F9A31C",
"h+	c #9F413A",
"i+	c #13131A",
"j+	c #060601",
"k+	c #7A1C10",
"l+	c #F9A01C",
"m+	c #F2391F",
"n+	c #F34A1E",
"o+	c #CB3438",
"p+	c #F23B1F",
"q+	c #FCE91A",
"r+	c #7D1D09",
"s+	c #8A463F",
"t+	c #A02E63",
"u+	c #EE3322",
"v+	c #544F4F",
"w+	c #F3561E",
"x+	c #F3521E",
"y+	c #CE2A1A",
"z+	c #E03624",
"A+	c #862489",
"B+	c #F6741D",
"C+	c #FCBF1B",
"D+	c #F3890D",
"E+	c #D32D19",
"F+	c #4F24AF",
"G+	c #B83D30",
"H+	c #4D2020",
"I+	c #823605",
"J+	c #D6301F",
"K+	c #D83826",
"L+	c #EF3320",
"M+	c #C52C4D",
"N+	c #B03A3D",
"O+	c #AB4034",
"P+	c #834741",
"Q+	c #F25F16",
"R+	c #E3331C",
"S+	c #852190",
"T+	c #E83228",
"U+	c #ED3420",
"V+	c #B23E32",
"W+	c #F3840E",
"X+	c #EC321E",
"Y+	c #EC3421",
"Z+	c #C83B2C",
"`+	c #2319E6",
" @	c #661CB1",
".@	c #E3322B",
"+@	c #E93522",
"@@	c #CF3525",
"#@	c #85160F",
"$@	c #A8460B",
"%@	c #EB3E1B",
"&@	c #EC341E",
"*@	c #A82511",
"=@	c #9C1D13",
"-@	c #CF313B",
";@	c #CA3A2B",
">@	c #CF3121",
",@	c #E83320",
"'@	c #EC3224",
")@	c #8D2C73",
"!@	c #E83522",
"~@	c #B43E32",
"{@	c #8D453E",
"]@	c #B03F33",
"^@	c #E2312F",
"/@	c #AC2A61",
"(@	c #E23526",
"_@	c #DE3625",
":@	c #C23B2E",
"<@	c #644C4A",
"[@	c #CE372F",
"}@	c #EB3224",
"|@	c #764944",
"1@	c #701EA6",
"2@	c #D02E41",
"3@	c #68425C",
"4@	c #DB3726",
"5@	c #94355B",
"6@	c #D62F3B",
". . . . . . . . . . . . . . . . . . . . . . . . + @ # # $ % # & # * * * * * * * = - ; > , ' ) ! ~ { ",
". . . . . . . . . . . . . . . . . . . . . . . . . . ] # # # # # * * * * * * * = - - ^ / ( _ : < - ~ ",
". . . . . . . . . . . . . . . . . . . . . . . . . . . [ # # # } * * * * * * = - - | 1 2 3 4 5 6 7 - ",
". . . . . . . . . . . . . . . . . . . . . . . . . . . . $ 8 9 * * * * * * = - - 0 a b c d e f 5 g h ",
". . . . . . . . . . . . . . . . . . . . . . . . . . . . . i 9 * * * * * j - - ) k l m n f f o p _ ' ",
". . . . . q q q q q q q q q q q q q q q q q q r q q q q q q * * * * * * * s - ) t u v w f f d x ( , ",
". . . . . q q q q q q q q q q q q q q q q q q y z q q q q q q * * * * * * * s ) A B C D w n c E F h ",
". . . . . q q q q q q q q q q q q q q q q q q G H I J G q q K q * * * * * * * s ) L M C v m b 1 ^ - ",
". . . . . q q q q q q q N q q q q q q q q q q O r I N P Q q q K q * * * * * * * s ) L B u l a | - - ",
". . . . . q q q q q q q R S q q q q q q q q q q N T U r I r q q q q * * * * * * * s ) A t k 0 - - = ",
". . . . . q q q q q q q q S r O q q q q V W X Y Z `  .X ..+.z q q q q * * * * * * * s ) ) ) - - = * ",
". . . . . q q q q q q q q @.#.r q $.%.&.*.*.*.*.*.*.*.*.*.*.=.-.$.q q q * * * * * * * s - - - = * * ",
". . . . . q q q q q N q q ;.+.>.,.&.*.*.*.*.*.*.*.*.*.*.*.*.*.*.'.).G q q * * * * * * * s - = * * * ",
". . . . . q q q q q R !.q N z ~.{.*.*.*.*.].^./.(.(./.^.].*.*.*.*._.:.q K q * * * * * * * j * * * * ",
". . . . . q q q q q q P >.N I <.*.*.*.[.*.*.}.|.1.2.3.4.*.*.[.*.*.*.*.5.q q q * * * * * * * * * * * ",
". . . . . q q q J I I z y 6.{.*.*.7.*.8.9.0.a.b.c.d.e.f.0.9.g.h.i.*.*.*.*.q q q * * * * * * * * * * ",
". . . . . q q q q N N R j.k.*.*.*.*.l.Z m.n.o.p.*.*.q.q.r.s.t.Z *.].*.*.u.v.q q q * * * * * * * * * ",
". . . . . q q q q q q $.&.*.*.w.*._.Z *.x.*.*.*.*.*.*.*.*.*.y.z.A.*.i.*.*.B.N N q q * * * * * * * # ",
". . . . . q q q q q q %.C.*.*.h.D.E.F.*.*.y.y.G.H.I.J.K.y.*.*.p.L.M.h.*.*.N.O.G q q q * * * * P.# # ",
". . . . . q q q q q q &.*.*.[.g.0.Q.*.*.R.S.T.U.U.U.U.V.W.G.*.*.q.0.g.[.*.*.*.X.q q q q * Y.Z.# # @ ",
". . . . . q q q q q V `.*.*.*.9.e.p.*.V.T. +y..+U.U.T.++*.*.y.*.q.@+#+*.*.*.*.*.I N q K $+} # # # # ",
". . . . . q q q q q W %+*.].*.0.q.*.&+U.*+=+y.T.U.-+*.*.;+>+,+'+*.p.)+*.].*.!++.S z z r q . ~+$ % # ",
". . . . . q q q q q X {+*.^.4.f.q.*.]+U.S.S.-+^+/+Z .+(+_+,+,+:+*.y.f.4.^.*.*.<+S O R O q . . # # # ",
". . . . . q q q q q Y [+*./.3.e.q.*.}+U.U.U.U.|+1+2+3+4+5+U.U. +*.6+e.3.7+*.8+9+G q q q q . . . 0+# ",
". . . . . q q q q q a+b+*.(.2.d.*.*.c+U.U.U.U.d+e+. f+g+_+U.U.c+*.*.d.2.(.*.b+h+N q q q q . . . i+$ ",
". . . . . q q q q q a+[+*.(.2.d.*.*.}+U.U.U.U.j+. . k+,+S.U.U.}+*.*.d.2.(.*.[+a+J q q q q . . . . . ",
". . . . . q q q q q Y {+*./.3.e.q.*.]+g+g+,+}+f+. . f+++l+U.U.]+*.q.e.3./.*.{+Y r O q q q . . . . . ",
". . . . . q q q q q X %+*.^.4.f.q.*.m+;+y.V.S.3+. . 3+n+*.V.V.'+*.q.f.4.^.*.%+o+G N q q q . . . . . ",
". . . . . q q q q q W `.*.].*.0.q.*.*.*.p+V.,+q+/+/+q+U.U.y.*.*.*.p.r+*.].*.s+t+u+S q q q . . . . . ",
". . . . . q q q q q V v+*.*.*.9.e.q.*.*.w+-+S.T.x+U.U.U.U.w+*.*.*.@+y+*.*.*.z+A+R O q q q . . . . . ",
". . . . . q q q q q q &.C.*.[.g.0.q.*.*.*.*.W.B+C+I.J.K.R.*.*.*.D+E+g.[.*.{.Z J q q q q q . . . . . ",
". . . . . q q q q q q F+G+*.*.h.H+I+q.*.*.*.*.*.*.*.*.*.*.*.*.y.z.J+*.*.*.K+L+q q q q q q . . . . . ",
". . . . . q q q q q r M+N+O+*.P+*.3.I+q.q.*.*.*.*.*.*.*.*.p.Q+R+Z *.*.*.*.*.y z I N q q q . . . . . ",
". . . . . q q q q S+R N T+U+*.*.V+*.H+0.e.q.q.q.*.*.W+D+q.@+X+*.*.*.*.Y+Z+`+ @R N N q q q . . . . . ",
". . . . . q q q q N G I y .@+@L+*.Z *.@@#@r+$@e.d.c.%@&@*@=@*.*.U+*.*.U+-@r I q q q q q q . . . . . ",
". . . . . q q q +.H r N r y +.;@*.*.*.Z *.*.>@3.2.Z 2+,@*.*.k.*.*.K+/.+.*.+.'@z q q q q q . . . . . ",
". . . . . q q q S y +.u++.y O )@*.!@*.*.*./.^./.(.Y+Y+~@{@*.*.*.!@]@W q >.+.G N q q q q q . . . . . ",
". . . . . q q q y X.N ^@P r O I /@(@_@:@*.*.*.*.*.*.*.*.*.*.Z <@[@}@q q q R N N q q q q q . . . . . ",
". . . . . q q z y N q z S G >.N z >.O.&.7+*.*.7.{.{.(.U+k.|@&.-.I G G q q q q q q q q q q . . . . . ",
". . . . . q q O q 1@2@>.z G G G N N z +.T+:.o+3@4@4@9+5@~.I r z >.N N q q q q q q q q q q . . . . . ",
". . . . . q q q q 6@I N q q N G J N R *.S q q z >.H J r r r O O R N q q q q q q q q q q q . . . . . ",
". . . . . q q q I I q q q q N N q q q J *.N q O O G q O O q q q q q q q q q q q q q q q q . . . . . ",
". . . . . q q q q q q q q q q q q q q q X.G q q q q q q q q q q q q q q q q q q q q q q q . . . . . ",
". . . . . q q q q q q q q q q q q q q q q q q q q q q q q q q q q q q q q q q q q q q q q . . . . . ",
". . . . . q q q q q q q q q q q q q q q q q q q q q q q q q q q q q q q q q q q q q q q q . . . . . ",
". . . . . . . . . . . . . . . . . . . . . . . . . . . . . . . . . . . . . . . . . . . . . . . . . . ",
". . . . . . . . . . . . . . . . . . . . . . . . . . . . . . . . . . . . . . . . . . . . . . . . . . ",
". . . . . . . . . . . . . . . . . . . . . . . . . . . . . . . . . . . . . . . . . . . . . . . . . . ",
". . . . . . . . . . . . . . . . . . . . . . . . . . . . . . . . . . . . . . . . . . . . . . . . . . ",
". . . . . . . . . . . . . . . . . . . . . . . . . . . . . . . . . . . . . . . . . . . . . . . . . . "};
