/* XPM */
static char * 41_xpm[] = {
"50 50 174 2",
"  	c None",
". 	c #000000",
"+ 	c #040505",
"@ 	c #050706",
"# 	c #010101",
"$ 	c #020303",
"% 	c #010201",
"& 	c #060336",
"* 	c #4E4E54",
"= 	c #505050",
"- 	c #4F4F51",
"; 	c #505051",
"> 	c #51514D",
", 	c #767676",
"' 	c #4A5B56",
") 	c #455853",
"! 	c #475B56",
"~ 	c #455752",
"{ 	c #3D4F4A",
"] 	c #3E4F4B",
"^ 	c #445752",
"/ 	c #435752",
"( 	c #53615D",
"_ 	c #2D2F2F",
": 	c #020202",
"< 	c #4D4D55",
"[ 	c #757575",
"} 	c #34433F",
"| 	c #26312E",
"1 	c #1D1E1D",
"2 	c #1F211F",
"3 	c #26322F",
"4 	c #3E504B",
"5 	c #475350",
"6 	c #4E4D65",
"7 	c #747474",
"8 	c #34423E",
"9 	c #1C1716",
"0 	c #270404",
"a 	c #290202",
"b 	c #290303",
"c 	c #230304",
"d 	c #060C0C",
"e 	c #374642",
"f 	c #555555",
"g 	c #3F514C",
"h 	c #262A28",
"i 	c #280707",
"j 	c #440303",
"k 	c #470202",
"l 	c #460202",
"m 	c #4B0303",
"n 	c #29312E",
"o 	c #41534E",
"p 	c #747374",
"q 	c #53605C",
"r 	c #3B4B46",
"s 	c #1C1918",
"t 	c #2F0202",
"u 	c #480202",
"v 	c #4C0303",
"w 	c #270000",
"x 	c #1B10FF",
"y 	c #1C11FC",
"z 	c #757578",
"A 	c #4F5E5A",
"B 	c #3A4A46",
"C 	c #1B1816",
"D 	c #300201",
"E 	c #490202",
"F 	c #290000",
"G 	c #1C11FD",
"H 	c #2712F2",
"I 	c #6B6A87",
"J 	c #73727B",
"K 	c #3F504C",
"L 	c #252826",
"M 	c #2A0606",
"N 	c #450303",
"O 	c #270808",
"P 	c #292F2D",
"Q 	c #2016EE",
"R 	c #2D26C4",
"S 	c #3B3795",
"T 	c #48466B",
"U 	c #4E4E55",
"V 	c #2C25C7",
"W 	c #1F15F1",
"X 	c #5855A3",
"Y 	c #313E3B",
"Z 	c #1B1212",
"` 	c #1B10FE",
" .	c #271FD6",
"..	c #47456D",
"+.	c #2319E6",
"@.	c #3C4D49",
"#.	c #2318E7",
"$.	c #3F3B88",
"%.	c #44544F",
"&.	c #4C4B5E",
"*.	c #3C3892",
"=.	c #261ED9",
"-.	c #727272",
";.	c #312BB6",
">.	c #4F4242",
",.	c #4E2A2A",
"'.	c #4C1414",
").	c #4B0606",
"!.	c #3E3A8B",
"~.	c #261DDB",
"{.	c #2912F1",
"].	c #4F3B3B",
"^.	c #4B0707",
"/.	c #3D3990",
"(.	c #2921D2",
"_.	c #2519E4",
":.	c #504E4E",
"<.	c #4D2020",
"[.	c #4C030E",
"}.	c #4F0436",
"|.	c #520561",
"1.	c #55067C",
"2.	c #413D84",
"3.	c #251CDE",
"4.	c #4717D0",
"5.	c #48446E",
"6.	c #4B0307",
"7.	c #51054A",
"8.	c #550682",
"9.	c #3A3599",
"0.	c #3A22C2",
"a.	c #54067B",
"b.	c #303030",
"c.	c #3E3A8C",
"d.	c #1E14F4",
"e.	c #767677",
"f.	c #2211F7",
"g.	c #3C3891",
"h.	c #524E53",
"i.	c #1D13F7",
"j.	c #757478",
"k.	c #2B23CC",
"l.	c #3A3697",
"m.	c #747475",
"n.	c #727273",
"o.	c #2111F9",
"p.	c #1C11FF",
"q.	c #1E14FA",
"r.	c #4E4E52",
"s.	c #E0151F",
"t.	c #4F4F4F",
"u.	c #4F4E59",
"v.	c #000001",
"w.	c #EAFF35",
"x.	c #13131A",
"y.	c #4E4E50",
"z.	c #020203",
"A.	c #0C0C0D",
"B.	c #0E0E0F",
"C.	c #2921D1",
"D.	c #090909",
"E.	c #131313",
"F.	c #1D10FC",
"G.	c #121212",
"H.	c #2712F3",
"I.	c #050505",
"J.	c #0A0A0A",
"K.	c #070707",
"L.	c #332BB5",
"M.	c #111111",
"N.	c #3226C1",
"O.	c #2C1ADE",
"P.	c #1E13F6",
"Q.	c #121213",
". . + @ . # $ . % . . . . . . . . . . . . . . . & * = = - ; = > = , , , , , , , ' ) ! ~ { ] ^ / ( _ ",
". . # : . . . . . . . . . . . . . . . . . . . . . . < = = = = = , , , , , [ , ' ) ) } | 1 2 3 4 ) 5 ",
". . . . . . . . . . . . . . . . . . . . . . . . . . . 6 = = = 7 , , , , , 7 ' ) ) 8 9 0 a b c d e ^ ",
". . . . . . . . . . . . . . . . . . . . . . . . . . . . - f [ , , , , , , ' ) ) g h i j k l m c n o ",
". . . . . . . . . . . . . . . . . . . . . . . . . . . . . p [ , , , , , q ) ) ^ r s t u m m v w 2 ] ",
". . . . . x x x x x x x x x x x x x x y x x x x x x x x x x z , , , , , , A ) ^ B C D E m m k F 1 { ",
". . . . . x x x x x x x x x x x x G x x x x x H x x x x x x x I J , , , , , A ^ K L M N E u j O P o ",
". . . . . x x x x x x x x x x x x x x x x Q R S T U U T S V W x X , , , , , , A ^ Y Z M D t i 9 } ^ ",
". . . . . x x x x x x x x x x x x x `  ...= = = = = = = = = = ..+., , , , , , , A ^ Y L C s h 8 ) @.",
". . . . . x x x x x x x x x x x x #...= = = = = = = = = = = = = $.W , , , , , , , A ^ K B r g ) ) %.",
". . . . . x x x x x x x x x x x R = = = = = = = = = = = = = = = &.*.=., , , , , , , A ^ ^ ^ ) ) ' -.",
". . . . . x x x x x x x x x x ;.= = = = = = >.,.'.).).'.,.>.= = = = !.~., , , , , , , A ) ) ) ' , , ",
". . . . . x x x x x x x x {.R = = = = = ].^.m m m m m m m m ^.].= = = /.(., , , , , , , A ) ' , , , ",
". . . . . x x x x x x x x _.= = = = :.<.m m [.}.|.1.1.|.}.[.m m <.:.= = 2.3., , , , , , , q , , , , ",
". . . . . x x x x x x x 4.5.= = = :.'.m 6.7.8.8.8.8.8.8.8.8.7.6.m '.:.= = 9.3., , , , , , , , , , , ",
". . . . . x x x x x x x 0.= = = = <.m [.a.8.8.8.b.b.b.b.8.8.8.a.[.m <.= = = c.d.e., , , , , , , , , ",
". . . . . x x x x x x f...= = = ].m 6.a.8.8.8.8.b.b.b.b.8.8.8.8.a.6.m ].= = = g.x , , , , , , , , , ",
". . . . . x x x x x x Q = = = = ^.m 7.8.8.8.8.8.b.b.b.b.8.8.8.8.8.7.m ^.= = = h.i.x j., , , , , , = ",
". . . . . x ` x x x x R = = = >.m [.8.8.8.8.8.8.b.b.b.b.8.8.8.8.8.8.[.m >.= = = k.x x , , , , -.= = ",
". . . . . x x x x x x S = = = ,.m }.8.b.b.b.b.b.b.b.b.b.b.b.b.b.b.8.}.m ,.= = = l.x x x , m.n.= = * ",
". . . . . x x x x x x T = = = '.m |.8.b.b.b.b.b.b.b.b.b.b.b.b.b.b.8.|.m '.= = = T o.x p.q.7 = = = = ",
". . . . . x x x x x x U = = = ).m 1.8.b.b.b.b.b.b.b.b.b.b.b.b.b.b.8.1.m ).= = = U x x x x . r.- ; = ",
". . . . . x x x x s.s.s.s.s.s.s.s.s.s.s.s.s.s.s.s.s.s.s.s.s.s.s.s.s.s.s.s.s.s.s.s.s.x x x . . = = t.",
". . . . . x x x x s.s.s.s.s.s.s.s.s.s.s.s.s.s.s.s.s.s.s.s.s.s.s.s.s.s.s.s.s.s.s.s.s.x x x . . . u.t.",
". . . . v.x x x x s.w.w.w.w.w.w.w.w.w.w.w.w.w.w.w.w.w.w.w.w.w.w.w.w.w.w.w.w.w.w.w.s.x x x . . . x.y.",
". . . . v.x x x x s.w.w.w.w.w.w.w.w.w.w.w.w.w.w.w.w.w.w.w.w.w.w.w.w.w.w.w.w.w.w.w.s.x x x . . . . . ",
". . . . v.x x x x s.s.s.s.s.s.s.s.s.s.s.s.s.s.s.s.s.s.s.s.s.s.s.s.s.s.s.s.s.s.s.s.s.x x x . . . . . ",
". . . . . x x x x s.s.s.s.s.s.s.s.s.s.s.s.s.s.s.s.s.s.s.s.s.s.s.s.s.s.s.s.s.s.s.s.s.x x x . . . . . ",
". . . . . x x x x x x U = = = ).m 1.8.b.b.b.b.b.b.b.b.b.b.b.b.b.b.8.1.m ).= = = U x x x x . . . . . ",
". . . . . x x x x x x T = = = '.m |.8.b.b.b.b.b.b.b.b.b.b.b.b.b.b.8.|.m '.= = = T x x x x . . . . . ",
". . . . . ` x x x x x S = = = ,.m }.8.b.b.b.b.b.b.b.b.b.b.b.b.b.b.8.}.m ,.= = = S x x x x . . . . . ",
". . . . . x x x x x x R = = = >.m [.8.8.8.8.8.8.b.b.b.b.8.8.8.8.8.8.[.m >.= = = R x x x x . . . . . ",
". z.. . . x x x x x x Q = = = = ^.m 7.8.8.8.8.8.b.b.b.b.8.8.8.8.8.7.m ^.= = = = Q x x x x . . . . . ",
". A.. . . x x x x x x x ..= = = ].m 6.a.8.8.8.8.b.b.b.b.8.8.8.8.a.6.m ].= = = ..x x x x x . . . . . ",
". B.. . . x x x x x x x C.= = = = <.m [.a.8.8.8.b.b.b.b.8.8.8.a.[.m <.= = = = C.x x x x x . . . . . ",
"D.E.. . . x x x x x x F.` ..= = = :.'.m 6.7.8.8.8.8.8.8.8.8.7.6.m '.:.= = = ..` x x x x x . . . . . ",
". G.. . . x x x x x x x H.+.= = = = :.<.m m [.}.|.1.1.|.}.[.m m <.:.= = = = +.x x x x x x . . . . . ",
"I.J.. . . x x x x x x x x x R = = = = = ].^.m m m m m m m m ^.].= = = = = R x x x x x x x . . . . . ",
". : . . K.` x x x x x x x x x L.= = = = = = >.,.'.).).'.,.>.= = = = = = ;.x x x x x x x x . . . . . ",
". . . . M.x x x x x x x x x x x N.= = = = = = = = = = = = = = = = = = R x x x x x x x x x . . . . . ",
". . . . # x x x x x x x x x x x x O...= = = = = = = = = = = = = = ..+.x x x x x x x x x x . . . . . ",
". . . . . x x x x x x x x x x x x x ` C...= = = = = = = = = = ..C.` x x x x x x x x x x x . . . . . ",
". . . . . x x x x x x x x x x x x x x x x Q R S T U U T S R Q x x x x x x x x x x x x x x . . . . . ",
". . . . . x x x x x x x x x x x x x x x x x x x x x x x x x x x x x x x x x x x x x x x x . . . . . ",
". . . . . x x x x x x x x x x x x x x P.x x x x x x x x x x x x x x x x x x x x x x x x x . . . . . ",
". . . . . . . . . . . . . . . . . . . . Q.. . . . . . . . . . . . . . . . . . . . . . . . . . . . . ",
". . . . . . . . . . . . . . . . . . . . # . . . . . . . . . . . . . . . . . . . . . . . . . . . . . ",
". . . . . . . . . . . . . . . . . . . . . . . . . . . . . . . . . . . . . . . . . . . . . . . . . . ",
". . . . . . . . . . . . . . . . . . . . . . . . . . . . . . . . . . . . . . . . . . . . . . . . . . ",
"# # # . . . . . . . . . . . . . . . . . . . . . . . . . . . . . . . . . . . . . . . . . . . . . . . "};
