/* XPM */
static char * 44_xpm[] = {
"50 50 18 1",
" 	c None",
".	c #000000",
"+	c #4E4E54",
"@	c #6F6F70",
"#	c #767676",
"$	c #3E4F4B",
"%	c #374642",
"&	c #1B10FF",
"*	c #170EDC",
"=	c #0F098B",
"-	c #06043C",
";	c #01010C",
">	c #120BAB",
",	c #4D4D54",
"'	c #646467",
")	c #4D4D55",
"!	c #636367",
"~	c #1B10FE",
".........................+++++++++@#####$$$$$$$$$$",
"..........................+++++++++@####$%%%%%%%%%",
"...........................+++++++++@#############",
"............................+++++++++@############",
".............................+++++++++@###########",
".....&&&&&&&&&&&&&&&&&&&&&&&&&+++++++++@##########",
".....&&&&&&&&&&&&&&&&&&&&&&&&&&+++++++++@#########",
".....&&&&&&&&&&&&&&&&&&&&&&&&&&&+++++++++@########",
".....&&&&&&&&&&&&&&&&&&&&&&&&&&&&+++++++++@#######",
".....&&&&&&&&&&&&&&&&&&&&&&&&&&&&&+++++++++@######",
".....&&&&&&&&&&&&&&&&&&&&&&&&&&&&&&+++++++++@#####",
".....&&&&&&&&&&&&&&&&&&&&&&&&&&&&&&&+++++++++@####",
".....&&&&&&&&&&&&&&&&&&&&&&&&&&&&&&&&+++++++++@###",
".....&&&&&&&&&&&&&&&&&&&&&&&&&&&&&&&&&+++++++++@##",
".....&&&&&&&&&&&&&&&&&&&&&&&&&&&&&&&&&&+++++++++@#",
".....&&&&&&&&&&&&&&&&*=-;;-=*&&&&&&&&&&&+++++++++@",
".....&&&&&&&&&&&&&&*-........-*&&&&&&&&&&+++++++++",
".....&&&&&&&&&&&&&>............>&&&&&&&&&&++++++++",
".....&&&&&&&&&&&&>..............>&&&&&&&&&&+++++++",
".....&&&&&&&&&&&*................*&&&&&&&&&&++++++",
".....&&&&&&&&&&&-................-&&&&&&&&&&&+++++",
".....&&&&&&&&&&*..................*&&&&&&&&&&&++++",
".....&&&&&&&&&&=..................=&&&&&&&&&&&&+++",
".....&&&&&&&&&&-..................-&&&&&&&&&&&&&++",
".....&&&&&&&&&&;..................;&&&&&&&&&&&&&&+",
".....&&&&&&&&&&;..................;&&&&&&&&&&&&&&+",
".....&&&&&&&&&&-..................-&&&&&&&&&&&&&++",
".....&&&&&&&&&&=..................=&&&&&&&&&&&&+++",
".....&&&&&&&&&&*..................*&&&&&&&&&&&++++",
".....&&&&&&&&&&&-................-&&&&&&&&&&&+++++",
".....&&&&&&&&&&&*................*&&&&&&&&&&++++++",
".....&&&&&&&&&&&&>..............>&&&&&&&&&&+++++++",
".....&&&&&&&&&&&&&>............>&&&&&&&&&&++++++++",
".....&&&&&&&&&&&&&&*-........-*&&&&&&&&&&,++++++++",
".....&&&&&&&&&&&&&&&&*=-;;-=*&&&&&&&&&&&,++++++++'",
".....&&&&&&&&&&&&&&&&&&&&&&&&&&&&&&&&&&,++++++++'#",
".....&&&&&&&&&&&&&&&&&&&&&&&&&&&&&&&&&)+++++)++'##",
".....&&&&&&&&&&&&&&&&&&&&&&&&&&&&&&&&)++++++++'###",
".....&&&&&&&&&&&&&&&&&&&&&&&&&&&&&&&+++++++++'####",
".....&&&&&&&&&&&&&&&&&&&&&&&&&&&&&&+++++++++!#####",
".....&&&&&&&&&&&&&&&&&&&&&&&&&&&&&+++++++++'######",
".....&&&&&&&&&&&&&&&&&&&&&&&&&&&&+++++++++'#######",
".....&&&&&&&&&&&&&&&&&&&&&&&&&&&+++++++++'########",
".....&&&&&&&&&&&&&&&&&&&&&&&&&&+++++++++'#########",
".....&&&&&&&&&&&&&&&&&&&&&&&&~+++++++++'##########",
".............................+++++++++'###########",
"............................+++++++++'############",
"...........................+++++++++'#############",
"..........................+++++++++'####%%%%%%%%%$",
".........................+++++++++'#####$$$$$$$$$$"};
