/* XPM */
static char * 45_xpm[] = {
"50 50 18 1",
" 	c None",
".	c #3E4F4B",
"+	c #767676",
"@	c #646467",
"#	c #4E4E54",
"$	c #000000",
"%	c #374642",
"&	c #1B10FE",
"*	c #1B10FF",
"=	c #636367",
"-	c #4D4D55",
";	c #4D4D54",
">	c #170EDC",
",	c #0F098B",
"'	c #06043C",
")	c #01010C",
"!	c #120BAB",
"~	c #6F6F70",
"..........+++++@#########$$$$$$$$$$$$$$$$$$$$$$$$$",
".%%%%%%%%%++++@#########$$$$$$$$$$$$$$$$$$$$$$$$$$",
"+++++++++++++@#########$$$$$$$$$$$$$$$$$$$$$$$$$$$",
"++++++++++++@#########$$$$$$$$$$$$$$$$$$$$$$$$$$$$",
"+++++++++++@#########$$$$$$$$$$$$$$$$$$$$$$$$$$$$$",
"++++++++++@#########&************************$$$$$",
"+++++++++@#########**************************$$$$$",
"++++++++@#########***************************$$$$$",
"+++++++@#########****************************$$$$$",
"++++++@#########*****************************$$$$$",
"+++++=#########******************************$$$$$",
"++++@#########*******************************$$$$$",
"+++@########-********************************$$$$$",
"++@##-#####-*********************************$$$$$",
"+@########;**********************************$$$$$",
"@########;***********>,'))',>****************$$$$$",
"########;**********>'$$$$$$$$'>**************$$$$$",
"########**********!$$$$$$$$$$$$!*************$$$$$",
"#######**********!$$$$$$$$$$$$$$!************$$$$$",
"######**********>$$$$$$$$$$$$$$$$>***********$$$$$",
"#####***********'$$$$$$$$$$$$$$$$'***********$$$$$",
"####***********>$$$$$$$$$$$$$$$$$$>**********$$$$$",
"###************,$$$$$$$$$$$$$$$$$$,**********$$$$$",
"##*************'$$$$$$$$$$$$$$$$$$'**********$$$$$",
"#**************)$$$$$$$$$$$$$$$$$$)**********$$$$$",
"#**************)$$$$$$$$$$$$$$$$$$)**********$$$$$",
"##*************'$$$$$$$$$$$$$$$$$$'**********$$$$$",
"###************,$$$$$$$$$$$$$$$$$$,**********$$$$$",
"####***********>$$$$$$$$$$$$$$$$$$>**********$$$$$",
"#####***********'$$$$$$$$$$$$$$$$'***********$$$$$",
"######**********>$$$$$$$$$$$$$$$$>***********$$$$$",
"#######**********!$$$$$$$$$$$$$$!************$$$$$",
"########**********!$$$$$$$$$$$$!*************$$$$$",
"#########**********>'$$$$$$$$'>**************$$$$$",
"~#########***********>,'))',>****************$$$$$",
"+~#########**********************************$$$$$",
"++~#########*********************************$$$$$",
"+++~#########********************************$$$$$",
"++++~#########*******************************$$$$$",
"+++++~#########******************************$$$$$",
"++++++~#########*****************************$$$$$",
"+++++++~#########****************************$$$$$",
"++++++++~#########***************************$$$$$",
"+++++++++~#########**************************$$$$$",
"++++++++++~#########*************************$$$$$",
"+++++++++++~#########$$$$$$$$$$$$$$$$$$$$$$$$$$$$$",
"++++++++++++~#########$$$$$$$$$$$$$$$$$$$$$$$$$$$$",
"+++++++++++++~#########$$$$$$$$$$$$$$$$$$$$$$$$$$$",
"%%%%%%%%%.++++~#########$$$$$$$$$$$$$$$$$$$$$$$$$$",
"..........+++++~#########$$$$$$$$$$$$$$$$$$$$$$$$$"};
