/* XPM */
static char * 46_xpm[] = {
"50 50 82 1",
" 	c None",
".	c #000000",
"+	c #1B10FF",
"@	c #170EDC",
"#	c #0F098B",
"$	c #06043C",
"%	c #01010C",
"&	c #120BAB",
"*	c #060336",
"=	c #4E4E54",
"-	c #4D4D55",
";	c #505050",
">	c #4E4D65",
",	c #4F4F51",
"'	c #747374",
")	c #555555",
"!	c #505051",
"~	c #767676",
"{	c #757575",
"]	c #747474",
"^	c #51514D",
"/	c #53605C",
"(	c #4F5E5A",
"_	c #455853",
":	c #4A5B56",
"<	c #445752",
"[	c #3F504C",
"}	c #3A4A46",
"|	c #3B4B46",
"1	c #3F514C",
"2	c #313E3B",
"3	c #252826",
"4	c #1B1816",
"5	c #1C1918",
"6	c #262A28",
"7	c #34423E",
"8	c #1B1212",
"9	c #2A0606",
"0	c #300201",
"a	c #2F0202",
"b	c #280707",
"c	c #1C1716",
"d	c #34433F",
"e	c #475B56",
"f	c #450303",
"g	c #490202",
"h	c #480202",
"i	c #440303",
"j	c #270404",
"k	c #26312E",
"l	c #455752",
"m	c #4B0303",
"n	c #470202",
"o	c #290202",
"p	c #1D1E1D",
"q	c #3D4F4A",
"r	c #747475",
"s	c #460202",
"t	c #290303",
"u	c #1F211F",
"v	c #3E4F4B",
"w	c #4E4E52",
"x	c #727273",
"y	c #4C0303",
"z	c #230304",
"A	c #26322F",
"B	c #727272",
"C	c #270808",
"D	c #290000",
"E	c #270000",
"F	c #060C0C",
"G	c #3E504B",
"H	c #445853",
"I	c #13131A",
"J	c #4F4E59",
"K	c #292F2D",
"L	c #29312E",
"M	c #374642",
"N	c #53615D",
"O	c #06033B",
"P	c #41534E",
"Q	c #6C706F",
"..................................................",
"..................................................",
"..................................................",
"..................................................",
"..................................................",
".....++++++++++++++++++++++++++++++++++++++++.....",
".....++++++++++++++++++++++++++++++++++++++++.....",
".....++++++++++++++++++++++++++++++++++++++++.....",
".....++++++++++++++++++++++++++++++++++++++++.....",
".....++++++++++++++++++++++++++++++++++++++++.....",
".....++++++++++++++++++++++++++++++++++++++++.....",
".....++++++++++++++++++++++++++++++++++++++++.....",
".....++++++++++++++++++++++++++++++++++++++++.....",
".....++++++++++++++++++++++++++++++++++++++++.....",
".....++++++++++++++++++++++++++++++++++++++++.....",
".....++++++++++++++++@#$%%$#@++++++++++++++++.....",
".....++++++++++++++@$........$@++++++++++++++.....",
".....+++++++++++++&............&+++++++++++++.....",
".....++++++++++++&..............&++++++++++++.....",
".....+++++++++++@................@+++++++++++.....",
".....+++++++++++$................$+++++++++++.....",
".....++++++++++@..................@++++++++++.....",
".....++++++++++#..................#++++++++++.....",
".....++++++++++$..................$++++++++++.....",
".....++++++++++%..................%++++++++++....*",
".....++++++++++%..................%++++++++++....=",
".....++++++++++$..................$++++++++++...-;",
".....++++++++++#..................#++++++++++..>;;",
".....++++++++++@..................@++++++++++.,;;,",
".....+++++++++++$................$+++++++++++');;!",
".....+++++++++++@................@++++++++++~{{;;;",
".....++++++++++++&..............&++++++++++~~~~];^",
".....+++++++++++++&............&++++++++++~~~~~~~;",
".....++++++++++++++@$........$@++++++++++~~~~~~~~~",
".....++++++++++++++++@#$%%$#@+++++++++++~~~~~~~~~~",
".....++++++++++++++++++++++++++++++++++~~~~~~~~~~~",
".....+++++++++++++++++++++++++++++++++~~~~~~~/~~~~",
".....++++++++++++++++++++++++++++++++~~~~~~~(_:~~~",
".....+++++++++++++++++++++++++++++++~~~~~~~(___:~~",
".....++++++++++++++++++++++++++++++~~~~~~~(<<<__:~",
".....+++++++++++++++++++++++++++++~~~~~~~(<[}|1__:",
".....++++++++++++++++++++++++++++~~~~~~~(<234567__",
".....+++++++++++++++++++++++++++~~~~~~~(<2890abcde",
".....++++++++++++++++++++++++++~~~~~~~(<[39fghijkl",
".....+++++++++++++++++++++++++~~~~~~~(_<}40gmmnopq",
".............................]r~~~~~/__<|5ahmmstuv",
"............................w;x~~~~~~:__16binymzA<",
"...........................;,;;B~~~~~~:__7cCDEzFGH",
".........................IJ;!;;;~~~~~~~:__dKpuLM_N",
"........................O,;;;;=;;~~~~~~~:__PqvP_NQ"};
