/* XPM */
static char * 47_xpm[] = {
"50 50 82 1",
" 	c None",
".	c #6C706F",
"+	c #53615D",
"@	c #455853",
"#	c #41534E",
"$	c #3E4F4B",
"%	c #3D4F4A",
"&	c #4A5B56",
"*	c #767676",
"=	c #505050",
"-	c #4E4E54",
";	c #4F4F51",
">	c #06033B",
",	c #000000",
"'	c #374642",
")	c #29312E",
"!	c #1F211F",
"~	c #1D1E1D",
"{	c #292F2D",
"]	c #34433F",
"^	c #505051",
"/	c #4F4E59",
"(	c #13131A",
"_	c #445853",
":	c #3E504B",
"<	c #060C0C",
"[	c #230304",
"}	c #270000",
"|	c #290000",
"1	c #270808",
"2	c #1C1716",
"3	c #34423E",
"4	c #727272",
"5	c #445752",
"6	c #26322F",
"7	c #4B0303",
"8	c #4C0303",
"9	c #470202",
"0	c #440303",
"a	c #280707",
"b	c #262A28",
"c	c #3F514C",
"d	c #727273",
"e	c #4E4E52",
"f	c #290303",
"g	c #460202",
"h	c #480202",
"i	c #2F0202",
"j	c #1C1918",
"k	c #3B4B46",
"l	c #53605C",
"m	c #747475",
"n	c #747474",
"o	c #290202",
"p	c #490202",
"q	c #300201",
"r	c #1B1816",
"s	c #3A4A46",
"t	c #4F5E5A",
"u	c #1B10FF",
"v	c #455752",
"w	c #26312E",
"x	c #270404",
"y	c #450303",
"z	c #2A0606",
"A	c #252826",
"B	c #3F504C",
"C	c #475B56",
"D	c #1B1212",
"E	c #313E3B",
"F	c #170EDC",
"G	c #0F098B",
"H	c #06043C",
"I	c #01010C",
"J	c #120BAB",
"K	c #51514D",
"L	c #757575",
"M	c #555555",
"N	c #747374",
"O	c #4E4D65",
"P	c #4D4D55",
"Q	c #060336",
".+@#$%#@@&*******==-====;>,,,,,,,,,,,,,,,,,,,,,,,,",
"+@')!~{]@@&*******===^=/(,,,,,,,,,,,,,,,,,,,,,,,,,",
"_:<[}|123@@&******4==;=,,,,,,,,,,,,,,,,,,,,,,,,,,,",
"56[7890abc@@&******d=e,,,,,,,,,,,,,,,,,,,,,,,,,,,,",
"$!fg77hijk5@@l*****mn,,,,,,,,,,,,,,,,,,,,,,,,,,,,,",
"%~o977pqrs5@t*******uuuuuuuuuuuuuuuuuuuuuuuuu,,,,,",
"vwx0hpyzAB5t*******uuuuuuuuuuuuuuuuuuuuuuuuuu,,,,,",
"C]2aiqzDE5t*******uuuuuuuuuuuuuuuuuuuuuuuuuuu,,,,,",
"@@3bjrAE5t*******uuuuuuuuuuuuuuuuuuuuuuuuuuuu,,,,,",
"&@@cksB5t*******uuuuuuuuuuuuuuuuuuuuuuuuuuuuu,,,,,",
"*&@@555t*******uuuuuuuuuuuuuuuuuuuuuuuuuuuuuu,,,,,",
"**&@@@t*******uuuuuuuuuuuuuuuuuuuuuuuuuuuuuuu,,,,,",
"***&@t*******uuuuuuuuuuuuuuuuuuuuuuuuuuuuuuuu,,,,,",
"****l*******uuuuuuuuuuuuuuuuuuuuuuuuuuuuuuuuu,,,,,",
"***********uuuuuuuuuuuuuuuuuuuuuuuuuuuuuuuuuu,,,,,",
"**********uuuuuuuuuuuFGHIIHGFuuuuuuuuuuuuuuuu,,,,,",
"*********uuuuuuuuuuFH,,,,,,,,HFuuuuuuuuuuuuuu,,,,,",
"=*******uuuuuuuuuuJ,,,,,,,,,,,,Juuuuuuuuuuuuu,,,,,",
"K=n****uuuuuuuuuuJ,,,,,,,,,,,,,,Juuuuuuuuuuuu,,,,,",
"===LL*uuuuuuuuuuF,,,,,,,,,,,,,,,,Fuuuuuuuuuuu,,,,,",
"^==MNuuuuuuuuuuuH,,,,,,,,,,,,,,,,Huuuuuuuuuuu,,,,,",
";==;,uuuuuuuuuuF,,,,,,,,,,,,,,,,,,Fuuuuuuuuuu,,,,,",
"==O,,uuuuuuuuuuG,,,,,,,,,,,,,,,,,,Guuuuuuuuuu,,,,,",
"=P,,,uuuuuuuuuuH,,,,,,,,,,,,,,,,,,Huuuuuuuuuu,,,,,",
"-,,,,uuuuuuuuuuI,,,,,,,,,,,,,,,,,,Iuuuuuuuuuu,,,,,",
"Q,,,,uuuuuuuuuuI,,,,,,,,,,,,,,,,,,Iuuuuuuuuuu,,,,,",
",,,,,uuuuuuuuuuH,,,,,,,,,,,,,,,,,,Huuuuuuuuuu,,,,,",
",,,,,uuuuuuuuuuG,,,,,,,,,,,,,,,,,,Guuuuuuuuuu,,,,,",
",,,,,uuuuuuuuuuF,,,,,,,,,,,,,,,,,,Fuuuuuuuuuu,,,,,",
",,,,,uuuuuuuuuuuH,,,,,,,,,,,,,,,,Huuuuuuuuuuu,,,,,",
",,,,,uuuuuuuuuuuF,,,,,,,,,,,,,,,,Fuuuuuuuuuuu,,,,,",
",,,,,uuuuuuuuuuuuJ,,,,,,,,,,,,,,Juuuuuuuuuuuu,,,,,",
",,,,,uuuuuuuuuuuuuJ,,,,,,,,,,,,Juuuuuuuuuuuuu,,,,,",
",,,,,uuuuuuuuuuuuuuFH,,,,,,,,HFuuuuuuuuuuuuuu,,,,,",
",,,,,uuuuuuuuuuuuuuuuFGHIIHGFuuuuuuuuuuuuuuuu,,,,,",
",,,,,uuuuuuuuuuuuuuuuuuuuuuuuuuuuuuuuuuuuuuuu,,,,,",
",,,,,uuuuuuuuuuuuuuuuuuuuuuuuuuuuuuuuuuuuuuuu,,,,,",
",,,,,uuuuuuuuuuuuuuuuuuuuuuuuuuuuuuuuuuuuuuuu,,,,,",
",,,,,uuuuuuuuuuuuuuuuuuuuuuuuuuuuuuuuuuuuuuuu,,,,,",
",,,,,uuuuuuuuuuuuuuuuuuuuuuuuuuuuuuuuuuuuuuuu,,,,,",
",,,,,uuuuuuuuuuuuuuuuuuuuuuuuuuuuuuuuuuuuuuuu,,,,,",
",,,,,uuuuuuuuuuuuuuuuuuuuuuuuuuuuuuuuuuuuuuuu,,,,,",
",,,,,uuuuuuuuuuuuuuuuuuuuuuuuuuuuuuuuuuuuuuuu,,,,,",
",,,,,uuuuuuuuuuuuuuuuuuuuuuuuuuuuuuuuuuuuuuuu,,,,,",
",,,,,uuuuuuuuuuuuuuuuuuuuuuuuuuuuuuuuuuuuuuuu,,,,,",
",,,,,,,,,,,,,,,,,,,,,,,,,,,,,,,,,,,,,,,,,,,,,,,,,,",
",,,,,,,,,,,,,,,,,,,,,,,,,,,,,,,,,,,,,,,,,,,,,,,,,,",
",,,,,,,,,,,,,,,,,,,,,,,,,,,,,,,,,,,,,,,,,,,,,,,,,,",
",,,,,,,,,,,,,,,,,,,,,,,,,,,,,,,,,,,,,,,,,,,,,,,,,,",
",,,,,,,,,,,,,,,,,,,,,,,,,,,,,,,,,,,,,,,,,,,,,,,,,,"};
