/* XPM */
static char * 48_xpm[] = {
"50 50 80 1",
" 	c #000000",
".	c #1B10FF",
"+	c #170EDC",
"@	c #0F098B",
"#	c #06043C",
"$	c #01010C",
"%	c #120BAB",
"&	c #4F4F51",
"*	c #13131A",
"=	c #505050",
"-	c #4F4E59",
";	c #505051",
">	c #4E4E52",
",	c #747474",
"'	c #4E4E54",
")	c #727273",
"!	c #747475",
"~	c #767676",
"{	c #727272",
"]	c #53605C",
"^	c #4A5B56",
"/	c #455853",
"(	c #4F5E5A",
"_	c #445752",
":	c #3F514C",
"<	c #3B4B46",
"[	c #3A4A46",
"}	c #3F504C",
"|	c #34423E",
"1	c #262A28",
"2	c #1C1918",
"3	c #1B1816",
"4	c #252826",
"5	c #313E3B",
"6	c #34433F",
"7	c #1C1716",
"8	c #280707",
"9	c #2F0202",
"0	c #300201",
"a	c #2A0606",
"b	c #1B1212",
"c	c #41534E",
"d	c #292F2D",
"e	c #270808",
"f	c #440303",
"g	c #480202",
"h	c #490202",
"i	c #450303",
"j	c #3D4F4A",
"k	c #1D1E1D",
"l	c #290000",
"m	c #470202",
"n	c #4B0303",
"o	c #3E4F4B",
"p	c #1F211F",
"q	c #270000",
"r	c #4C0303",
"s	c #757575",
"t	c #747374",
"u	c #29312E",
"v	c #230304",
"w	c #460202",
"x	c #555555",
"y	c #374642",
"z	c #060C0C",
"A	c #290303",
"B	c #290202",
"C	c #270404",
"D	c #4E4D65",
"E	c #53615D",
"F	c #3E504B",
"G	c #26322F",
"H	c #26312E",
"I	c #4D4D55",
"J	c #6C706F",
"K	c #445853",
"L	c #455752",
"M	c #475B56",
"N	c #51514D",
"O	c #060336",
"                                                  ",
"                                                  ",
"                                                  ",
"                                                  ",
"                                                  ",
"     ........................................     ",
"     ........................................     ",
"     ........................................     ",
"     ........................................     ",
"     ........................................     ",
"     ........................................     ",
"     ........................................     ",
"     ........................................     ",
"     ........................................     ",
"     ........................................     ",
"     ................+@#$$#@+................     ",
"     ..............+#        #+..............     ",
"     .............%            %.............     ",
"     ............%              %............     ",
"     ...........+                +...........     ",
"     ...........#                #...........     ",
"     ..........+                  +..........     ",
"     ..........@                  @..........     ",
"     ..........#                  #..........     ",
"     ..........$                  $..........     ",
"&*   ..........$                  $..........     ",
"=-   ..........#                  #..........     ",
"===  ..........@                  @..........     ",
"=;&> ..........+                  +..........     ",
"====,...........#                #...........     ",
"'==)!~..........+                +...........     ",
"=={~~~~..........%              %............     ",
"=~~~~~~~..........%            %.............     ",
"~~~~~~~~~..........+#        #+..............     ",
"~~~~~~~~~~...........+@#$$#@+................     ",
"~~~~~~~~~~~..................................     ",
"~~~~]~~~~~~~.................................     ",
"~~~^/(~~~~~~~................................     ",
"~~^///(~~~~~~~...............................     ",
"~^//___(~~~~~~~..............................     ",
"^//:<[}_(~~~~~~~.............................     ",
"//|12345_(~~~~~~~............................     ",
"/67890ab5_(~~~~~~~...........................     ",
"cdefghia4}_(~~~~~~~..........................     ",
"jklmnnh03[_/(~~~~~~~.........................     ",
"opqrnng92<_//]~~~~~st                             ",
"cuvnwmf81://^~~~~~~sx&                            ",
"/yzvABC7|//^~~~~~~,===D                           ",
"E/FGpkH6//^~~~~~~~=====I                          ",
"JEK_ojLM/^~~~~~~~=N=;&=='O                        "};
