/* XPM */
static char * 49_xpm[] = {
"50 50 81 1",
" 	c None",
".	c #000000",
"+	c #060336",
"@	c #4E4E54",
"#	c #505050",
"$	c #4F4F51",
"%	c #505051",
"&	c #51514D",
"*	c #767676",
"=	c #4A5B56",
"-	c #455853",
";	c #475B56",
">	c #455752",
",	c #3D4F4A",
"'	c #3E4F4B",
")	c #445752",
"!	c #445853",
"~	c #53615D",
"{	c #6C706F",
"]	c #4D4D55",
"^	c #34433F",
"/	c #26312E",
"(	c #1D1E1D",
"_	c #1F211F",
":	c #26322F",
"<	c #3E504B",
"[	c #4E4D65",
"}	c #747474",
"|	c #34423E",
"1	c #1C1716",
"2	c #270404",
"3	c #290202",
"4	c #290303",
"5	c #230304",
"6	c #060C0C",
"7	c #374642",
"8	c #555555",
"9	c #757575",
"0	c #3F514C",
"a	c #262A28",
"b	c #280707",
"c	c #440303",
"d	c #470202",
"e	c #460202",
"f	c #4B0303",
"g	c #29312E",
"h	c #41534E",
"i	c #747374",
"j	c #53605C",
"k	c #3B4B46",
"l	c #1C1918",
"m	c #2F0202",
"n	c #480202",
"o	c #4C0303",
"p	c #270000",
"q	c #1B10FF",
"r	c #4F5E5A",
"s	c #3A4A46",
"t	c #1B1816",
"u	c #300201",
"v	c #490202",
"w	c #290000",
"x	c #3F504C",
"y	c #252826",
"z	c #2A0606",
"A	c #450303",
"B	c #270808",
"C	c #292F2D",
"D	c #313E3B",
"E	c #1B1212",
"F	c #170EDC",
"G	c #0F098B",
"H	c #06043C",
"I	c #01010C",
"J	c #120BAB",
"K	c #727272",
"L	c #747475",
"M	c #727273",
"N	c #4E4E52",
"O	c #4F4E59",
"P	c #13131A",
"........................+@##$%#&#*******=-;>,')!~{",
"..........................]#####*******=--^/(_:<-~",
"...........................[###}******=--|1234567-",
"............................$89******=--0abcdef5gh",
".............................i9*****j--)klmnffop_'",
".....qqqqqqqqqqqqqqqqqqqqqqqqq*******r-)stuvffdw(,",
".....qqqqqqqqqqqqqqqqqqqqqqqqqq*******r)xyzAvncBCh",
".....qqqqqqqqqqqqqqqqqqqqqqqqqqq*******r)DEzumb1^-",
".....qqqqqqqqqqqqqqqqqqqqqqqqqqqq*******r)Dytla|--",
".....qqqqqqqqqqqqqqqqqqqqqqqqqqqqq*******r)xsk0--=",
".....qqqqqqqqqqqqqqqqqqqqqqqqqqqqqq*******r)))--=*",
".....qqqqqqqqqqqqqqqqqqqqqqqqqqqqqqq*******r---=**",
".....qqqqqqqqqqqqqqqqqqqqqqqqqqqqqqqq*******r-=***",
".....qqqqqqqqqqqqqqqqqqqqqqqqqqqqqqqqq*******j****",
".....qqqqqqqqqqqqqqqqqqqqqqqqqqqqqqqqqq***********",
".....qqqqqqqqqqqqqqqqFGHIIHGFqqqqqqqqqqq**********",
".....qqqqqqqqqqqqqqFH........HFqqqqqqqqqq*********",
".....qqqqqqqqqqqqqJ............Jqqqqqqqqqq*******#",
".....qqqqqqqqqqqqJ..............Jqqqqqqqqqq****K##",
".....qqqqqqqqqqqF................Fqqqqqqqqqq*LM##@",
".....qqqqqqqqqqqH................Hqqqqqqqqqqq}####",
".....qqqqqqqqqqF..................Fqqqqqqqqqq.N$%#",
".....qqqqqqqqqqG..................Gqqqqqqqqqq..###",
".....qqqqqqqqqqH..................Hqqqqqqqqqq...O#",
".....qqqqqqqqqqI..................Iqqqqqqqqqq...P$",
".....qqqqqqqqqqI..................Iqqqqqqqqqq.....",
".....qqqqqqqqqqH..................Hqqqqqqqqqq.....",
".....qqqqqqqqqqG..................Gqqqqqqqqqq.....",
".....qqqqqqqqqqF..................Fqqqqqqqqqq.....",
".....qqqqqqqqqqqH................Hqqqqqqqqqqq.....",
".....qqqqqqqqqqqF................Fqqqqqqqqqqq.....",
".....qqqqqqqqqqqqJ..............Jqqqqqqqqqqqq.....",
".....qqqqqqqqqqqqqJ............Jqqqqqqqqqqqqq.....",
".....qqqqqqqqqqqqqqFH........HFqqqqqqqqqqqqqq.....",
".....qqqqqqqqqqqqqqqqFGHIIHGFqqqqqqqqqqqqqqqq.....",
".....qqqqqqqqqqqqqqqqqqqqqqqqqqqqqqqqqqqqqqqq.....",
".....qqqqqqqqqqqqqqqqqqqqqqqqqqqqqqqqqqqqqqqq.....",
".....qqqqqqqqqqqqqqqqqqqqqqqqqqqqqqqqqqqqqqqq.....",
".....qqqqqqqqqqqqqqqqqqqqqqqqqqqqqqqqqqqqqqqq.....",
".....qqqqqqqqqqqqqqqqqqqqqqqqqqqqqqqqqqqqqqqq.....",
".....qqqqqqqqqqqqqqqqqqqqqqqqqqqqqqqqqqqqqqqq.....",
".....qqqqqqqqqqqqqqqqqqqqqqqqqqqqqqqqqqqqqqqq.....",
".....qqqqqqqqqqqqqqqqqqqqqqqqqqqqqqqqqqqqqqqq.....",
".....qqqqqqqqqqqqqqqqqqqqqqqqqqqqqqqqqqqqqqqq.....",
".....qqqqqqqqqqqqqqqqqqqqqqqqqqqqqqqqqqqqqqqq.....",
"..................................................",
"..................................................",
"..................................................",
"..................................................",
".................................................."};
