/* XPM */
static char * 50_xpm[] = {
"50 50 34 1",
" 	c #000000",
".	c #1B10FF",
"+	c #E0151F",
"@	c #2016EE",
"#	c #2D26C4",
"$	c #3B3795",
"%	c #48466B",
"&	c #4E4E55",
"*	c #EAFF35",
"=	c #1B10FE",
"-	c #2921D1",
";	c #47456D",
">	c #505050",
",	c #2319E6",
"'	c #312BB6",
")	c #4F4242",
"!	c #4E2A2A",
"~	c #4C1414",
"{	c #4B0606",
"]	c #4F3B3B",
"^	c #4B0707",
"/	c #4B0303",
"(	c #504E4E",
"_	c #4D2020",
":	c #4C030E",
"<	c #4F0436",
"[	c #520561",
"}	c #55067C",
"|	c #4B0307",
"1	c #51054A",
"2	c #550682",
"3	c #54067B",
"4	c #303030",
"5	c #1C11FF",
"                                                  ",
"                                                  ",
"                                                  ",
"                                                  ",
"                                                  ",
"     ........................................     ",
"     ........................................     ",
"     ........................................     ",
"     ........................................     ",
"     .................++++++.................     ",
"     ............@#$%&++**++&%$#@............     ",
"     .........=-;>>>>>++**++>>>>>;-=.........     ",
"     ........,;>>>>>>>++**++>>>>>>>;,........     ",
"     .......#>>>>>>>>>++**++>>>>>>>>>#.......     ",
"     ......'>>>>>>)!~{++**++{~!)>>>>>>'......     ",
"     .....#>>>>>]^////++**++////^]>>>>>#.....     ",
"     ....,>>>>(_//:<[}++**++}[<://_(>>>>,....     ",
"     ...=;>>>(~/|12222++**++22221|/~(>>>;=...     ",
"     ...->>>>_/:322444++**++444223:/_>>>>-...     ",
"     ...;>>>]/|3222444++**++4442223|/]>>>;...     ",
"     ..@>>>>^/12222444++**++44422221/^>>>>@..     ",
"     ..#>>>)/:22222444++**++44422222:/)>>>#..     ",
"     ..$>>>!/<22222444++**++44422222</!>>>$..     ",
"     ..%>>>~/[24444444++**++44444442[/~>>>%..     ",
"     ..&>>>{/}24444444++**++44444442}/{>>>&..     ",
"     ..&>>>{/}24444444++**++44444442}/{>>>&..     ",
"     ..%>>>~/[24444444++**++44444442[/~>>>%..     ",
"     ..$>>>!/<22222444++**++44422222</!>>>$..     ",
"     ..#>>>)/:22222444++**++44422222:/)>>>#..     ",
"     ..@>>>>^/12222444++**++44422221/^>>>>@..     ",
"     ...;>>>]/|3222444++**++4442223|/]>>>;...     ",
"     ...->>>>_/:322444++**++444223:/_>>>>-...     ",
"     ...=;>>>(~/|12222++**++22221|/~(>>>;=...     ",
"     ....,>>>>(_//:<[}++**++}[<://_(>>>>,....     ",
"     .....#>>>>>]^////++**++////^]>>>>>#.....     ",
"     ......'>>>>>>)!~{++**++{~!)>>>>>>'......     ",
"     .....5.#>>>>>>>>>++**++>>>>>>>>>#.......     ",
"     ........,;>>>>>>>++**++>>>>>>>;,........     ",
"     .........=-;>>>>>++**++>>>>>;-=.........     ",
"     ............@#$%&++**++&%$#@............     ",
"     .................++**++.................     ",
"     ..........5......++++++.................     ",
"     ..............5.........................     ",
"     ........................................     ",
"     ........................................     ",
"                                                  ",
"                                                  ",
"                                                  ",
"                                                  ",
"                                                  "};
